<?xml version="1.0" encoding="UTF-8" standalone="no"?>
<svg
   width="16"
   height="16"
   viewBox="0 0 16 16"
   fill="none"
   version="1.1"
   id="svg4"
   sodipodi:docname="empty-page.svg"
   inkscape:version="1.3.2 (091e20ef0f, 2023-11-25)"
   xmlns:inkscape="http://www.inkscape.org/namespaces/inkscape"
   xmlns:sodipodi="http://sodipodi.sourceforge.net/DTD/sodipodi-0.dtd"
   xmlns="http://www.w3.org/2000/svg"
   xmlns:svg="http://www.w3.org/2000/svg">
  <defs
     id="defs4" />
  <sodipodi:namedview
     id="namedview4"
     pagecolor="#ffffff"
     bordercolor="#111111"
     borderopacity="1"
     inkscape:showpageshadow="0"
     inkscape:pageopacity="0"
     inkscape:pagecheckerboard="1"
     inkscape:deskcolor="#d1d1d1"
     inkscape:zoom="6.140625"
     inkscape:cx="64.569975"
     inkscape:cy="64"
     inkscape:window-width="2560"
     inkscape:window-height="951"
     inkscape:window-x="0"
     inkscape:window-y="32"
     inkscape:window-maximized="1"
     inkscape:current-layer="svg4" />
  <path
     d="M 8.4016723,11.291514 1.6881296,8.7240228 C 1.4411626,8.6295843 1.2404658,8.938649 1.4282761,9.12419 l 6.8881741,6.805168 c 0.09587,0.09472 0.2506784,0.09411 0.3457908,-0.0014 l 7.2652,-7.0460322 C 16.11351,8.6951689 15.911177,8.3879912 15.664967,8.4836351 l -7.08675,2.8074039 c -0.056737,0.02205 -0.1196851,0.02222 -0.1765447,4.72e-4 z"
     fill="#000000"
     fill-opacity="0.1"
     id="path1"
     sodipodi:nodetypes="ccccccccc"
     style="stroke-width:0.121999" />
  <path
     d="M 8.2465463,8.6822396 8.1878403,15.64143 c -0.00183,0.215978 0.2586737,0.327252 0.4145333,0.177018 L 15.831962,8.8509674 c 0.09682,-0.093281 0.09964,-0.2469498 0.0064,-0.3436772 L 8.6673634,1.0752758 C 8.5148047,0.91716048 8.2465463,1.0247037 8.2465463,1.2439818 Z"
     fill="#000000"
     fill-opacity="0.25"
     id="path2"
     style="stroke-width:0.121999" />
  <path
     d="m 2.317074,12.455126 c 0.025624,-0.131375 0.214394,-0.131375 0.2400182,0 l 0.182376,0.935219 c 0.00952,0.04869 0.047776,0.08681 0.096702,0.0963 l 0.9390449,0.181522 c 0.1319226,0.02557 0.1319226,0.213544 0,0.23911 l -0.9390453,0.181646 c -0.048926,0.0094 -0.087191,0.04748 -0.096702,0.0963 l -0.182376,0.935132 c -0.025624,0.131364 -0.2143941,0.131364 -0.2400182,0 L 2.1346853,14.185222 c -0.00951,-0.04882 -0.047763,-0.08693 -0.096702,-0.0963 l -0.939039,-0.181645 c -0.13192493,-0.02557 -0.13192616,-0.213542 -1.2e-6,-0.23911 l 0.9390413,-0.181523 c 0.048937,-0.0095 0.087203,-0.0476 0.096702,-0.0963 z"
     fill="#000000"
     fill-opacity="0.25"
     id="path3"
     style="stroke-width:0.121999" />
  <path
     d="m 13.931061,1.4979783 c 0.02555,-0.1313787 0.21443,-0.1313799 0.23998,-1.2e-6 l 0.182402,0.9351562 c 0.0095,0.048735 0.0478,0.086829 0.0967,0.096301 l 0.939021,0.1816209 c 0.13191,0.025518 0.13191,0.2135183 0,0.2390362 L 14.450143,3.131712 c -0.0489,0.00946 -0.08716,0.047566 -0.0967,0.096301 l -0.182402,0.9351572 c -0.02556,0.1313761 -0.21443,0.1313761 -0.23998,0 l -0.1824,-0.9351562 c -0.0095,-0.048735 -0.0478,-0.086841 -0.0967,-0.096301 L 12.712913,2.9500916 c -0.131922,-0.025518 -0.131922,-0.2135183 0,-0.2390362 l 0.939045,-0.1816209 c 0.0489,-0.00947 0.08716,-0.047567 0.0967,-0.096301 z"
     fill="#000000"
     fill-opacity="0.25"
     id="path4"
     style="stroke-width:0.121999" />
</svg>
