<?xml version="1.0" encoding="UTF-8" standalone="no"?>
<svg
   id="svg4"
   width="16"
   height="16"
   version="1.1"
   sodipodi:docname="feelings-filled-symbolic.svg"
   inkscape:version="1.3.2 (091e20ef0f, 2023-11-25)"
   xmlns:inkscape="http://www.inkscape.org/namespaces/inkscape"
   xmlns:sodipodi="http://sodipodi.sourceforge.net/DTD/sodipodi-0.dtd"
   xmlns="http://www.w3.org/2000/svg"
   xmlns:svg="http://www.w3.org/2000/svg">
  <defs
     id="defs1" />
  <sodipodi:namedview
     id="namedview1"
     pagecolor="#ffffff"
     bordercolor="#111111"
     borderopacity="1"
     inkscape:showpageshadow="0"
     inkscape:pageopacity="0"
     inkscape:pagecheckerboard="1"
     inkscape:deskcolor="#d1d1d1"
     showgrid="true"
     inkscape:zoom="51.125"
     inkscape:cx="9.594132"
     inkscape:cy="8"
     inkscape:window-width="2560"
     inkscape:window-height="983"
     inkscape:window-x="0"
     inkscape:window-y="0"
     inkscape:window-maximized="1"
     inkscape:current-layer="svg4">
    <inkscape:grid
       id="grid1"
       units="px"
       originx="0"
       originy="0"
       spacingx="1"
       spacingy="1"
       empcolor="#0099e5"
       empopacity="0.30196078"
       color="#0099e5"
       opacity="0.14901961"
       empspacing="5"
       dotted="true"
       gridanglex="30"
       gridanglez="30"
       visible="true" />
  </sodipodi:namedview>
  <path
     id="path2"
     style="fill:#241f31;fill-opacity:1;stroke:none;stroke-width:1;stroke-dasharray:none;stroke-opacity:1"
     d="M 8,1 C 4.1340068,1 1,4.1340068 1,8 c 0,3.865993 3.1340068,7 7,7 3.865993,0 7,-3.134007 7,-7 C 15,4.1340068 11.865993,1 8,1 Z m 0,2.3378906 c 2.603827,2.632e-4 4.714581,2.1110165 4.714844,4.7148438 C 12.734141,10.288388 10.19901,12.700477 8,12.716797 5.5782181,12.735849 3.3049795,10.470295 3.2851562,8.0527344 3.2854195,5.4489071 5.3961727,3.3381539 8,3.3378906 Z"
     sodipodi:nodetypes="sssssccccc" />
  <path
     style="color:#000000;fill:#241f31;-inkscape-stroke:none;fill-opacity:1"
     d="M 8,1 C 4.1396896,0.99967368 0.99967422,4.1396892 1,8 c -3.2584e-4,3.860311 3.1396895,7.000326 7,7 3.86031,3.26e-4 7.000326,-3.139689 7,-7 C 15.000326,4.1396891 11.86031,0.99967362 8,1 Z M 8,2.0351563 C 11.300218,2.0348772 13.965122,4.6997814 13.964844,8 13.965122,11.300219 11.300218,13.965123 8,13.964844 4.699782,13.965123 2.0348777,11.300219 2.0351563,8 2.0348777,4.6997815 4.6997821,2.0348773 8,2.0351563 Z M 8,3.2832031 C 5.4006589,3.2828825 3.2828825,5.4006589 3.2832031,8 3.2828824,10.599341 5.4006588,12.717118 8,12.716797 10.599341,12.717118 12.717118,10.599341 12.716797,8 12.717118,5.4006588 10.599341,3.2828824 8,3.2832031 Z M 8,4.3183594 C 10.03922,4.3181077 11.681892,5.9607797 11.681641,8 11.681892,10.03922 10.03922,11.681892 8,11.681641 5.9607797,11.681892 4.3181077,10.03922 4.3183594,8 4.3181078,5.9607798 5.9607798,4.3181078 8,4.3183594 Z"
     id="path1-7-5" />
  <path
     id="path1"
     style="fill:#241f31;stroke-width:0.76338;stroke-opacity:0.355353"
     d="M 10,8 A 2,2 0 0 1 8,10 2,2 0 0 1 6,8 2,2 0 0 1 8,6 2,2 0 0 1 10,8 Z" />
</svg>
