<?xml version="1.0" encoding="UTF-8" standalone="no"?>
<svg
   id="svg4"
   width="16"
   height="16"
   version="1.1"
   sodipodi:docname="graph-symbolic.svg"
   inkscape:version="1.3.2 (091e20ef0f, 2023-11-25)"
   xmlns:inkscape="http://www.inkscape.org/namespaces/inkscape"
   xmlns:sodipodi="http://sodipodi.sourceforge.net/DTD/sodipodi-0.dtd"
   xmlns="http://www.w3.org/2000/svg"
   xmlns:svg="http://www.w3.org/2000/svg">
  <defs
     id="defs1" />
  <sodipodi:namedview
     id="namedview1"
     pagecolor="#ffffff"
     bordercolor="#111111"
     borderopacity="1"
     inkscape:showpageshadow="0"
     inkscape:pageopacity="0"
     inkscape:pagecheckerboard="1"
     inkscape:deskcolor="#d1d1d1"
     showgrid="true"
     inkscape:zoom="51.125"
     inkscape:cx="7.99022"
     inkscape:cy="8"
     inkscape:window-width="2560"
     inkscape:window-height="983"
     inkscape:window-x="0"
     inkscape:window-y="0"
     inkscape:window-maximized="1"
     inkscape:current-layer="svg4">
    <inkscape:grid
       id="grid1"
       units="px"
       originx="0"
       originy="0"
       spacingx="1"
       spacingy="1"
       empcolor="#0099e5"
       empopacity="0.30196078"
       color="#0099e5"
       opacity="0.14901961"
       empspacing="5"
       dotted="true"
       gridanglex="30"
       gridanglez="30"
       visible="true" />
  </sodipodi:namedview>
  <path
     id="path1"
     style="fill:#241f31;stroke-width:0.76338;stroke-opacity:0.355353"
     d="m 2,11 a 2,2 0 0 0 -2,2 2,2 0 0 0 2,2 2,2 0 0 0 2,-2 2,2 0 0 0 -2,-2 z m 0,1 a 1,1 0 0 1 1,1 1,1 0 0 1 -1,1 1,1 0 0 1 -1,-1 1,1 0 0 1 1,-1 z" />
  <path
     id="path1-7"
     style="fill:#241f31;stroke-width:0.76338;stroke-opacity:0.355353"
     d="M 6,5.0000002 A 2,2 0 0 0 4,7 2,2 0 0 0 6,9 2,2 0 0 0 8,7 2,2 0 0 0 6,5.0000002 Z M 6,6 A 1,1 0 0 1 7,7 1,1 0 0 1 6,8 1,1 0 0 1 5,7 1,1 0 0 1 6,6 Z" />
  <path
     id="path1-5"
     style="fill:#241f31;stroke-width:0.76338;stroke-opacity:0.355353"
     d="M 11,9.0000002 A 2,2 0 0 0 9,11 2,2 0 0 0 11,13 2,2 0 0 0 13,11 2,2 0 0 0 11,9.0000002 Z M 11,10 a 1,1 0 0 1 1,1 1,1 0 0 1 -1,1 1,1 0 0 1 -1,-1 1,1 0 0 1 1,-1 z" />
  <path
     id="path1-9"
     style="fill:#241f31;stroke-width:0.76338;stroke-opacity:0.355353"
     d="M 14,1.0000002 A 2,2 0 0 0 12,3 2,2 0 0 0 14,5 2,2 0 0 0 16,3 2,2 0 0 0 14,1.0000002 Z M 14,2 a 1,1 0 0 1 1,1 1,1 0 0 1 -1,1 1,1 0 0 1 -1,-1 1,1 0 0 1 1,-1 z" />
  <path
     style="color:#000000;fill:#241f31;-inkscape-stroke:none"
     d="M 4.5742187,8.1445313 2.5742188,11.386719 3.4257813,11.912109 5.4257812,8.6679688 Z"
     id="path2" />
  <path
     style="color:#000000;fill:#241f31;-inkscape-stroke:none"
     d="M 7.3046875,7.6328125 6.6894531,8.4199219 9.6914063,10.765625 10.308594,9.9765625 Z"
     id="path2-7" />
  <path
     style="color:#000000;fill:#241f31;-inkscape-stroke:none"
     d="m 12.298828,5.859375 -1.074219,3.6542969 0.958985,0.2832031 1.074219,-3.65625 z"
     id="path2-7-3" />
  <path
     style="color:#000000;fill:#241f31;-inkscape-stroke:none"
     d="M 12.835938,4.03125 11.761719,7.6875 12.720703,7.96875 13.794922,4.3125 Z"
     id="path2-7-3-6" />
</svg>
