<?xml version="1.0" encoding="UTF-8" standalone="no"?>
<svg
   id="svg12"
   width="16"
   height="16"
   version="1.1"
   sodipodi:docname="month-filled-symbolic.svg"
   inkscape:version="1.3.2 (091e20ef0f, 2023-11-25)"
   xmlns:inkscape="http://www.inkscape.org/namespaces/inkscape"
   xmlns:sodipodi="http://sodipodi.sourceforge.net/DTD/sodipodi-0.dtd"
   xmlns="http://www.w3.org/2000/svg"
   xmlns:svg="http://www.w3.org/2000/svg"
   xmlns:rdf="http://www.w3.org/1999/02/22-rdf-syntax-ns#"
   xmlns:cc="http://creativecommons.org/ns#"
   xmlns:dc="http://purl.org/dc/elements/1.1/">
  <defs
     id="defs1" />
  <sodipodi:namedview
     id="namedview1"
     pagecolor="#ffffff"
     bordercolor="#111111"
     borderopacity="1"
     inkscape:showpageshadow="0"
     inkscape:pageopacity="0"
     inkscape:pagecheckerboard="1"
     inkscape:deskcolor="#d1d1d1"
     inkscape:zoom="51.125"
     inkscape:cx="7.99022"
     inkscape:cy="6.2787286"
     inkscape:window-width="2560"
     inkscape:window-height="983"
     inkscape:window-x="0"
     inkscape:window-y="0"
     inkscape:window-maximized="1"
     inkscape:current-layer="svg12" />
  <title
     id="title2">Gnome Symbolic Icon Theme</title>
  <g
     id="g10"
     transform="translate(80 72.989)"
     style="fill:#241f31">
    <g
       id="g8"
       fill="#363636"
       transform="matrix(1 0 0 -1 -5e-5 -130)"
       style="fill:#241f31">
      <rect
         id="rect4"
         width="12"
         height="1"
         x="-78"
         y="-63"
         color="#000"
         color-rendering="auto"
         image-rendering="auto"
         shape-rendering="auto"
         solid-color="#000000"
         style="isolation:auto;mix-blend-mode:normal;paint-order:normal;fill:#241f31" />
      <path
         id="path6"
         d="m3 0.98828c-1.108 0-2 0.892-2 2v10c0 1.108 0.892 2 2 2h10c1.108 0 2-0.892 2-2v-10c0-1.108-0.892-2-2-2zm0 1h10c0.554 0 1 0.446 1 1v10c0 0.554-0.446 1-1 1h-10c-0.554 0-1-0.446-1-1v-10c0-0.554 0.446-1 1-1z"
         transform="translate(-80,-72.989)"
         style="fill:#241f31" />
    </g>
  </g>
  <metadata
     id="metadata833">
    <rdf:RDF>
      <cc:Work
         rdf:about="">
        <dc:title>Gnome Symbolic Icon Theme</dc:title>
      </cc:Work>
    </rdf:RDF>
  </metadata>
  <rect
     style="fill:#241f31;stroke-linecap:round;stroke-linejoin:round;stop-color:#000"
     id="rect1313"
     width="10"
     height="1"
     x="3"
     y="7"
     rx=".5"
     ry=".5" />
  <rect
     style="fill:#241f31;stroke-linecap:round;stroke-linejoin:round;stop-color:#000"
     id="rect1315"
     width="10"
     height="1"
     x="3"
     y="9"
     rx=".5"
     ry=".5" />
  <rect
     style="fill:#241f31;stroke-linecap:round;stroke-linejoin:round;stop-color:#000"
     id="rect1317"
     width="10"
     height="1"
     x="3"
     y="11"
     rx=".5"
     ry=".5" />
  <path
     id="rect1"
     style="fill:#241f31;stroke-opacity:0.355353"
     d="M 1.9999501,1.9803348 H 13.99995 V 4.9890001 H 1.9999501 Z" />
</svg>
