<svg width="128" height="128" viewBox="0 0 128 128" fill="none" xmlns="http://www.w3.org/2000/svg">
<mask id="path-1-inside-1_1_2" fill="white">
<path fill-rule="evenodd" clip-rule="evenodd" d="M102.891 25.1091C81.412 3.63029 46.588 3.63029 25.1091 25.1091C3.63029 46.588 3.63029 81.412 25.1091 102.891C46.588 124.37 81.412 124.37 102.891 102.891C124.37 81.412 124.37 46.588 102.891 25.1091ZM64 59.9999C61.7908 59.9999 60 61.7908 60 63.9999C60 66.2091 61.7908 67.9999 64 67.9999C66.2091 67.9999 68 66.2091 68 63.9999C68 61.7908 66.2091 59.9999 64 59.9999Z"/>
</mask>
<path fill-rule="evenodd" clip-rule="evenodd" d="M102.891 25.1091C81.412 3.63029 46.588 3.63029 25.1091 25.1091C3.63029 46.588 3.63029 81.412 25.1091 102.891C46.588 124.37 81.412 124.37 102.891 102.891C124.37 81.412 124.37 46.588 102.891 25.1091ZM64 59.9999C61.7908 59.9999 60 61.7908 60 63.9999C60 66.2091 61.7908 67.9999 64 67.9999C66.2091 67.9999 68 66.2091 68 63.9999C68 61.7908 66.2091 59.9999 64 59.9999Z" fill="url(#paint0_linear_1_2)" fill-opacity="0.2"/>
<path d="M25.1091 25.1091L24.402 24.402L24.402 24.402L25.1091 25.1091ZM102.891 25.1091L103.598 24.402L103.598 24.402L102.891 25.1091ZM25.1091 102.891L24.402 103.598L24.402 103.598L25.1091 102.891ZM102.891 102.891L103.598 103.598L103.598 103.598L102.891 102.891ZM25.8162 25.8162C46.9045 4.72792 81.0954 4.72792 102.184 25.8162L103.598 24.402C81.7286 2.53266 46.2714 2.53266 24.402 24.402L25.8162 25.8162ZM25.8162 102.184C4.72792 81.0954 4.72792 46.9045 25.8162 25.8162L24.402 24.402C2.53266 46.2714 2.53266 81.7286 24.402 103.598L25.8162 102.184ZM102.184 102.184C81.0954 123.272 46.9045 123.272 25.8162 102.184L24.402 103.598C46.2714 125.467 81.7286 125.467 103.598 103.598L102.184 102.184ZM102.184 25.8162C123.272 46.9045 123.272 81.0954 102.184 102.184L103.598 103.598C125.467 81.7286 125.467 46.2714 103.598 24.402L102.184 25.8162ZM61 63.9999C61 62.3431 62.3431 60.9999 64 60.9999V58.9999C61.2386 58.9999 59 61.2385 59 63.9999H61ZM64 66.9999C62.3431 66.9999 61 65.6568 61 63.9999H59C59 66.7613 61.2386 68.9999 64 68.9999V66.9999ZM67 63.9999C67 65.6568 65.6568 66.9999 64 66.9999V68.9999C66.7614 68.9999 69 66.7613 69 63.9999H67ZM64 60.9999C65.6568 60.9999 67 62.3431 67 63.9999H69C69 61.2385 66.7614 58.9999 64 58.9999V60.9999Z" fill="url(#paint1_linear_1_2)" fill-opacity="0.5" mask="url(#path-1-inside-1_1_2)"/>
<mask id="path-3-inside-2_1_2" fill="white">
<path fill-rule="evenodd" clip-rule="evenodd" d="M96.5269 31.4731C78.5628 13.509 49.4372 13.509 31.4731 31.4731C13.509 49.4372 13.509 78.5628 31.4731 96.5269C49.4372 114.491 78.5628 114.491 96.5269 96.5269C114.491 78.5628 114.491 49.4372 96.5269 31.4731ZM64 60C61.7909 60 60 61.7908 60 64C60 66.2091 61.7909 68 64 68C66.2091 68 68 66.2091 68 64C68 61.7908 66.2091 60 64 60Z"/>
</mask>
<path fill-rule="evenodd" clip-rule="evenodd" d="M96.5269 31.4731C78.5628 13.509 49.4372 13.509 31.4731 31.4731C13.509 49.4372 13.509 78.5628 31.4731 96.5269C49.4372 114.491 78.5628 114.491 96.5269 96.5269C114.491 78.5628 114.491 49.4372 96.5269 31.4731ZM64 60C61.7909 60 60 61.7908 60 64C60 66.2091 61.7909 68 64 68C66.2091 68 68 66.2091 68 64C68 61.7908 66.2091 60 64 60Z" fill="url(#paint2_linear_1_2)" fill-opacity="0.2"/>
<path d="M96.5269 31.4731L95.8198 32.1802L95.8198 32.1802L96.5269 31.4731ZM31.4731 96.5269L32.1802 95.8198L32.1802 95.8198L31.4731 96.5269ZM96.5269 96.5269L95.8198 95.8198L95.8198 95.8198L96.5269 96.5269ZM32.1802 32.1802C49.7538 14.6066 78.2462 14.6066 95.8198 32.1802L97.234 30.766C78.8794 12.4113 49.1206 12.4113 30.766 30.766L32.1802 32.1802ZM32.1802 95.8198C14.6066 78.2462 14.6066 49.7538 32.1802 32.1802L30.766 30.766C12.4113 49.1206 12.4113 78.8794 30.766 97.234L32.1802 95.8198ZM95.8198 95.8198C78.2462 113.393 49.7538 113.393 32.1802 95.8198L30.766 97.234C49.1206 115.589 78.8794 115.589 97.234 97.234L95.8198 95.8198ZM95.8198 32.1802C113.393 49.7538 113.393 78.2462 95.8198 95.8198L97.234 97.234C115.589 78.8794 115.589 49.1206 97.234 30.766L95.8198 32.1802ZM61 64C61 62.3431 62.3431 61 64 61V59C61.2386 59 59 61.2385 59 64H61ZM64 67C62.3431 67 61 65.6568 61 64H59C59 66.7614 61.2386 69 64 69V67ZM67 64C67 65.6568 65.6569 67 64 67V69C66.7614 69 69 66.7614 69 64H67ZM64 61C65.6569 61 67 62.3431 67 64H69C69 61.2385 66.7614 59 64 59V61Z" fill="url(#paint3_linear_1_2)" fill-opacity="0.75" mask="url(#path-3-inside-2_1_2)"/>
<g filter="url(#filter0_f_1_2)">
<mask id="path-5-inside-3_1_2" fill="white">
<path d="M39.9584 39.9584C53.2362 26.6806 74.7638 26.6806 88.0416 39.9584C101.319 53.2363 101.319 74.7639 88.0416 88.0417C74.7638 101.32 53.2362 101.32 39.9584 88.0417C26.6806 74.7639 26.6806 53.2363 39.9584 39.9584Z"/>
</mask>
<path d="M39.9584 39.9584C53.2362 26.6806 74.7638 26.6806 88.0416 39.9584C101.319 53.2363 101.319 74.7639 88.0416 88.0417C74.7638 101.32 53.2362 101.32 39.9584 88.0417C26.6806 74.7639 26.6806 53.2363 39.9584 39.9584Z" fill="url(#paint4_radial_1_2)" fill-opacity="0.75"/>
<path d="M40.6655 40.6655C53.5528 27.7782 74.4472 27.7782 87.3345 40.6655L88.7487 39.2513C75.0804 25.583 52.9196 25.583 39.2513 39.2513L40.6655 40.6655ZM87.3345 40.6655C100.222 53.5528 100.222 74.4473 87.3345 87.3346L88.7487 88.7488C102.417 75.0805 102.417 52.9197 88.7487 39.2513L87.3345 40.6655ZM87.3345 87.3346C74.4472 100.222 53.5528 100.222 40.6655 87.3346L39.2513 88.7488C52.9196 102.417 75.0804 102.417 88.7487 88.7488L87.3345 87.3346ZM40.6655 87.3346C27.7782 74.4473 27.7782 53.5528 40.6655 40.6655L39.2513 39.2513C25.5829 52.9197 25.5829 75.0805 39.2513 88.7488L40.6655 87.3346Z" fill="url(#paint5_linear_1_2)" fill-opacity="0.75" mask="url(#path-5-inside-3_1_2)"/>
</g>
<mask id="path-7-inside-4_1_2" fill="white">
<path d="M37.837 37.837C52.2864 23.3877 75.7136 23.3877 90.163 37.837V37.837C104.612 52.2864 104.612 75.7136 90.163 90.1629V90.1629C75.7136 104.612 52.2864 104.612 37.837 90.1629V90.1629C23.3877 75.7136 23.3877 52.2864 37.837 37.837V37.837Z"/>
</mask>
<path d="M37.837 37.837C52.2864 23.3877 75.7136 23.3877 90.163 37.837V37.837C104.612 52.2864 104.612 75.7136 90.163 90.1629V90.1629C75.7136 104.612 52.2864 104.612 37.837 90.1629V90.1629C23.3877 75.7136 23.3877 52.2864 37.837 37.837V37.837Z" fill="url(#paint6_linear_1_2)" fill-opacity="0.2"/>
<path d="M38.5442 89.4558C24.4853 75.397 24.4853 52.603 38.5442 38.5442L37.1299 37.1299C22.29 51.9699 22.29 76.0301 37.1299 90.8701L38.5442 89.4558ZM89.4558 89.4558C75.397 103.515 52.603 103.515 38.5442 89.4558L37.1299 90.8701C51.9699 105.71 76.0301 105.71 90.8701 90.8701L89.4558 89.4558ZM89.4558 38.5442C103.515 52.603 103.515 75.397 89.4558 89.4558L90.8701 90.8701C105.71 76.0301 105.71 51.9699 90.8701 37.1299L89.4558 38.5442ZM90.8701 37.1299C76.0301 22.29 51.9699 22.29 37.1299 37.1299L38.5442 38.5442C52.603 24.4853 75.397 24.4853 89.4558 38.5442L90.8701 37.1299Z" fill="url(#paint7_linear_1_2)" fill-opacity="0.75" mask="url(#path-7-inside-4_1_2)"/>
<mask id="path-9-outside-5_1_2" maskUnits="userSpaceOnUse" x="35" y="35" width="58" height="58" fill="black">
<rect fill="white" x="35" y="35" width="58" height="58"/>
<path fill-rule="evenodd" clip-rule="evenodd" d="M83.799 44.201C72.8643 33.2663 55.1357 33.2663 44.201 44.201C33.2663 55.1357 33.2663 72.8643 44.201 83.799C55.1357 94.7337 72.8643 94.7337 83.799 83.799C94.7337 72.8643 94.7337 55.1357 83.799 44.201ZM64 60C61.7909 60 60 61.7908 60 64C60 66.2091 61.7909 68 64 68C66.2091 68 68 66.2091 68 64C68 61.7908 66.2091 60 64 60Z"/>
</mask>
<path fill-rule="evenodd" clip-rule="evenodd" d="M83.799 44.201C72.8643 33.2663 55.1357 33.2663 44.201 44.201C33.2663 55.1357 33.2663 72.8643 44.201 83.799C55.1357 94.7337 72.8643 94.7337 83.799 83.799C94.7337 72.8643 94.7337 55.1357 83.799 44.201ZM64 60C61.7909 60 60 61.7908 60 64C60 66.2091 61.7909 68 64 68C66.2091 68 68 66.2091 68 64C68 61.7908 66.2091 60 64 60Z" fill="url(#paint8_radial_1_2)" fill-opacity="0.75"/>
<path d="M44.201 44.201L44.9081 44.9081L44.9081 44.9081L44.201 44.201ZM83.799 44.201L83.0919 44.9081L83.0919 44.9081L83.799 44.201ZM44.9081 44.9081C55.4523 34.364 72.5477 34.364 83.0919 44.9081L84.5061 43.4939C73.1809 32.1687 54.8191 32.1687 43.4939 43.4939L44.9081 44.9081ZM44.9081 83.0919C34.364 72.5477 34.364 55.4523 44.9081 44.9081L43.4939 43.4939C32.1687 54.8191 32.1687 73.1809 43.4939 84.5061L44.9081 83.0919ZM83.0919 83.0919C72.5477 93.636 55.4523 93.636 44.9081 83.0919L43.4939 84.5061C54.8191 95.8313 73.1809 95.8313 84.5061 84.5061L83.0919 83.0919ZM83.0919 44.9081C93.636 55.4523 93.636 72.5477 83.0919 83.0919L84.5061 84.5061C95.8313 73.1809 95.8313 54.8191 84.5061 43.4939L83.0919 44.9081ZM61 64C61 62.3431 62.3431 61 64 61V59C61.2386 59 59 61.2385 59 64H61ZM64 67C62.3431 67 61 65.6568 61 64H59C59 66.7614 61.2386 69 64 69V67ZM67 64C67 65.6568 65.6569 67 64 67V69C66.7614 69 69 66.7614 69 64H67ZM64 61C65.6569 61 67 62.3431 67 64H69C69 61.2385 66.7614 59 64 59V61Z" fill="url(#paint9_linear_1_2)" mask="url(#path-9-outside-5_1_2)"/>
<g filter="url(#filter1_i_1_2)">
<rect x="60" y="60" width="8" height="8" rx="4" fill="url(#paint10_linear_1_2)" fill-opacity="0.1"/>
</g>
<rect x="59" y="59" width="10" height="10" rx="5" stroke="#5CB0C1" stroke-width="2"/>
<rect x="60.5" y="60.5" width="7" height="7" rx="3.5" stroke="#5DB0C1"/>
<defs>
<filter id="filter0_f_1_2" x="26" y="26.0001" width="76" height="76" filterUnits="userSpaceOnUse" color-interpolation-filters="sRGB">
<feFlood flood-opacity="0" result="BackgroundImageFix"/>
<feBlend mode="normal" in="SourceGraphic" in2="BackgroundImageFix" result="shape"/>
<feGaussianBlur stdDeviation="2" result="effect1_foregroundBlur_1_2"/>
</filter>
<filter id="filter1_i_1_2" x="58" y="58" width="12" height="14" filterUnits="userSpaceOnUse" color-interpolation-filters="sRGB">
<feFlood flood-opacity="0" result="BackgroundImageFix"/>
<feBlend mode="normal" in="SourceGraphic" in2="BackgroundImageFix" result="shape"/>
<feColorMatrix in="SourceAlpha" type="matrix" values="0 0 0 0 0 0 0 0 0 0 0 0 0 0 0 0 0 0 127 0" result="hardAlpha"/>
<feOffset dy="2"/>
<feGaussianBlur stdDeviation="2"/>
<feComposite in2="hardAlpha" operator="arithmetic" k2="-1" k3="1"/>
<feColorMatrix type="matrix" values="0 0 0 0 0 0 0 0 0 0 0 0 0 0 0 0 0 0 0.38 0"/>
<feBlend mode="normal" in2="shape" result="effect1_innerShadow_1_2"/>
</filter>
<linearGradient id="paint0_linear_1_2" x1="9" y1="9" x2="119.075" y2="119.075" gradientUnits="userSpaceOnUse">
<stop stop-color="#C2F5FF"/>
<stop offset="0.215" stop-color="#F4F6F7"/>
<stop offset="0.75" stop-color="#7DCAD9"/>
<stop offset="1" stop-color="#759399"/>
</linearGradient>
<linearGradient id="paint1_linear_1_2" x1="102.891" y1="25.1091" x2="25.1091" y2="102.891" gradientUnits="userSpaceOnUse">
<stop stop-color="#C8D1D3"/>
<stop offset="0.52" stop-color="#7D8D90"/>
<stop offset="1" stop-color="#C8D1D3"/>
</linearGradient>
<linearGradient id="paint2_linear_1_2" x1="18" y1="18" x2="110.063" y2="110.063" gradientUnits="userSpaceOnUse">
<stop stop-color="#C2F5FF"/>
<stop offset="0.215" stop-color="#F4F6F7"/>
<stop offset="0.75" stop-color="#7DCAD9"/>
<stop offset="1" stop-color="#759399"/>
</linearGradient>
<linearGradient id="paint3_linear_1_2" x1="96.5269" y1="31.4731" x2="31.4731" y2="96.5269" gradientUnits="userSpaceOnUse">
<stop stop-color="#C8D1D3"/>
<stop offset="0.52" stop-color="#435F64"/>
<stop offset="1" stop-color="#C8D1D3"/>
</linearGradient>
<radialGradient id="paint4_radial_1_2" cx="0" cy="0" r="1" gradientUnits="userSpaceOnUse" gradientTransform="translate(64 64.0001) rotate(90) scale(48.0833)">
<stop offset="0.475" stop-color="#86CEDC"/>
<stop offset="1" stop-color="#486E76"/>
</radialGradient>
<linearGradient id="paint5_linear_1_2" x1="98" y1="30.0001" x2="30" y2="98.0001" gradientUnits="userSpaceOnUse">
<stop stop-color="white"/>
<stop offset="0.52" stop-color="#157183"/>
<stop offset="1" stop-color="white"/>
</linearGradient>
<linearGradient id="paint6_linear_1_2" x1="27" y1="27" x2="101.051" y2="101.051" gradientUnits="userSpaceOnUse">
<stop stop-color="#C2F5FF"/>
<stop offset="0.215" stop-color="#F4F6F7"/>
<stop offset="0.75" stop-color="#7DCAD9"/>
<stop offset="1" stop-color="#759399"/>
</linearGradient>
<linearGradient id="paint7_linear_1_2" x1="90.1629" y1="37.8371" x2="37.837" y2="90.163" gradientUnits="userSpaceOnUse">
<stop stop-color="#C8D1D3"/>
<stop offset="0.52" stop-color="#157183"/>
<stop offset="1" stop-color="#C8D1D3"/>
</linearGradient>
<radialGradient id="paint8_radial_1_2" cx="0" cy="0" r="1" gradientUnits="userSpaceOnUse" gradientTransform="translate(64 64) rotate(45) scale(27.0412)">
<stop stop-color="#339DB2"/>
<stop offset="0.72" stop-color="#B1DEE7"/>
<stop offset="0.85" stop-color="#C4E7EE"/>
<stop offset="1" stop-color="#E4F5F8"/>
</radialGradient>
<linearGradient id="paint9_linear_1_2" x1="64" y1="36" x2="64" y2="92" gradientUnits="userSpaceOnUse">
<stop stop-color="#DBEFF2"/>
<stop offset="1" stop-color="#91C6D3"/>
</linearGradient>
<linearGradient id="paint10_linear_1_2" x1="64" y1="60" x2="64" y2="68" gradientUnits="userSpaceOnUse">
<stop stop-color="white" stop-opacity="0.31"/>
<stop offset="1" stop-color="white" stop-opacity="0"/>
</linearGradient>
</defs>
</svg>
