<svg width="128" height="128" viewBox="0 0 128 128" fill="none" xmlns="http://www.w3.org/2000/svg">
<mask id="path-1-outside-1_1_32" maskUnits="userSpaceOnUse" x="8.39527" y="6.77271" width="112" height="111" fill="black">
<rect fill="white" x="8.39527" y="6.77271" width="112" height="111"/>
<path fill-rule="evenodd" clip-rule="evenodd" d="M58.9218 8.69452C55.1118 10.0957 51.9365 13.9446 45.586 21.6424L42.43 25.468C41.0666 27.1206 40.3849 27.947 39.6027 28.6611C38.9082 29.2954 38.1555 29.8629 37.3546 30.3562C36.4528 30.9116 35.4708 31.3396 33.5068 32.1957L33.5068 32.1957L27.6791 34.736C19.1222 38.4659 14.8438 40.3309 12.4846 43.4126C10.4129 46.1189 9.32458 49.45 9.39883 52.8573C9.48339 56.7374 11.8354 60.7687 16.5394 68.8313L20.3564 75.3735C21.3881 77.1417 21.9039 78.0259 22.2921 78.9616C22.6369 79.7926 22.9062 80.6529 23.0969 81.5322C23.3115 82.5223 23.3918 83.5427 23.5526 85.5836L24.08 92.28C24.844 101.979 25.2259 106.829 27.4758 110.126C29.4502 113.02 32.375 115.131 35.7431 116.094C39.581 117.191 44.3042 116.027 53.7507 113.698L58.3544 112.563L58.3545 112.563C60.4959 112.035 61.5666 111.771 62.6511 111.666C63.6142 111.572 64.5841 111.572 65.5471 111.666C66.6316 111.771 67.7023 112.035 69.8436 112.563L69.8439 112.563L74.4476 113.698C83.894 116.027 88.6172 117.191 92.4552 116.094C95.8232 115.131 98.7481 113.02 100.722 110.126C102.972 106.829 103.354 101.979 104.118 92.2801V92.28L104.646 85.5836L104.646 85.5832C104.806 83.5426 104.887 82.5222 105.101 81.5322C105.292 80.6529 105.561 79.7926 105.906 78.9616C106.294 78.0259 106.81 77.1417 107.842 75.3735L111.659 68.8313L111.659 68.8312C116.363 60.7687 118.715 56.7374 118.799 52.8573C118.874 49.45 117.785 46.1189 115.714 43.4126C113.354 40.3309 109.076 38.4659 100.519 34.736L94.6914 32.1957C92.7274 31.3396 91.7454 30.9116 90.8436 30.3562C90.0428 29.8629 89.2901 29.2954 88.5955 28.6611C87.8134 27.947 87.1317 27.1206 85.7683 25.468L82.6123 21.6424C76.2617 13.9446 73.0865 10.0957 69.2764 8.69452C65.9343 7.46543 62.2639 7.46543 58.9218 8.69452ZM65.6828 62.6477C64.9012 61.3355 62.989 61.3355 62.2074 62.6477C61.9244 63.1227 61.4543 63.4606 60.9134 63.5751L60.858 63.5868C59.3826 63.8993 58.8051 65.6966 59.8225 66.8099C60.1979 67.2208 60.3797 67.7743 60.3224 68.328C60.1675 69.8243 61.6787 70.9419 63.0602 70.3466L63.1444 70.3103C63.6555 70.0901 64.2347 70.0901 64.7458 70.3103L64.83 70.3466C66.2115 70.9419 67.7227 69.8243 67.5678 68.328C67.5105 67.7743 67.6923 67.2208 68.0677 66.8099C69.0851 65.6966 68.5076 63.8993 67.0322 63.5868L66.9768 63.5751C66.4358 63.4606 65.9658 63.1227 65.6828 62.6477Z"/>
</mask>
<path fill-rule="evenodd" clip-rule="evenodd" d="M58.9218 8.69452C55.1118 10.0957 51.9365 13.9446 45.586 21.6424L42.43 25.468C41.0666 27.1206 40.3849 27.947 39.6027 28.6611C38.9082 29.2954 38.1555 29.8629 37.3546 30.3562C36.4528 30.9116 35.4708 31.3396 33.5068 32.1957L33.5068 32.1957L27.6791 34.736C19.1222 38.4659 14.8438 40.3309 12.4846 43.4126C10.4129 46.1189 9.32458 49.45 9.39883 52.8573C9.48339 56.7374 11.8354 60.7687 16.5394 68.8313L20.3564 75.3735C21.3881 77.1417 21.9039 78.0259 22.2921 78.9616C22.6369 79.7926 22.9062 80.6529 23.0969 81.5322C23.3115 82.5223 23.3918 83.5427 23.5526 85.5836L24.08 92.28C24.844 101.979 25.2259 106.829 27.4758 110.126C29.4502 113.02 32.375 115.131 35.7431 116.094C39.581 117.191 44.3042 116.027 53.7507 113.698L58.3544 112.563L58.3545 112.563C60.4959 112.035 61.5666 111.771 62.6511 111.666C63.6142 111.572 64.5841 111.572 65.5471 111.666C66.6316 111.771 67.7023 112.035 69.8436 112.563L69.8439 112.563L74.4476 113.698C83.894 116.027 88.6172 117.191 92.4552 116.094C95.8232 115.131 98.7481 113.02 100.722 110.126C102.972 106.829 103.354 101.979 104.118 92.2801V92.28L104.646 85.5836L104.646 85.5832C104.806 83.5426 104.887 82.5222 105.101 81.5322C105.292 80.6529 105.561 79.7926 105.906 78.9616C106.294 78.0259 106.81 77.1417 107.842 75.3735L111.659 68.8313L111.659 68.8312C116.363 60.7687 118.715 56.7374 118.799 52.8573C118.874 49.45 117.785 46.1189 115.714 43.4126C113.354 40.3309 109.076 38.4659 100.519 34.736L94.6914 32.1957C92.7274 31.3396 91.7454 30.9116 90.8436 30.3562C90.0428 29.8629 89.2901 29.2954 88.5955 28.6611C87.8134 27.947 87.1317 27.1206 85.7683 25.468L82.6123 21.6424C76.2617 13.9446 73.0865 10.0957 69.2764 8.69452C65.9343 7.46543 62.2639 7.46543 58.9218 8.69452ZM65.6828 62.6477C64.9012 61.3355 62.989 61.3355 62.2074 62.6477C61.9244 63.1227 61.4543 63.4606 60.9134 63.5751L60.858 63.5868C59.3826 63.8993 58.8051 65.6966 59.8225 66.8099C60.1979 67.2208 60.3797 67.7743 60.3224 68.328C60.1675 69.8243 61.6787 70.9419 63.0602 70.3466L63.1444 70.3103C63.6555 70.0901 64.2347 70.0901 64.7458 70.3103L64.83 70.3466C66.2115 70.9419 67.7227 69.8243 67.5678 68.328C67.5105 67.7743 67.6923 67.2208 68.0677 66.8099C69.0851 65.6966 68.5076 63.8993 67.0322 63.5868L66.9768 63.5751C66.4358 63.4606 65.9658 63.1227 65.6828 62.6477Z" fill="url(#paint0_linear_1_32)" fill-opacity="0.2"/>
<path d="M45.586 21.6424L46.3573 22.2788V22.2788L45.586 21.6424ZM58.9218 8.69452L58.5766 7.75597V7.75597L58.9218 8.69452ZM42.43 25.468L41.6586 24.8316V24.8316L42.43 25.468ZM39.6027 28.6611L38.9284 27.9227L39.6027 28.6611ZM37.3546 30.3562L36.8302 29.5047L37.3546 30.3562ZM33.5068 32.1957L33.8231 33.1444L33.8655 33.1303L33.9064 33.1124L33.5068 32.1957ZM33.5068 32.1957L33.1906 31.2471L33.1482 31.2612L33.1072 31.279L33.5068 32.1957ZM27.6791 34.736L28.0787 35.6527L27.6791 34.736ZM12.4846 43.4126L11.6906 42.8047L11.6906 42.8047L12.4846 43.4126ZM9.39883 52.8573L10.3986 52.8356L9.39883 52.8573ZM16.5394 68.8313L15.6757 69.3352L16.5394 68.8313ZM20.3564 75.3735L19.4927 75.8774L20.3564 75.3735ZM22.2921 78.9616L21.3685 79.3448H21.3685L22.2921 78.9616ZM23.0969 81.5322L24.0742 81.3204L23.0969 81.5322ZM23.5526 85.5836L22.5557 85.6621L23.5526 85.5836ZM24.08 92.28L25.0769 92.2015L24.08 92.28ZM27.4758 110.126L26.6497 110.69L27.4758 110.126ZM35.7431 116.094L35.4682 117.055L35.7431 116.094ZM53.7507 113.698L53.5113 112.727L53.7507 113.698ZM58.3544 112.563L58.5937 113.534L58.6213 113.527L58.6484 113.519L58.3544 112.563ZM58.3545 112.563L58.1151 111.592L58.0876 111.599L58.0604 111.607L58.3545 112.563ZM62.6511 111.666L62.5546 110.67H62.5546L62.6511 111.666ZM65.5471 111.666L65.4506 112.661H65.4506L65.5471 111.666ZM69.8436 112.563L69.6042 113.534L69.6102 113.535L69.8436 112.563ZM69.8439 112.563L70.0833 111.592L70.0773 111.591L69.8439 112.563ZM74.4476 113.698L74.2082 114.669L74.4476 113.698ZM92.4552 116.094L92.7301 117.055H92.7301L92.4552 116.094ZM100.722 110.126L99.8964 109.563V109.563L100.722 110.126ZM104.118 92.2801L105.115 92.3586L105.118 92.3194V92.2801H104.118ZM104.118 92.28L103.121 92.2015L103.118 92.2407V92.28H104.118ZM104.646 85.5836L105.643 85.6621L105.643 85.6501L104.646 85.5836ZM104.646 85.5832L103.649 85.5047L103.648 85.5167L104.646 85.5832ZM105.101 81.5322L106.079 81.7441V81.7441L105.101 81.5322ZM105.906 78.9616L106.83 79.3448L105.906 78.9616ZM107.842 75.3735L106.978 74.8696L107.842 75.3735ZM111.659 68.8313L112.523 69.3352L112.56 69.2713L112.587 69.2027L111.659 68.8313ZM111.659 68.8312L110.795 68.3273L110.758 68.3912L110.73 68.4598L111.659 68.8312ZM118.799 52.8573L117.8 52.8356L118.799 52.8573ZM115.714 43.4126L116.508 42.8047L115.714 43.4126ZM100.519 34.736L100.919 33.8193L100.519 34.736ZM94.6914 32.1957L95.091 31.279L94.6914 32.1957ZM90.8436 30.3562L91.3681 29.5047V29.5047L90.8436 30.3562ZM88.5955 28.6611L87.9212 29.3996L87.9212 29.3996L88.5955 28.6611ZM85.7683 25.468L84.9969 26.1043H84.9969L85.7683 25.468ZM82.6123 21.6424L83.3837 21.006L82.6123 21.6424ZM69.2764 8.69452L69.6216 7.75597V7.75597L69.2764 8.69452ZM62.2074 62.6477L63.0665 63.1594V63.1594L62.2074 62.6477ZM65.6828 62.6477L66.5419 62.1359V62.1359L65.6828 62.6477ZM60.9134 63.5751L61.1205 64.5534L61.1206 64.5534L60.9134 63.5751ZM60.858 63.5868L60.6509 62.6085L60.6509 62.6085L60.858 63.5868ZM59.8225 66.8099L59.0843 67.4845L59.8225 66.8099ZM60.3224 68.328L59.3277 68.225L60.3224 68.328ZM63.0602 70.3466L63.4559 71.265H63.4559L63.0602 70.3466ZM63.1444 70.3103L63.5401 71.2287L63.1444 70.3103ZM64.7458 70.3103L65.1415 69.3919H65.1415L64.7458 70.3103ZM64.83 70.3466L64.4343 71.265L64.83 70.3466ZM67.5678 68.328L68.5625 68.225L67.5678 68.328ZM68.0677 66.8099L68.8059 67.4845H68.8059L68.0677 66.8099ZM67.0322 63.5868L67.2393 62.6085L67.2393 62.6085L67.0322 63.5868ZM66.9768 63.5751L66.7696 64.5534L66.7697 64.5534L66.9768 63.5751ZM46.3573 22.2788C49.5441 18.416 51.8936 15.5694 53.9197 13.5082C55.9397 11.4533 57.563 10.2597 59.267 9.63306L58.5766 7.75597C56.4706 8.53049 54.6012 9.96193 52.4934 12.1062C50.3918 14.2442 47.9784 17.171 44.8146 21.006L46.3573 22.2788ZM43.2013 26.1043L46.3573 22.2788L44.8146 21.006L41.6586 24.8316L43.2013 26.1043ZM40.277 29.3996C41.1232 28.6269 41.8552 27.7361 43.2013 26.1043L41.6586 24.8316C40.2779 26.5051 39.6465 27.267 38.9284 27.9227L40.277 29.3996ZM37.879 31.2076C38.7333 30.6814 39.5362 30.0761 40.277 29.3996L38.9284 27.9227C38.2802 28.5146 37.5776 29.0443 36.8302 29.5047L37.879 31.2076ZM33.9064 33.1124C35.8456 32.2672 36.9034 31.8085 37.879 31.2076L36.8302 29.5047C36.0023 30.0146 35.0961 30.4121 33.1073 31.279L33.9064 33.1124ZM33.8231 33.1444L33.8231 33.1444L33.1906 31.247L33.1906 31.2471L33.8231 33.1444ZM28.0787 35.6527L33.9064 33.1124L33.1072 31.279L27.2795 33.8193L28.0787 35.6527ZM13.2787 44.0205C14.3353 42.6403 15.8549 41.4846 18.2338 40.1968C20.6216 38.9042 23.7843 37.5246 28.0787 35.6527L27.2795 33.8193C23.0171 35.6773 19.762 37.0952 17.2817 38.438C14.7923 39.7856 12.9932 41.1032 11.6906 42.8047L13.2787 44.0205ZM10.3986 52.8356C10.3293 49.6553 11.3451 46.5463 13.2787 44.0205L11.6906 42.8047C9.48077 45.6914 8.31987 49.2446 8.39907 52.8791L10.3986 52.8356ZM17.4032 68.3273C15.0424 64.281 13.3043 61.3003 12.1403 58.8472C10.9806 56.4033 10.4365 54.5733 10.3986 52.8356L8.39907 52.8791C8.44576 55.0215 9.11986 57.1472 10.3334 59.7046C11.5425 62.2528 13.3325 65.319 15.6757 69.3352L17.4032 68.3273ZM21.2201 74.8696L17.4032 68.3273L15.6757 69.3352L19.4927 75.8774L21.2201 74.8696ZM23.2158 78.5783C22.7958 77.566 22.2388 76.6155 21.2201 74.8696L19.4927 75.8774C20.5374 77.668 21.012 78.4857 21.3685 79.3448L23.2158 78.5783ZM24.0742 81.3204C23.8708 80.3825 23.5836 79.4647 23.2158 78.5783L21.3685 79.3448C21.6903 80.1204 21.9417 80.9234 22.1195 81.7441L24.0742 81.3204ZM24.5495 85.5051C24.3908 83.4899 24.3063 82.3915 24.0742 81.3204L22.1195 81.7441C22.3166 82.653 22.3929 83.5955 22.5557 85.6621L24.5495 85.5051ZM25.0769 92.2015L24.5495 85.5051L22.5557 85.6621L23.0831 92.3585L25.0769 92.2015ZM28.3018 109.563C27.295 108.087 26.669 106.215 26.2071 103.44C25.7437 100.655 25.4603 97.0689 25.0769 92.2015L23.0831 92.3585C23.4637 97.1904 23.7533 100.878 24.2342 103.768C24.7168 106.667 25.4067 108.868 26.6497 110.69L28.3018 109.563ZM36.0179 115.132C32.8744 114.234 30.1446 112.263 28.3018 109.563L26.6497 110.69C28.7558 113.776 31.8756 116.028 35.4682 117.055L36.0179 115.132ZM53.5113 112.727C48.7708 113.896 45.2775 114.756 42.4889 115.193C39.7096 115.628 37.7353 115.623 36.0179 115.132L35.4682 117.055C37.5887 117.662 39.895 117.623 42.7984 117.169C45.6925 116.715 49.2841 115.829 53.99 114.669L53.5113 112.727ZM58.115 111.592L53.5113 112.727L53.99 114.669L58.5937 113.534L58.115 111.592ZM58.0604 111.607L58.0603 111.607L58.6484 113.519L58.6486 113.519L58.0604 111.607ZM62.5546 110.67C61.3812 110.784 60.2294 111.071 58.1151 111.592L58.5939 113.534C60.7623 112.999 61.752 112.758 62.7476 112.661L62.5546 110.67ZM65.6437 110.67C64.6164 110.571 63.5819 110.571 62.5546 110.67L62.7476 112.661C63.6465 112.574 64.5517 112.574 65.4506 112.661L65.6437 110.67ZM70.083 111.592C67.9688 111.071 66.817 110.784 65.6437 110.67L65.4506 112.661C66.4462 112.758 67.4359 112.999 69.6042 113.534L70.083 111.592ZM70.0773 111.591L70.077 111.59L69.6102 113.535L69.6105 113.535L70.0773 111.591ZM74.6869 112.727L70.0833 111.592L69.6045 113.534L74.2082 114.669L74.6869 112.727ZM92.1803 115.132C90.4629 115.623 88.4886 115.628 85.7093 115.193C82.9207 114.756 79.4274 113.896 74.6869 112.727L74.2082 114.669C78.9142 115.829 82.5057 116.715 85.3998 117.169C88.3032 117.623 90.6095 117.662 92.7301 117.055L92.1803 115.132ZM99.8964 109.563C98.0537 112.263 95.3238 114.234 92.1803 115.132L92.7301 117.055C96.3227 116.028 99.4425 113.776 101.548 110.69L99.8964 109.563ZM103.121 92.2016C102.738 97.0689 102.455 100.655 101.991 103.44C101.529 106.215 100.903 108.087 99.8964 109.563L101.548 110.69C102.792 108.868 103.481 106.667 103.964 103.768C104.445 100.878 104.735 97.1905 105.115 92.3586L103.121 92.2016ZM103.118 92.28V92.2801H105.118V92.28H103.118ZM103.649 85.5051L103.121 92.2015L105.115 92.3585L105.643 85.6621L103.649 85.5051ZM103.648 85.5167L103.648 85.5171L105.643 85.6501L105.643 85.6497L103.648 85.5167ZM104.124 81.3204C103.892 82.3914 103.807 83.4898 103.649 85.5047L105.643 85.6618C105.805 83.5954 105.882 82.653 106.079 81.7441L104.124 81.3204ZM104.982 78.5783C104.615 79.4647 104.327 80.3825 104.124 81.3204L106.079 81.7441C106.257 80.9234 106.508 80.1204 106.83 79.3448L104.982 78.5783ZM106.978 74.8696C105.959 76.6155 105.402 77.566 104.982 78.5783L106.83 79.3448C107.186 78.4857 107.661 77.668 108.706 75.8774L106.978 74.8696ZM110.795 68.3273L106.978 74.8696L108.706 75.8774L112.523 69.3352L110.795 68.3273ZM110.73 68.4598L110.73 68.4599L112.587 69.2027L112.587 69.2026L110.73 68.4598ZM117.8 52.8356C117.762 54.5733 117.218 56.4033 116.058 58.8472C114.894 61.3003 113.156 64.281 110.795 68.3273L112.523 69.3352C114.866 65.319 116.656 62.2527 117.865 59.7046C119.078 57.1472 119.752 55.0215 119.799 52.8791L117.8 52.8356ZM114.92 44.0205C116.853 46.5463 117.869 49.6553 117.8 52.8356L119.799 52.8791C119.878 49.2446 118.717 45.6914 116.508 42.8047L114.92 44.0205ZM100.12 35.6527C104.414 37.5246 107.577 38.9042 109.964 40.1968C112.343 41.4846 113.863 42.6403 114.92 44.0205L116.508 42.8047C115.205 41.1032 113.406 39.7856 110.917 38.438C108.436 37.0952 105.181 35.6773 100.919 33.8193L100.12 35.6527ZM94.2918 33.1124L100.12 35.6527L100.919 33.8193L95.091 31.279L94.2918 33.1124ZM90.3192 31.2076C91.2949 31.8085 92.3527 32.2672 94.2918 33.1124L95.091 31.279C93.1022 30.4121 92.196 30.0146 91.3681 29.5047L90.3192 31.2076ZM87.9212 29.3996C88.6621 30.0761 89.4649 30.6814 90.3192 31.2076L91.3681 29.5047C90.6206 29.0443 89.9181 28.5146 89.2698 27.9227L87.9212 29.3996ZM84.9969 26.1043C86.3431 27.7361 87.075 28.6269 87.9212 29.3996L89.2698 27.9227C88.5518 27.267 87.9203 26.5051 86.5397 24.8316L84.9969 26.1043ZM81.8409 22.2788L84.9969 26.1043L86.5397 24.8316L83.3837 21.006L81.8409 22.2788ZM68.9313 9.63306C70.6353 10.2597 72.2586 11.4533 74.2785 13.5082C76.3047 15.5694 78.6542 18.416 81.8409 22.2788L83.3837 21.006C80.2198 17.171 77.8064 14.2442 75.7048 12.1062C73.597 9.96193 71.7277 8.53049 69.6216 7.75597L68.9313 9.63306ZM59.267 9.63306C62.3863 8.48592 65.812 8.48592 68.9313 9.63306L69.6216 7.75597C66.0567 6.44495 62.1416 6.44495 58.5766 7.75597L59.267 9.63306ZM63.0665 63.1594C63.4604 62.4982 64.4298 62.4982 64.8237 63.1594L66.5419 62.1359C65.3725 60.1727 62.5177 60.1727 61.3482 62.1359L63.0665 63.1594ZM61.1206 64.5534C61.9359 64.3808 62.6416 63.8728 63.0665 63.1594L61.3482 62.1359C61.2072 62.3727 60.9728 62.5404 60.7062 62.5968L61.1206 64.5534ZM61.0652 64.5652L61.1205 64.5534L60.7063 62.5968L60.6509 62.6085L61.0652 64.5652ZM60.5607 66.1353C60.0651 65.593 60.3464 64.7174 61.0652 64.5652L60.6509 62.6085C58.4188 63.0812 57.5452 65.8002 59.0843 67.4845L60.5607 66.1353ZM61.3171 68.431C61.4037 67.5944 61.1294 66.7577 60.5607 66.1353L59.0843 67.4845C59.2665 67.6839 59.3558 67.9543 59.3277 68.225L61.3171 68.431ZM62.6645 69.4282C61.9899 69.7189 61.2402 69.1736 61.3171 68.431L59.3277 68.225C59.0947 70.475 61.3674 72.1649 63.4559 71.265L62.6645 69.4282ZM62.7487 69.3919L62.6645 69.4282L63.4559 71.265L63.5401 71.2287L62.7487 69.3919ZM65.1415 69.3919C64.3778 69.0629 63.5124 69.0629 62.7487 69.3919L63.5401 71.2287C63.7986 71.1173 64.0916 71.1173 64.3501 71.2287L65.1415 69.3919ZM65.2257 69.4282L65.1415 69.3919L64.3501 71.2287L64.4343 71.265L65.2257 69.4282ZM66.5731 68.431C66.65 69.1736 65.9003 69.7189 65.2257 69.4282L64.4343 71.265C66.5228 72.1649 68.7955 70.475 68.5625 68.225L66.5731 68.431ZM67.3295 66.1353C66.7608 66.7577 66.4865 67.5944 66.5731 68.431L68.5625 68.225C68.5344 67.9543 68.6237 67.6839 68.8059 67.4845L67.3295 66.1353ZM66.825 64.5652C67.5438 64.7174 67.8251 65.593 67.3295 66.1353L68.8059 67.4845C70.345 65.8002 69.4714 63.0812 67.2393 62.6085L66.825 64.5652ZM66.7697 64.5534L66.825 64.5652L67.2393 62.6085L67.1839 62.5968L66.7697 64.5534ZM64.8237 63.1594C65.2486 63.8728 65.9542 64.3808 66.7696 64.5534L67.1839 62.5968C66.9174 62.5404 66.683 62.3727 66.5419 62.1359L64.8237 63.1594Z" fill="url(#paint1_linear_1_32)" fill-opacity="0.5" mask="url(#path-1-outside-1_1_32)"/>
<mask id="path-3-outside-2_1_32" maskUnits="userSpaceOnUse" x="17.9837" y="16.012" width="94" height="93" fill="black">
<rect fill="white" x="17.9837" y="16.012" width="94" height="93"/>
<path fill-rule="evenodd" clip-rule="evenodd" d="M58.8137 18.1662C55.366 19.603 52.44 23.1637 46.5882 30.2852L46.5881 30.2852C45.3337 31.8118 44.7065 32.575 43.9939 33.2428C43.2256 33.9627 42.3837 34.5998 41.482 35.1434C40.6457 35.6476 39.7406 36.0436 37.9306 36.8358L37.9305 36.8358L37.2123 37.1501C28.6852 40.8818 24.4216 42.7476 22.0686 45.8244C20.0022 48.5265 18.9156 51.8508 18.9871 55.2517C19.0685 59.1243 21.4069 63.1482 26.0838 71.1959L26.9839 72.7447C28.0092 74.509 28.5218 75.3912 28.9076 76.3244C29.2503 77.1533 29.5179 78.0112 29.7073 78.8879C29.9205 79.875 30.0003 80.8922 30.1599 82.9266L30.2942 84.6389C30.9883 93.4859 31.3353 97.9093 33.2417 100.997C35.332 104.384 38.6821 106.8 42.5547 107.716C46.0865 108.551 50.3936 107.485 59.0077 105.353L59.0078 105.353C60.968 104.867 61.9481 104.625 62.9393 104.515C64.0324 104.395 65.1353 104.395 66.2283 104.515C67.2196 104.625 68.1997 104.867 70.1599 105.353C78.7741 107.485 83.0812 108.551 86.613 107.716C90.4856 106.8 93.8357 104.384 95.926 100.997C97.8323 97.9093 98.1794 93.4859 98.8734 84.6389L99.0078 82.9266C99.1674 80.8922 99.2472 79.875 99.4604 78.8879C99.6498 78.0112 99.9174 77.1533 100.26 76.3244C100.646 75.3912 101.158 74.5091 102.184 72.7449L102.184 72.7447L103.084 71.1959C107.761 63.1482 110.099 59.1243 110.181 55.2517C110.252 51.8508 109.166 48.5265 107.099 45.8244C104.746 42.7476 100.483 40.8818 91.9553 37.1501L91.2372 36.8358L91.237 36.8357C89.427 36.0436 88.522 35.6476 87.6856 35.1434C86.784 34.5998 85.942 33.9627 85.1738 33.2428C84.4611 32.575 83.8339 31.8118 82.5795 30.2852C76.7276 23.1637 73.8017 19.603 70.3539 18.1662C66.6611 16.6273 62.5065 16.6273 58.8137 18.1662ZM66.0997 60.7951C65.3304 59.4889 63.4354 59.4889 62.6662 60.7951C62.386 61.2708 61.913 61.6099 61.3731 61.7255C59.9 62.041 59.2994 63.8375 60.3093 64.9553C60.6806 65.3663 60.8603 65.9163 60.8039 66.4673C60.6506 67.9641 62.1662 69.075 63.5456 68.4738L63.5867 68.4559C64.0945 68.2346 64.6714 68.2346 65.1791 68.4559L65.2203 68.4738C66.5996 69.075 68.1152 67.9641 67.962 66.4673C67.9056 65.9163 68.0852 65.3663 68.4565 64.9553C69.4664 63.8375 68.8658 62.041 67.3927 61.7255C66.8529 61.6099 66.3799 61.2708 66.0997 60.7951Z"/>
</mask>
<path fill-rule="evenodd" clip-rule="evenodd" d="M58.8137 18.1662C55.366 19.603 52.44 23.1637 46.5882 30.2852L46.5881 30.2852C45.3337 31.8118 44.7065 32.575 43.9939 33.2428C43.2256 33.9627 42.3837 34.5998 41.482 35.1434C40.6457 35.6476 39.7406 36.0436 37.9306 36.8358L37.9305 36.8358L37.2123 37.1501C28.6852 40.8818 24.4216 42.7476 22.0686 45.8244C20.0022 48.5265 18.9156 51.8508 18.9871 55.2517C19.0685 59.1243 21.4069 63.1482 26.0838 71.1959L26.9839 72.7447C28.0092 74.509 28.5218 75.3912 28.9076 76.3244C29.2503 77.1533 29.5179 78.0112 29.7073 78.8879C29.9205 79.875 30.0003 80.8922 30.1599 82.9266L30.2942 84.6389C30.9883 93.4859 31.3353 97.9093 33.2417 100.997C35.332 104.384 38.6821 106.8 42.5547 107.716C46.0865 108.551 50.3936 107.485 59.0077 105.353L59.0078 105.353C60.968 104.867 61.9481 104.625 62.9393 104.515C64.0324 104.395 65.1353 104.395 66.2283 104.515C67.2196 104.625 68.1997 104.867 70.1599 105.353C78.7741 107.485 83.0812 108.551 86.613 107.716C90.4856 106.8 93.8357 104.384 95.926 100.997C97.8323 97.9093 98.1794 93.4859 98.8734 84.6389L99.0078 82.9266C99.1674 80.8922 99.2472 79.875 99.4604 78.8879C99.6498 78.0112 99.9174 77.1533 100.26 76.3244C100.646 75.3912 101.158 74.5091 102.184 72.7449L102.184 72.7447L103.084 71.1959C107.761 63.1482 110.099 59.1243 110.181 55.2517C110.252 51.8508 109.166 48.5265 107.099 45.8244C104.746 42.7476 100.483 40.8818 91.9553 37.1501L91.2372 36.8358L91.237 36.8357C89.427 36.0436 88.522 35.6476 87.6856 35.1434C86.784 34.5998 85.942 33.9627 85.1738 33.2428C84.4611 32.575 83.8339 31.8118 82.5795 30.2852C76.7276 23.1637 73.8017 19.603 70.3539 18.1662C66.6611 16.6273 62.5065 16.6273 58.8137 18.1662ZM66.0997 60.7951C65.3304 59.4889 63.4354 59.4889 62.6662 60.7951C62.386 61.2708 61.913 61.6099 61.3731 61.7255C59.9 62.041 59.2994 63.8375 60.3093 64.9553C60.6806 65.3663 60.8603 65.9163 60.8039 66.4673C60.6506 67.9641 62.1662 69.075 63.5456 68.4738L63.5867 68.4559C64.0945 68.2346 64.6714 68.2346 65.1791 68.4559L65.2203 68.4738C66.5996 69.075 68.1152 67.9641 67.962 66.4673C67.9056 65.9163 68.0852 65.3663 68.4565 64.9553C69.4664 63.8375 68.8658 62.041 67.3927 61.7255C66.8529 61.6099 66.3799 61.2708 66.0997 60.7951Z" fill="url(#paint2_linear_1_32)" fill-opacity="0.2"/>
<path d="M46.5882 30.2852L47.3356 30.9495L47.3485 30.935L47.3608 30.9201L46.5882 30.2852ZM58.8137 18.1662L59.1984 19.0893V19.0893L58.8137 18.1662ZM46.5881 30.2852L45.8407 29.6208L45.8278 29.6353L45.8155 29.6503L46.5881 30.2852ZM43.9939 33.2428L43.3101 32.5131L43.9939 33.2428ZM41.482 35.1434L40.9657 34.287L41.482 35.1434ZM37.9306 36.8358L37.5297 35.9196L37.5206 35.9236L37.5115 35.9278L37.9306 36.8358ZM37.9305 36.8358L38.3314 37.7519L38.3405 37.7479L38.3496 37.7438L37.9305 36.8358ZM37.2123 37.1501L36.8114 36.234L37.2123 37.1501ZM22.0686 45.8244L22.8629 46.4319H22.8629L22.0686 45.8244ZM18.9871 55.2517L19.9868 55.2307L18.9871 55.2517ZM26.0838 71.1959L25.2192 71.6983H25.2192L26.0838 71.1959ZM26.9839 72.7447L27.8485 72.2422L26.9839 72.7447ZM28.9076 76.3244L27.9835 76.7065V76.7065L28.9076 76.3244ZM29.7073 78.8879L28.7298 79.099L28.7298 79.099L29.7073 78.8879ZM30.1599 82.9266L29.1629 83.0048L30.1599 82.9266ZM30.2942 84.6389L31.2912 84.5607L30.2942 84.6389ZM33.2417 100.997L34.0926 100.472L33.2417 100.997ZM42.5547 107.716L42.7847 106.743H42.7847L42.5547 107.716ZM59.0077 105.353L59.248 106.323L59.315 106.307L59.3791 106.281L59.0077 105.353ZM59.0078 105.353L58.7675 104.382L58.7005 104.398L58.6364 104.424L59.0078 105.353ZM62.9393 104.515L63.049 105.509H63.049L62.9393 104.515ZM66.2283 104.515L66.1187 105.509H66.1187L66.2283 104.515ZM70.1599 105.353L69.9196 106.323L70.1599 105.353ZM86.613 107.716L86.3829 106.743L86.613 107.716ZM95.926 100.997L95.075 100.472L95.926 100.997ZM98.8734 84.6389L99.8704 84.7171L98.8734 84.6389ZM99.0078 82.9266L98.0108 82.8483L99.0078 82.9266ZM99.4604 78.8879L100.438 79.099L99.4604 78.8879ZM100.26 76.3244L101.184 76.7065V76.7065L100.26 76.3244ZM102.184 72.7449L101.329 72.225L101.324 72.2337L101.319 72.2425L102.184 72.7449ZM102.184 72.7447L103.038 73.2646L103.043 73.2559L103.048 73.2471L102.184 72.7447ZM103.084 71.1959L102.219 70.6934L103.084 71.1959ZM110.181 55.2517L111.18 55.2728L110.181 55.2517ZM107.099 45.8244L106.305 46.4319L107.099 45.8244ZM91.9553 37.1501L91.5544 38.0662L91.9553 37.1501ZM91.2372 36.8358L90.8205 37.7449L90.8283 37.7485L90.8362 37.7519L91.2372 36.8358ZM91.237 36.8357L91.6537 35.9267L91.6458 35.9231L91.6379 35.9196L91.237 36.8357ZM87.6856 35.1434L87.1693 35.9998V35.9998L87.6856 35.1434ZM85.1738 33.2428L84.49 33.9725L85.1738 33.2428ZM82.5795 30.2852L83.3521 29.6503L82.5795 30.2852ZM70.3539 18.1662L70.7386 17.2432L70.3539 18.1662ZM62.6662 60.7951L61.8045 60.2876H61.8045L62.6662 60.7951ZM66.0997 60.7951L66.9614 60.2876L66.0997 60.7951ZM61.3731 61.7255L61.5825 62.7033L61.5825 62.7033L61.3731 61.7255ZM60.3093 64.9553L61.0513 64.2849L60.3093 64.9553ZM60.8039 66.4673L61.7987 66.5691V66.5691L60.8039 66.4673ZM63.5456 68.4738L63.9451 69.3905H63.9451L63.5456 68.4738ZM63.5867 68.4559L63.1872 67.5391H63.1872L63.5867 68.4559ZM65.1791 68.4559L65.5786 67.5391H65.5786L65.1791 68.4559ZM65.2203 68.4738L64.8207 69.3905H64.8207L65.2203 68.4738ZM67.962 66.4673L66.9672 66.5691L67.962 66.4673ZM68.4565 64.9553L67.7145 64.2849L68.4565 64.9553ZM67.3927 61.7255L67.1833 62.7033L67.1833 62.7033L67.3927 61.7255ZM47.3608 30.9201C50.2972 27.3466 52.4622 24.7131 54.3216 22.7888C56.1758 20.87 57.6572 19.7315 59.1984 19.0893L58.429 17.2432C56.5225 18.0377 54.8171 19.398 52.8834 21.3991C50.9549 23.3948 48.731 26.1024 45.8155 29.6503L47.3608 30.9201ZM47.3355 30.9496L47.3356 30.9495L45.8407 29.6208L45.8407 29.6208L47.3355 30.9496ZM44.6777 33.9725C45.4487 33.25 46.1222 32.4274 47.3607 30.9201L45.8155 29.6503C44.5453 31.1962 43.9644 31.9 43.3101 32.5131L44.6777 33.9725ZM41.9983 35.9998C42.9601 35.4199 43.8582 34.7404 44.6777 33.9725L43.3101 32.5131C42.5931 33.185 41.8073 33.7796 40.9657 34.287L41.9983 35.9998ZM38.3315 37.7519C40.1187 36.9698 41.0935 36.5453 41.9983 35.9998L40.9657 34.287C40.1979 34.7499 39.3626 35.1175 37.5297 35.9196L38.3315 37.7519ZM38.3496 37.7438L38.3496 37.7437L37.5115 35.9278L37.5114 35.9278L38.3496 37.7438ZM37.6133 38.0662L38.3314 37.7519L37.5296 35.9197L36.8114 36.234L37.6133 38.0662ZM22.8629 46.4319C23.9168 45.0538 25.4317 43.8991 27.8024 42.6116C30.1821 41.3191 33.3337 39.939 37.6133 38.0662L36.8114 36.234C32.5638 38.0928 29.32 39.5115 26.8479 40.8541C24.3667 42.2016 22.5733 43.5182 21.2742 45.217L22.8629 46.4319ZM19.9868 55.2307C19.9201 52.0565 20.9343 48.9539 22.8629 46.4319L21.2742 45.217C19.0701 48.0992 17.911 51.6451 17.9873 55.2728L19.9868 55.2307ZM26.9484 70.6934C24.6012 66.6545 22.8732 63.6794 21.7163 61.2309C20.5637 58.7917 20.0233 56.9652 19.9868 55.2307L17.9873 55.2728C18.0322 57.4108 18.7017 59.5325 19.908 62.0853C21.1098 64.6288 22.8895 67.6895 25.2192 71.6983L26.9484 70.6934ZM27.8485 72.2422L26.9484 70.6934L25.2192 71.6983L26.1193 73.2471L27.8485 72.2422ZM29.8318 75.9424C29.4144 74.9327 28.8608 73.9843 27.8485 72.2422L26.1193 73.2471C27.1575 75.0337 27.6293 75.8497 27.9835 76.7065L29.8318 75.9424ZM30.6847 78.6768C30.4827 77.7416 30.1973 76.8265 29.8318 75.9424L27.9835 76.7065C28.3033 77.4801 28.5531 78.2808 28.7298 79.099L30.6847 78.6768ZM31.1568 82.8483C30.9992 80.8396 30.9154 79.7447 30.6847 78.6768L28.7298 79.099C28.9256 80.0053 29.0013 80.9447 29.1629 83.0048L31.1568 82.8483ZM31.2912 84.5607L31.1568 82.8483L29.1629 83.0048L29.2973 84.7171L31.2912 84.5607ZM34.0926 100.472C33.24 99.091 32.7039 97.3629 32.301 94.8212C31.8968 92.2716 31.6395 89.0003 31.2912 84.5607L29.2973 84.7171C29.6431 89.1245 29.9062 92.4884 30.3257 95.1343C30.7464 97.7881 31.3371 99.8158 32.3908 101.523L34.0926 100.472ZM42.7847 106.743C39.1703 105.888 36.0436 103.632 34.0926 100.472L32.3908 101.523C34.6204 105.135 38.1939 107.712 42.3246 108.689L42.7847 106.743ZM58.7675 104.382C54.4447 105.452 51.2592 106.239 48.7124 106.66C46.1733 107.08 44.3644 107.116 42.7847 106.743L42.3246 108.689C44.2768 109.15 46.3873 109.071 49.0383 108.633C51.6814 108.197 54.9566 107.385 59.248 106.323L58.7675 104.382ZM58.6364 104.424L58.6363 104.424L59.3791 106.281L59.3792 106.281L58.6364 104.424ZM62.8297 103.521C61.7572 103.64 60.7029 103.903 58.7675 104.382L59.248 106.323C61.233 105.832 62.1389 105.61 63.049 105.509L62.8297 103.521ZM66.338 103.521C65.1721 103.393 63.9956 103.393 62.8297 103.521L63.049 105.509C64.0691 105.397 65.0985 105.397 66.1187 105.509L66.338 103.521ZM70.4001 104.382C68.4647 103.903 67.4105 103.64 66.338 103.521L66.1187 105.509C67.0288 105.61 67.9347 105.832 69.9196 106.323L70.4001 104.382ZM86.3829 106.743C84.8033 107.116 82.9943 107.08 80.4553 106.66C77.9084 106.239 74.7229 105.452 70.4001 104.382L69.9196 106.323C74.211 107.385 77.4862 108.197 80.1294 108.633C82.7804 109.071 84.8909 109.15 86.8431 108.689L86.3829 106.743ZM95.075 100.472C93.1241 103.632 89.9973 105.888 86.3829 106.743L86.8431 108.689C90.9738 107.712 94.5472 105.135 96.7769 101.523L95.075 100.472ZM97.8765 84.5607C97.5282 89.0003 97.2708 92.2716 96.8667 94.8212C96.4637 97.3629 95.9277 99.091 95.075 100.472L96.7769 101.523C97.8306 99.8158 98.4213 97.7881 98.842 95.1343C99.2614 92.4884 99.5246 89.1245 99.8704 84.7171L97.8765 84.5607ZM98.0108 82.8483L97.8765 84.5607L99.8704 84.7171L100.005 83.0048L98.0108 82.8483ZM98.4829 78.6768C98.2523 79.7447 98.1684 80.8396 98.0108 82.8483L100.005 83.0048C100.166 80.9447 100.242 80.0053 100.438 79.099L98.4829 78.6768ZM99.3359 75.9424C98.9704 76.8265 98.6849 77.7416 98.4829 78.6768L100.438 79.099C100.615 78.2808 100.864 77.4801 101.184 76.7065L99.3359 75.9424ZM101.319 72.2425C100.307 73.9844 99.7532 74.9328 99.3359 75.9424L101.184 76.7065C101.538 75.8497 102.01 75.0338 103.048 73.2474L101.319 72.2425ZM101.33 72.2247L101.329 72.225L103.038 73.2649L103.038 73.2646L101.33 72.2247ZM102.219 70.6934L101.319 72.2422L103.048 73.2471L103.949 71.6983L102.219 70.6934ZM109.181 55.2307C109.144 56.9652 108.604 58.7917 107.451 61.2309C106.294 63.6794 104.566 66.6545 102.219 70.6934L103.949 71.6983C106.278 67.6895 108.058 64.6288 109.26 62.0853C110.466 59.5325 111.135 57.4108 111.18 55.2728L109.181 55.2307ZM106.305 46.4319C108.233 48.9539 109.248 52.0565 109.181 55.2307L111.18 55.2728C111.257 51.6451 110.098 48.0992 107.893 45.217L106.305 46.4319ZM91.5544 38.0662C95.834 39.939 98.9855 41.3191 101.365 42.6116C103.736 43.8991 105.251 45.0538 106.305 46.4319L107.893 45.217C106.594 43.5182 104.801 42.2016 102.32 40.8541C99.8477 39.5115 96.6039 38.0928 92.3562 36.234L91.5544 38.0662ZM90.8362 37.7519L91.5544 38.0662L92.3563 36.234L91.6381 35.9197L90.8362 37.7519ZM90.8204 37.7448L90.8205 37.7449L91.6538 35.9267L91.6537 35.9267L90.8204 37.7448ZM87.1693 35.9998C88.0742 36.5453 89.0489 36.9698 90.8361 37.7519L91.6379 35.9196C89.8051 35.1175 88.9698 34.7499 88.2019 34.287L87.1693 35.9998ZM84.49 33.9725C85.3095 34.7404 86.2075 35.4199 87.1693 35.9998L88.2019 34.287C87.3604 33.7796 86.5746 33.185 85.8575 32.5131L84.49 33.9725ZM81.8069 30.9201C83.0455 32.4274 83.719 33.25 84.49 33.9725L85.8575 32.5131C85.2033 31.9 84.6224 31.1961 83.3521 29.6503L81.8069 30.9201ZM69.9693 19.0893C71.5104 19.7315 72.9919 20.87 74.846 22.7888C76.7054 24.7131 78.8704 27.3465 81.8069 30.9201L83.3521 29.6503C80.4367 26.1024 78.2128 23.3948 76.2843 21.3991C74.3506 19.398 72.6452 18.0377 70.7386 17.2432L69.9693 19.0893ZM59.1984 19.0893C62.645 17.6529 66.5226 17.6529 69.9693 19.0893L70.7386 17.2432C66.7996 15.6016 62.3681 15.6016 58.429 17.2432L59.1984 19.0893ZM63.5278 61.3026C63.9103 60.653 64.8555 60.653 65.238 61.3026L66.9614 60.2876C65.8054 58.3247 62.9605 58.3247 61.8045 60.2876L63.5278 61.3026ZM61.5825 62.7033C62.3939 62.5295 63.1045 62.0214 63.5278 61.3026L61.8045 60.2876C61.6675 60.5203 61.4321 60.6902 61.1637 60.7477L61.5825 62.7033ZM61.0513 64.2849C60.5704 63.7526 60.8434 62.8616 61.5825 62.7033L61.1637 60.7477C58.9567 61.2203 58.0284 63.9223 59.5673 65.6257L61.0513 64.2849ZM61.7987 66.5691C61.8839 65.737 61.6127 64.9063 61.0513 64.2849L59.5673 65.6257C59.7485 65.8263 59.8367 66.0955 59.8091 66.3654L61.7987 66.5691ZM63.1461 67.5571C62.4708 67.8514 61.7231 67.3078 61.7987 66.5691L59.8091 66.3654C59.5782 68.6204 61.8616 70.2985 63.9451 69.3905L63.1461 67.5571ZM63.1872 67.5391L63.1461 67.5571L63.9451 69.3905L63.9863 69.3726L63.1872 67.5391ZM65.5786 67.5391C64.8161 67.2068 63.9497 67.2068 63.1872 67.5391L63.9863 69.3726C64.2392 69.2624 64.5266 69.2624 64.7796 69.3726L65.5786 67.5391ZM65.6198 67.5571L65.5786 67.5391L64.7796 69.3726L64.8207 69.3905L65.6198 67.5571ZM66.9672 66.5691C67.0428 67.3078 66.295 67.8514 65.6198 67.5571L64.8207 69.3905C66.9042 70.2985 69.1876 68.6204 68.9568 66.3654L66.9672 66.5691ZM67.7145 64.2849C67.1531 64.9063 66.882 65.737 66.9672 66.5691L68.9568 66.3654C68.9291 66.0955 69.0173 65.8263 69.1985 65.6257L67.7145 64.2849ZM67.1833 62.7033C67.9225 62.8616 68.1954 63.7526 67.7145 64.2849L69.1985 65.6257C70.7375 63.9223 69.8091 61.2203 67.6022 60.7477L67.1833 62.7033ZM65.238 61.3026C65.6614 62.0214 66.372 62.5295 67.1833 62.7033L67.6022 60.7477C67.3337 60.6902 67.0984 60.5203 66.9614 60.2876L65.238 61.3026Z" fill="url(#paint3_linear_1_32)" fill-opacity="0.75" mask="url(#path-3-outside-2_1_32)"/>
<g filter="url(#filter0_f_1_32)">
<mask id="path-5-outside-3_1_32" maskUnits="userSpaceOnUse" x="32" y="32" width="64" height="64" fill="black">
<rect fill="white" x="32" y="32" width="64" height="64"/>
<path d="M52.3343 42.1888C56.2279 37.0759 58.1747 34.5195 60.553 33.6025C62.6367 32.7992 64.9446 32.7992 67.0282 33.6025C69.4065 34.5195 71.3533 37.0759 75.2469 42.1888L75.4735 42.4863C76.3664 43.6589 76.8129 44.2452 77.3397 44.7448C77.8074 45.1884 78.3214 45.5805 78.8728 45.9143C79.4939 46.2902 80.1774 46.5658 81.5443 47.1171L83.0091 47.7078C88.4543 49.9036 91.1769 51.0015 92.6613 52.8928C93.9637 54.5525 94.6418 56.6169 94.577 58.7256C94.5031 61.1287 92.9617 63.6271 89.8788 68.6239L88.5284 70.8126C87.8007 71.9921 87.4369 72.5818 87.1699 73.2114C86.9328 73.7704 86.7529 74.352 86.6329 74.9473C86.4978 75.6177 86.4651 76.3099 86.3997 77.6942L86.3131 79.5258C86.0201 85.7295 85.8735 88.8314 84.4901 90.9068C83.2773 92.7263 81.4436 94.042 79.3316 94.6082C76.9223 95.254 73.8792 94.3829 67.7929 92.6406C66.2924 92.211 65.5421 91.9963 64.7922 91.9123C64.1266 91.8377 63.4546 91.8377 62.789 91.9123C62.0391 91.9963 61.2889 92.211 59.7883 92.6406C53.702 94.3829 50.6589 95.254 48.2496 94.6082C46.1376 94.042 44.3039 92.7263 43.0911 90.9068C41.7077 88.8314 41.5612 85.7295 41.2681 79.5258L41.1815 77.6942C41.1161 76.3099 41.0834 75.6177 40.9483 74.9473C40.8284 74.352 40.6484 73.7704 40.4113 73.2114C40.1443 72.5818 39.7805 71.9921 39.0528 70.8126L37.7024 68.6239C34.6195 63.6271 33.0781 61.1287 33.0042 58.7256C32.9395 56.6169 33.6175 54.5525 34.92 52.8928C36.4043 51.0015 39.1269 49.9036 44.5721 47.7078L46.0369 47.1171C47.4038 46.5658 48.0873 46.2902 48.7084 45.9143C49.2599 45.5805 49.7738 45.1884 50.2415 44.7448C50.7683 44.2452 51.2148 43.6589 52.1077 42.4863L52.3343 42.1888Z"/>
</mask>
<path d="M52.3343 42.1888C56.2279 37.0759 58.1747 34.5195 60.553 33.6025C62.6367 32.7992 64.9446 32.7992 67.0282 33.6025C69.4065 34.5195 71.3533 37.0759 75.2469 42.1888L75.4735 42.4863C76.3664 43.6589 76.8129 44.2452 77.3397 44.7448C77.8074 45.1884 78.3214 45.5805 78.8728 45.9143C79.4939 46.2902 80.1774 46.5658 81.5443 47.1171L83.0091 47.7078C88.4543 49.9036 91.1769 51.0015 92.6613 52.8928C93.9637 54.5525 94.6418 56.6169 94.577 58.7256C94.5031 61.1287 92.9617 63.6271 89.8788 68.6239L88.5284 70.8126C87.8007 71.9921 87.4369 72.5818 87.1699 73.2114C86.9328 73.7704 86.7529 74.352 86.6329 74.9473C86.4978 75.6177 86.4651 76.3099 86.3997 77.6942L86.3131 79.5258C86.0201 85.7295 85.8735 88.8314 84.4901 90.9068C83.2773 92.7263 81.4436 94.042 79.3316 94.6082C76.9223 95.254 73.8792 94.3829 67.7929 92.6406C66.2924 92.211 65.5421 91.9963 64.7922 91.9123C64.1266 91.8377 63.4546 91.8377 62.789 91.9123C62.0391 91.9963 61.2889 92.211 59.7883 92.6406C53.702 94.3829 50.6589 95.254 48.2496 94.6082C46.1376 94.042 44.3039 92.7263 43.0911 90.9068C41.7077 88.8314 41.5612 85.7295 41.2681 79.5258L41.1815 77.6942C41.1161 76.3099 41.0834 75.6177 40.9483 74.9473C40.8284 74.352 40.6484 73.7704 40.4113 73.2114C40.1443 72.5818 39.7805 71.9921 39.0528 70.8126L37.7024 68.6239C34.6195 63.6271 33.0781 61.1287 33.0042 58.7256C32.9395 56.6169 33.6175 54.5525 34.92 52.8928C36.4043 51.0015 39.1269 49.9036 44.5721 47.7078L46.0369 47.1171C47.4038 46.5658 48.0873 46.2902 48.7084 45.9143C49.2599 45.5805 49.7738 45.1884 50.2415 44.7448C50.7683 44.2452 51.2148 43.6589 52.1077 42.4863L52.3343 42.1888Z" fill="url(#paint4_radial_1_32)" fill-opacity="0.5"/>
<path d="M46.0369 47.1171L45.6629 46.1896L46.0369 47.1171ZM48.7084 45.9143L48.1906 45.0588L48.7084 45.9143ZM52.1077 42.4863L51.3122 41.8805L52.1077 42.4863ZM50.2415 44.7448L49.5534 44.0193L50.2415 44.7448ZM37.7024 68.6239L38.5534 68.0988L37.7024 68.6239ZM44.5721 47.7078L44.9461 48.6352L44.5721 47.7078ZM34.92 52.8928L35.7066 53.5102L34.92 52.8928ZM41.1815 77.6942L40.1827 77.7414L41.1815 77.6942ZM40.9483 74.9473L41.9286 74.7497L40.9483 74.9473ZM40.4113 73.2114L39.4907 73.6019L40.4113 73.2114ZM48.2496 94.6082L47.9907 95.5741L48.2496 94.6082ZM41.2681 79.5258L42.267 79.4786L41.2681 79.5258ZM43.0911 90.9068L42.259 91.4615L43.0911 90.9068ZM64.7922 91.9123L64.9035 90.9185L64.7922 91.9123ZM62.789 91.9123L62.9003 92.9061L62.789 91.9123ZM86.3131 79.5258L85.3143 79.4786L86.3131 79.5258ZM84.4901 90.9068L83.658 90.3522L84.4901 90.9068ZM79.3316 94.6082L79.5905 95.5741L79.3316 94.6082ZM88.5284 70.8126L89.3795 71.3377L88.5284 70.8126ZM87.1699 73.2114L86.2493 72.8209L87.1699 73.2114ZM86.3997 77.6942L85.4008 77.647L86.3997 77.6942ZM86.6329 74.9473L87.6132 75.1449L86.6329 74.9473ZM92.6613 52.8928L91.8746 53.5102L92.6613 52.8928ZM89.8788 68.6239L89.0278 68.0988L89.8788 68.6239ZM94.577 58.7256L93.5774 58.6949L94.577 58.7256ZM75.4735 42.4863L74.6779 43.0922L75.4735 42.4863ZM77.3397 44.7448L76.6515 45.4704L77.3397 44.7448ZM78.8728 45.9143L79.3906 45.0588L78.8728 45.9143ZM67.0282 33.6025L66.6685 34.5356L67.0282 33.6025ZM52.3343 42.1888L51.5387 41.583L52.3343 42.1888ZM60.553 33.6025L60.9127 34.5356L60.553 33.6025ZM74.4514 42.7947L74.6779 43.0922L76.2691 41.8805L76.0425 41.583L74.4514 42.7947ZM81.1703 48.0445L82.6351 48.6352L83.3831 46.7803L81.9183 46.1896L81.1703 48.0445ZM89.0278 68.0988L87.6774 70.2876L89.3795 71.3377L90.7299 69.149L89.0278 68.0988ZM85.4008 77.647L85.3143 79.4786L87.312 79.573L87.3986 77.7414L85.4008 77.647ZM42.267 79.4786L42.1804 77.647L40.1827 77.7414L40.2692 79.573L42.267 79.4786ZM39.9038 70.2876L38.5534 68.0988L36.8513 69.149L38.2017 71.3377L39.9038 70.2876ZM44.9461 48.6352L46.4109 48.0445L45.6629 46.1896L44.1981 46.7803L44.9461 48.6352ZM52.9033 43.0922L53.1299 42.7947L51.5387 41.583L51.3122 41.8805L52.9033 43.0922ZM46.4109 48.0445C47.7489 47.5049 48.5203 47.1971 49.2262 46.7698L48.1906 45.0588C47.6543 45.3834 47.0588 45.6268 45.6629 46.1896L46.4109 48.0445ZM51.3122 41.8805C50.4003 43.0778 50.0082 43.5879 49.5534 44.0193L50.9297 45.4704C51.5284 44.9025 52.0293 44.2399 52.9033 43.0922L51.3122 41.8805ZM49.2262 46.7698C49.8389 46.3989 50.4101 45.9633 50.9297 45.4704L49.5534 44.0193C49.1376 44.4136 48.6808 44.7621 48.1906 45.0588L49.2262 46.7698ZM38.5534 68.0988C37.0026 65.5852 35.8741 63.7543 35.1182 62.2525C34.3664 60.759 34.0342 59.6859 34.0038 58.6949L32.0047 58.7563C32.0481 60.1685 32.5235 61.5461 33.3317 63.1517C34.1357 64.7491 35.3193 66.6658 36.8513 69.149L38.5534 68.0988ZM44.1981 46.7803C41.492 47.8716 39.4025 48.7132 37.808 49.5228C36.2052 50.3366 35.0055 51.1641 34.1333 52.2755L35.7066 53.5102C36.3187 52.7303 37.2225 52.0631 38.7134 51.3061C40.2126 50.545 42.2069 49.7398 44.9461 48.6352L44.1981 46.7803ZM34.0038 58.6949C33.9462 56.8205 34.5489 54.9854 35.7066 53.5102L34.1333 52.2755C32.6861 54.1195 31.9327 56.4133 32.0047 58.7563L34.0038 58.6949ZM42.1804 77.647C42.1164 76.2919 42.0822 75.5117 41.9286 74.7497L39.968 75.1449C40.0847 75.7237 40.1159 76.3278 40.1827 77.7414L42.1804 77.647ZM38.2017 71.3377C38.9448 72.5421 39.2602 73.0583 39.4907 73.6019L41.332 72.8209C41.0285 72.1054 40.6162 71.4421 39.9038 70.2876L38.2017 71.3377ZM41.9286 74.7497C41.7953 74.0883 41.5954 73.4421 41.332 72.8209L39.4907 73.6019C39.7015 74.0988 39.8614 74.6158 39.968 75.1449L41.9286 74.7497ZM59.5131 91.6792C56.4526 92.5553 54.2191 93.1938 52.449 93.5384C50.6846 93.8818 49.4974 93.9074 48.5086 93.6423L47.9907 95.5741C49.4111 95.9548 50.9501 95.8677 52.8312 95.5015C54.7065 95.1364 57.0377 94.4682 60.0635 93.602L59.5131 91.6792ZM40.2692 79.573C40.4149 82.6566 40.5263 85.0349 40.7798 86.8992C41.0344 88.7712 41.4448 90.2399 42.259 91.4615L43.9232 90.3522C43.354 89.4983 42.9994 88.3783 42.7616 86.6296C42.5227 84.8732 42.4144 82.5987 42.267 79.4786L40.2692 79.573ZM48.5086 93.6423C46.6312 93.139 45.0012 91.9695 43.9232 90.3522L42.259 91.4615C43.6066 93.4831 45.644 94.945 47.9907 95.5741L48.5086 93.6423ZM68.0681 91.6792C66.5998 91.2589 65.7561 91.014 64.9035 90.9185L64.6809 92.9061C65.3281 92.9785 65.985 93.1632 67.5177 93.602L68.0681 91.6792ZM60.0635 93.602C61.5963 93.1632 62.2531 92.9785 62.9003 92.9061L62.6777 90.9185C61.8251 91.014 60.9814 91.2589 59.5131 91.6792L60.0635 93.602ZM64.9035 90.9185C64.1639 90.8357 63.4173 90.8357 62.6777 90.9185L62.9003 92.9061C63.492 92.8398 64.0892 92.8398 64.6809 92.9061L64.9035 90.9185ZM85.3143 79.4786C85.1668 82.5987 85.0585 84.8732 84.8196 86.6296C84.5818 88.3783 84.2272 89.4983 83.658 90.3522L85.3222 91.4615C86.1364 90.2399 86.5468 88.7712 86.8014 86.8992C87.0549 85.0349 87.1663 82.6566 87.312 79.573L85.3143 79.4786ZM67.5177 93.602C70.5435 94.4682 72.8747 95.1364 74.75 95.5015C76.6311 95.8677 78.1701 95.9548 79.5905 95.5741L79.0727 93.6423C78.0838 93.9074 76.8966 93.8818 75.1322 93.5384C73.3621 93.1938 71.1286 92.5553 68.0681 91.6792L67.5177 93.602ZM83.658 90.3522C82.58 91.9695 80.95 93.139 79.0727 93.6423L79.5905 95.5741C81.9372 94.945 83.9746 93.4831 85.3222 91.4615L83.658 90.3522ZM87.6774 70.2876C86.965 71.4421 86.5527 72.1054 86.2493 72.8209L88.0905 73.6019C88.321 73.0583 88.6364 72.5421 89.3795 71.3377L87.6774 70.2876ZM87.3986 77.7414C87.4653 76.3278 87.4965 75.7237 87.6132 75.1449L85.6526 74.7497C85.499 75.5117 85.4648 76.2919 85.4008 77.647L87.3986 77.7414ZM86.2493 72.8209C85.9858 73.4421 85.7859 74.0883 85.6526 74.7497L87.6132 75.1449C87.7198 74.6158 87.8797 74.0988 88.0905 73.6019L86.2493 72.8209ZM82.6351 48.6352C85.3743 49.7398 87.3687 50.545 88.8678 51.3061C90.3587 52.0631 91.2625 52.7303 91.8746 53.5102L93.4479 52.2755C92.5757 51.1641 91.376 50.3366 89.7732 49.5228C88.1787 48.7132 86.0892 47.8716 83.3831 46.7803L82.6351 48.6352ZM90.7299 69.149C92.262 66.6658 93.4455 64.7491 94.2495 63.1517C95.0577 61.5461 95.5331 60.1685 95.5765 58.7563L93.5774 58.6949C93.547 59.6859 93.2148 60.759 92.463 62.2525C91.7071 63.7543 90.5786 65.5852 89.0278 68.0988L90.7299 69.149ZM91.8746 53.5102C93.0323 54.9854 93.635 56.8205 93.5774 58.6949L95.5765 58.7563C95.6485 56.4133 94.8951 54.1195 93.4479 52.2755L91.8746 53.5102ZM74.6779 43.0922C75.552 44.2399 76.0528 44.9025 76.6515 45.4704L78.0279 44.0193C77.573 43.5879 77.1809 43.0778 76.2691 41.8805L74.6779 43.0922ZM81.9183 46.1896C80.5225 45.6268 79.9269 45.3834 79.3906 45.0588L78.355 46.7698C79.061 47.1971 79.8323 47.5049 81.1703 48.0445L81.9183 46.1896ZM76.6515 45.4704C77.1712 45.9633 77.7423 46.3989 78.355 46.7698L79.3906 45.0588C78.9005 44.7621 78.4436 44.4136 78.0279 44.0193L76.6515 45.4704ZM76.0425 41.583C74.1069 39.0412 72.6158 37.0816 71.3081 35.6482C69.9958 34.2098 68.7892 33.2097 67.388 32.6695L66.6685 34.5356C67.6456 34.9123 68.6015 35.6489 69.8306 36.9961C71.0643 38.3484 72.4933 40.2235 74.4514 42.7947L76.0425 41.583ZM53.1299 42.7947C55.0879 40.2235 56.517 38.3484 57.7506 36.9961C58.9797 35.6489 59.9356 34.9123 60.9127 34.5356L60.1933 32.6695C58.792 33.2097 57.5854 34.2098 56.2731 35.6482C54.9654 37.0816 53.4743 39.0412 51.5387 41.583L53.1299 42.7947ZM67.388 32.6695C65.0728 31.7768 62.5084 31.7768 60.1933 32.6695L60.9127 34.5356C62.7649 33.8215 64.8163 33.8215 66.6685 34.5356L67.388 32.6695Z" fill="url(#paint5_linear_1_32)" fill-opacity="0.75" mask="url(#path-5-outside-3_1_32)"/>
</g>
<mask id="path-7-outside-4_1_32" maskUnits="userSpaceOnUse" x="26.1203" y="24.883" width="76" height="75" fill="black">
<rect fill="white" x="26.1203" y="24.883" width="76" height="75"/>
<path d="M52.7974 34.6512C56.6527 29.7784 58.5803 27.3421 60.9149 26.4618C62.9615 25.6901 65.219 25.6901 67.2656 26.4618C69.6002 27.3421 71.5278 29.7784 75.3831 34.6512L78.3255 38.3701C79.2304 39.5138 79.6828 40.0857 80.2125 40.5714C80.6828 41.0026 81.1976 41.3825 81.7483 41.7049C82.3685 42.0679 83.0483 42.3318 84.4079 42.8595L89.161 44.7043C94.7863 46.8877 97.5989 47.9794 99.118 49.8992C100.45 51.5831 101.137 53.6878 101.053 55.8333C100.958 58.2796 99.3301 60.8196 96.0737 65.8997L93.1275 70.496C92.3561 71.6994 91.9704 72.3011 91.687 72.9464C91.4354 73.5194 91.2443 74.117 91.1167 74.7296C90.973 75.4196 90.938 76.1334 90.8679 77.5611L90.611 82.7946C90.3098 88.9317 90.1592 92.0003 88.7887 94.0639C87.5872 95.8732 85.7718 97.187 83.6775 97.7628C81.289 98.4196 78.3271 97.6035 72.4033 95.9713L67.9153 94.7348C66.4915 94.3424 65.7796 94.1463 65.0563 94.0682C64.4141 93.9989 63.7664 93.9989 63.1242 94.0682C62.4009 94.1463 61.689 94.3424 60.2652 94.7348L55.7773 95.9713C49.8535 97.6035 46.8916 98.4196 44.503 97.7628C42.4087 97.187 40.5934 95.8732 39.3918 94.0639C38.0213 92.0003 37.8707 88.9317 37.5695 82.7946L37.3126 77.5611C37.2425 76.1334 37.2075 75.4196 37.0638 74.7296C36.9362 74.117 36.7451 73.5194 36.4935 72.9464C36.2102 72.3011 35.8245 71.6994 35.0531 70.496L32.1068 65.8997C28.8504 60.8196 27.2222 58.2796 27.1271 55.8333C27.0437 53.6878 27.7302 51.5831 29.0625 49.8992C30.5816 47.9794 33.3942 46.8877 39.0195 44.7043L43.7726 42.8595C45.1322 42.3318 45.812 42.0679 46.4322 41.7049C46.9829 41.3825 47.4977 41.0026 47.968 40.5714C48.4977 40.0857 48.9501 39.5138 49.855 38.3701L52.7974 34.6512Z"/>
</mask>
<path d="M52.7974 34.6512C56.6527 29.7784 58.5803 27.3421 60.9149 26.4618C62.9615 25.6901 65.219 25.6901 67.2656 26.4618C69.6002 27.3421 71.5278 29.7784 75.3831 34.6512L78.3255 38.3701C79.2304 39.5138 79.6828 40.0857 80.2125 40.5714C80.6828 41.0026 81.1976 41.3825 81.7483 41.7049C82.3685 42.0679 83.0483 42.3318 84.4079 42.8595L89.161 44.7043C94.7863 46.8877 97.5989 47.9794 99.118 49.8992C100.45 51.5831 101.137 53.6878 101.053 55.8333C100.958 58.2796 99.3301 60.8196 96.0737 65.8997L93.1275 70.496C92.3561 71.6994 91.9704 72.3011 91.687 72.9464C91.4354 73.5194 91.2443 74.117 91.1167 74.7296C90.973 75.4196 90.938 76.1334 90.8679 77.5611L90.611 82.7946C90.3098 88.9317 90.1592 92.0003 88.7887 94.0639C87.5872 95.8732 85.7718 97.187 83.6775 97.7628C81.289 98.4196 78.3271 97.6035 72.4033 95.9713L67.9153 94.7348C66.4915 94.3424 65.7796 94.1463 65.0563 94.0682C64.4141 93.9989 63.7664 93.9989 63.1242 94.0682C62.4009 94.1463 61.689 94.3424 60.2652 94.7348L55.7773 95.9713C49.8535 97.6035 46.8916 98.4196 44.503 97.7628C42.4087 97.187 40.5934 95.8732 39.3918 94.0639C38.0213 92.0003 37.8707 88.9317 37.5695 82.7946L37.3126 77.5611C37.2425 76.1334 37.2075 75.4196 37.0638 74.7296C36.9362 74.117 36.7451 73.5194 36.4935 72.9464C36.2102 72.3011 35.8245 71.6994 35.0531 70.496L32.1068 65.8997C28.8504 60.8196 27.2222 58.2796 27.1271 55.8333C27.0437 53.6878 27.7302 51.5831 29.0625 49.8992C30.5816 47.9794 33.3942 46.8877 39.0195 44.7043L43.7726 42.8595C45.1322 42.3318 45.812 42.0679 46.4322 41.7049C46.9829 41.3825 47.4977 41.0026 47.968 40.5714C48.4977 40.0857 48.9501 39.5138 49.855 38.3701L52.7974 34.6512Z" fill="url(#paint6_linear_1_32)" fill-opacity="0.2"/>
<path d="M46.4322 41.7049L45.927 40.8419L46.4322 41.7049ZM49.855 38.3701L49.0708 37.7496L49.855 38.3701ZM47.968 40.5714L48.6438 41.3084L47.968 40.5714ZM32.1068 65.8997L31.2649 66.4394L32.1068 65.8997ZM27.1271 55.8333L28.1264 55.7945L27.1271 55.8333ZM29.0625 49.8992L29.8467 50.5197L29.0625 49.8992ZM37.3126 77.5611L36.3138 77.6101L37.3126 77.5611ZM37.0638 74.7296L36.0848 74.9335L37.0638 74.7296ZM36.4935 72.9464L37.4091 72.5444L36.4935 72.9464ZM55.7773 95.9713L56.0429 96.9354L55.7773 95.9713ZM44.503 97.7628L44.2379 98.7271L44.503 97.7628ZM37.5695 82.7946L36.5707 82.8436L37.5695 82.7946ZM39.3918 94.0639L38.5587 94.6171L39.3918 94.0639ZM67.9153 94.7348L68.181 93.7707L67.9153 94.7348ZM65.0563 94.0682L65.1636 93.074L65.0563 94.0682ZM60.2652 94.7348L59.9995 93.7707L60.2652 94.7348ZM63.1242 94.0682L63.2316 95.0624L63.1242 94.0682ZM90.611 82.7946L89.6122 82.7456L90.611 82.7946ZM88.7887 94.0639L87.9557 93.5107L88.7887 94.0639ZM83.6775 97.7628L83.4124 96.7986L83.6775 97.7628ZM93.1275 70.496L92.2856 69.9563L93.1275 70.496ZM91.687 72.9464L92.6026 73.3484L91.687 72.9464ZM90.8679 77.5611L91.8667 77.6101L90.8679 77.5611ZM91.1167 74.7296L92.0957 74.9335L91.1167 74.7296ZM89.161 44.7043L89.5228 43.7721L89.161 44.7043ZM99.118 49.8992L99.9022 49.2787L99.118 49.8992ZM101.053 55.8333L102.053 55.8722L101.053 55.8333ZM78.3255 38.3701L79.1097 37.7496L78.3255 38.3701ZM80.2125 40.5714L79.5367 41.3084L80.2125 40.5714ZM81.7483 41.7049L82.2535 40.8419L81.7483 41.7049ZM75.3831 34.6512L76.1673 34.0307L75.3831 34.6512ZM67.2656 26.4618L66.9128 27.3975L67.2656 26.4618ZM60.9149 26.4618L60.5621 25.5261L60.9149 26.4618ZM74.5989 35.2717L77.5412 38.9905L79.1097 37.7496L76.1673 34.0307L74.5989 35.2717ZM84.0461 43.7917L88.7992 45.6366L89.5228 43.7721L84.7697 41.9273L84.0461 43.7917ZM95.2318 65.36L92.2856 69.9563L93.9693 71.0357L96.9156 66.4394L95.2318 65.36ZM89.8691 77.5121L89.6122 82.7456L91.6098 82.8436L91.8667 77.6101L89.8691 77.5121ZM72.6689 95.0072L68.181 93.7707L67.6497 95.6988L72.1376 96.9354L72.6689 95.0072ZM59.9995 93.7707L55.5116 95.0072L56.0429 96.9354L60.5308 95.6988L59.9995 93.7707ZM38.5683 82.7456L38.3114 77.5121L36.3138 77.6101L36.5707 82.8436L38.5683 82.7456ZM35.8949 69.9563L32.9487 65.36L31.2649 66.4394L34.2112 71.0357L35.8949 69.9563ZM39.3813 45.6366L44.1344 43.7917L43.4108 41.9273L38.6577 43.7721L39.3813 45.6366ZM50.6393 38.9905L53.5816 35.2717L52.0132 34.0307L49.0708 37.7496L50.6393 38.9905ZM44.1344 43.7917C45.4653 43.2752 46.2325 42.9805 46.9374 42.5679L45.927 40.8419C45.3915 41.1553 44.7991 41.3884 43.4108 41.9273L44.1344 43.7917ZM49.0708 37.7496C48.1468 38.9175 47.7495 39.4149 47.2921 39.8343L48.6438 41.3084C49.2458 40.7564 49.7535 40.1101 50.6393 38.9905L49.0708 37.7496ZM46.9374 42.5679C47.5492 42.2097 48.1212 41.7875 48.6438 41.3084L47.2921 39.8343C46.8741 40.2176 46.4165 40.5554 45.927 40.8419L46.9374 42.5679ZM32.9487 65.36C31.3107 62.8048 30.1181 60.9426 29.3172 59.4146C28.5202 57.8942 28.1655 56.8022 28.1264 55.7945L26.1279 55.8722C26.1838 57.3108 26.6907 58.7119 27.5458 60.3431C28.3968 61.9667 29.6464 63.9145 31.2649 66.4394L32.9487 65.36ZM38.6577 43.7721C35.8618 44.8573 33.7041 45.6938 32.0595 46.5034C30.4071 47.3169 29.1716 48.1497 28.2783 49.2787L29.8467 50.5197C30.4725 49.7289 31.4028 49.056 32.9429 48.2978C34.4906 47.5358 36.5519 46.7348 39.3813 45.6366L38.6577 43.7721ZM28.1264 55.7945C28.0522 53.8873 28.6624 52.0165 29.8467 50.5197L28.2783 49.2787C26.7979 51.1496 26.0352 53.4882 26.1279 55.8722L28.1264 55.7945ZM38.3114 77.5121C38.2428 76.1146 38.2061 75.3099 38.0428 74.5257L36.0848 74.9335C36.2089 75.5292 36.2422 76.1523 36.3138 77.6101L38.3114 77.5121ZM34.2112 71.0357C34.9989 72.2645 35.3332 72.7913 35.5779 73.3484L37.4091 72.5444C37.0871 71.8109 36.65 71.1343 35.8949 69.9563L34.2112 71.0357ZM38.0428 74.5257C37.901 73.845 37.6886 73.181 37.4091 72.5444L35.5779 73.3484C35.8015 73.8577 35.9714 74.389 36.0848 74.9335L38.0428 74.5257ZM55.5116 95.0072C52.5322 95.8282 50.3604 96.4256 48.6342 96.7418C46.9161 97.0565 45.7513 97.069 44.7681 96.7986L44.2379 98.7271C45.6433 99.1135 47.1537 99.0462 48.9946 98.7091C50.8275 98.3733 53.0985 97.7466 56.0429 96.9354L55.5116 95.0072ZM36.5707 82.8436C36.7204 85.894 36.835 88.2472 37.089 90.0931C37.3441 91.9472 37.7524 93.403 38.5587 94.6171L40.2248 93.5107C39.6607 92.6613 39.3084 91.5509 39.0703 89.8205C38.8311 88.082 38.7198 85.8323 38.5683 82.7456L36.5707 82.8436ZM44.7681 96.7986C42.9066 96.2868 41.2929 95.119 40.2248 93.5107L38.5587 94.6171C39.8938 96.6275 41.9109 98.0872 44.2379 98.7271L44.7681 96.7986ZM68.181 93.7707C66.7873 93.3867 65.9857 93.1627 65.1636 93.074L64.9489 95.0624C65.5734 95.1299 66.1957 95.2982 67.6497 95.6988L68.181 93.7707ZM60.5308 95.6988C61.9848 95.2982 62.6071 95.1299 63.2316 95.0624L63.0169 93.074C62.1948 93.1627 61.3933 93.3867 59.9995 93.7707L60.5308 95.6988ZM65.1636 93.074C64.4501 92.997 63.7304 92.997 63.0169 93.074L63.2316 95.0624C63.8024 95.0008 64.3781 95.0008 64.9489 95.0624L65.1636 93.074ZM89.6122 82.7456C89.4607 85.8323 89.3494 88.082 89.1102 89.8205C88.8721 91.5509 88.5198 92.6613 87.9557 93.5107L89.6218 94.6171C90.4281 93.403 90.8364 91.9472 91.0915 90.0931C91.3455 88.2472 91.4601 85.894 91.6098 82.8436L89.6122 82.7456ZM72.1376 96.9354C75.082 97.7467 77.353 98.3733 79.1859 98.7091C81.0268 99.0462 82.5372 99.1135 83.9426 98.7271L83.4124 96.7986C82.4292 97.069 81.2644 97.0565 79.5463 96.7418C77.8201 96.4256 75.6483 95.8282 72.6689 95.0072L72.1376 96.9354ZM87.9557 93.5107C86.8876 95.119 85.274 96.2868 83.4124 96.7986L83.9426 98.7271C86.2696 98.0872 88.2867 96.6275 89.6218 94.6171L87.9557 93.5107ZM92.2856 69.9563C91.5305 71.1343 91.0934 71.8109 90.7714 72.5444L92.6026 73.3484C92.8473 72.7913 93.1816 72.2645 93.9693 71.0357L92.2856 69.9563ZM91.8667 77.6101C91.9383 76.1523 91.9716 75.5292 92.0957 74.9335L90.1377 74.5257C89.9744 75.3099 89.9377 76.1146 89.8691 77.5121L91.8667 77.6101ZM90.7714 72.5444C90.4919 73.181 90.2795 73.845 90.1377 74.5257L92.0957 74.9335C92.2091 74.389 92.379 73.8577 92.6026 73.3484L90.7714 72.5444ZM88.7992 45.6366C91.6286 46.7348 93.6899 47.5358 95.2377 48.2978C96.7777 49.056 97.7081 49.7289 98.3338 50.5197L99.9022 49.2787C99.0089 48.1497 97.7734 47.3169 96.121 46.5034C94.4764 45.6938 92.3187 44.8573 89.5228 43.7721L88.7992 45.6366ZM96.9156 66.4394C98.5341 63.9145 99.7837 61.9667 100.635 60.3431C101.49 58.7119 101.997 57.3108 102.053 55.8722L100.054 55.7945C100.015 56.8022 99.6603 57.8942 98.8633 59.4146C98.0624 60.9426 96.8698 62.8048 95.2318 65.36L96.9156 66.4394ZM98.3338 50.5197C99.5181 52.0165 100.128 53.8873 100.054 55.7945L102.053 55.8722C102.145 53.4882 101.383 51.1496 99.9022 49.2787L98.3338 50.5197ZM77.5412 38.9905C78.427 40.1101 78.9347 40.7564 79.5367 41.3084L80.8884 39.8343C80.431 39.4149 80.0337 38.9175 79.1097 37.7496L77.5412 38.9905ZM84.7697 41.9273C83.3814 41.3884 82.789 41.1553 82.2535 40.8419L81.2431 42.5679C81.948 42.9805 82.7152 43.2752 84.0461 43.7917L84.7697 41.9273ZM79.5367 41.3084C80.0593 41.7875 80.6313 42.2097 81.2431 42.5679L82.2535 40.8419C81.764 40.5554 81.3064 40.2176 80.8884 39.8343L79.5367 41.3084ZM76.1673 34.0307C74.251 31.6087 72.7738 29.7401 71.4808 28.3723C70.1824 26.9989 68.9925 26.0442 67.6184 25.5261L66.9128 27.3975C67.8733 27.7597 68.8145 28.4633 70.0274 29.7463C71.2457 31.035 72.6599 32.821 74.5989 35.2717L76.1673 34.0307ZM53.5816 35.2717C55.5206 32.821 56.9348 31.035 58.1531 29.7463C59.366 28.4633 60.3072 27.7597 61.2677 27.3975L60.5621 25.5261C59.188 26.0442 57.9981 26.9989 56.6997 28.3723C55.4067 29.7401 53.9295 31.6087 52.0132 34.0307L53.5816 35.2717ZM67.6184 25.5261C65.3444 24.6687 62.8361 24.6687 60.5621 25.5261L61.2677 27.3975C63.0869 26.7115 65.0936 26.7115 66.9128 27.3975L67.6184 25.5261Z" fill="url(#paint7_linear_1_32)" fill-opacity="0.75" mask="url(#path-7-outside-4_1_32)"/>
<g filter="url(#filter1_f_1_32)">
<mask id="path-9-outside-5_1_32" maskUnits="userSpaceOnUse" x="25.9902" y="25.5471" width="77" height="74" fill="black">
<rect fill="white" x="25.9902" y="25.5471" width="77" height="74"/>
<path fill-rule="evenodd" clip-rule="evenodd" d="M61.8697 26.9553C60.2722 27.5768 58.9694 29.3148 56.3637 32.7908L50.0393 41.2274L50.0393 41.2274C49.3861 42.0988 49.0594 42.5345 48.6681 42.8989C48.3208 43.2223 47.9363 43.5034 47.5228 43.7362C47.0568 43.9985 46.5426 44.1775 45.514 44.5356L35.4924 48.0241L35.4924 48.0241C31.438 49.4355 29.4108 50.1412 28.3368 51.4607C27.3958 52.6168 26.9189 54.0817 26.9988 55.5702C27.0901 57.2692 28.3133 59.0331 30.7596 62.5609L36.8832 71.3917C37.4987 72.2794 37.8065 72.7232 38.0276 73.2055C38.2239 73.6335 38.3691 74.0831 38.4602 74.5451C38.5629 75.0656 38.5728 75.6056 38.5927 76.6856L38.7895 87.3883C38.869 91.7122 38.9087 93.8742 39.836 95.31C40.6483 96.5677 41.9014 97.4763 43.3494 97.8574C45.0023 98.2924 47.0695 97.6581 51.2039 96.3895L61.229 93.3134C62.2754 92.9923 62.7987 92.8318 63.3322 92.7679C63.8057 92.7113 64.2843 92.7113 64.7578 92.7679C65.2914 92.8318 65.8146 92.9923 66.8611 93.3134L76.8861 96.3895C81.0205 97.6581 83.0877 98.2924 84.7407 97.8574C86.1886 97.4763 87.4417 96.5677 88.254 95.31C89.1813 93.8742 89.221 91.7122 89.3005 87.3883L89.4973 76.6856C89.5172 75.6056 89.5271 75.0656 89.6298 74.5451C89.7209 74.0831 89.8661 73.6335 90.0624 73.2055C90.2835 72.7232 90.5913 72.2794 91.2068 71.3917L97.3304 62.5609C99.7767 59.0331 101 57.2692 101.091 55.5702C101.171 54.0817 100.694 52.6168 99.7532 51.4607C98.6792 50.1412 96.652 49.4355 92.5976 48.0241L82.576 44.5356C81.5475 44.1775 81.0332 43.9985 80.5672 43.7362C80.1537 43.5034 79.7692 43.2223 79.4219 42.8989C79.0306 42.5345 78.7039 42.0988 78.0507 41.2274L71.7264 32.7908C69.1206 29.3148 67.8178 27.5768 66.2204 26.9553C64.8212 26.411 63.2688 26.411 61.8697 26.9553ZM65.7436 60.5148C64.974 59.199 63.07 59.199 62.3004 60.5148C62.0191 60.9958 61.5463 61.3374 61.0016 61.4549C59.5151 61.7754 58.9209 63.584 59.9365 64.7158C60.3091 65.131 60.4893 65.6844 60.4329 66.2394C60.2791 67.7516 61.8253 68.864 63.2172 68.2532C63.7281 68.0291 64.3159 68.0291 64.8268 68.2532C66.2187 68.864 67.7649 67.7516 67.6111 66.2394C67.5547 65.6844 67.7349 65.131 68.1075 64.7158C69.1231 63.584 68.5289 61.7754 67.0424 61.4549C66.4977 61.3374 66.025 60.9958 65.7436 60.5148Z"/>
</mask>
<path fill-rule="evenodd" clip-rule="evenodd" d="M61.8697 26.9553C60.2722 27.5768 58.9694 29.3148 56.3637 32.7908L50.0393 41.2274L50.0393 41.2274C49.3861 42.0988 49.0594 42.5345 48.6681 42.8989C48.3208 43.2223 47.9363 43.5034 47.5228 43.7362C47.0568 43.9985 46.5426 44.1775 45.514 44.5356L35.4924 48.0241L35.4924 48.0241C31.438 49.4355 29.4108 50.1412 28.3368 51.4607C27.3958 52.6168 26.9189 54.0817 26.9988 55.5702C27.0901 57.2692 28.3133 59.0331 30.7596 62.5609L36.8832 71.3917C37.4987 72.2794 37.8065 72.7232 38.0276 73.2055C38.2239 73.6335 38.3691 74.0831 38.4602 74.5451C38.5629 75.0656 38.5728 75.6056 38.5927 76.6856L38.7895 87.3883C38.869 91.7122 38.9087 93.8742 39.836 95.31C40.6483 96.5677 41.9014 97.4763 43.3494 97.8574C45.0023 98.2924 47.0695 97.6581 51.2039 96.3895L61.229 93.3134C62.2754 92.9923 62.7987 92.8318 63.3322 92.7679C63.8057 92.7113 64.2843 92.7113 64.7578 92.7679C65.2914 92.8318 65.8146 92.9923 66.8611 93.3134L76.8861 96.3895C81.0205 97.6581 83.0877 98.2924 84.7407 97.8574C86.1886 97.4763 87.4417 96.5677 88.254 95.31C89.1813 93.8742 89.221 91.7122 89.3005 87.3883L89.4973 76.6856C89.5172 75.6056 89.5271 75.0656 89.6298 74.5451C89.7209 74.0831 89.8661 73.6335 90.0624 73.2055C90.2835 72.7232 90.5913 72.2794 91.2068 71.3917L97.3304 62.5609C99.7767 59.0331 101 57.2692 101.091 55.5702C101.171 54.0817 100.694 52.6168 99.7532 51.4607C98.6792 50.1412 96.652 49.4355 92.5976 48.0241L82.576 44.5356C81.5475 44.1775 81.0332 43.9985 80.5672 43.7362C80.1537 43.5034 79.7692 43.2223 79.4219 42.8989C79.0306 42.5345 78.7039 42.0988 78.0507 41.2274L71.7264 32.7908C69.1206 29.3148 67.8178 27.5768 66.2204 26.9553C64.8212 26.411 63.2688 26.411 61.8697 26.9553ZM65.7436 60.5148C64.974 59.199 63.07 59.199 62.3004 60.5148C62.0191 60.9958 61.5463 61.3374 61.0016 61.4549C59.5151 61.7754 58.9209 63.584 59.9365 64.7158C60.3091 65.131 60.4893 65.6844 60.4329 66.2394C60.2791 67.7516 61.8253 68.864 63.2172 68.2532C63.7281 68.0291 64.3159 68.0291 64.8268 68.2532C66.2187 68.864 67.7649 67.7516 67.6111 66.2394C67.5547 65.6844 67.7349 65.131 68.1075 64.7158C69.1231 63.584 68.5289 61.7754 67.0424 61.4549C66.4977 61.3374 66.025 60.9958 65.7436 60.5148Z" fill="url(#paint8_radial_1_32)" fill-opacity="0.5"/>
<path d="M56.3637 32.7908L57.1638 33.3906L56.3637 32.7908ZM61.8697 26.9553L62.2322 27.8873L62.2322 27.8873L61.8697 26.9553ZM50.0393 41.2274L50.8393 41.8274L50.8395 41.8272L50.0393 41.2274ZM50.0393 41.2274L49.2393 40.6274L49.2392 40.6276L50.0393 41.2274ZM48.6681 42.8989L47.9867 42.167L47.9867 42.167L48.6681 42.8989ZM47.5228 43.7362L47.0322 42.8648L47.5228 43.7362ZM45.514 44.5356L45.8428 45.48L45.514 44.5356ZM35.4924 48.0241L35.1637 47.0797L35.1244 47.0934L35.0863 47.1103L35.4924 48.0241ZM35.4924 48.0241L35.8212 48.9685L35.8605 48.9549L35.8985 48.9379L35.4924 48.0241ZM28.3368 51.4607L29.1123 52.092H29.1123L28.3368 51.4607ZM26.9988 55.5702L27.9974 55.5165L26.9988 55.5702ZM30.7596 62.5609L31.5814 61.9911V61.9911L30.7596 62.5609ZM36.8832 71.3917L36.0614 71.9615H36.0614L36.8832 71.3917ZM38.0276 73.2055L38.9366 72.7887H38.9366L38.0276 73.2055ZM38.4602 74.5451L39.4413 74.3516V74.3516L38.4602 74.5451ZM38.5927 76.6856L39.5925 76.6673L38.5927 76.6856ZM38.7895 87.3883L37.7896 87.4067L38.7895 87.3883ZM39.836 95.31L38.996 95.8525L39.836 95.31ZM43.3494 97.8574L43.6038 96.8903H43.6038L43.3494 97.8574ZM51.2039 96.3895L51.4972 97.3455L51.2039 96.3895ZM61.229 93.3134L61.5223 94.2694H61.5223L61.229 93.3134ZM63.3322 92.7679L63.451 93.7609L63.451 93.7609L63.3322 92.7679ZM64.7578 92.7679L64.639 93.7609L64.639 93.7609L64.7578 92.7679ZM66.8611 93.3134L66.5677 94.2694H66.5677L66.8611 93.3134ZM76.8861 96.3895L76.5928 97.3455L76.8861 96.3895ZM84.7407 97.8574L84.4862 96.8903H84.4862L84.7407 97.8574ZM88.254 95.31L89.094 95.8525L88.254 95.31ZM89.3005 87.3883L90.3004 87.4067L89.3005 87.3883ZM89.4973 76.6856L88.4975 76.6673L89.4973 76.6856ZM89.6298 74.5451L90.6109 74.7386L90.6109 74.7386L89.6298 74.5451ZM90.0624 73.2055L89.1534 72.7886L89.1534 72.7887L90.0624 73.2055ZM91.2068 71.3917L90.3851 70.8219L91.2068 71.3917ZM97.3304 62.5609L96.5086 61.9911V61.9911L97.3304 62.5609ZM101.091 55.5702L100.093 55.5165V55.5165L101.091 55.5702ZM99.7532 51.4607L98.9777 52.092V52.092L99.7532 51.4607ZM92.5976 48.0241L92.2688 48.9685L92.5976 48.0241ZM82.576 44.5356L82.9048 43.5911L82.576 44.5356ZM80.5672 43.7362L81.0578 42.8648V42.8648L80.5672 43.7362ZM79.4219 42.8989L80.1033 42.167L80.1033 42.167L79.4219 42.8989ZM78.0507 41.2274L78.8508 40.6276V40.6276L78.0507 41.2274ZM71.7264 32.7908L70.9262 33.3906V33.3906L71.7264 32.7908ZM66.2204 26.9553L65.8578 27.8873V27.8873L66.2204 26.9553ZM62.3004 60.5148L61.4372 60.0099L62.3004 60.5148ZM65.7436 60.5148L66.6068 60.0099L65.7436 60.5148ZM61.0016 61.4549L61.2124 62.4324H61.2124L61.0016 61.4549ZM59.9365 64.7158L59.1923 65.3836L59.9365 64.7158ZM60.4329 66.2394L61.4277 66.3405V66.3405L60.4329 66.2394ZM63.2172 68.2532L62.8154 67.3375H62.8154L63.2172 68.2532ZM64.8268 68.2532L65.2286 67.3375H65.2286L64.8268 68.2532ZM67.6111 66.2394L68.606 66.1382V66.1382L67.6111 66.2394ZM68.1075 64.7158L68.8517 65.3836L68.1075 64.7158ZM67.0424 61.4549L66.8316 62.4324H66.8316L67.0424 61.4549ZM57.1638 33.3906C58.4778 31.6377 59.4242 30.3769 60.2384 29.4712C61.0485 28.5702 61.6478 28.1146 62.2322 27.8873L61.5071 26.0234C60.4941 26.4174 59.6433 27.1416 58.7511 28.134C57.8632 29.1217 56.8552 30.4678 55.5635 32.191L57.1638 33.3906ZM50.8395 41.8272L57.1638 33.3906L55.5635 32.191L49.2392 40.6276L50.8395 41.8272ZM50.8393 41.8274L50.8393 41.8274L49.2393 40.6274L49.2393 40.6274L50.8393 41.8274ZM49.3496 43.6307C49.8211 43.1916 50.207 42.6708 50.8394 41.8272L49.2392 40.6276C48.5651 41.5268 48.2978 41.8773 47.9867 42.167L49.3496 43.6307ZM48.0133 44.6076C48.4958 44.336 48.9444 44.008 49.3496 43.6307L47.9867 42.167C47.6972 42.4365 47.3768 42.6708 47.0322 42.8648L48.0133 44.6076ZM45.8428 45.48C46.8385 45.1333 47.4519 44.9237 48.0133 44.6076L47.0322 42.8648C46.6618 43.0733 46.2466 43.2217 45.1853 43.5911L45.8428 45.48ZM35.8212 48.9685L45.8428 45.48L45.1853 43.5911L35.1637 47.0797L35.8212 48.9685ZM35.8985 48.9379L35.8986 48.9379L35.0863 47.1103L35.0863 47.1103L35.8985 48.9379ZM29.1123 52.092C29.5056 51.6088 30.1165 51.1808 31.2081 50.6884C32.3059 50.1932 33.7765 49.6803 35.8212 48.9685L35.1637 47.0797C33.1539 47.7793 31.5837 48.3249 30.3858 48.8653C29.1817 49.4084 28.2419 49.9931 27.5612 50.8295L29.1123 52.092ZM27.9974 55.5165C27.9308 54.2762 28.3282 53.0554 29.1123 52.092L27.5612 50.8295C26.4634 52.1782 25.907 53.8873 26.0003 55.6238L27.9974 55.5165ZM31.5814 61.9911C30.3477 60.212 29.4609 58.9316 28.8651 57.885C28.2726 56.8442 28.0308 56.1387 27.9974 55.5165L26.0003 55.6238C26.0581 56.7006 26.4735 57.7265 27.127 58.8745C27.7772 60.0165 28.7252 61.3821 29.9379 63.1308L31.5814 61.9911ZM37.7049 70.8219L31.5814 61.9911L29.9379 63.1308L36.0614 71.9615L37.7049 70.8219ZM38.9366 72.7887C38.6702 72.2076 38.3009 71.6813 37.7049 70.8219L36.0614 71.9615C36.6966 72.8775 36.9429 73.2389 37.1186 73.6223L38.9366 72.7887ZM39.4413 74.3516C39.335 73.8126 39.1656 73.288 38.9366 72.7887L37.1186 73.6223C37.2822 73.979 37.4032 74.3537 37.4791 74.7386L39.4413 74.3516ZM39.5925 76.6673C39.5733 75.6216 39.565 74.9787 39.4413 74.3516L37.4791 74.7386C37.5608 75.1524 37.5724 75.5896 37.5929 76.704L39.5925 76.6673ZM39.7893 87.3699L39.5925 76.6673L37.5929 76.704L37.7896 87.4067L39.7893 87.3699ZM40.6761 94.7675C40.3367 94.242 40.1183 93.5244 39.9891 92.3251C39.8592 91.1193 39.8294 89.5504 39.7893 87.3699L37.7896 87.4067C37.8291 89.5501 37.8589 91.2241 38.0006 92.5393C38.143 93.8609 38.4081 94.9422 38.996 95.8525L40.6761 94.7675ZM43.6038 96.8903C42.3972 96.5728 41.3529 95.8156 40.6761 94.7675L38.996 95.8525C39.9436 97.3199 41.4056 98.3799 43.0949 98.8244L43.6038 96.8903ZM50.9106 95.4335C48.8256 96.0732 47.3252 96.5326 46.1388 96.784C44.9588 97.034 44.2088 97.0495 43.6038 96.8903L43.0949 98.8244C44.1428 99.1002 45.253 99.0161 46.5534 98.7405C47.8474 98.4664 49.4478 97.9743 51.4972 97.3455L50.9106 95.4335ZM60.9356 92.3574L50.9106 95.4335L51.4972 97.3455L61.5223 94.2694L60.9356 92.3574ZM63.2134 91.775C62.5705 91.8519 61.9487 92.0466 60.9356 92.3574L61.5223 94.2694C62.6021 93.9381 63.0268 93.8116 63.451 93.7609L63.2134 91.775ZM64.8767 91.775C64.3242 91.7089 63.7658 91.7089 63.2134 91.775L63.451 93.7609C63.8456 93.7136 64.2444 93.7136 64.639 93.7609L64.8767 91.775ZM67.1544 92.3574C66.1413 92.0466 65.5195 91.8519 64.8766 91.775L64.639 93.7609C65.0632 93.8116 65.4879 93.9381 66.5677 94.2694L67.1544 92.3574ZM77.1794 95.4335L67.1544 92.3574L66.5677 94.2694L76.5928 97.3455L77.1794 95.4335ZM84.4862 96.8903C83.8812 97.0495 83.1312 97.034 81.9512 96.784C80.7648 96.5326 79.2644 96.0732 77.1794 95.4335L76.5928 97.3455C78.6422 97.9743 80.2426 98.4664 81.5366 98.7405C82.8371 99.0161 83.9472 99.1002 84.9951 98.8244L84.4862 96.8903ZM87.4139 94.7675C86.7371 95.8156 85.6928 96.5728 84.4862 96.8903L84.9951 98.8244C86.6844 98.3799 88.1464 97.3199 89.094 95.8525L87.4139 94.7675ZM88.3007 87.3699C88.2606 89.5504 88.2308 91.1193 88.1009 92.3251C87.9717 93.5244 87.7533 94.242 87.4139 94.7675L89.094 95.8525C89.6819 94.9422 89.947 93.8609 90.0894 92.5393C90.2311 91.2241 90.2609 89.55 90.3004 87.4067L88.3007 87.3699ZM88.4975 76.6673L88.3007 87.3699L90.3004 87.4067L90.4972 76.704L88.4975 76.6673ZM88.6487 74.3516C88.525 74.9787 88.5167 75.6216 88.4975 76.6673L90.4972 76.704C90.5176 75.5896 90.5292 75.1524 90.6109 74.7386L88.6487 74.3516ZM89.1534 72.7887C88.9244 73.288 88.755 73.8126 88.6487 74.3516L90.6109 74.7386C90.6868 74.3537 90.8078 73.979 90.9714 73.6223L89.1534 72.7887ZM90.3851 70.8219C89.7891 71.6813 89.4198 72.2076 89.1534 72.7886L90.9714 73.6223C91.1472 73.2389 91.3934 72.8775 92.0286 71.9615L90.3851 70.8219ZM96.5086 61.9911L90.3851 70.8219L92.0286 71.9615L98.1521 63.1308L96.5086 61.9911ZM100.093 55.5165C100.059 56.1387 99.8174 56.8442 99.2249 57.885C98.6291 58.9316 97.7424 60.2119 96.5086 61.9911L98.1521 63.1308C99.3648 61.3821 100.313 60.0165 100.963 58.8745C101.616 57.7265 102.032 56.7006 102.09 55.6238L100.093 55.5165ZM98.9777 52.092C99.7618 53.0554 100.159 54.2762 100.093 55.5165L102.09 55.6238C102.183 53.8873 101.627 52.1782 100.529 50.8295L98.9777 52.092ZM92.2688 48.9685C94.3135 49.6803 95.7841 50.1932 96.8819 50.6884C97.9735 51.1808 98.5844 51.6088 98.9777 52.092L100.529 50.8295C99.8481 49.9931 98.9083 49.4084 97.7042 48.8653C96.5063 48.3249 94.9361 47.7793 92.9263 47.0797L92.2688 48.9685ZM82.2472 45.48L92.2688 48.9685L92.9263 47.0797L82.9048 43.5911L82.2472 45.48ZM80.0767 44.6076C80.6381 44.9237 81.2515 45.1333 82.2472 45.48L82.9048 43.5911C81.8434 43.2217 81.4282 43.0733 81.0578 42.8648L80.0767 44.6076ZM78.7404 43.6307C79.1456 44.008 79.5942 44.336 80.0767 44.6076L81.0578 42.8648C80.7132 42.6708 80.3928 42.4365 80.1033 42.167L78.7404 43.6307ZM77.2506 41.8272C77.883 42.6708 78.2689 43.1916 78.7404 43.6307L80.1033 42.167C79.7922 41.8773 79.5249 41.5267 78.8508 40.6276L77.2506 41.8272ZM70.9262 33.3906L77.2506 41.8272L78.8508 40.6276L72.5265 32.191L70.9262 33.3906ZM65.8578 27.8873C66.4422 28.1146 67.0415 28.5702 67.8516 29.4712C68.6659 30.3769 69.6122 31.6377 70.9262 33.3906L72.5265 32.191C71.2348 30.4678 70.2268 29.1217 69.3389 28.134C68.4467 27.1416 67.5959 26.4174 66.5829 26.0234L65.8578 27.8873ZM62.2322 27.8873C63.3982 27.4337 64.6918 27.4337 65.8578 27.8873L66.5829 26.0234C64.9506 25.3883 63.1394 25.3883 61.5071 26.0234L62.2322 27.8873ZM63.1635 61.0197C63.5471 60.3641 64.4969 60.364 64.8805 61.0197L66.6068 60.0099C65.451 58.034 62.593 58.034 61.4372 60.0099L63.1635 61.0197ZM61.2124 62.4324C62.0303 62.256 62.7402 61.7435 63.1635 61.0197L61.4372 60.0099C61.2979 60.2481 61.0623 60.4188 60.7909 60.4773L61.2124 62.4324ZM60.6808 64.0479C60.1829 63.493 60.4692 62.5927 61.2124 62.4324L60.7909 60.4773C58.5611 60.9581 57.659 63.6749 59.1923 65.3836L60.6808 64.0479ZM61.4277 66.3405C61.5126 65.5055 61.2416 64.6729 60.6808 64.0479L59.1923 65.3836C59.3766 65.5891 59.466 65.8632 59.438 66.1382L61.4277 66.3405ZM62.8154 67.3375C62.1151 67.6448 61.3525 67.0801 61.4277 66.3405L59.438 66.1382C59.2057 68.423 61.5356 70.0831 63.619 69.1689L62.8154 67.3375ZM65.2286 67.3375C64.4617 67.001 63.5823 67.001 62.8154 67.3375L63.619 69.1689C63.8738 69.0572 64.1702 69.0572 64.425 69.1689L65.2286 67.3375ZM66.6163 66.3405C66.6915 67.0801 65.9289 67.6448 65.2286 67.3375L64.425 69.1689C66.5084 70.0831 68.8383 68.423 68.606 66.1382L66.6163 66.3405ZM67.3632 64.0479C66.8024 64.6729 66.5314 65.5055 66.6163 66.3405L68.606 66.1382C68.5781 65.8632 68.6674 65.5891 68.8517 65.3836L67.3632 64.0479ZM66.8316 62.4324C67.5748 62.5927 67.8611 63.493 67.3632 64.0479L68.8517 65.3836C70.3851 63.6749 69.483 60.9581 67.2531 60.4773L66.8316 62.4324ZM64.8805 61.0197C65.3038 61.7435 66.0137 62.256 66.8316 62.4324L67.2532 60.4773C66.9818 60.4188 66.7461 60.2481 66.6068 60.0099L64.8805 61.0197Z" fill="url(#paint9_linear_1_32)" fill-opacity="0.75" mask="url(#path-9-outside-5_1_32)"/>
</g>
<mask id="path-11-outside-6_1_32" maskUnits="userSpaceOnUse" x="35.5597" y="34.2331" width="59" height="58" fill="black">
<rect fill="white" x="35.5597" y="34.2331" width="59" height="58"/>
<path fill-rule="evenodd" clip-rule="evenodd" d="M61.2539 36.2564C59.7688 37.2565 58.6256 39.9746 56.3392 45.4107L56.3392 45.4108C55.6844 46.9674 55.3571 47.7458 54.8712 48.3711C54.209 49.2233 53.3292 49.8811 52.3246 50.2752C51.5873 50.5644 50.7352 50.6597 49.0311 50.8503C42.9969 51.5253 39.9798 51.8628 38.5484 53.1498C36.9881 54.5525 36.2739 56.6684 36.6649 58.7298C37.0237 60.621 39.1836 62.6839 43.5033 66.8096L44.1757 67.4518C45.5064 68.7227 46.1717 69.3582 46.6043 70.1131C47.0334 70.8619 47.2959 71.6945 47.3739 72.5541C47.4525 73.4206 47.272 74.3227 46.9109 76.1271L46.6568 77.3967C45.5753 82.8006 45.0345 85.5026 45.6299 87.1013C46.5004 89.4387 48.7262 90.9937 51.2204 91.0071C52.9263 91.0163 55.2774 89.5792 59.9796 86.7049C61.4276 85.8198 62.1516 85.3772 62.9111 85.1537C64.0172 84.8281 65.1936 84.8281 66.2996 85.1537C67.0591 85.3772 67.7831 85.8198 69.2312 86.7049C73.9334 89.5792 76.2844 91.0163 77.9904 91.0071C80.4846 90.9937 82.7103 89.4387 83.5808 87.1013C84.1762 85.5026 83.6355 82.8006 82.554 77.3968L82.2999 76.1271C81.9388 74.3227 81.7582 73.4206 81.8368 72.5541C81.9148 71.6945 82.1773 70.8619 82.6065 70.1131C83.039 69.3582 83.7044 68.7227 85.035 67.4518L85.0351 67.4518L85.7074 66.8096C90.0272 62.6839 92.1871 60.621 92.5458 58.7298C92.9368 56.6684 92.2227 54.5525 90.6624 53.1498C89.2309 51.8628 86.2138 51.5253 80.1797 50.8503C78.4755 50.6597 77.6234 50.5644 76.8862 50.2752C75.8815 49.8811 75.0018 49.2233 74.3396 48.3711C73.8537 47.7458 73.5263 46.9674 72.8716 45.4107C70.5851 39.9746 69.4419 37.2565 67.9568 36.2564C65.9308 34.892 63.2799 34.892 61.2539 36.2564ZM66.5354 60.2712C65.7024 58.7787 63.5551 58.7787 62.7221 60.2712C62.4199 60.8127 61.8955 61.2015 61.2906 61.3382C59.6361 61.7121 58.9494 63.7168 60.0525 65.0051L60.1445 65.1125C60.5475 65.5833 60.7415 66.1979 60.6817 66.8147L60.6627 67.0098C60.5013 68.6735 62.2051 69.8854 63.7238 69.1871C64.2982 68.9229 64.9594 68.9229 65.5338 69.1871C67.0524 69.8854 68.7562 68.6735 68.5948 67.0098L68.5759 66.8147C68.516 66.1979 68.71 65.5833 69.1131 65.1125L69.205 65.0051C70.3082 63.7168 69.6214 61.7121 67.967 61.3382C67.3621 61.2015 66.8377 60.8127 66.5354 60.2712Z"/>
</mask>
<path fill-rule="evenodd" clip-rule="evenodd" d="M61.2539 36.2564C59.7688 37.2565 58.6256 39.9746 56.3392 45.4107L56.3392 45.4108C55.6844 46.9674 55.3571 47.7458 54.8712 48.3711C54.209 49.2233 53.3292 49.8811 52.3246 50.2752C51.5873 50.5644 50.7352 50.6597 49.0311 50.8503C42.9969 51.5253 39.9798 51.8628 38.5484 53.1498C36.9881 54.5525 36.2739 56.6684 36.6649 58.7298C37.0237 60.621 39.1836 62.6839 43.5033 66.8096L44.1757 67.4518C45.5064 68.7227 46.1717 69.3582 46.6043 70.1131C47.0334 70.8619 47.2959 71.6945 47.3739 72.5541C47.4525 73.4206 47.272 74.3227 46.9109 76.1271L46.6568 77.3967C45.5753 82.8006 45.0345 85.5026 45.6299 87.1013C46.5004 89.4387 48.7262 90.9937 51.2204 91.0071C52.9263 91.0163 55.2774 89.5792 59.9796 86.7049C61.4276 85.8198 62.1516 85.3772 62.9111 85.1537C64.0172 84.8281 65.1936 84.8281 66.2996 85.1537C67.0591 85.3772 67.7831 85.8198 69.2312 86.7049C73.9334 89.5792 76.2844 91.0163 77.9904 91.0071C80.4846 90.9937 82.7103 89.4387 83.5808 87.1013C84.1762 85.5026 83.6355 82.8006 82.554 77.3968L82.2999 76.1271C81.9388 74.3227 81.7582 73.4206 81.8368 72.5541C81.9148 71.6945 82.1773 70.8619 82.6065 70.1131C83.039 69.3582 83.7044 68.7227 85.035 67.4518L85.0351 67.4518L85.7074 66.8096C90.0272 62.6839 92.1871 60.621 92.5458 58.7298C92.9368 56.6684 92.2227 54.5525 90.6624 53.1498C89.2309 51.8628 86.2138 51.5253 80.1797 50.8503C78.4755 50.6597 77.6234 50.5644 76.8862 50.2752C75.8815 49.8811 75.0018 49.2233 74.3396 48.3711C73.8537 47.7458 73.5263 46.9674 72.8716 45.4107C70.5851 39.9746 69.4419 37.2565 67.9568 36.2564C65.9308 34.892 63.2799 34.892 61.2539 36.2564ZM66.5354 60.2712C65.7024 58.7787 63.5551 58.7787 62.7221 60.2712C62.4199 60.8127 61.8955 61.2015 61.2906 61.3382C59.6361 61.7121 58.9494 63.7168 60.0525 65.0051L60.1445 65.1125C60.5475 65.5833 60.7415 66.1979 60.6817 66.8147L60.6627 67.0098C60.5013 68.6735 62.2051 69.8854 63.7238 69.1871C64.2982 68.9229 64.9594 68.9229 65.5338 69.1871C67.0524 69.8854 68.7562 68.6735 68.5948 67.0098L68.5759 66.8147C68.516 66.1979 68.71 65.5833 69.1131 65.1125L69.205 65.0051C70.3082 63.7168 69.6214 61.7121 67.967 61.3382C67.3621 61.2015 66.8377 60.8127 66.5354 60.2712Z" fill="url(#paint10_radial_1_32)" fill-opacity="0.75"/>
<path d="M56.3392 45.4107L55.4174 45.023L55.4078 45.0458L55.3994 45.069L56.3392 45.4107ZM61.2539 36.2564L61.8125 37.0858L61.2539 36.2564ZM56.3392 45.4108L57.261 45.7985L57.2705 45.7757L57.279 45.7525L56.3392 45.4108ZM54.8712 48.3711L54.0815 47.7575L54.8712 48.3711ZM52.3246 50.2752L51.9594 49.3443L52.3246 50.2752ZM49.0311 50.8503L48.9199 49.8565H48.9199L49.0311 50.8503ZM38.5484 53.1498L37.8798 52.4061L38.5484 53.1498ZM36.6649 58.7298L37.6474 58.5434L36.6649 58.7298ZM43.5033 66.8096L44.194 66.0865L44.194 66.0865L43.5033 66.8096ZM44.1757 67.4518L43.485 68.1749H43.485L44.1757 67.4518ZM46.6043 70.1131L45.7366 70.6102H45.7366L46.6043 70.1131ZM47.3739 72.5541L46.378 72.6445L47.3739 72.5541ZM46.9109 76.1271L47.8914 76.3233L46.9109 76.1271ZM46.6568 77.3967L47.6373 77.593L46.6568 77.3967ZM45.6299 87.1013L46.567 86.7523L45.6299 87.1013ZM51.2204 91.0071L51.2257 90.0071L51.2204 91.0071ZM59.9796 86.7049L60.5011 87.5581L59.9796 86.7049ZM62.9111 85.1537L62.6288 84.1943H62.6288L62.9111 85.1537ZM66.2996 85.1537L66.582 84.1943H66.582L66.2996 85.1537ZM69.2312 86.7049L68.7096 87.5581L69.2312 86.7049ZM77.9904 91.0071L77.985 90.0071L77.9904 91.0071ZM83.5808 87.1013L82.6437 86.7523L83.5808 87.1013ZM82.554 77.3968L81.5734 77.593L81.5734 77.593L82.554 77.3968ZM82.2999 76.1271L83.2804 75.9308V75.9308L82.2999 76.1271ZM81.8368 72.5541L80.8409 72.4637V72.4637L81.8368 72.5541ZM82.6065 70.1131L83.4741 70.6102L82.6065 70.1131ZM85.035 67.4518L85.7257 68.175L85.734 68.1671L85.7421 68.1589L85.035 67.4518ZM85.0351 67.4518L84.3444 66.7286L84.3361 66.7366L84.328 66.7447L85.0351 67.4518ZM85.7074 66.8096L86.3981 67.5328L85.7074 66.8096ZM92.5458 58.7298L93.5283 58.9162V58.9162L92.5458 58.7298ZM90.6624 53.1498L91.331 52.4061V52.4061L90.6624 53.1498ZM80.1797 50.8503L80.2909 49.8565L80.1797 50.8503ZM76.8862 50.2752L77.2514 49.3443H77.2514L76.8862 50.2752ZM74.3396 48.3711L73.5499 48.9847L73.55 48.9847L74.3396 48.3711ZM72.8716 45.4107L71.9498 45.7984V45.7984L72.8716 45.4107ZM67.9568 36.2564L68.5154 35.4269V35.4269L67.9568 36.2564ZM62.7221 60.2712L63.5953 60.7585L62.7221 60.2712ZM66.5354 60.2712L65.6622 60.7585H65.6622L66.5354 60.2712ZM61.2906 61.3382L61.0702 60.3628H61.0701L61.2906 61.3382ZM60.0525 65.0051L59.2929 65.6555L59.2929 65.6555L60.0525 65.0051ZM60.1445 65.1125L60.9041 64.4621V64.4621L60.1445 65.1125ZM60.6817 66.8147L59.6863 66.7181V66.7181L60.6817 66.8147ZM60.6627 67.0098L61.658 67.1064V67.1064L60.6627 67.0098ZM63.7238 69.1871L64.1416 70.0956L64.1416 70.0956L63.7238 69.1871ZM65.5338 69.1871L65.116 70.0956L65.116 70.0956L65.5338 69.1871ZM68.5948 67.0098L67.5995 67.1064V67.1064L68.5948 67.0098ZM68.5759 66.8147L69.5712 66.7181V66.7181L68.5759 66.8147ZM69.1131 65.1125L69.8727 65.7629L69.8727 65.7629L69.1131 65.1125ZM69.205 65.0051L68.4454 64.3548L68.4454 64.3548L69.205 65.0051ZM67.967 61.3382L68.1874 60.3628L67.967 61.3382ZM57.261 45.7984C58.4105 43.0654 59.2514 41.0678 59.9878 39.6245C60.7365 38.1573 61.2977 37.4325 61.8125 37.0858L60.6954 35.4269C59.7251 36.0803 58.9721 37.2147 58.2063 38.7155C57.4282 40.2404 56.5543 42.3199 55.4174 45.023L57.261 45.7984ZM57.279 45.7525L57.279 45.7525L55.3994 45.069L55.3994 45.069L57.279 45.7525ZM55.6608 48.9847C56.2469 48.2304 56.628 47.3035 57.261 45.7985L55.4174 45.0231C54.7409 46.6314 54.4672 47.2612 54.0815 47.7575L55.6608 48.9847ZM52.6897 51.2061C53.8619 50.7463 54.8883 49.9789 55.6608 48.9847L54.0815 47.7575C53.5297 48.4677 52.7966 49.0158 51.9594 49.3443L52.6897 51.2061ZM49.1422 51.8441C50.7894 51.6599 51.8002 51.5551 52.6897 51.2061L51.9594 49.3443C51.3745 49.5737 50.6811 49.6595 48.9199 49.8565L49.1422 51.8441ZM39.2169 53.8934C39.7178 53.4431 40.5957 53.0762 42.2554 52.752C43.8932 52.4321 46.1073 52.1836 49.1422 51.8441L48.9199 49.8565C45.9206 50.192 43.6092 50.4498 41.872 50.7891C40.1568 51.1241 38.8104 51.5694 37.8798 52.4061L39.2169 53.8934ZM37.6474 58.5434C37.3216 56.8256 37.9167 55.0624 39.2169 53.8934L37.8798 52.4061C36.0595 54.0427 35.2263 56.5112 35.6825 58.9162L37.6474 58.5434ZM44.194 66.0865C42.021 64.0111 40.4375 62.4975 39.3468 61.2681C38.2429 60.0238 37.7734 59.2073 37.6474 58.5434L35.6825 58.9162C35.9153 60.1435 36.7051 61.3041 37.8507 62.5954C39.0096 63.9017 40.6659 65.4825 42.8126 67.5328L44.194 66.0865ZM44.8663 66.7286L44.194 66.0865L42.8126 67.5328L43.485 68.1749L44.8663 66.7286ZM47.4719 69.6159C46.9502 68.7054 46.1529 67.9574 44.8663 66.7286L43.485 68.1749C44.8598 69.488 45.3932 70.0109 45.7366 70.6102L47.4719 69.6159ZM48.3698 72.4637C48.2788 71.4609 47.9726 70.4895 47.4719 69.6159L45.7366 70.6102C46.0942 71.2343 46.313 71.9281 46.378 72.6445L48.3698 72.4637ZM47.8914 76.3233C48.2405 74.5788 48.4646 73.5088 48.3698 72.4637L46.378 72.6445C46.4404 73.3324 46.3034 74.0666 45.9303 75.9308L47.8914 76.3233ZM47.6373 77.593L47.8914 76.3233L45.9303 75.9308L45.6762 77.2005L47.6373 77.593ZM46.567 86.7523C46.3599 86.1961 46.3134 85.3307 46.5066 83.8013C46.697 82.2948 47.0935 80.3104 47.6373 77.593L45.6762 77.2005C45.1385 79.887 44.7239 81.9555 44.5224 83.5506C44.3237 85.1228 44.3045 86.4078 44.6928 87.4503L46.567 86.7523ZM51.2257 90.0071C49.1473 89.996 47.2925 88.7001 46.567 86.7523L44.6928 87.4503C45.7084 90.1772 48.3051 91.9915 51.215 92.0071L51.2257 90.0071ZM59.458 85.8517C57.0935 87.297 55.3666 88.3519 54.0174 89.0489C52.6478 89.7564 51.8192 90.0103 51.2257 90.0071L51.215 92.0071C52.3274 92.0131 53.5274 91.5531 54.9353 90.8258C56.3638 90.0879 58.1635 88.987 60.5011 87.5581L59.458 85.8517ZM62.6288 84.1943C61.7125 84.4641 60.8579 84.996 59.458 85.8517L60.5011 87.5581C61.9974 86.6435 62.5908 86.2904 63.1935 86.113L62.6288 84.1943ZM66.582 84.1943C65.2916 83.8145 63.9191 83.8145 62.6288 84.1943L63.1935 86.113C64.1152 85.8417 65.0956 85.8417 66.0173 86.113L66.582 84.1943ZM69.7527 85.8517C68.3529 84.996 67.4983 84.4641 66.582 84.1943L66.0172 86.113C66.62 86.2904 67.2134 86.6435 68.7096 87.5581L69.7527 85.8517ZM77.985 90.0071C77.3915 90.0103 76.563 89.7564 75.1933 89.0489C73.8442 88.3519 72.1173 87.297 69.7527 85.8517L68.7096 87.5581C71.0473 88.987 72.847 90.0879 74.2754 90.8258C75.6834 91.5531 76.8833 92.0131 77.9958 92.0071L77.985 90.0071ZM82.6437 86.7523C81.9183 88.7001 80.0635 89.996 77.985 90.0071L77.9958 92.0071C80.9056 91.9915 83.5024 90.1772 84.518 87.4503L82.6437 86.7523ZM81.5734 77.593C82.1173 80.3104 82.5138 82.2948 82.7041 83.8013C82.8974 85.3307 82.8509 86.1961 82.6437 86.7523L84.518 87.4503C84.9062 86.4078 84.887 85.1228 84.6884 83.5506C84.4868 81.9555 84.0722 79.887 83.5346 77.2005L81.5734 77.593ZM81.3193 76.3233L81.5734 77.593L83.5346 77.2005L83.2804 75.9308L81.3193 76.3233ZM80.8409 72.4637C80.7461 73.5088 80.9702 74.5788 81.3193 76.3233L83.2804 75.9308C82.9074 74.0666 82.7703 73.3323 82.8328 72.6444L80.8409 72.4637ZM81.7388 69.6159C81.2382 70.4895 80.9319 71.4609 80.8409 72.4637L82.8328 72.6445C82.8977 71.9281 83.1165 71.2343 83.4741 70.6102L81.7388 69.6159ZM84.3444 66.7287C83.0578 67.9574 82.2606 68.7054 81.7388 69.6159L83.4741 70.6102C83.8175 70.011 84.3509 69.488 85.7257 68.175L84.3444 66.7287ZM84.328 66.7447L84.3279 66.7447L85.7421 68.1589L85.7422 68.1589L84.328 66.7447ZM85.0168 66.0865L84.3444 66.7286L85.7258 68.1749L86.3981 67.5328L85.0168 66.0865ZM91.5633 58.5434C91.4374 59.2073 90.9679 60.0238 89.8639 61.2681C88.7733 62.4975 87.1898 64.0111 85.0168 66.0865L86.3981 67.5328C88.5449 65.4825 90.2012 63.9017 91.36 62.5954C92.5057 61.3041 93.2955 60.1435 93.5283 58.9162L91.5633 58.5434ZM89.9938 53.8934C91.294 55.0624 91.8892 56.8256 91.5633 58.5434L93.5283 58.9162C93.9845 56.5112 93.1513 54.0427 91.331 52.4061L89.9938 53.8934ZM80.0685 51.8441C83.1034 52.1836 85.3176 52.4321 86.9553 52.752C88.6151 53.0762 89.493 53.4431 89.9938 53.8934L91.331 52.4061C90.4003 51.5694 89.054 51.1241 87.3388 50.7891C85.6016 50.4498 83.2901 50.192 80.2909 49.8565L80.0685 51.8441ZM76.521 51.2061C77.4106 51.5551 78.4214 51.6599 80.0685 51.8441L80.2909 49.8565C78.5296 49.6595 77.8362 49.5737 77.2514 49.3443L76.521 51.2061ZM73.55 48.9847C74.3225 49.9789 75.3489 50.7463 76.521 51.2061L77.2514 49.3443C76.4142 49.0158 75.681 48.4677 75.1292 47.7575L73.55 48.9847ZM71.9498 45.7984C72.5828 47.3035 72.9638 48.2304 73.5499 48.9847L75.1292 47.7575C74.7436 47.2612 74.4698 46.6314 73.7934 45.023L71.9498 45.7984ZM67.3982 37.0858C67.9131 37.4325 68.4743 38.1573 69.223 39.6245C69.9594 41.0678 70.8003 43.0654 71.9498 45.7984L73.7934 45.023C72.6564 42.3199 71.7825 40.2404 71.0044 38.7155C70.2386 37.2147 69.4857 36.0803 68.5154 35.4269L67.3982 37.0858ZM61.8125 37.0858C63.5009 35.9489 65.7099 35.9489 67.3982 37.0858L68.5154 35.4269C66.1517 33.8352 63.059 33.8352 60.6954 35.4269L61.8125 37.0858ZM63.5953 60.7585C64.0468 59.9496 65.2107 59.9496 65.6622 60.7585L67.4086 59.7838C66.1941 57.6078 63.0634 57.6078 61.8489 59.7838L63.5953 60.7585ZM61.511 62.3136C62.3899 62.115 63.1532 61.5507 63.5953 60.7585L61.8489 59.7838C61.6866 60.0746 61.401 60.288 61.0702 60.3628L61.511 62.3136ZM60.8121 64.3548C60.2104 63.652 60.5736 62.5254 61.511 62.3136L61.0701 60.3628C58.6987 60.8987 57.6883 63.7815 59.2929 65.6555L60.8121 64.3548ZM60.9041 64.4621L60.8121 64.3548L59.2929 65.6555L59.3849 65.7629L60.9041 64.4621ZM61.677 66.9113C61.7631 66.0237 61.484 65.1394 60.9041 64.4621L59.3849 65.7629C59.6111 66.0271 59.7199 66.372 59.6863 66.7181L61.677 66.9113ZM61.658 67.1064L61.677 66.9113L59.6863 66.7181L59.6674 66.9133L61.658 67.1064ZM63.306 68.2785C62.4884 68.6545 61.5711 68.0021 61.658 67.1064L59.6674 66.9133C59.4315 69.345 61.9219 71.1163 64.1416 70.0956L63.306 68.2785ZM65.9516 68.2785C65.112 67.8924 64.1456 67.8924 63.306 68.2785L64.1416 70.0956C64.4508 69.9534 64.8067 69.9534 65.116 70.0956L65.9516 68.2785ZM67.5995 67.1064C67.6864 68.0021 66.7691 68.6545 65.9516 68.2785L65.116 70.0956C67.3357 71.1163 69.8261 69.345 69.5901 66.9133L67.5995 67.1064ZM67.5806 66.9113L67.5995 67.1064L69.5901 66.9133L69.5712 66.7181L67.5806 66.9113ZM68.3535 64.4621C67.7735 65.1394 67.4944 66.0238 67.5806 66.9113L69.5712 66.7181C69.5376 66.372 69.6465 66.0271 69.8727 65.7629L68.3535 64.4621ZM68.4454 64.3548L68.3535 64.4621L69.8727 65.7629L69.9646 65.6555L68.4454 64.3548ZM67.7466 62.3136C68.6839 62.5254 69.0471 63.652 68.4454 64.3548L69.9646 65.6555C71.5692 63.7815 70.5589 60.8987 68.1874 60.3628L67.7466 62.3136ZM65.6622 60.7585C66.1044 61.5507 66.8677 62.115 67.7466 62.3136L68.1874 60.3628C67.8565 60.288 67.5709 60.0746 67.4086 59.7838L65.6622 60.7585Z" fill="url(#paint11_linear_1_32)" mask="url(#path-11-outside-6_1_32)"/>
<g filter="url(#filter2_i_1_32)">
<path d="M62.4565 61.6501C63.1455 60.4671 64.8545 60.4671 65.5435 61.6501C65.7959 62.0834 66.2189 62.3907 66.709 62.4968C68.047 62.7866 68.5751 64.4119 67.663 65.4328C67.3288 65.8068 67.1673 66.304 67.2178 66.8029C67.3557 68.1649 65.9731 69.1695 64.7203 68.6174C64.2614 68.4152 63.7386 68.4152 63.2797 68.6174C62.0269 69.1695 60.6443 68.1649 60.7822 66.8029C60.8327 66.304 60.6712 65.8068 60.337 65.4328C59.4249 64.4119 59.953 62.7866 61.291 62.4968C61.7811 62.3907 62.2041 62.0834 62.4565 61.6501Z" fill="url(#paint12_linear_1_32)"/>
</g>
<path d="M65.9756 61.3984C65.0937 59.8843 62.9063 59.8843 62.0244 61.3984C61.8427 61.7105 61.5381 61.9317 61.1852 62.0082C59.4727 62.379 58.7967 64.4593 59.9642 65.7659C60.2048 66.0352 60.3211 66.3932 60.2848 66.7525C60.1083 68.4958 61.8779 69.7815 63.4813 69.075C63.8118 68.9293 64.1882 68.9293 64.5187 69.075C66.1221 69.7815 67.8917 68.4958 67.7152 66.7525C67.6789 66.3932 67.7952 66.0352 68.0358 65.7659C69.2033 64.4593 68.5273 62.379 66.8148 62.0082C66.4619 61.9317 66.1573 61.7105 65.9756 61.3984Z" stroke="#CCBD03"/>
<path d="M62.8885 61.9017C63.3847 61.0499 64.6153 61.0499 65.1115 61.9017C65.4345 62.4564 65.9759 62.8497 66.6032 62.9855C67.5667 63.1941 67.9469 64.3645 67.2901 65.0996C66.8624 65.5783 66.6557 66.2147 66.7203 66.8533C66.8196 67.834 65.824 68.5574 64.9219 68.1599C64.3346 67.901 63.6654 67.901 63.0781 68.1599C62.176 68.5574 61.1804 67.834 61.2797 66.8533C61.3443 66.2147 61.1376 65.5783 60.7099 65.0996C60.0531 64.3645 60.4333 63.1941 61.3968 62.9855C62.0241 62.8497 62.5655 62.4564 62.8885 61.9017Z" stroke="#CCBD03"/>
<defs>
<filter id="filter0_f_1_32" x="28" y="28" width="71.5812" height="71.8211" filterUnits="userSpaceOnUse" color-interpolation-filters="sRGB">
<feFlood flood-opacity="0" result="BackgroundImageFix"/>
<feBlend mode="normal" in="SourceGraphic" in2="BackgroundImageFix" result="shape"/>
<feGaussianBlur stdDeviation="2" result="effect1_foregroundBlur_1_32"/>
</filter>
<filter id="filter1_f_1_32" x="21.9902" y="21.5471" width="84.1096" height="81.4469" filterUnits="userSpaceOnUse" color-interpolation-filters="sRGB">
<feFlood flood-opacity="0" result="BackgroundImageFix"/>
<feBlend mode="normal" in="SourceGraphic" in2="BackgroundImageFix" result="shape"/>
<feGaussianBlur stdDeviation="2" result="effect1_foregroundBlur_1_32"/>
</filter>
<filter id="filter2_i_1_32" x="58.8805" y="59.7628" width="10.239" height="12.0104" filterUnits="userSpaceOnUse" color-interpolation-filters="sRGB">
<feFlood flood-opacity="0" result="BackgroundImageFix"/>
<feBlend mode="normal" in="SourceGraphic" in2="BackgroundImageFix" result="shape"/>
<feColorMatrix in="SourceAlpha" type="matrix" values="0 0 0 0 0 0 0 0 0 0 0 0 0 0 0 0 0 0 127 0" result="hardAlpha"/>
<feOffset dy="2"/>
<feGaussianBlur stdDeviation="2"/>
<feComposite in2="hardAlpha" operator="arithmetic" k2="-1" k3="1"/>
<feColorMatrix type="matrix" values="0 0 0 0 0 0 0 0 0 0 0 0 0 0 0 0 0 0 0.38 0"/>
<feBlend mode="normal" in2="shape" result="effect1_innerShadow_1_32"/>
</filter>
<linearGradient id="paint0_linear_1_32" x1="9.39527" y1="7.77271" x2="118.205" y2="117.253" gradientUnits="userSpaceOnUse">
<stop stop-color="#FFFCC2"/>
<stop offset="0.215" stop-color="#F7F7F4"/>
<stop offset="0.75" stop-color="#D9D57D"/>
<stop offset="1" stop-color="#999775"/>
</linearGradient>
<linearGradient id="paint1_linear_1_32" x1="102.781" y1="23.697" x2="25.8929" y2="101.058" gradientUnits="userSpaceOnUse">
<stop stop-color="#E2DEB2"/>
<stop offset="0.52" stop-color="#716E55"/>
<stop offset="1" stop-color="#E2DEB2"/>
</linearGradient>
<linearGradient id="paint2_linear_1_32" x1="18.9837" y1="17.012" x2="110.034" y2="108.274" gradientUnits="userSpaceOnUse">
<stop stop-color="#FFFBC2"/>
<stop offset="0.215" stop-color="#F7F7F4"/>
<stop offset="0.75" stop-color="#D9D37D"/>
<stop offset="1" stop-color="#999775"/>
</linearGradient>
<linearGradient id="paint3_linear_1_32" x1="118.169" y1="10.0984" x2="11.9671" y2="119.515" gradientUnits="userSpaceOnUse">
<stop stop-color="#E2DEB2"/>
<stop offset="0.5" stop-color="#90912B"/>
<stop offset="1" stop-color="#E2DEB2"/>
</linearGradient>
<radialGradient id="paint4_radial_1_32" cx="0" cy="0" r="1" gradientUnits="userSpaceOnUse" gradientTransform="translate(63.8514 63.7189) rotate(-90) scale(32.4724 34.619)">
<stop offset="0.745" stop-color="#BCB64A"/>
<stop offset="1" stop-color="#A49D3A"/>
</radialGradient>
<linearGradient id="paint5_linear_1_32" x1="94.4392" y1="33.0002" x2="33.6368" y2="95.1597" gradientUnits="userSpaceOnUse">
<stop stop-color="white"/>
<stop offset="0.5" stop-color="#7C6A21"/>
<stop offset="1" stop-color="white"/>
</linearGradient>
<linearGradient id="paint6_linear_1_32" x1="27.1203" y1="25.883" x2="99.2543" y2="99.8502" gradientUnits="userSpaceOnUse">
<stop stop-color="#DBDAB4"/>
<stop offset="0.215" stop-color="#DDDC90"/>
<stop offset="0.75" stop-color="#C8C776"/>
<stop offset="1" stop-color="#A9A866"/>
</linearGradient>
<linearGradient id="paint7_linear_1_32" x1="90.2319" y1="36.4429" x2="39.2604" y2="88.7098" gradientUnits="userSpaceOnUse">
<stop stop-color="#E2DEB2"/>
<stop offset="0.52" stop-color="#9A9962"/>
<stop offset="1" stop-color="#E2DEB2"/>
</linearGradient>
<radialGradient id="paint8_radial_1_32" cx="0" cy="0" r="1" gradientUnits="userSpaceOnUse" gradientTransform="translate(64.1181 62.049) rotate(-90) scale(37.5285 41.662)">
<stop offset="0.745" stop-color="#CEC49C"/>
<stop offset="1" stop-color="#B0A164"/>
</radialGradient>
<linearGradient id="paint9_linear_1_32" x1="90.2467" y1="37.0103" x2="39.7599" y2="89.3786" gradientUnits="userSpaceOnUse">
<stop stop-color="#E2DDC7"/>
<stop offset="0.52" stop-color="#9A8F62"/>
<stop offset="1" stop-color="#E2DDC7"/>
</linearGradient>
<radialGradient id="paint10_radial_1_32" cx="0" cy="0" r="1" gradientUnits="userSpaceOnUse" gradientTransform="translate(64.6054 63.1201) rotate(44.8375) scale(27.0088 27.0084)">
<stop stop-color="#FBE90B"/>
<stop offset="0.43" stop-color="#E6DB12"/>
<stop offset="0.605" stop-color="#D6D243"/>
<stop offset="1" stop-color="#E7E784"/>
</radialGradient>
<linearGradient id="paint11_linear_1_32" x1="64.6054" y1="35.2331" x2="64.6054" y2="91.0072" gradientUnits="userSpaceOnUse">
<stop stop-color="#F3F3B8"/>
<stop offset="0.6" stop-color="#CACA68"/>
</linearGradient>
<linearGradient id="paint12_linear_1_32" x1="64" y1="59" x2="64" y2="71" gradientUnits="userSpaceOnUse">
<stop stop-color="white" stop-opacity="0.31"/>
<stop offset="1" stop-color="white" stop-opacity="0"/>
</linearGradient>
</defs>
</svg>
