<svg width="128" height="128" viewBox="0 0 128 128" fill="none" xmlns="http://www.w3.org/2000/svg">
<mask id="path-1-outside-1_1_9" maskUnits="userSpaceOnUse" x="8.03333" y="6.39487" width="113" height="111" fill="black">
<rect fill="white" x="8.03333" y="6.39487" width="113" height="111"/>
<path fill-rule="evenodd" clip-rule="evenodd" d="M58.5695 8.25874C54.2654 9.56656 50.4659 13.0183 42.8668 19.9216L38.6476 23.7545C37.7518 24.5683 37.3039 24.9752 36.8333 25.3536C36.415 25.6899 35.9833 26.0091 35.5393 26.3107C35.0397 26.65 34.5195 26.9591 33.4792 27.5774L27.8803 30.9049C19.3169 35.9943 15.0352 38.539 12.5466 42.1616C10.3538 45.3535 9.13484 49.1133 9.0377 52.9846C8.92745 57.3783 10.9016 61.9512 14.85 71.0969L17.6178 77.5081C18.0878 78.5969 18.3229 79.1413 18.5249 79.6976C18.7045 80.192 18.8644 80.6932 19.0045 81.2002C19.162 81.7706 19.2858 82.3505 19.5334 83.5103L19.5335 83.5104L20.8872 89.8516C23.0062 99.7769 24.0656 104.74 26.7607 108.292C29.1346 111.421 32.3774 113.782 36.0844 115.08C40.2927 116.553 45.3409 116.037 55.4372 115.005H55.4372L61.1288 114.423C62.3483 114.298 62.958 114.235 63.5691 114.211C64.1122 114.188 64.6559 114.188 65.199 114.211C65.8101 114.235 66.4198 114.298 67.6392 114.423L73.3309 115.005C83.4272 116.037 88.4754 116.553 92.6837 115.08C96.3907 113.782 99.6335 111.421 102.007 108.292C104.702 104.74 105.762 99.7769 107.881 89.8516L109.235 83.5104C109.482 82.3506 109.606 81.7707 109.764 81.2002C109.904 80.6932 110.064 80.192 110.243 79.6976C110.445 79.1413 110.68 78.5969 111.15 77.5081L113.918 71.0969C117.866 61.9512 119.841 57.3783 119.73 52.9846C119.633 49.1133 118.414 45.3535 116.222 42.1616C113.733 38.539 109.451 35.9943 100.888 30.9049L95.2889 27.5774C94.2486 26.9591 93.7284 26.65 93.2288 26.3107C92.7848 26.0091 92.3531 25.6899 91.9348 25.3536C91.4642 24.9752 91.0163 24.5683 90.1204 23.7545L85.9013 19.9216C78.3022 13.0183 74.5027 9.56656 70.1986 8.25874C66.4078 7.10691 62.3603 7.10691 58.5695 8.25874ZM65.6793 59.944C64.4376 58.8363 62.5624 58.8363 61.3207 59.944C61.1576 60.0895 60.9803 60.2183 60.7915 60.3285C59.3543 61.1672 58.7749 62.9505 59.4446 64.4738C59.5326 64.6739 59.6003 64.8823 59.6467 65.0959C60.0003 66.7219 61.5173 67.8241 63.1729 67.6578C63.3904 67.636 63.6096 67.636 63.8271 67.6578C65.4827 67.8241 66.9997 66.7219 67.3533 65.0959C67.3997 64.8823 67.4674 64.6739 67.5554 64.4738C68.2251 62.9505 67.6457 61.1672 66.2085 60.3285C66.0197 60.2183 65.8424 60.0895 65.6793 59.944Z"/>
</mask>
<path fill-rule="evenodd" clip-rule="evenodd" d="M58.5695 8.25874C54.2654 9.56656 50.4659 13.0183 42.8668 19.9216L38.6476 23.7545C37.7518 24.5683 37.3039 24.9752 36.8333 25.3536C36.415 25.6899 35.9833 26.0091 35.5393 26.3107C35.0397 26.65 34.5195 26.9591 33.4792 27.5774L27.8803 30.9049C19.3169 35.9943 15.0352 38.539 12.5466 42.1616C10.3538 45.3535 9.13484 49.1133 9.0377 52.9846C8.92745 57.3783 10.9016 61.9512 14.85 71.0969L17.6178 77.5081C18.0878 78.5969 18.3229 79.1413 18.5249 79.6976C18.7045 80.192 18.8644 80.6932 19.0045 81.2002C19.162 81.7706 19.2858 82.3505 19.5334 83.5103L19.5335 83.5104L20.8872 89.8516C23.0062 99.7769 24.0656 104.74 26.7607 108.292C29.1346 111.421 32.3774 113.782 36.0844 115.08C40.2927 116.553 45.3409 116.037 55.4372 115.005H55.4372L61.1288 114.423C62.3483 114.298 62.958 114.235 63.5691 114.211C64.1122 114.188 64.6559 114.188 65.199 114.211C65.8101 114.235 66.4198 114.298 67.6392 114.423L73.3309 115.005C83.4272 116.037 88.4754 116.553 92.6837 115.08C96.3907 113.782 99.6335 111.421 102.007 108.292C104.702 104.74 105.762 99.7769 107.881 89.8516L109.235 83.5104C109.482 82.3506 109.606 81.7707 109.764 81.2002C109.904 80.6932 110.064 80.192 110.243 79.6976C110.445 79.1413 110.68 78.5969 111.15 77.5081L113.918 71.0969C117.866 61.9512 119.841 57.3783 119.73 52.9846C119.633 49.1133 118.414 45.3535 116.222 42.1616C113.733 38.539 109.451 35.9943 100.888 30.9049L95.2889 27.5774C94.2486 26.9591 93.7284 26.65 93.2288 26.3107C92.7848 26.0091 92.3531 25.6899 91.9348 25.3536C91.4642 24.9752 91.0163 24.5683 90.1204 23.7545L85.9013 19.9216C78.3022 13.0183 74.5027 9.56656 70.1986 8.25874C66.4078 7.10691 62.3603 7.10691 58.5695 8.25874ZM65.6793 59.944C64.4376 58.8363 62.5624 58.8363 61.3207 59.944C61.1576 60.0895 60.9803 60.2183 60.7915 60.3285C59.3543 61.1672 58.7749 62.9505 59.4446 64.4738C59.5326 64.6739 59.6003 64.8823 59.6467 65.0959C60.0003 66.7219 61.5173 67.8241 63.1729 67.6578C63.3904 67.636 63.6096 67.636 63.8271 67.6578C65.4827 67.8241 66.9997 66.7219 67.3533 65.0959C67.3997 64.8823 67.4674 64.6739 67.5554 64.4738C68.2251 62.9505 67.6457 61.1672 66.2085 60.3285C66.0197 60.2183 65.8424 60.0895 65.6793 59.944Z" fill="url(#paint0_linear_1_9)" fill-opacity="0.2"/>
<path d="M42.8668 19.9216L43.5392 20.6618L42.8668 19.9216ZM58.5695 8.25874L58.8602 9.21555V9.21555L58.5695 8.25874ZM38.6476 23.7545L37.9752 23.0144L38.6476 23.7545ZM36.8333 25.3536L37.4598 26.133L36.8333 25.3536ZM35.5393 26.3107L34.9775 25.4834L34.9775 25.4834L35.5393 26.3107ZM33.4792 27.5774L32.9683 26.7178V26.7178L33.4792 27.5774ZM27.8803 30.9049L28.3912 31.7646L27.8803 30.9049ZM12.5466 42.1616L13.3708 42.7278H13.3708L12.5466 42.1616ZM9.0377 52.9846L10.0374 53.0097L9.0377 52.9846ZM14.85 71.0969L13.9319 71.4932L14.85 71.0969ZM17.6178 77.5081L16.6997 77.9044L17.6178 77.5081ZM18.5249 79.6976L17.585 80.039H17.585L18.5249 79.6976ZM19.0045 81.2002L18.0406 81.4665H18.0406L19.0045 81.2002ZM19.5334 83.5103L18.5555 83.7191L18.5556 83.7198L19.5334 83.5103ZM19.5335 83.5104L20.5114 83.3016L20.5113 83.3009L19.5335 83.5104ZM20.8872 89.8516L19.9093 90.0604L20.8872 89.8516ZM26.7607 108.292L27.5573 107.687L26.7607 108.292ZM36.0844 115.08L36.4149 114.136H36.4149L36.0844 115.08ZM55.4372 115.005V114.005H55.3862L55.3354 114.01L55.4372 115.005ZM55.4372 115.005V116.005H55.4882L55.539 115.999L55.4372 115.005ZM61.1288 114.423L61.2306 115.417L61.1288 114.423ZM63.5691 114.211L63.5283 113.211H63.5283L63.5691 114.211ZM65.199 114.211L65.2398 113.211H65.2398L65.199 114.211ZM67.6392 114.423L67.5375 115.417L67.6392 114.423ZM73.3309 115.005L73.2291 115.999L73.3309 115.005ZM92.6837 115.08L93.0142 116.023L92.6837 115.08ZM102.007 108.292L102.804 108.896L102.007 108.292ZM107.881 89.8516L106.903 89.6428L107.881 89.8516ZM109.235 83.5104L110.213 83.7192L110.213 83.7192L109.235 83.5104ZM109.764 81.2002L110.728 81.4665V81.4665L109.764 81.2002ZM110.243 79.6976L111.183 80.039L110.243 79.6976ZM111.15 77.5081L112.068 77.9044V77.9044L111.15 77.5081ZM113.918 71.0969L113 70.7005V70.7005L113.918 71.0969ZM119.73 52.9846L120.73 52.9595L119.73 52.9846ZM116.222 42.1616L117.046 41.5954V41.5954L116.222 42.1616ZM100.888 30.9049L101.399 30.0453L100.888 30.9049ZM95.2889 27.5774L95.7998 26.7178H95.7998L95.2889 27.5774ZM93.2288 26.3107L93.7906 25.4834V25.4834L93.2288 26.3107ZM91.9348 25.3536L91.3083 26.133V26.133L91.9348 25.3536ZM90.1204 23.7545L89.448 24.4947V24.4947L90.1204 23.7545ZM85.9013 19.9216L86.5737 19.1815V19.1815L85.9013 19.9216ZM70.1986 8.25874L70.4893 7.30194V7.30194L70.1986 8.25874ZM61.3207 59.944L61.9864 60.6902L61.9864 60.6902L61.3207 59.944ZM65.6793 59.944L65.0136 60.6902L65.0136 60.6902L65.6793 59.944ZM60.7915 60.3285L61.2955 61.1922L61.2955 61.1922L60.7915 60.3285ZM59.4446 64.4738L58.5292 64.8763L58.5292 64.8763L59.4446 64.4738ZM59.6467 65.0959L58.6696 65.3084L58.6696 65.3084L59.6467 65.0959ZM63.1729 67.6578L63.2728 68.6528L63.2728 68.6528L63.1729 67.6578ZM63.8271 67.6578L63.7272 68.6528L63.7272 68.6528L63.8271 67.6578ZM67.3533 65.0959L68.3304 65.3084L68.3304 65.3084L67.3533 65.0959ZM67.5554 64.4738L68.4708 64.8763L68.4708 64.8763L67.5554 64.4738ZM66.2085 60.3285L65.7045 61.1922L65.7045 61.1922L66.2085 60.3285ZM43.5392 20.6618C47.3503 17.1996 50.1667 14.6421 52.5663 12.7823C54.9562 10.93 56.8716 9.81979 58.8602 9.21555L58.2788 7.30194C55.9633 8.00551 53.8268 9.27502 51.3412 11.2014C48.8653 13.1203 45.9823 15.7403 42.1944 19.1815L43.5392 20.6618ZM39.3201 24.4947L43.5392 20.6618L42.1944 19.1815L37.9752 23.0144L39.3201 24.4947ZM37.4598 26.133C37.9593 25.7314 38.4326 25.3009 39.3201 24.4947L37.9752 23.0144C37.071 23.8358 36.6485 24.2191 36.2067 24.5742L37.4598 26.133ZM36.1011 27.1379C36.5673 26.8213 37.0206 26.4861 37.4598 26.133L36.2067 24.5742C35.8093 24.8936 35.3993 25.197 34.9775 25.4834L36.1011 27.1379ZM33.9901 28.4371C35.0207 27.8245 35.5709 27.498 36.1011 27.1379L34.9775 25.4834C34.5086 25.8019 34.0184 26.0937 32.9683 26.7178L33.9901 28.4371ZM28.3912 31.7646L33.9901 28.4371L32.9683 26.7178L27.3694 30.0453L28.3912 31.7646ZM13.3708 42.7278C14.521 41.0536 16.1079 39.5918 18.5108 37.9011C20.924 36.2033 24.0963 34.3171 28.3912 31.7646L27.3694 30.0453C23.1009 32.5821 19.8507 34.513 17.36 36.2654C14.859 38.0251 13.0608 39.647 11.7223 41.5954L13.3708 42.7278ZM10.0374 53.0097C10.1297 49.332 11.2877 45.7601 13.3708 42.7278L11.7223 41.5954C9.41991 44.9469 8.14002 48.8947 8.03802 52.9595L10.0374 53.0097ZM15.7681 70.7005C13.7878 66.1136 12.3256 62.7249 11.3677 59.9341C10.4138 57.1552 9.98643 55.0404 10.0374 53.0097L8.03802 52.9595C7.97872 55.3226 8.48327 57.6911 9.47602 60.5834C10.4647 63.4639 11.9638 66.9345 13.9319 71.4932L15.7681 70.7005ZM18.5359 77.1117L15.7681 70.7005L13.9319 71.4932L16.6997 77.9044L18.5359 77.1117ZM19.4648 79.3562C19.2504 78.7658 19.0015 78.1903 18.5359 77.1117L16.6997 77.9044C17.1741 79.0034 17.3953 79.5168 17.585 80.039L19.4648 79.3562ZM19.9684 80.934C19.8213 80.4016 19.6534 79.8753 19.4648 79.3562L17.585 80.039C17.7556 80.5086 17.9075 80.9848 18.0406 81.4665L19.9684 80.934ZM20.5114 83.3015C20.2661 82.1526 20.1356 81.5394 19.9684 80.934L18.0406 81.4665C18.1885 82.0019 18.3056 82.5485 18.5555 83.7191L20.5114 83.3015ZM20.5113 83.3009L20.5112 83.3007L18.5556 83.7198L18.5557 83.72L20.5113 83.3009ZM21.8652 89.6428L20.5114 83.3016L18.5555 83.7192L19.9093 90.0604L21.8652 89.6428ZM27.5573 107.687C26.312 106.046 25.4162 104.045 24.5667 101.178C23.7137 98.2981 22.9279 94.6207 21.8652 89.6428L19.9093 90.0604C20.9655 95.0078 21.7689 98.7743 22.6491 101.746C23.5328 104.729 24.5143 106.985 25.964 108.896L27.5573 107.687ZM36.4149 114.136C32.8932 112.903 29.8126 110.66 27.5573 107.687L25.964 108.896C28.4567 112.182 31.8616 114.66 35.7539 116.023L36.4149 114.136ZM55.3354 114.01C50.2718 114.528 46.5308 114.909 43.5286 114.982C40.5388 115.055 38.3595 114.817 36.4149 114.136L35.7539 116.023C38.0176 116.816 40.4666 117.057 43.577 116.981C46.675 116.906 50.5062 116.514 55.5389 115.999L55.3354 114.01ZM55.4372 114.005H55.4372V116.005H55.4372V114.005ZM61.0271 113.428L55.3355 114.01L55.539 115.999L61.2306 115.417L61.0271 113.428ZM63.5283 113.211C62.8797 113.238 62.2351 113.304 61.0271 113.428L61.2306 115.417C62.4614 115.291 63.0362 115.233 63.6098 115.21L63.5283 113.211ZM65.2398 113.211C64.6695 113.188 64.0986 113.188 63.5283 113.211L63.6098 115.21C64.1258 115.189 64.6423 115.189 65.1583 115.21L65.2398 113.211ZM67.741 113.428C66.533 113.304 65.8884 113.238 65.2398 113.211L65.1583 115.21C65.7319 115.233 66.3067 115.291 67.5375 115.417L67.741 113.428ZM73.4326 114.01L67.741 113.428L67.5375 115.417L73.2291 115.999L73.4326 114.01ZM92.3532 114.136C90.4086 114.817 88.2293 115.055 85.2395 114.982C82.2373 114.909 78.4962 114.528 73.4326 114.01L73.2291 115.999C78.2618 116.514 82.093 116.906 85.1911 116.981C88.3015 117.057 90.7504 116.816 93.0142 116.023L92.3532 114.136ZM101.211 107.687C98.9555 110.66 95.8749 112.903 92.3532 114.136L93.0142 116.023C96.9065 114.66 100.311 112.182 102.804 108.896L101.211 107.687ZM106.903 89.6428C105.84 94.6207 105.054 98.2981 104.201 101.178C103.352 104.045 102.456 106.046 101.211 107.687L102.804 108.896C104.254 106.985 105.235 104.729 106.119 101.746C106.999 98.7743 107.803 95.0078 108.859 90.0604L106.903 89.6428ZM108.257 83.3016L106.903 89.6428L108.859 90.0604L110.213 83.7192L108.257 83.3016ZM108.8 80.934C108.632 81.5394 108.502 82.1527 108.257 83.3016L110.213 83.7192C110.463 82.5485 110.58 82.0019 110.728 81.4665L108.8 80.934ZM109.303 79.3562C109.115 79.8753 108.947 80.4016 108.8 80.934L110.728 81.4665C110.861 80.9848 111.013 80.5086 111.183 80.039L109.303 79.3562ZM110.232 77.1117C109.767 78.1903 109.518 78.7658 109.303 79.3562L111.183 80.039C111.373 79.5168 111.594 79.0034 112.068 77.9044L110.232 77.1117ZM113 70.7005L110.232 77.1117L112.068 77.9044L114.836 71.4932L113 70.7005ZM118.731 53.0097C118.782 55.0404 118.354 57.1552 117.4 59.9341C116.442 62.7249 114.98 66.1136 113 70.7005L114.836 71.4932C116.804 66.9345 118.303 63.4639 119.292 60.5834C120.285 57.6911 120.789 55.3226 120.73 52.9595L118.731 53.0097ZM115.397 42.7278C117.48 45.7601 118.638 49.332 118.731 53.0097L120.73 52.9595C120.628 48.8947 119.348 44.9469 117.046 41.5954L115.397 42.7278ZM100.377 31.7646C104.672 34.3171 107.844 36.2033 110.257 37.9011C112.66 39.5918 114.247 41.0536 115.397 42.7278L117.046 41.5954C115.707 39.647 113.909 38.0251 111.408 36.2654C108.917 34.513 105.667 32.5821 101.399 30.0453L100.377 31.7646ZM94.778 28.4371L100.377 31.7646L101.399 30.0453L95.7998 26.7178L94.778 28.4371ZM92.667 27.1379C93.1972 27.498 93.7474 27.8245 94.778 28.4371L95.7998 26.7178C94.7497 26.0937 94.2595 25.8019 93.7906 25.4834L92.667 27.1379ZM91.3083 26.133C91.7475 26.4861 92.2008 26.8213 92.667 27.1379L93.7906 25.4834C93.3688 25.197 92.9587 24.8936 92.5614 24.5742L91.3083 26.133ZM89.448 24.4947C90.3355 25.3009 90.8088 25.7314 91.3083 26.133L92.5614 24.5742C92.1196 24.2191 91.6971 23.8358 90.7929 23.0144L89.448 24.4947ZM85.2289 20.6618L89.448 24.4947L90.7929 23.0144L86.5737 19.1815L85.2289 20.6618ZM69.9079 9.21555C71.8965 9.81979 73.8118 10.93 76.2018 12.7823C78.6014 14.6421 81.4178 17.1996 85.2289 20.6618L86.5737 19.1815C82.7858 15.7403 79.9028 13.1203 77.4269 11.2014C74.9413 9.27502 72.8048 8.00551 70.4893 7.30194L69.9079 9.21555ZM58.8602 9.21555C62.4615 8.12131 66.3066 8.12131 69.9079 9.21555L70.4893 7.30194C66.509 6.09251 62.2591 6.09251 58.2788 7.30194L58.8602 9.21555ZM61.9864 60.6902C62.8488 59.9209 64.1512 59.9209 65.0136 60.6902L66.345 59.1977C64.7239 57.7517 62.2761 57.7517 60.655 59.1977L61.9864 60.6902ZM61.2955 61.1922C61.542 61.0483 61.7734 60.8802 61.9864 60.6902L60.655 59.1977C60.5417 59.2988 60.4186 59.3883 60.2875 59.4648L61.2955 61.1922ZM60.36 64.0713C59.8949 63.0133 60.2973 61.7747 61.2955 61.1922L60.2875 59.4648C58.4113 60.5597 57.6549 62.8877 58.5292 64.8763L60.36 64.0713ZM60.6239 64.8835C60.5633 64.6046 60.4749 64.3325 60.36 64.0713L58.5292 64.8763C58.5903 65.0153 58.6373 65.16 58.6696 65.3084L60.6239 64.8835ZM63.073 66.6628C61.9231 66.7783 60.8694 66.0128 60.6239 64.8834L58.6696 65.3084C59.1311 67.431 61.1114 68.8699 63.2728 68.6528L63.073 66.6628ZM63.927 66.6628C63.643 66.6343 63.357 66.6343 63.073 66.6628L63.2728 68.6528C63.4239 68.6377 63.5761 68.6377 63.7272 68.6528L63.927 66.6628ZM66.3761 64.8834C66.1306 66.0128 65.0769 66.7783 63.927 66.6628L63.7272 68.6528C65.8886 68.8699 67.8689 67.431 68.3304 65.3084L66.3761 64.8834ZM66.64 64.0713C66.5251 64.3325 66.4367 64.6046 66.3761 64.8835L68.3304 65.3084C68.3627 65.16 68.4097 65.0153 68.4708 64.8763L66.64 64.0713ZM65.7045 61.1922C66.7027 61.7747 67.1051 63.0133 66.64 64.0713L68.4708 64.8763C69.3451 62.8877 68.5887 60.5597 66.7125 59.4648L65.7045 61.1922ZM65.0136 60.6902C65.2266 60.8802 65.458 61.0483 65.7045 61.1922L66.7125 59.4648C66.5814 59.3883 66.4583 59.2988 66.345 59.1977L65.0136 60.6902Z" fill="url(#paint1_linear_1_9)" fill-opacity="0.5" mask="url(#path-1-outside-1_1_9)"/>
<mask id="path-3-outside-2_1_9" maskUnits="userSpaceOnUse" x="17.2649" y="16.3012" width="93" height="92" fill="black">
<rect fill="white" x="17.2649" y="16.3012" width="93" height="92"/>
<path fill-rule="evenodd" clip-rule="evenodd" d="M57.2208 18.3408C53.2037 19.6892 49.6263 22.965 42.4715 29.5164L42.4714 29.5165C41.6317 30.2854 41.2118 30.6699 40.7717 31.0291C40.3167 31.4006 39.8455 31.7519 39.3595 32.0818C38.8895 32.401 38.4011 32.6936 37.4243 33.2787L36.9751 33.5478L36.9751 33.5478C28.4795 38.637 24.2317 41.1816 21.7601 44.7917C19.5822 47.9727 18.37 51.7154 18.2696 55.5693C18.1556 59.943 20.1051 64.4947 24.0042 73.5981L24.4089 74.543L24.409 74.5431C24.8729 75.6262 25.1049 76.1678 25.3042 76.721C25.4814 77.2126 25.6392 77.711 25.7774 78.215C25.9328 78.7821 26.0549 79.3585 26.299 80.5113L26.4802 81.3666C28.4736 90.7784 29.4704 95.4844 31.9377 98.9072C34.4265 102.36 37.9518 104.929 42.0011 106.24C46.0153 107.54 50.8003 107.046 60.3703 106.06L60.3707 106.06C61.5334 105.94 62.1148 105.88 62.6975 105.854C63.2889 105.828 63.8812 105.828 64.4726 105.854C65.0552 105.88 65.6367 105.94 66.7995 106.06L66.7998 106.06C76.3698 107.046 81.1547 107.54 85.169 106.24C89.2182 104.929 92.7436 102.36 95.2324 98.9072C97.6997 95.4844 98.6964 90.7784 100.69 81.3666L100.871 80.5113L100.871 80.511C101.115 79.3584 101.237 78.7821 101.393 78.215C101.531 77.711 101.689 77.2126 101.866 76.721C102.065 76.1678 102.297 75.6262 102.761 74.543L103.166 73.5981C107.065 64.4947 109.014 59.943 108.9 55.5693C108.8 51.7154 107.588 47.9727 105.41 44.7917C102.938 41.1816 98.6906 38.637 90.195 33.5478L89.7458 33.2787L89.7456 33.2786C88.7689 32.6935 88.2806 32.401 87.8106 32.0818C87.3246 31.7519 86.8534 31.4006 86.3984 31.0291C85.9583 30.6699 85.5384 30.2854 84.6986 29.5164C77.5438 22.965 73.9664 19.6892 69.9493 18.3408C65.8197 16.9547 61.3504 16.9547 57.2208 18.3408ZM66.6793 60.944C65.4376 59.8363 63.5624 59.8363 62.3207 60.944C62.1576 61.0895 61.9803 61.2183 61.7915 61.3285C60.3543 62.1672 59.7749 63.9505 60.4446 65.4738C60.5326 65.6739 60.6003 65.8823 60.6467 66.0959C61.0003 67.7219 62.5173 68.8241 64.1729 68.6578C64.3904 68.636 64.6096 68.636 64.8271 68.6578C66.4827 68.8241 67.9997 67.7219 68.3533 66.0959C68.3997 65.8823 68.4674 65.6739 68.5554 65.4738C69.2251 63.9505 68.6457 62.1672 67.2085 61.3285C67.0197 61.2183 66.8424 61.0895 66.6793 60.944Z"/>
</mask>
<path fill-rule="evenodd" clip-rule="evenodd" d="M57.2208 18.3408C53.2037 19.6892 49.6263 22.965 42.4715 29.5164L42.4714 29.5165C41.6317 30.2854 41.2118 30.6699 40.7717 31.0291C40.3167 31.4006 39.8455 31.7519 39.3595 32.0818C38.8895 32.401 38.4011 32.6936 37.4243 33.2787L36.9751 33.5478L36.9751 33.5478C28.4795 38.637 24.2317 41.1816 21.7601 44.7917C19.5822 47.9727 18.37 51.7154 18.2696 55.5693C18.1556 59.943 20.1051 64.4947 24.0042 73.5981L24.4089 74.543L24.409 74.5431C24.8729 75.6262 25.1049 76.1678 25.3042 76.721C25.4814 77.2126 25.6392 77.711 25.7774 78.215C25.9328 78.7821 26.0549 79.3585 26.299 80.5113L26.4802 81.3666C28.4736 90.7784 29.4704 95.4844 31.9377 98.9072C34.4265 102.36 37.9518 104.929 42.0011 106.24C46.0153 107.54 50.8003 107.046 60.3703 106.06L60.3707 106.06C61.5334 105.94 62.1148 105.88 62.6975 105.854C63.2889 105.828 63.8812 105.828 64.4726 105.854C65.0552 105.88 65.6367 105.94 66.7995 106.06L66.7998 106.06C76.3698 107.046 81.1547 107.54 85.169 106.24C89.2182 104.929 92.7436 102.36 95.2324 98.9072C97.6997 95.4844 98.6964 90.7784 100.69 81.3666L100.871 80.5113L100.871 80.511C101.115 79.3584 101.237 78.7821 101.393 78.215C101.531 77.711 101.689 77.2126 101.866 76.721C102.065 76.1678 102.297 75.6262 102.761 74.543L103.166 73.5981C107.065 64.4947 109.014 59.943 108.9 55.5693C108.8 51.7154 107.588 47.9727 105.41 44.7917C102.938 41.1816 98.6906 38.637 90.195 33.5478L89.7458 33.2787L89.7456 33.2786C88.7689 32.6935 88.2806 32.401 87.8106 32.0818C87.3246 31.7519 86.8534 31.4006 86.3984 31.0291C85.9583 30.6699 85.5384 30.2854 84.6986 29.5164C77.5438 22.965 73.9664 19.6892 69.9493 18.3408C65.8197 16.9547 61.3504 16.9547 57.2208 18.3408ZM66.6793 60.944C65.4376 59.8363 63.5624 59.8363 62.3207 60.944C62.1576 61.0895 61.9803 61.2183 61.7915 61.3285C60.3543 62.1672 59.7749 63.9505 60.4446 65.4738C60.5326 65.6739 60.6003 65.8823 60.6467 66.0959C61.0003 67.7219 62.5173 68.8241 64.1729 68.6578C64.3904 68.636 64.6096 68.636 64.8271 68.6578C66.4827 68.8241 67.9997 67.7219 68.3533 66.0959C68.3997 65.8823 68.4674 65.6739 68.5554 65.4738C69.2251 63.9505 68.6457 62.1672 67.2085 61.3285C67.0197 61.2183 66.8424 61.0895 66.6793 60.944Z" fill="url(#paint2_linear_1_9)" fill-opacity="0.2"/>
<path d="M42.4715 29.5164L43.1375 30.2624L43.1468 30.254L42.4715 29.5164ZM57.2208 18.3408L57.539 19.2888V19.2888L57.2208 18.3408ZM42.4714 29.5165L41.8053 28.7705L41.7961 28.779L42.4714 29.5165ZM40.7717 31.0291L40.1393 30.2545L40.7717 31.0291ZM39.3595 32.0818L38.7977 31.2545L39.3595 32.0818ZM37.4243 33.2787L37.9382 34.1366L37.4243 33.2787ZM36.9751 33.5478L36.4612 32.6899L36.4405 32.7023L36.4204 32.7157L36.9751 33.5478ZM36.9751 33.5478L37.489 34.4057L37.5097 34.3932L37.5298 34.3798L36.9751 33.5478ZM21.7601 44.7917L22.5852 45.3566L21.7601 44.7917ZM18.2696 55.5693L17.2699 55.5433L18.2696 55.5693ZM24.0042 73.5981L24.9235 73.2043L24.0042 73.5981ZM24.4089 74.543L25.3303 74.1543L25.3282 74.1493L24.4089 74.543ZM24.409 74.5431L23.4876 74.9318L23.4898 74.9368L24.409 74.5431ZM25.3042 76.721L24.3634 77.06V77.06L25.3042 76.721ZM25.7774 78.215L26.7418 77.9507H26.7418L25.7774 78.215ZM26.299 80.5113L25.3207 80.7185H25.3207L26.299 80.5113ZM26.4802 81.3666L27.4585 81.1594L26.4802 81.3666ZM31.9377 98.9072L31.1264 99.492L31.9377 98.9072ZM42.0011 106.24L42.3091 105.288L42.0011 106.24ZM60.3703 106.06L60.4728 107.055L60.4749 107.055L60.3703 106.06ZM60.3707 106.06L60.2682 105.065L60.266 105.065L60.3707 106.06ZM62.6975 105.854L62.6531 104.855H62.6531L62.6975 105.854ZM64.4726 105.854L64.5169 104.855H64.5169L64.4726 105.854ZM66.7995 106.06L66.9235 105.068L66.9127 105.066L66.902 105.065L66.7995 106.06ZM66.7998 106.06L66.6758 107.052L66.6865 107.054L66.6973 107.055L66.7998 106.06ZM85.169 106.24L84.8609 105.288L85.169 106.24ZM95.2324 98.9072L96.0436 99.492V99.492L95.2324 98.9072ZM100.69 81.3666L99.7116 81.1594V81.1594L100.69 81.3666ZM100.871 80.5113L99.8967 80.2864L99.8946 80.2952L99.8928 80.3041L100.871 80.5113ZM100.871 80.511L101.846 80.7359L101.848 80.727L101.849 80.7182L100.871 80.511ZM101.393 78.215L100.428 77.9507L100.428 77.9507L101.393 78.215ZM101.866 76.721L100.925 76.3819H100.925L101.866 76.721ZM102.761 74.543L103.68 74.9367L103.68 74.9367L102.761 74.543ZM103.166 73.5981L102.247 73.2043L103.166 73.5981ZM108.9 55.5693L107.901 55.5954V55.5954L108.9 55.5693ZM105.41 44.7917L104.585 45.3566L105.41 44.7917ZM90.195 33.5478L90.7089 32.6899L90.7089 32.6899L90.195 33.5478ZM89.7458 33.2787L89.2158 34.1267L89.2238 34.1317L89.2319 34.1366L89.7458 33.2787ZM89.7456 33.2786L90.2756 32.4306L90.2676 32.4256L90.2595 32.4207L89.7456 33.2786ZM87.8106 32.0818L88.3724 31.2545L88.3724 31.2545L87.8106 32.0818ZM86.3984 31.0291L85.766 31.8038L85.766 31.8038L86.3984 31.0291ZM84.6986 29.5164L85.374 28.7789V28.7789L84.6986 29.5164ZM69.9493 18.3408L70.2675 17.3928V17.3928L69.9493 18.3408ZM62.3207 60.944L62.9864 61.6902L62.9864 61.6902L62.3207 60.944ZM66.6793 60.944L66.0136 61.6902L66.0136 61.6902L66.6793 60.944ZM61.7915 61.3285L62.2955 62.1922L62.2955 62.1922L61.7915 61.3285ZM60.4446 65.4738L59.5292 65.8763L59.5292 65.8763L60.4446 65.4738ZM60.6467 66.0959L59.6696 66.3084L59.6696 66.3084L60.6467 66.0959ZM64.1729 68.6578L64.2728 69.6528L64.2728 69.6528L64.1729 68.6578ZM64.8271 68.6578L64.7272 69.6528L64.7272 69.6528L64.8271 68.6578ZM68.3533 66.0959L69.3304 66.3084L69.3304 66.3084L68.3533 66.0959ZM68.5554 65.4738L69.4708 65.8763L69.4708 65.8763L68.5554 65.4738ZM67.2085 61.3285L66.7045 62.1922L66.7045 62.1922L67.2085 61.3285ZM43.1468 30.254C46.7351 26.9683 49.3868 24.541 51.6419 22.7627C53.8882 20.9914 55.6835 19.9117 57.539 19.2888L56.9026 17.3928C54.741 18.1184 52.739 19.3507 50.4036 21.1922C48.077 23.0268 45.3627 25.5131 41.7961 28.7789L43.1468 30.254ZM43.1374 30.2625L43.1375 30.2624L41.8054 28.7705L41.8054 28.7706L43.1374 30.2625ZM41.4041 31.8038C41.8712 31.4225 42.3149 31.0157 43.1467 30.254L41.7961 28.779C40.9485 29.5551 40.5524 29.9173 40.1393 30.2545L41.4041 31.8038ZM39.9212 32.9091C40.4315 32.5626 40.9263 32.1939 41.4041 31.8038L40.1393 30.2545C39.707 30.6074 39.2594 30.9411 38.7977 31.2545L39.9212 32.9091ZM37.9382 34.1366C38.9058 33.5569 39.4224 33.2479 39.9212 32.9091L38.7977 31.2545C38.3565 31.5541 37.8963 31.8302 36.9104 32.4208L37.9382 34.1366ZM37.489 34.4056L37.9382 34.1366L36.9104 32.4208L36.4612 32.6899L37.489 34.4056ZM37.5298 34.3798L37.5298 34.3798L36.4204 32.7157L36.4204 32.7157L37.5298 34.3798ZM22.5852 45.3566C23.7276 43.688 25.3026 42.2294 27.6867 40.5404C30.081 38.8442 33.2281 36.9581 37.489 34.4057L36.4612 32.6899C32.2265 35.2267 29.002 37.1575 26.5305 38.9084C24.0489 40.6666 22.2642 42.2852 20.935 44.2267L22.5852 45.3566ZM19.2692 55.5954C19.3647 51.9342 20.5162 48.3786 22.5852 45.3566L20.935 44.2267C18.6481 47.5668 17.3754 51.4967 17.2699 55.5433L19.2692 55.5954ZM24.9235 73.2043C22.9679 68.6386 21.524 65.2657 20.5787 62.4879C19.6374 59.7219 19.2166 57.6169 19.2692 55.5954L17.2699 55.5433C17.2086 57.8954 17.7055 60.253 18.6853 63.1322C19.6611 65.9995 21.1415 69.4541 23.085 73.9918L24.9235 73.2043ZM25.3282 74.1493L24.9235 73.2043L23.085 73.9918L23.4897 74.9367L25.3282 74.1493ZM25.3304 74.1544L25.3303 74.1543L23.4876 74.9317L23.4876 74.9318L25.3304 74.1544ZM26.245 76.3819C26.0334 75.7948 25.7878 75.2224 25.3282 74.1494L23.4898 74.9368C23.958 76.0301 24.1763 76.5407 24.3634 77.06L26.245 76.3819ZM26.7418 77.9507C26.5967 77.4215 26.431 76.8982 26.245 76.3819L24.3634 77.06C24.5317 77.5271 24.6817 78.0005 24.8129 78.4794L26.7418 77.9507ZM27.2773 80.3041C27.0355 79.1621 26.9068 78.5526 26.7418 77.9507L24.8129 78.4794C24.9588 79.0117 25.0743 79.5549 25.3207 80.7185L27.2773 80.3041ZM27.4585 81.1594L27.2773 80.3041L25.3207 80.7185L25.5019 81.5738L27.4585 81.1594ZM32.7489 98.3225C31.609 96.7411 30.7826 94.8303 29.9916 92.1041C29.1975 89.3669 28.4583 85.8797 27.4585 81.1594L25.5019 81.5738C26.4956 86.2653 27.2514 89.8369 28.0708 92.6614C28.8935 95.4969 29.799 97.6505 31.1264 99.492L32.7489 98.3225ZM42.3091 105.288C38.4624 104.043 35.1132 101.603 32.7489 98.3225L31.1264 99.492C33.7397 103.117 37.4413 105.814 41.693 107.191L42.3091 105.288ZM60.2677 105.065C55.4681 105.56 51.9221 105.925 49.0732 106.008C46.2359 106.09 44.1637 105.889 42.3091 105.288L41.693 107.191C43.8527 107.89 46.1802 108.093 49.1313 108.007C52.071 107.921 55.7025 107.546 60.4728 107.055L60.2677 105.065ZM60.266 105.065L60.2656 105.066L60.4749 107.055L60.4754 107.054L60.266 105.065ZM62.6531 104.855C62.0347 104.883 61.42 104.947 60.2682 105.065L60.4732 107.055C61.6468 106.934 62.195 106.878 62.7419 106.853L62.6531 104.855ZM64.5169 104.855C63.896 104.828 63.2741 104.828 62.6531 104.855L62.7419 106.853C63.3037 106.828 63.8664 106.828 64.4282 106.853L64.5169 104.855ZM66.902 105.065C65.7501 104.947 65.1354 104.883 64.5169 104.855L64.4282 106.853C64.9751 106.878 65.5233 106.934 66.6969 107.055L66.902 105.065ZM66.9239 105.068L66.9235 105.068L66.6754 107.052L66.6758 107.052L66.9239 105.068ZM84.8609 105.288C83.0064 105.889 80.9342 106.09 78.0968 106.008C75.248 105.925 71.702 105.56 66.9023 105.065L66.6973 107.055C71.4676 107.546 75.0991 107.921 78.0387 108.007C80.9899 108.093 83.3174 107.89 85.477 107.191L84.8609 105.288ZM94.4212 98.3225C92.0568 101.603 88.7077 104.043 84.8609 105.288L85.477 107.191C89.7287 105.814 93.4304 103.117 96.0436 99.492L94.4212 98.3225ZM99.7116 81.1594C98.7118 85.8797 97.9726 89.3669 97.1785 92.1041C96.3875 94.8303 95.5611 96.7411 94.4212 98.3225L96.0436 99.492C97.371 97.6505 98.2766 95.4969 99.0992 92.6614C99.9187 89.8369 100.675 86.2653 101.668 81.5738L99.7116 81.1594ZM99.8928 80.3041L99.7116 81.1594L101.668 81.5738L101.849 80.7185L99.8928 80.3041ZM99.8967 80.2861L99.8967 80.2864L101.845 80.7362L101.846 80.7359L99.8967 80.2861ZM100.428 77.9507C100.263 78.5526 100.135 79.162 99.8928 80.3038L101.849 80.7182C102.096 79.5549 102.211 79.0116 102.357 78.4794L100.428 77.9507ZM100.925 76.3819C100.739 76.8982 100.573 77.4215 100.428 77.9507L102.357 78.4794C102.488 78.0005 102.638 77.5271 102.807 77.06L100.925 76.3819ZM101.842 74.1493C101.382 75.2223 101.137 75.7948 100.925 76.3819L102.807 77.06C102.994 76.5407 103.212 76.03 103.68 74.9367L101.842 74.1493ZM102.247 73.2043L101.842 74.1493L103.68 74.9367L104.085 73.9918L102.247 73.2043ZM107.901 55.5954C107.954 57.6169 107.533 59.7219 106.591 62.4879C105.646 65.2657 104.202 68.6386 102.247 73.2043L104.085 73.9918C106.029 69.4542 107.509 65.9995 108.485 63.1322C109.465 60.253 109.961 57.8954 109.9 55.5433L107.901 55.5954ZM104.585 45.3566C106.654 48.3786 107.805 51.9342 107.901 55.5954L109.9 55.5433C109.795 51.4967 108.522 47.5668 106.235 44.2267L104.585 45.3566ZM89.6811 34.4056C93.942 36.9581 97.0891 38.8442 99.4834 40.5404C101.867 42.2294 103.442 43.688 104.585 45.3566L106.235 44.2267C104.906 42.2852 103.121 40.6665 100.64 38.9084C98.1681 37.1575 94.9435 35.2267 90.7089 32.6899L89.6811 34.4056ZM89.2319 34.1366L89.6811 34.4056L90.7089 32.6899L90.2597 32.4208L89.2319 34.1366ZM89.2156 34.1266L89.2158 34.1267L90.2758 32.4307L90.2756 32.4306L89.2156 34.1266ZM87.2488 32.9091C87.7476 33.2478 88.2642 33.5569 89.2317 34.1364L90.2595 32.4207C89.2737 31.8302 88.8135 31.5541 88.3724 31.2545L87.2488 32.9091ZM85.766 31.8038C86.2438 32.1939 86.7386 32.5627 87.2488 32.9091L88.3724 31.2545C87.9107 30.9411 87.4631 30.6074 87.0307 30.2545L85.766 31.8038ZM84.0233 30.254C84.8552 31.0157 85.2989 31.4225 85.766 31.8038L87.0308 30.2545C86.6176 29.9173 86.2216 29.5551 85.374 28.7789L84.0233 30.254ZM69.6311 19.2888C71.4866 19.9117 73.2818 20.9914 75.5281 22.7627C77.7833 24.541 80.435 26.9683 84.0233 30.254L85.374 28.7789C81.8074 25.5131 79.0931 23.0268 76.7665 21.1922C74.4311 19.3507 72.4291 18.1184 70.2675 17.3928L69.6311 19.2888ZM57.539 19.2888C61.4622 17.972 65.7079 17.972 69.6311 19.2888L70.2675 17.3928C65.9314 15.9373 61.2387 15.9373 56.9026 17.3928L57.539 19.2888ZM62.9864 61.6902C63.8488 60.9209 65.1512 60.9209 66.0136 61.6902L67.345 60.1977C65.7239 58.7517 63.2761 58.7517 61.655 60.1977L62.9864 61.6902ZM62.2955 62.1922C62.542 62.0483 62.7734 61.8802 62.9864 61.6902L61.655 60.1977C61.5417 60.2988 61.4186 60.3883 61.2875 60.4648L62.2955 62.1922ZM61.36 65.0713C60.8949 64.0133 61.2973 62.7747 62.2955 62.1922L61.2875 60.4648C59.4113 61.5597 58.6549 63.8877 59.5292 65.8763L61.36 65.0713ZM61.6239 65.8835C61.5633 65.6046 61.4749 65.3325 61.36 65.0713L59.5292 65.8763C59.5903 66.0153 59.6373 66.16 59.6696 66.3084L61.6239 65.8835ZM64.073 67.6628C62.9231 67.7783 61.8694 67.0128 61.6239 65.8834L59.6696 66.3084C60.1311 68.431 62.1114 69.8699 64.2728 69.6528L64.073 67.6628ZM64.927 67.6628C64.643 67.6343 64.357 67.6343 64.073 67.6628L64.2728 69.6528C64.4239 69.6377 64.5761 69.6377 64.7272 69.6528L64.927 67.6628ZM67.3761 65.8834C67.1306 67.0128 66.0769 67.7783 64.927 67.6628L64.7272 69.6528C66.8886 69.8699 68.8689 68.431 69.3304 66.3084L67.3761 65.8834ZM67.64 65.0713C67.5251 65.3325 67.4367 65.6046 67.3761 65.8835L69.3304 66.3084C69.3627 66.16 69.4097 66.0153 69.4708 65.8763L67.64 65.0713ZM66.7045 62.1922C67.7027 62.7747 68.1051 64.0133 67.64 65.0713L69.4708 65.8763C70.3451 63.8877 69.5887 61.5597 67.7125 60.4648L66.7045 62.1922ZM66.0136 61.6902C66.2266 61.8802 66.458 62.0483 66.7045 62.1922L67.7125 60.4648C67.5814 60.3883 67.4583 60.2988 67.345 60.1977L66.0136 61.6902Z" fill="url(#paint3_linear_1_9)" fill-opacity="0.75" mask="url(#path-3-outside-2_1_9)"/>
<g filter="url(#filter0_f_1_9)">
<mask id="path-5-outside-3_1_9" maskUnits="userSpaceOnUse" x="28.8805" y="30.0236" width="70" height="70" fill="black">
<rect fill="white" x="28.8805" y="30.0236" width="70" height="70"/>
<path d="M47.2788 38.7667C49.8004 36.4505 51.0612 35.2925 52.2874 34.4622C59.0594 29.8774 67.9406 29.8774 74.7126 34.4622C75.9388 35.2925 77.1996 36.4505 79.7212 38.7667C80.0177 39.039 80.1659 39.1751 80.3165 39.308C81.1254 40.0216 81.9906 40.6685 82.9039 41.2426C83.0739 41.3494 83.2494 41.4549 83.6004 41.6658C87.1753 43.814 88.9627 44.8881 90.3149 46.0753C95.8302 50.918 98.2499 58.3926 96.6189 65.5487C96.2191 67.3031 95.4125 69.1921 93.7993 72.9703L93.5977 73.4424C93.4106 73.8806 93.317 74.0997 93.2289 74.3206C92.8632 75.2368 92.5658 76.1788 92.3391 77.1389C92.2845 77.3703 92.2352 77.6034 92.1368 78.0696L91.9865 78.7815C91.2784 82.1351 90.9243 83.812 90.4041 85.2076C87.6037 92.7213 80.5864 97.8361 72.5761 98.202C71.0882 98.27 69.3835 98.0937 65.9741 97.7412C65.5573 97.6981 65.3489 97.6766 65.1406 97.6594C64.0487 97.5696 62.9513 97.5696 61.8594 97.6594C61.6511 97.6766 61.4427 97.6981 61.0259 97.7412C57.6165 98.0937 55.9118 98.27 54.4239 98.202C46.4136 97.8361 39.3963 92.7213 36.5959 85.2076C36.0757 83.812 35.7216 82.1351 35.0135 78.7815L34.8632 78.0696C34.7648 77.6034 34.7155 77.3703 34.6609 77.1389C34.4342 76.1788 34.1368 75.2368 33.7711 74.3206C33.683 74.0997 33.5894 73.8806 33.4023 73.4424L33.2007 72.9703C31.5875 69.1921 30.7809 67.3031 30.3811 65.5487C28.7501 58.3926 31.1698 50.918 36.6851 46.0753C38.0373 44.8881 39.8247 43.814 43.3996 41.6658C43.7506 41.4549 43.9261 41.3494 44.0962 41.2426C45.0094 40.6685 45.8747 40.0216 46.6835 39.308C46.8341 39.1751 46.9824 39.039 47.2788 38.7667Z"/>
</mask>
<path d="M47.2788 38.7667C49.8004 36.4505 51.0612 35.2925 52.2874 34.4622C59.0594 29.8774 67.9406 29.8774 74.7126 34.4622C75.9388 35.2925 77.1996 36.4505 79.7212 38.7667C80.0177 39.039 80.1659 39.1751 80.3165 39.308C81.1254 40.0216 81.9906 40.6685 82.9039 41.2426C83.0739 41.3494 83.2494 41.4549 83.6004 41.6658C87.1753 43.814 88.9627 44.8881 90.3149 46.0753C95.8302 50.918 98.2499 58.3926 96.6189 65.5487C96.2191 67.3031 95.4125 69.1921 93.7993 72.9703L93.5977 73.4424C93.4106 73.8806 93.317 74.0997 93.2289 74.3206C92.8632 75.2368 92.5658 76.1788 92.3391 77.1389C92.2845 77.3703 92.2352 77.6034 92.1368 78.0696L91.9865 78.7815C91.2784 82.1351 90.9243 83.812 90.4041 85.2076C87.6037 92.7213 80.5864 97.8361 72.5761 98.202C71.0882 98.27 69.3835 98.0937 65.9741 97.7412C65.5573 97.6981 65.3489 97.6766 65.1406 97.6594C64.0487 97.5696 62.9513 97.5696 61.8594 97.6594C61.6511 97.6766 61.4427 97.6981 61.0259 97.7412C57.6165 98.0937 55.9118 98.27 54.4239 98.202C46.4136 97.8361 39.3963 92.7213 36.5959 85.2076C36.0757 83.812 35.7216 82.1351 35.0135 78.7815L34.8632 78.0696C34.7648 77.6034 34.7155 77.3703 34.6609 77.1389C34.4342 76.1788 34.1368 75.2368 33.7711 74.3206C33.683 74.0997 33.5894 73.8806 33.4023 73.4424L33.2007 72.9703C31.5875 69.1921 30.7809 67.3031 30.3811 65.5487C28.7501 58.3926 31.1698 50.918 36.6851 46.0753C38.0373 44.8881 39.8247 43.814 43.3996 41.6658C43.7506 41.4549 43.9261 41.3494 44.0962 41.2426C45.0094 40.6685 45.8747 40.0216 46.6835 39.308C46.8341 39.1751 46.9824 39.039 47.2788 38.7667Z" fill="url(#paint4_radial_1_9)" fill-opacity="0.5"/>
<path d="M44.0962 41.2426L43.564 40.3959L44.0962 41.2426ZM46.6835 39.308L47.3451 40.0579L46.6835 39.308ZM33.2007 72.9703L34.1204 72.5776L33.2007 72.9703ZM30.3811 65.5487L31.3561 65.3264L30.3811 65.5487ZM36.6851 46.0753L36.0253 45.3239L36.6851 46.0753ZM34.8632 78.0696L33.8848 78.2762L34.8632 78.0696ZM34.6609 77.1389L33.6877 77.3686L34.6609 77.1389ZM33.4023 73.4424L32.4826 73.835L33.4023 73.4424ZM33.7711 74.3206L32.8424 74.6913L33.7711 74.3206ZM54.4239 98.202L54.4695 97.203L54.4239 98.202ZM36.5959 85.2076L37.5329 84.8584L36.5959 85.2076ZM65.1406 97.6594L65.0586 98.6561L65.1406 97.6594ZM61.8594 97.6594L61.9414 98.6561L61.8594 97.6594ZM90.4041 85.2076L89.4671 84.8584L90.4041 85.2076ZM72.5761 98.202L72.6218 99.201L72.5761 98.202ZM93.5977 73.4424L94.5174 73.835L93.5977 73.4424ZM93.2289 74.3206L94.1576 74.6913L93.2289 74.3206ZM92.1368 78.0696L93.1152 78.2762L92.1368 78.0696ZM92.3391 77.1389L93.3123 77.3686L92.3391 77.1389ZM90.3149 46.0753L89.6551 46.8268L90.3149 46.0753ZM93.7993 72.9703L92.8796 72.5776L93.7993 72.9703ZM96.6189 65.5487L95.6439 65.3265L96.6189 65.5487ZM80.3165 39.308L79.6549 40.0579L80.3165 39.308ZM82.9039 41.2426L82.3717 42.0892L82.9039 41.2426ZM74.7126 34.4622L74.152 35.2903L74.7126 34.4622ZM52.2874 34.4622L51.7268 33.6342L52.2874 34.4622ZM92.8796 72.5776L92.678 73.0497L94.5174 73.835L94.719 73.363L92.8796 72.5776ZM91.1584 77.863L91.0081 78.5749L92.9649 78.9881L93.1152 78.2762L91.1584 77.863ZM35.992 78.5749L35.8416 77.863L33.8848 78.2762L34.0351 78.9881L35.992 78.5749ZM34.322 73.0497L34.1204 72.5776L32.281 73.363L32.4826 73.835L34.322 73.0497ZM43.9147 42.523C44.2624 42.3141 44.4479 42.2026 44.6283 42.0892L43.564 40.3959C43.4044 40.4962 43.2389 40.5958 42.8845 40.8087L43.9147 42.523ZM46.6024 38.0302C46.3031 38.3051 46.1633 38.4334 46.022 38.5581L47.3451 40.0579C47.5049 39.9169 47.6616 39.7729 47.9553 39.5031L46.6024 38.0302ZM44.6283 42.0892C45.5872 41.4865 46.4958 40.8072 47.3451 40.0579L46.022 38.5581C45.2535 39.236 44.4315 39.8506 43.564 40.3959L44.6283 42.0892ZM34.1204 72.5776C32.4908 68.761 31.731 66.9714 31.3561 65.3264L29.4061 65.7709C29.8309 67.6347 30.6843 69.6233 32.281 73.363L34.1204 72.5776ZM42.8845 40.8087C39.3463 42.9349 37.462 44.0625 36.0253 45.3239L37.3449 46.8268C38.6126 45.7137 40.3032 44.6932 43.9147 42.523L42.8845 40.8087ZM31.3561 65.3264C29.8066 58.5281 32.1054 51.4273 37.3449 46.8268L36.0253 45.3239C30.2342 50.4087 27.6935 58.257 29.4061 65.7709L31.3561 65.3264ZM35.8416 77.863C35.7441 77.4011 35.6921 77.1547 35.6342 76.9091L33.6877 77.3686C33.739 77.5858 33.7854 77.8056 33.8848 78.2762L35.8416 77.863ZM32.4826 73.835C32.6715 74.2774 32.7596 74.484 32.8424 74.6913L34.6999 73.9499C34.6063 73.7155 34.5073 73.4838 34.322 73.0497L32.4826 73.835ZM35.6342 76.9091C35.3961 75.901 35.0839 74.9119 34.6999 73.9499L32.8424 74.6913C33.1898 75.5617 33.4723 76.4566 33.6877 77.3686L35.6342 76.9091ZM60.9231 96.7465C57.4789 97.1026 55.8645 97.2668 54.4695 97.203L54.3782 99.201C55.959 99.2732 57.7541 99.0848 61.1288 98.7359L60.9231 96.7465ZM34.0351 78.9881C34.736 82.3076 35.1062 84.0741 35.6588 85.5569L37.5329 84.8584C37.0452 83.5499 36.7073 81.9627 35.992 78.5749L34.0351 78.9881ZM54.4695 97.203C46.8598 96.8554 40.1933 91.9964 37.5329 84.8584L35.6588 85.5569C38.5993 93.4463 45.9675 98.8168 54.3782 99.201L54.4695 97.203ZM66.0769 96.7465C65.6641 96.7038 65.4438 96.681 65.2227 96.6628L65.0586 98.6561C65.2541 98.6722 65.4506 98.6924 65.8713 98.7359L66.0769 96.7465ZM61.1288 98.7359C61.5494 98.6924 61.7459 98.6722 61.9414 98.6561L61.7773 96.6628C61.5563 96.681 61.3359 96.7038 60.9231 96.7465L61.1288 98.7359ZM65.2227 96.6628C64.0762 96.5684 62.9238 96.5684 61.7773 96.6628L61.9414 98.6561C62.9787 98.5707 64.0213 98.5707 65.0586 98.6561L65.2227 96.6628ZM91.0081 78.5749C90.2927 81.9627 89.9548 83.5499 89.4671 84.8584L91.3412 85.5569C91.8938 84.0741 92.264 82.3076 92.9649 78.9881L91.0081 78.5749ZM65.8713 98.7359C69.2459 99.0848 71.041 99.2732 72.6218 99.201L72.5305 97.203C71.1355 97.2668 69.5211 97.1026 66.0769 96.7465L65.8713 98.7359ZM89.4671 84.8584C86.8067 91.9964 80.1402 96.8554 72.5305 97.203L72.6218 99.201C81.0325 98.8168 88.4007 93.4463 91.3412 85.5569L89.4671 84.8584ZM92.678 73.0497C92.4927 73.4838 92.3937 73.7155 92.3001 73.9499L94.1576 74.6913C94.2404 74.484 94.3285 74.2774 94.5174 73.835L92.678 73.0497ZM93.1152 78.2762C93.2146 77.8056 93.2611 77.5859 93.3123 77.3686L91.3659 76.9091C91.3079 77.1547 91.2559 77.4011 91.1584 77.863L93.1152 78.2762ZM92.3001 73.9499C91.9162 74.9119 91.6039 75.901 91.3659 76.9091L93.3123 77.3686C93.5277 76.4566 93.8102 75.5617 94.1576 74.6913L92.3001 73.9499ZM83.0853 42.523C86.6968 44.6932 88.3874 45.7137 89.6551 46.8268L90.9747 45.3239C89.538 44.0625 87.6538 42.9349 84.1155 40.8087L83.0853 42.523ZM94.719 73.363C96.3157 69.6233 97.1691 67.6347 97.5939 65.7709L95.6439 65.3265C95.269 66.9714 94.5092 68.761 92.8796 72.5776L94.719 73.363ZM89.6551 46.8268C94.8946 51.4273 97.1934 58.5281 95.6439 65.3265L97.5939 65.7709C99.3065 58.257 96.7658 50.4087 90.9747 45.3239L89.6551 46.8268ZM79.0447 39.5031C79.3384 39.7729 79.4951 39.9169 79.6549 40.0579L80.978 38.5581C80.8367 38.4334 80.6969 38.3051 80.3977 38.0302L79.0447 39.5031ZM84.1155 40.8087C83.7611 40.5958 83.5956 40.4962 83.436 40.3959L82.3717 42.0892C82.5522 42.2027 82.7376 42.3141 83.0853 42.523L84.1155 40.8087ZM79.6549 40.0579C80.5043 40.8072 81.4128 41.4865 82.3717 42.0892L83.436 40.3959C82.5685 39.8506 81.7465 39.236 80.978 38.5581L79.6549 40.0579ZM80.3977 38.0302C77.9018 35.7377 76.5761 34.5162 75.2732 33.6342L74.152 35.2903C75.3016 36.0687 76.4974 37.1634 79.0447 39.5031L80.3977 38.0302ZM47.9553 39.5031C50.5026 37.1634 51.6984 36.0687 52.8481 35.2903L51.7268 33.6342C50.424 34.5162 49.0982 35.7377 46.6024 38.0302L47.9553 39.5031ZM75.2732 33.6342C68.1626 28.8201 58.8374 28.8201 51.7268 33.6342L52.8481 35.2903C59.2815 30.9347 67.7185 30.9347 74.152 35.2903L75.2732 33.6342Z" fill="url(#paint5_linear_1_9)" fill-opacity="0.75" mask="url(#path-5-outside-3_1_9)"/>
</g>
<mask id="path-7-outside-4_1_9" maskUnits="userSpaceOnUse" x="26.0635" y="25.226" width="76" height="76" fill="black">
<rect fill="white" x="26.0635" y="25.226" width="76" height="76"/>
<path d="M46.1905 35.1066C49.6796 31.8435 51.4241 30.2119 53.1838 29.141C59.5704 25.2544 67.5916 25.2544 73.9782 29.141C75.7379 30.2119 77.4824 31.8435 80.9715 35.1066C81.3769 35.4858 81.5796 35.6754 81.787 35.8588C82.5238 36.5106 83.3077 37.1072 84.1322 37.6436C84.3643 37.7946 84.6062 37.9426 85.09 38.2386C90.1908 41.3595 92.7412 42.9199 94.5305 44.7851C98.7787 49.2131 100.759 55.3462 99.9025 61.4225C99.5418 63.9818 98.4066 66.6888 96.1364 72.1026L95.7901 72.9284C95.5291 73.5506 95.3987 73.8618 95.279 74.1765C94.982 74.9573 94.7343 75.7559 94.5373 76.5677C94.4578 76.8949 94.3893 77.2253 94.2523 77.886L93.9943 79.1301C93.0304 83.7783 92.5485 86.1024 91.7262 87.9942C88.8411 94.6319 82.5948 99.193 75.3938 99.9204C73.3415 100.128 70.981 99.8792 66.2599 99.3822C65.6756 99.3206 65.3834 99.2899 65.0911 99.2678C64.0858 99.1916 63.0762 99.1916 62.0709 99.2678C61.7786 99.2899 61.4864 99.3206 60.9021 99.3822C56.181 99.8792 53.8205 100.128 51.7682 99.9204C44.5672 99.193 38.3209 94.6319 35.4358 87.9941C34.6135 86.1024 34.1316 83.7783 33.1677 79.1301L32.9097 77.886C32.7727 77.2253 32.7042 76.8949 32.6247 76.5677C32.4277 75.7559 32.18 74.9573 31.883 74.1765C31.7633 73.8618 31.6329 73.5506 31.3719 72.9284L31.0256 72.1026C28.7554 66.6888 27.6202 63.9818 27.2595 61.4225C26.403 55.3462 28.3833 49.2131 32.6315 44.7851C34.4208 42.9199 36.9712 41.3595 42.072 38.2386C42.5558 37.9426 42.7977 37.7946 43.0298 37.6436C43.8543 37.1072 44.6382 36.5106 45.375 35.8588C45.5824 35.6754 45.7851 35.4858 46.1905 35.1066Z"/>
</mask>
<path d="M46.1905 35.1066C49.6796 31.8435 51.4241 30.2119 53.1838 29.141C59.5704 25.2544 67.5916 25.2544 73.9782 29.141C75.7379 30.2119 77.4824 31.8435 80.9715 35.1066C81.3769 35.4858 81.5796 35.6754 81.787 35.8588C82.5238 36.5106 83.3077 37.1072 84.1322 37.6436C84.3643 37.7946 84.6062 37.9426 85.09 38.2386C90.1908 41.3595 92.7412 42.9199 94.5305 44.7851C98.7787 49.2131 100.759 55.3462 99.9025 61.4225C99.5418 63.9818 98.4066 66.6888 96.1364 72.1026L95.7901 72.9284C95.5291 73.5506 95.3987 73.8618 95.279 74.1765C94.982 74.9573 94.7343 75.7559 94.5373 76.5677C94.4578 76.8949 94.3893 77.2253 94.2523 77.886L93.9943 79.1301C93.0304 83.7783 92.5485 86.1024 91.7262 87.9942C88.8411 94.6319 82.5948 99.193 75.3938 99.9204C73.3415 100.128 70.981 99.8792 66.2599 99.3822C65.6756 99.3206 65.3834 99.2899 65.0911 99.2678C64.0858 99.1916 63.0762 99.1916 62.0709 99.2678C61.7786 99.2899 61.4864 99.3206 60.9021 99.3822C56.181 99.8792 53.8205 100.128 51.7682 99.9204C44.5672 99.193 38.3209 94.6319 35.4358 87.9941C34.6135 86.1024 34.1316 83.7783 33.1677 79.1301L32.9097 77.886C32.7727 77.2253 32.7042 76.8949 32.6247 76.5677C32.4277 75.7559 32.18 74.9573 31.883 74.1765C31.7633 73.8618 31.6329 73.5506 31.3719 72.9284L31.0256 72.1026C28.7554 66.6888 27.6202 63.9818 27.2595 61.4225C26.403 55.3462 28.3833 49.2131 32.6315 44.7851C34.4208 42.9199 36.9712 41.3595 42.072 38.2386C42.5558 37.9426 42.7977 37.7946 43.0298 37.6436C43.8543 37.1072 44.6382 36.5106 45.375 35.8588C45.5824 35.6754 45.7851 35.4858 46.1905 35.1066Z" fill="url(#paint6_linear_1_9)" fill-opacity="0.2"/>
<path d="M43.0298 37.6436L43.5751 38.4818L43.0298 37.6436ZM45.375 35.8588L46.0376 36.6078L45.375 35.8588ZM31.0256 72.1026L31.9478 71.7159L31.0256 72.1026ZM27.2595 61.4225L26.2693 61.562L27.2595 61.4225ZM32.6315 44.7851L33.3531 45.4774L32.6315 44.7851ZM32.6247 76.5677L31.653 76.8036L32.6247 76.5677ZM31.3719 72.9284L30.4497 73.3151L31.3719 72.9284ZM31.883 74.1765L30.9483 74.5319L31.883 74.1765ZM51.7682 99.9204L51.6677 100.915L51.7682 99.9204ZM33.1677 79.1301L34.1468 78.927L33.1677 79.1301ZM35.4358 87.9941L36.3529 87.5955L35.4358 87.9941ZM65.0911 99.2678L65.1666 98.2706L65.0911 99.2678ZM62.0709 99.2678L62.1464 100.265L62.0709 99.2678ZM93.9943 79.1301L94.9735 79.3331L93.9943 79.1301ZM91.7262 87.9942L90.8091 87.5955L91.7262 87.9942ZM75.3938 99.9204L75.2933 98.9254L75.3938 99.9204ZM95.7901 72.9284L96.7123 73.3151L95.7901 72.9284ZM95.279 74.1765L96.2137 74.5319L95.279 74.1765ZM94.2523 77.886L93.2731 77.6829L94.2523 77.886ZM94.5373 76.5677L95.509 76.8036L94.5373 76.5677ZM94.5305 44.7851L95.2521 44.0928L94.5305 44.7851ZM96.1364 72.1026L97.0586 72.4893L96.1364 72.1026ZM99.9025 61.4225L100.893 61.562L99.9025 61.4225ZM81.787 35.8588L81.1244 36.6078L81.787 35.8588ZM84.1322 37.6436L83.5869 38.4818L84.1322 37.6436ZM73.9782 29.141L74.4981 28.2868L73.9782 29.141ZM53.1838 29.141L52.6639 28.2868L53.1838 29.141ZM95.2142 71.7159L94.8679 72.5416L96.7123 73.3151L97.0586 72.4893L95.2142 71.7159ZM93.2731 77.6829L93.0152 78.927L94.9735 79.3331L95.2315 78.0891L93.2731 77.6829ZM34.1468 78.927L33.8889 77.6829L31.9305 78.0891L32.1885 79.3331L34.1468 78.927ZM32.2941 72.5416L31.9478 71.7159L30.1034 72.4893L30.4497 73.3151L32.2941 72.5416ZM42.5939 39.0916C43.0731 38.7984 43.3287 38.6421 43.5751 38.4818L42.4844 36.8054C42.2666 36.9471 42.0385 37.0868 41.5501 37.3856L42.5939 39.0916ZM45.5074 34.3763C45.0982 34.759 44.9071 34.9376 44.7124 35.1098L46.0376 36.6078C46.2577 36.4131 46.4719 36.2126 46.8735 35.837L45.5074 34.3763ZM43.5751 38.4818C44.4409 37.9186 45.264 37.2922 46.0376 36.6078L44.7124 35.1098C44.0125 35.729 43.2678 36.2958 42.4844 36.8054L43.5751 38.4818ZM31.9478 71.7159C29.6543 66.2465 28.5879 63.6827 28.2497 61.2829L26.2693 61.562C26.6525 64.281 27.8564 67.131 30.1034 72.4893L31.9478 71.7159ZM41.5501 37.3856C36.502 40.4743 33.811 42.1111 31.9099 44.0928L33.3531 45.4774C35.0307 43.7288 37.4405 42.2447 42.5939 39.0916L41.5501 37.3856ZM28.2497 61.2829C27.4361 55.5105 29.3173 49.684 33.3531 45.4774L31.9099 44.0928C27.4493 48.7422 25.37 55.182 26.2693 61.562L28.2497 61.2829ZM33.8889 77.6829C33.7531 77.0284 33.6808 76.6791 33.5965 76.3318L31.653 76.8036C31.7275 77.1108 31.7922 77.4222 31.9305 78.0891L33.8889 77.6829ZM30.4497 73.3151C30.7131 73.9432 30.836 74.2365 30.9483 74.5319L32.8177 73.821C32.6907 73.487 32.5526 73.1581 32.2941 72.5416L30.4497 73.3151ZM33.5965 76.3318C33.3896 75.4795 33.1295 74.6409 32.8177 73.821L30.9483 74.5319C31.2304 75.2737 31.4658 76.0324 31.653 76.8036L33.5965 76.3318ZM60.7974 98.3877C56.028 98.8897 53.7929 99.1198 51.8687 98.9254L51.6677 100.915C53.8482 101.136 56.3341 100.869 61.0068 100.377L60.7974 98.3877ZM32.1885 79.3331C33.1425 83.9337 33.6451 86.3829 34.5187 88.3928L36.3529 87.5955C35.582 85.8219 35.1206 83.6228 34.1468 78.927L32.1885 79.3331ZM51.8687 98.9254C45.0277 98.2345 39.0938 93.9014 36.3529 87.5955L34.5187 88.3928C37.5481 95.3624 44.1066 100.152 51.6677 100.915L51.8687 98.9254ZM66.3646 98.3877C65.7857 98.3267 65.4768 98.2941 65.1666 98.2706L65.0156 100.265C65.2899 100.286 65.5654 100.315 66.1552 100.377L66.3646 98.3877ZM61.0068 100.377C61.5966 100.315 61.8721 100.286 62.1464 100.265L61.9954 98.2706C61.6852 98.2941 61.3763 98.3267 60.7974 98.3877L61.0068 100.377ZM65.1666 98.2706C64.111 98.1907 63.0509 98.1907 61.9954 98.2706L62.1464 100.265C63.1014 100.193 64.0606 100.193 65.0156 100.265L65.1666 98.2706ZM93.0152 78.927C92.0414 83.6228 91.58 85.8219 90.8091 87.5955L92.6433 88.3928C93.5169 86.3829 94.0195 83.9337 94.9735 79.3331L93.0152 78.927ZM66.1552 100.377C70.8279 100.869 73.3138 101.136 75.4943 100.915L75.2933 98.9254C73.3691 99.1198 71.134 98.8897 66.3646 98.3877L66.1552 100.377ZM90.8091 87.5955C88.0682 93.9014 82.1343 98.2345 75.2933 98.9254L75.4943 100.915C83.0554 100.152 89.6139 95.3624 92.6433 88.3928L90.8091 87.5955ZM94.8679 72.5416C94.6094 73.1581 94.4713 73.487 94.3443 73.821L96.2137 74.5319C96.326 74.2365 96.4489 73.9432 96.7123 73.3151L94.8679 72.5416ZM95.2315 78.0891C95.3698 77.4222 95.4345 77.1108 95.509 76.8036L93.5655 76.3318C93.4812 76.6791 93.4089 77.0284 93.2731 77.6829L95.2315 78.0891ZM94.3443 73.821C94.0325 74.6409 93.7724 75.4795 93.5655 76.3318L95.509 76.8036C95.6962 76.0324 95.9316 75.2737 96.2137 74.5319L94.3443 73.821ZM84.5681 39.0916C89.7215 42.2447 92.1313 43.7288 93.8089 45.4774L95.2521 44.0928C93.351 42.1111 90.66 40.4743 85.6119 37.3856L84.5681 39.0916ZM97.0586 72.4893C99.3056 67.131 100.509 64.281 100.893 61.562L98.9123 61.2829C98.5741 63.6827 97.5077 66.2465 95.2142 71.7159L97.0586 72.4893ZM93.8089 45.4774C97.8447 49.684 99.7259 55.5105 98.9123 61.2829L100.893 61.562C101.792 55.182 99.7127 48.7422 95.2521 44.0928L93.8089 45.4774ZM80.2885 35.837C80.6901 36.2126 80.9043 36.4131 81.1244 36.6078L82.4496 35.1098C82.2549 34.9376 82.0638 34.759 81.6546 34.3763L80.2885 35.837ZM85.6119 37.3856C85.1235 37.0868 84.8954 36.9471 84.6775 36.8054L83.5869 38.4818C83.8333 38.6421 84.0889 38.7984 84.5681 39.0916L85.6119 37.3856ZM81.1244 36.6078C81.898 37.2922 82.7211 37.9186 83.5869 38.4818L84.6775 36.8054C83.8942 36.2958 83.1495 35.729 82.4496 35.1098L81.1244 36.6078ZM81.6546 34.3763C78.2013 31.1466 76.3677 29.4245 74.4981 28.2868L73.4584 29.9953C75.108 30.9992 76.7635 32.5403 80.2885 35.837L81.6546 34.3763ZM46.8735 35.837C50.3985 32.5403 52.054 30.9992 53.7036 29.9953L52.6639 28.2868C50.7943 29.4245 48.9607 31.1466 45.5074 34.3763L46.8735 35.837ZM74.4981 28.2868C67.7921 24.2058 59.3699 24.2058 52.6639 28.2868L53.7036 29.9953C59.771 26.303 67.391 26.303 73.4584 29.9953L74.4981 28.2868Z" fill="url(#paint7_linear_1_9)" fill-opacity="0.75" mask="url(#path-7-outside-4_1_9)"/>
<mask id="path-9-inside-5_1_9" fill="white">
<path fill-rule="evenodd" clip-rule="evenodd" d="M52.0214 40.7131C51.6172 41.0299 51.1575 41.43 50.238 42.2302L50.1295 42.3245C49.1615 43.1612 48.1154 43.903 47.0057 44.5398L46.8873 44.6074L46.6079 44.7664L46.6076 44.7666C46.3615 44.9067 46.2384 44.9768 46.1326 45.0388C37.3918 50.1581 33.8587 61.0041 37.907 70.2896C37.956 70.4021 38.0143 70.5312 38.1307 70.7896L38.1586 70.8516C38.7068 72.0736 39.1309 73.3477 39.4245 74.6545L39.4403 74.7254C39.5877 75.3868 39.6614 75.7174 39.7308 75.992C42.1025 85.3746 50.8519 91.713 60.5064 91.0426C60.7888 91.023 61.1122 90.9913 61.7589 90.9279L61.7593 90.9279L62.2762 90.8773C62.4095 90.8642 62.4761 90.8577 62.5427 90.8516C63.7513 90.7414 64.9675 90.7414 66.1762 90.8516C66.2427 90.8577 66.3094 90.8642 66.4426 90.8773L66.9595 90.9279L66.96 90.9279C67.6067 90.9913 67.9301 91.023 68.2125 91.0426C77.867 91.713 86.6164 85.3746 88.9881 75.992C89.0574 75.7175 89.1311 75.3869 89.2784 74.7259L89.2786 74.7254L89.2944 74.6545C89.5879 73.3477 90.012 72.0736 90.5603 70.8516L90.5882 70.7896C90.7046 70.5312 90.7628 70.4021 90.8119 70.2896C94.8602 61.0041 91.327 50.1581 82.5863 45.0388C82.4804 44.9768 82.3573 44.9066 82.111 44.7664L81.8316 44.6074L81.7132 44.5398C80.6035 43.903 79.5574 43.1612 78.5894 42.3245L78.4809 42.2302C77.5614 41.43 77.1016 41.0299 76.6975 40.7131C69.4523 35.0342 59.2665 35.0342 52.0214 40.7131ZM65.9812 60.7673C64.8523 59.7603 63.1477 59.7603 62.0188 60.7673C61.8705 60.8995 61.7093 61.0166 61.5377 61.1168C60.2312 61.8792 59.7044 63.5005 60.3133 64.8853C60.3932 65.0672 60.4548 65.2566 60.497 65.4508C60.8184 66.929 62.1975 67.931 63.7027 67.7799C63.9004 67.76 64.0996 67.76 64.2973 67.7799C65.8025 67.931 67.1816 66.929 67.503 65.4508C67.5452 65.2566 67.6068 65.0672 67.6867 64.8853C68.2956 63.5005 67.7688 61.8792 66.4623 61.1168C66.2907 61.0166 66.1295 60.8995 65.9812 60.7673Z"/>
</mask>
<path fill-rule="evenodd" clip-rule="evenodd" d="M52.0214 40.7131C51.6172 41.0299 51.1575 41.43 50.238 42.2302L50.1295 42.3245C49.1615 43.1612 48.1154 43.903 47.0057 44.5398L46.8873 44.6074L46.6079 44.7664L46.6076 44.7666C46.3615 44.9067 46.2384 44.9768 46.1326 45.0388C37.3918 50.1581 33.8587 61.0041 37.907 70.2896C37.956 70.4021 38.0143 70.5312 38.1307 70.7896L38.1586 70.8516C38.7068 72.0736 39.1309 73.3477 39.4245 74.6545L39.4403 74.7254C39.5877 75.3868 39.6614 75.7174 39.7308 75.992C42.1025 85.3746 50.8519 91.713 60.5064 91.0426C60.7888 91.023 61.1122 90.9913 61.7589 90.9279L61.7593 90.9279L62.2762 90.8773C62.4095 90.8642 62.4761 90.8577 62.5427 90.8516C63.7513 90.7414 64.9675 90.7414 66.1762 90.8516C66.2427 90.8577 66.3094 90.8642 66.4426 90.8773L66.9595 90.9279L66.96 90.9279C67.6067 90.9913 67.9301 91.023 68.2125 91.0426C77.867 91.713 86.6164 85.3746 88.9881 75.992C89.0574 75.7175 89.1311 75.3869 89.2784 74.7259L89.2786 74.7254L89.2944 74.6545C89.5879 73.3477 90.012 72.0736 90.5603 70.8516L90.5882 70.7896C90.7046 70.5312 90.7628 70.4021 90.8119 70.2896C94.8602 61.0041 91.327 50.1581 82.5863 45.0388C82.4804 44.9768 82.3573 44.9066 82.111 44.7664L81.8316 44.6074L81.7132 44.5398C80.6035 43.903 79.5574 43.1612 78.5894 42.3245L78.4809 42.2302C77.5614 41.43 77.1016 41.0299 76.6975 40.7131C69.4523 35.0342 59.2665 35.0342 52.0214 40.7131ZM65.9812 60.7673C64.8523 59.7603 63.1477 59.7603 62.0188 60.7673C61.8705 60.8995 61.7093 61.0166 61.5377 61.1168C60.2312 61.8792 59.7044 63.5005 60.3133 64.8853C60.3932 65.0672 60.4548 65.2566 60.497 65.4508C60.8184 66.929 62.1975 67.931 63.7027 67.7799C63.9004 67.76 64.0996 67.76 64.2973 67.7799C65.8025 67.931 67.1816 66.929 67.503 65.4508C67.5452 65.2566 67.6068 65.0672 67.6867 64.8853C68.2956 63.5005 67.7688 61.8792 66.4623 61.1168C66.2907 61.0166 66.1295 60.8995 65.9812 60.7673Z" fill="url(#paint8_radial_1_9)" fill-opacity="0.75"/>
<path d="M50.238 42.2302L50.8939 42.9851L50.8945 42.9846L50.238 42.2302ZM52.0214 40.7131L52.6383 41.5002L52.0214 40.7131ZM50.1295 42.3245L50.7834 43.0811L50.7853 43.0794L50.1295 42.3245ZM47.0057 44.5398L47.5012 45.4084L47.5034 45.4071L47.0057 44.5398ZM46.8873 44.6074L47.382 45.4764L47.3828 45.476L46.8873 44.6074ZM46.6079 44.7664L47.1015 45.6361L47.1027 45.6354L46.6079 44.7664ZM46.6076 44.7666L46.114 43.8969L46.1128 43.8976L46.6076 44.7666ZM46.1326 45.0388L46.638 45.9017L46.638 45.9016L46.1326 45.0388ZM37.907 70.2896L38.8237 69.8899L38.8237 69.8899L37.907 70.2896ZM38.1307 70.7896L39.0426 70.3791L39.0424 70.3788L38.1307 70.7896ZM38.1586 70.8516L39.071 70.4423L39.0705 70.4411L38.1586 70.8516ZM39.4245 74.6545L40.4005 74.4366L40.4002 74.4353L39.4245 74.6545ZM39.4403 74.7254L40.4164 74.5078L40.4163 74.5075L39.4403 74.7254ZM39.7308 75.992L40.7003 75.7469L40.7003 75.7469L39.7308 75.992ZM60.5064 91.0426L60.5756 92.0402H60.5756L60.5064 91.0426ZM61.7589 90.9279L61.8564 91.9232L61.8584 91.923L61.7589 90.9279ZM61.7593 90.9279L61.6618 89.9327L61.6598 89.9329L61.7593 90.9279ZM62.2762 90.8773L62.3737 91.8725H62.3737L62.2762 90.8773ZM62.5427 90.8516L62.4518 89.8558H62.4518L62.5427 90.8516ZM66.1762 90.8516L66.2671 89.8558H66.2671L66.1762 90.8516ZM66.4426 90.8773L66.3451 91.8725H66.3451L66.4426 90.8773ZM66.9595 90.9279L67.0591 89.9329L67.057 89.9327L66.9595 90.9279ZM66.96 90.9279L66.8605 91.923L66.8625 91.9232L66.96 90.9279ZM68.2125 91.0426L68.1432 92.0402H68.1432L68.2125 91.0426ZM88.9881 75.992L89.9576 76.2371L88.9881 75.992ZM89.2784 74.7259L88.3027 74.5069L88.3024 74.5084L89.2784 74.7259ZM89.2786 74.7254L90.2543 74.9444L90.2545 74.9433L89.2786 74.7254ZM89.2944 74.6545L88.3187 74.4353L88.3184 74.4366L89.2944 74.6545ZM90.5603 70.8516L89.6484 70.4411L89.6479 70.4423L90.5603 70.8516ZM90.5882 70.7896L89.6765 70.3788L89.6763 70.3791L90.5882 70.7896ZM90.8119 70.2896L89.8952 69.8899L89.8952 69.8899L90.8119 70.2896ZM82.5863 45.0388L83.0917 44.1759L83.0917 44.1759L82.5863 45.0388ZM82.111 44.7664L82.6058 43.8974L82.6057 43.8974L82.111 44.7664ZM81.8316 44.6074L81.3361 45.476L81.3368 45.4764L81.8316 44.6074ZM81.7132 44.5398L81.2154 45.4071L81.2177 45.4084L81.7132 44.5398ZM78.5894 42.3245L77.9335 43.0794L77.9355 43.0811L78.5894 42.3245ZM78.4809 42.2302L77.8244 42.9846L77.825 42.9851L78.4809 42.2302ZM76.6975 40.7131L77.3144 39.9261L77.3144 39.9261L76.6975 40.7131ZM62.0188 60.7673L62.6845 61.5135L62.6845 61.5135L62.0188 60.7673ZM65.9812 60.7673L65.3155 61.5135L65.3155 61.5135L65.9812 60.7673ZM61.5377 61.1168L62.0417 61.9805H62.0417L61.5377 61.1168ZM60.3133 64.8853L59.3978 65.2877V65.2877L60.3133 64.8853ZM60.497 65.4508L59.5199 65.6633V65.6633L60.497 65.4508ZM63.7027 67.7799L63.6028 66.7849H63.6028L63.7027 67.7799ZM64.2973 67.7799L64.3972 66.7849H64.3972L64.2973 67.7799ZM67.503 65.4508L66.5258 65.2384L66.5258 65.2384L67.503 65.4508ZM67.6867 64.8853L68.6022 65.2877V65.2877L67.6867 64.8853ZM66.4623 61.1168L65.9583 61.9805H65.9583L66.4623 61.1168ZM50.8945 42.9846C51.8234 42.1762 52.2594 41.7971 52.6383 41.5002L51.4045 39.9261C50.975 40.2627 50.4916 40.6839 49.5815 41.4759L50.8945 42.9846ZM50.7853 43.0794L50.8939 42.9851L49.5821 41.4754L49.4736 41.5697L50.7853 43.0794ZM47.5034 45.4071C48.6686 44.7385 49.767 43.9596 50.7834 43.0811L49.4755 41.568C48.556 42.3628 47.5622 43.0675 46.508 43.6725L47.5034 45.4071ZM47.3828 45.476L47.5012 45.4084L46.5102 43.6712L46.3918 43.7388L47.3828 45.476ZM47.1027 45.6354L47.382 45.4764L46.3925 43.7383L46.1131 43.8974L47.1027 45.6354ZM47.1012 45.6363L47.1015 45.6361L46.1143 43.8967L46.114 43.8969L47.1012 45.6363ZM46.638 45.9016C46.7372 45.8435 46.8538 45.7772 47.1023 45.6356L46.1128 43.8976C45.8692 44.0363 45.7396 44.11 45.6272 44.1759L46.638 45.9016ZM38.8237 69.8899C34.9778 61.0687 38.3343 50.7651 46.638 45.9017L45.6272 44.1759C36.4494 49.5512 32.7396 60.9395 36.9903 70.6892L38.8237 69.8899ZM39.0424 70.3788C38.9248 70.1178 38.8697 69.9954 38.8237 69.8899L36.9903 70.6892C37.0424 70.8087 37.1038 70.9447 37.219 71.2005L39.0424 70.3788ZM39.0705 70.4411L39.0426 70.3791L37.2188 71.2001L37.2467 71.2621L39.0705 70.4411ZM40.4002 74.4353C40.0919 73.0631 39.6466 71.7254 39.071 70.4423L37.2462 71.2609C37.767 72.4219 38.1699 73.6322 38.4488 74.8736L40.4002 74.4353ZM40.4163 74.5075L40.4005 74.4366L38.4485 74.8724L38.4643 74.9433L40.4163 74.5075ZM40.7003 75.7469C40.6353 75.4896 40.5653 75.176 40.4164 74.5078L38.4643 74.9429C38.6101 75.5975 38.6876 75.9453 38.7613 76.2371L40.7003 75.7469ZM60.4371 90.045C51.2653 90.6819 42.9534 84.6604 40.7003 75.7469L38.7613 76.2371C41.2516 86.0888 50.4384 92.7441 60.5756 92.0402L60.4371 90.045ZM61.6614 89.9327C61.0082 89.9967 60.7019 90.0266 60.4371 90.045L60.5756 92.0402C60.8757 92.0193 61.2162 91.9859 61.8564 91.9232L61.6614 89.9327ZM61.6598 89.9329L61.6594 89.9329L61.8584 91.923L61.8588 91.9229L61.6598 89.9329ZM62.1788 89.882L61.6618 89.9327L61.8568 91.9231L62.3737 91.8725L62.1788 89.882ZM62.4518 89.8558C62.3812 89.8622 62.3108 89.8691 62.1787 89.882L62.3737 91.8725C62.5082 91.8593 62.5711 91.8532 62.6335 91.8475L62.4518 89.8558ZM66.2671 89.8558C64.9979 89.74 63.7209 89.74 62.4518 89.8558L62.6335 91.8475C63.7817 91.7427 64.9371 91.7427 66.0854 91.8475L66.2671 89.8558ZM66.5401 89.882C66.4081 89.8691 66.3377 89.8622 66.2671 89.8558L66.0854 91.8475C66.1478 91.8532 66.2106 91.8593 66.3451 91.8725L66.5401 89.882ZM67.057 89.9327L66.5401 89.882L66.3451 91.8725L66.8621 91.9231L67.057 89.9327ZM67.0595 89.9329L67.059 89.9329L66.86 91.9229L66.8605 91.923L67.0595 89.9329ZM68.2818 90.045C68.017 90.0266 67.7107 89.9967 67.0575 89.9327L66.8625 91.9232C67.5026 91.9859 67.8432 92.0193 68.1432 92.0402L68.2818 90.045ZM88.0186 75.7469C85.7654 84.6604 77.4535 90.6819 68.2818 90.045L68.1432 92.0402C78.2804 92.7441 87.4673 86.0888 89.9576 76.2371L88.0186 75.7469ZM88.3024 74.5084C88.1536 75.1762 88.0836 75.4897 88.0186 75.7469L89.9576 76.2371C90.0313 75.9454 90.1087 75.5977 90.2545 74.9434L88.3024 74.5084ZM88.3028 74.5063L88.3027 74.5069L90.2541 74.945L90.2543 74.9444L88.3028 74.5063ZM88.3184 74.4366L88.3026 74.5075L90.2545 74.9433L90.2704 74.8724L88.3184 74.4366ZM89.6479 70.4423C89.0722 71.7254 88.6269 73.0631 88.3187 74.4353L90.2701 74.8736C90.5489 73.6322 90.9518 72.4219 91.4727 71.2609L89.6479 70.4423ZM89.6763 70.3791L89.6484 70.4411L91.4721 71.2621L91.5 71.2001L89.6763 70.3791ZM89.8952 69.8899C89.8492 69.9954 89.7941 70.1178 89.6765 70.3788L91.4999 71.2005C91.6151 70.9447 91.6764 70.8087 91.7285 70.6892L89.8952 69.8899ZM82.0809 45.9016C90.3846 50.7651 93.7411 61.0687 89.8952 69.8899L91.7285 70.6892C95.9792 60.9395 92.2695 49.5512 83.0917 44.1759L82.0809 45.9016ZM81.6162 45.6354C81.865 45.7771 81.9816 45.8435 82.0809 45.9016L83.0917 44.1759C82.9792 44.11 82.8495 44.0362 82.6058 43.8974L81.6162 45.6354ZM81.3368 45.4764L81.6162 45.6354L82.6057 43.8974L82.3264 43.7383L81.3368 45.4764ZM81.2177 45.4084L81.3361 45.476L82.3271 43.7388L82.2087 43.6712L81.2177 45.4084ZM77.9355 43.0811C78.9519 43.9596 80.0502 44.7385 81.2154 45.4071L82.2109 43.6725C81.1567 43.0675 80.1629 42.3628 79.2433 41.568L77.9355 43.0811ZM77.825 42.9851L77.9335 43.0794L79.2453 41.5697L79.1368 41.4754L77.825 42.9851ZM76.0806 41.5002C76.4594 41.7971 76.8955 42.1762 77.8244 42.9846L79.1374 41.4759C78.2273 40.6839 77.7439 40.2627 77.3144 39.9261L76.0806 41.5002ZM52.6383 41.5002C59.5212 36.1052 69.1977 36.1052 76.0806 41.5002L77.3144 39.9261C69.707 33.9632 59.0119 33.9632 51.4045 39.9261L52.6383 41.5002ZM62.6845 61.5135C63.434 60.8449 64.5659 60.8449 65.3155 61.5135L66.6469 60.021C65.1387 58.6757 62.8613 58.6757 61.3531 60.021L62.6845 61.5135ZM62.0417 61.9805C62.271 61.8467 62.4864 61.6902 62.6845 61.5135L61.3531 60.021C61.2547 60.1089 61.1476 60.1866 61.0337 60.2531L62.0417 61.9805ZM61.2287 64.4828C60.8244 63.5633 61.1742 62.4868 62.0417 61.9805L61.0337 60.2531C59.2882 61.2717 58.5844 63.4377 59.3978 65.2877L61.2287 64.4828ZM61.4742 65.2384C61.4178 64.9789 61.3355 64.7258 61.2287 64.4828L59.3978 65.2877C59.4509 65.4085 59.4918 65.5343 59.5199 65.6633L61.4742 65.2384ZM63.6028 66.7849C62.6033 66.8852 61.6876 66.2199 61.4742 65.2384L59.5199 65.6633C59.9492 67.6381 61.7917 68.9768 63.8026 68.7749L63.6028 66.7849ZM64.3972 66.7849C64.1331 66.7583 63.8669 66.7583 63.6028 66.7849L63.8026 68.7749C63.9339 68.7617 64.0661 68.7617 64.1974 68.7749L64.3972 66.7849ZM66.5258 65.2384C66.3124 66.2199 65.3967 66.8852 64.3972 66.7849L64.1974 68.7749C66.2083 68.9768 68.0508 67.6381 68.4801 65.6633L66.5258 65.2384ZM66.7713 64.4828C66.6645 64.7258 66.5822 64.9789 66.5258 65.2384L68.4801 65.6633C68.5082 65.5343 68.5491 65.4085 68.6022 65.2877L66.7713 64.4828ZM65.9583 61.9805C66.8258 62.4868 67.1756 63.5633 66.7713 64.4828L68.6022 65.2877C69.4156 63.4377 68.7118 61.2717 66.9663 60.2531L65.9583 61.9805ZM65.3155 61.5135C65.5136 61.6902 65.729 61.8467 65.9583 61.9805L66.9663 60.2531C66.8523 60.1866 66.7453 60.1089 66.6469 60.021L65.3155 61.5135Z" fill="url(#paint9_linear_1_9)" mask="url(#path-9-inside-5_1_9)"/>
<g filter="url(#filter1_i_1_9)">
<path d="M62.0188 60.7673C63.1477 59.7603 64.8523 59.7603 65.9812 60.7673C66.1295 60.8995 66.2907 61.0166 66.4623 61.1168C67.7688 61.8792 68.2956 63.5005 67.6867 64.8853C67.6068 65.0672 67.5452 65.2566 67.503 65.4508C67.1816 66.929 65.8025 67.931 64.2973 67.7799C64.0996 67.76 63.9004 67.76 63.7027 67.7799C62.1975 67.931 60.8184 66.929 60.497 65.4508C60.4548 65.2566 60.3932 65.0672 60.3133 64.8853C59.7044 63.5005 60.2312 61.8792 61.5377 61.1168C61.7093 61.0166 61.8705 60.8995 62.0188 60.7673Z" fill="url(#paint10_linear_1_9)"/>
</g>
<path d="M66.314 60.3941C64.9955 59.218 63.0045 59.218 61.686 60.3941C61.5626 60.5042 61.4285 60.6016 61.2857 60.685C59.7597 61.5755 59.1444 63.4691 59.8555 65.0865C59.9221 65.2379 59.9733 65.3955 60.0084 65.5571C60.3838 67.2836 61.9946 68.4539 63.7526 68.2774C63.9171 68.2608 64.0829 68.2608 64.2474 68.2774C66.0054 68.4539 67.6162 67.2836 67.9916 65.5571C68.0267 65.3955 68.0779 65.2379 68.1445 65.0865C68.8556 63.4691 68.2403 61.5755 66.7143 60.685C66.5715 60.6016 66.4374 60.5042 66.314 60.3941Z" stroke="#81CB6E"/>
<path d="M62.3516 61.1404C63.2909 60.3026 64.7091 60.3026 65.6484 61.1404C65.8216 61.2949 66.0098 61.4317 66.2103 61.5486C67.2973 62.183 67.7356 63.5319 67.229 64.684C67.1356 64.8965 67.0637 65.1178 67.0144 65.3446C66.747 66.5745 65.5996 67.4081 64.3473 67.2824C64.1163 67.2592 63.8837 67.2592 63.6527 67.2824C62.4004 67.4081 61.253 66.5745 60.9856 65.3446C60.9363 65.1178 60.8644 64.8965 60.771 64.684C60.2644 63.5319 60.7027 62.183 61.7897 61.5486C61.9902 61.4317 62.1784 61.2949 62.3516 61.1404Z" stroke="#81CB6E"/>
<defs>
<filter id="filter0_f_1_9" x="24.8804" y="26.0236" width="77.2392" height="77.1927" filterUnits="userSpaceOnUse" color-interpolation-filters="sRGB">
<feFlood flood-opacity="0" result="BackgroundImageFix"/>
<feBlend mode="normal" in="SourceGraphic" in2="BackgroundImageFix" result="shape"/>
<feGaussianBlur stdDeviation="2" result="effect1_foregroundBlur_1_9"/>
</filter>
<filter id="filter1_i_1_9" x="59.061" y="59.012" width="9.87807" height="11.7829" filterUnits="userSpaceOnUse" color-interpolation-filters="sRGB">
<feFlood flood-opacity="0" result="BackgroundImageFix"/>
<feBlend mode="normal" in="SourceGraphic" in2="BackgroundImageFix" result="shape"/>
<feColorMatrix in="SourceAlpha" type="matrix" values="0 0 0 0 0 0 0 0 0 0 0 0 0 0 0 0 0 0 127 0" result="hardAlpha"/>
<feOffset dy="2"/>
<feGaussianBlur stdDeviation="2"/>
<feComposite in2="hardAlpha" operator="arithmetic" k2="-1" k3="1"/>
<feColorMatrix type="matrix" values="0 0 0 0 0 0 0 0 0 0 0 0 0 0 0 0 0 0 0.38 0"/>
<feBlend mode="normal" in2="shape" result="effect1_innerShadow_1_9"/>
</filter>
<linearGradient id="paint0_linear_1_9" x1="9.03333" y1="7.39487" x2="117.687" y2="118.152" gradientUnits="userSpaceOnUse">
<stop stop-color="#F0FFC2"/>
<stop offset="0.215" stop-color="#F6F7F4"/>
<stop offset="0.75" stop-color="#C2D97D"/>
<stop offset="1" stop-color="#909975"/>
</linearGradient>
<linearGradient id="paint1_linear_1_9" x1="103.523" y1="23.2989" x2="26.7454" y2="101.562" gradientUnits="userSpaceOnUse">
<stop stop-color="#D5EACB"/>
<stop offset="0.52" stop-color="#657155"/>
<stop offset="1" stop-color="#D5EACB"/>
</linearGradient>
<linearGradient id="paint2_linear_1_9" x1="18.2649" y1="17.3012" x2="108.046" y2="107.999" gradientUnits="userSpaceOnUse">
<stop stop-color="#F0FFC2"/>
<stop offset="0.215" stop-color="#F6F7F4"/>
<stop offset="0.75" stop-color="#C2D97D"/>
<stop offset="1" stop-color="#909975"/>
</linearGradient>
<linearGradient id="paint3_linear_1_9" x1="95.6312" y1="30.441" x2="32.19" y2="94.5301" gradientUnits="userSpaceOnUse">
<stop stop-color="#D5EACB"/>
<stop offset="0.52" stop-color="#73855D"/>
<stop offset="1" stop-color="#D5EACB"/>
</linearGradient>
<radialGradient id="paint4_radial_1_9" cx="0" cy="0" r="1" gradientUnits="userSpaceOnUse" gradientTransform="translate(63.5663 64.4116) rotate(-90) scale(35.2939 37.7996)">
<stop offset="0.745" stop-color="#AFCE9C"/>
<stop offset="1" stop-color="#79B064"/>
</radialGradient>
<linearGradient id="paint5_linear_1_9" x1="96.9644" y1="31.0238" x2="30.8863" y2="98.8867" gradientUnits="userSpaceOnUse">
<stop stop-color="white"/>
<stop offset="0.5" stop-color="#6A7C21"/>
<stop offset="1" stop-color="white"/>
</linearGradient>
<linearGradient id="paint6_linear_1_9" x1="27.0635" y1="26.226" x2="100.878" y2="99.3073" gradientUnits="userSpaceOnUse">
<stop stop-color="#C7DBB4"/>
<stop offset="0.215" stop-color="#A8DD90"/>
<stop offset="0.75" stop-color="#8CC876"/>
<stop offset="1" stop-color="#7AA966"/>
</linearGradient>
<linearGradient id="paint7_linear_1_9" x1="89.4027" y1="37.0291" x2="37.2437" y2="88.67" gradientUnits="userSpaceOnUse">
<stop stop-color="#D5EACB"/>
<stop offset="0.52" stop-color="#7D9A62"/>
<stop offset="1" stop-color="#D5EACB"/>
</linearGradient>
<radialGradient id="paint8_radial_1_9" cx="0" cy="0" r="1" gradientUnits="userSpaceOnUse" gradientTransform="translate(64.3594 63.7725) rotate(44.1698) scale(26.7739 26.7626)">
<stop stop-color="#80CC69"/>
<stop offset="0.57" stop-color="#85C264"/>
<stop offset="0.735" stop-color="#A8D27D"/>
<stop offset="1" stop-color="#BDDF8E"/>
</radialGradient>
<linearGradient id="paint9_linear_1_9" x1="64.3594" y1="36.4539" x2="64.3594" y2="91.0911" gradientUnits="userSpaceOnUse">
<stop stop-color="#D9F3B8"/>
<stop offset="0.6" stop-color="#A4CA68"/>
</linearGradient>
<linearGradient id="paint10_linear_1_9" x1="64" y1="59" x2="64" y2="69" gradientUnits="userSpaceOnUse">
<stop stop-color="white" stop-opacity="0.31"/>
<stop offset="1" stop-color="white" stop-opacity="0"/>
</linearGradient>
</defs>
</svg>
