<svg width="128" height="128" viewBox="0 0 128 128" fill="none" xmlns="http://www.w3.org/2000/svg">
<mask id="path-1-outside-1_1_76" maskUnits="userSpaceOnUse" x="7.24036" y="6.55679" width="113" height="111" fill="black">
<rect fill="white" x="7.24036" y="6.55679" width="113" height="111"/>
<path fill-rule="evenodd" clip-rule="evenodd" d="M52.2869 10.9637C51.6415 11.398 50.9472 11.9482 49.5586 13.0484L49.5584 13.0486C49.0665 13.4383 48.8205 13.6332 48.5772 13.8143C45.8433 15.8487 42.6349 17.1508 39.2564 17.597C38.9557 17.6368 38.6484 17.6679 38.0337 17.7302L37.453 17.789L37.4529 17.789C36.3726 17.8985 35.8325 17.9533 35.356 18.0249C26.7087 19.3244 19.9082 26.091 18.5655 34.7317C18.4915 35.2078 18.4327 35.7606 18.3151 36.8663L18.3151 36.8663C18.2748 37.2444 18.2547 37.4335 18.2322 37.6138C17.774 41.2857 16.306 44.7584 13.9917 47.6457C13.878 47.7875 13.7595 47.93 13.5225 48.2149C12.9011 48.9619 12.5904 49.3354 12.3304 49.6767C6.877 56.8359 6.877 66.7558 12.3304 73.915C12.5904 74.2563 12.9011 74.6298 13.5225 75.3767C13.7595 75.6617 13.878 75.8042 13.9917 75.9459C16.306 78.8332 17.774 82.306 18.2322 85.9779C18.2547 86.1581 18.2748 86.3472 18.315 86.7253L18.3151 86.7254L18.3151 86.7255C18.4327 87.8311 18.4915 88.3839 18.5655 88.86C19.9082 97.5007 26.7087 104.267 35.356 105.567C35.8325 105.638 36.3727 105.693 37.453 105.803L38.0337 105.861L38.0344 105.862C38.6486 105.924 38.9559 105.955 39.2564 105.995C42.6349 106.441 45.8433 107.743 48.5772 109.777C48.8206 109.958 49.0666 110.153 49.5586 110.543C50.9472 111.643 51.6414 112.194 52.2869 112.628C59.0376 117.171 67.8674 117.171 74.618 112.628C75.2635 112.194 75.9578 111.643 77.3463 110.543L77.3466 110.543C77.8385 110.153 78.0844 109.958 78.3277 109.777C81.0616 107.743 84.27 106.441 87.6485 105.995C87.9491 105.955 88.2563 105.924 88.8705 105.862L88.8713 105.861L89.4519 105.803C90.5323 105.693 91.0724 105.638 91.5489 105.567C100.196 104.267 106.997 97.5007 108.339 88.86C108.413 88.3839 108.472 87.831 108.59 86.7254V86.7254C108.63 86.3472 108.65 86.1582 108.673 85.9779C109.131 82.306 110.599 78.8332 112.913 75.9459C113.027 75.8042 113.145 75.6617 113.382 75.3767C114.004 74.6298 114.315 74.2563 114.575 73.915C120.028 66.7558 120.028 56.8359 114.575 49.6767C114.315 49.3354 114.004 48.9619 113.382 48.2149C113.145 47.93 113.027 47.7875 112.913 47.6457C110.599 44.7584 109.131 41.2857 108.673 37.6138C108.65 37.4335 108.63 37.2444 108.59 36.8663C108.472 35.7606 108.413 35.2078 108.339 34.7317C106.997 26.091 100.196 19.3244 91.5489 18.0249C91.0725 17.9533 90.5323 17.8985 89.4519 17.789L88.8713 17.7302C88.2566 17.6679 87.9492 17.6368 87.6485 17.597C84.27 17.1508 81.0616 15.8487 78.3277 13.8143C78.0845 13.6333 77.8386 13.4385 77.3471 13.049L77.3463 13.0484L77.3462 13.0483C75.9577 11.9481 75.2635 11.398 74.618 10.9637C67.8674 6.42115 59.0376 6.42115 52.2869 10.9637ZM64 60C61.7909 60 60 61.7909 60 64C60 66.2091 61.7909 68 64 68C66.2091 68 68 66.2091 68 64C68 61.7909 66.2091 60 64 60Z"/>
</mask>
<path fill-rule="evenodd" clip-rule="evenodd" d="M52.2869 10.9637C51.6415 11.398 50.9472 11.9482 49.5586 13.0484L49.5584 13.0486C49.0665 13.4383 48.8205 13.6332 48.5772 13.8143C45.8433 15.8487 42.6349 17.1508 39.2564 17.597C38.9557 17.6368 38.6484 17.6679 38.0337 17.7302L37.453 17.789L37.4529 17.789C36.3726 17.8985 35.8325 17.9533 35.356 18.0249C26.7087 19.3244 19.9082 26.091 18.5655 34.7317C18.4915 35.2078 18.4327 35.7606 18.3151 36.8663L18.3151 36.8663C18.2748 37.2444 18.2547 37.4335 18.2322 37.6138C17.774 41.2857 16.306 44.7584 13.9917 47.6457C13.878 47.7875 13.7595 47.93 13.5225 48.2149C12.9011 48.9619 12.5904 49.3354 12.3304 49.6767C6.877 56.8359 6.877 66.7558 12.3304 73.915C12.5904 74.2563 12.9011 74.6298 13.5225 75.3767C13.7595 75.6617 13.878 75.8042 13.9917 75.9459C16.306 78.8332 17.774 82.306 18.2322 85.9779C18.2547 86.1581 18.2748 86.3472 18.315 86.7253L18.3151 86.7254L18.3151 86.7255C18.4327 87.8311 18.4915 88.3839 18.5655 88.86C19.9082 97.5007 26.7087 104.267 35.356 105.567C35.8325 105.638 36.3727 105.693 37.453 105.803L38.0337 105.861L38.0344 105.862C38.6486 105.924 38.9559 105.955 39.2564 105.995C42.6349 106.441 45.8433 107.743 48.5772 109.777C48.8206 109.958 49.0666 110.153 49.5586 110.543C50.9472 111.643 51.6414 112.194 52.2869 112.628C59.0376 117.171 67.8674 117.171 74.618 112.628C75.2635 112.194 75.9578 111.643 77.3463 110.543L77.3466 110.543C77.8385 110.153 78.0844 109.958 78.3277 109.777C81.0616 107.743 84.27 106.441 87.6485 105.995C87.9491 105.955 88.2563 105.924 88.8705 105.862L88.8713 105.861L89.4519 105.803C90.5323 105.693 91.0724 105.638 91.5489 105.567C100.196 104.267 106.997 97.5007 108.339 88.86C108.413 88.3839 108.472 87.831 108.59 86.7254V86.7254C108.63 86.3472 108.65 86.1582 108.673 85.9779C109.131 82.306 110.599 78.8332 112.913 75.9459C113.027 75.8042 113.145 75.6617 113.382 75.3767C114.004 74.6298 114.315 74.2563 114.575 73.915C120.028 66.7558 120.028 56.8359 114.575 49.6767C114.315 49.3354 114.004 48.9619 113.382 48.2149C113.145 47.93 113.027 47.7875 112.913 47.6457C110.599 44.7584 109.131 41.2857 108.673 37.6138C108.65 37.4335 108.63 37.2444 108.59 36.8663C108.472 35.7606 108.413 35.2078 108.339 34.7317C106.997 26.091 100.196 19.3244 91.5489 18.0249C91.0725 17.9533 90.5323 17.8985 89.4519 17.789L88.8713 17.7302C88.2566 17.6679 87.9492 17.6368 87.6485 17.597C84.27 17.1508 81.0616 15.8487 78.3277 13.8143C78.0845 13.6333 77.8386 13.4385 77.3471 13.049L77.3463 13.0484L77.3462 13.0483C75.9577 11.9481 75.2635 11.398 74.618 10.9637C67.8674 6.42115 59.0376 6.42115 52.2869 10.9637ZM64 60C61.7909 60 60 61.7909 60 64C60 66.2091 61.7909 68 64 68C66.2091 68 68 66.2091 68 64C68 61.7909 66.2091 60 64 60Z" fill="url(#paint0_linear_1_76)" fill-opacity="0.2"/>
<path d="M49.5586 13.0484L50.1698 13.84L50.1796 13.8322L49.5586 13.0484ZM52.2869 10.9637L52.8452 11.7934V11.7934L52.2869 10.9637ZM49.5584 13.0486L48.9472 12.257L48.9374 12.2648L49.5584 13.0486ZM48.5772 13.8143L47.9803 13.012L47.9803 13.012L48.5772 13.8143ZM39.2564 17.597L39.3874 18.5884L39.3874 18.5884L39.2564 17.597ZM38.0337 17.7302L37.9328 16.7353H37.9328L38.0337 17.7302ZM37.453 17.789L37.5464 18.7847L37.5538 18.7839L37.453 17.789ZM37.4529 17.789L37.3596 16.7934L37.3521 16.7941L37.4529 17.789ZM35.356 18.0249L35.5046 19.0138L35.356 18.0249ZM18.5655 34.7317L19.5536 34.8853V34.8852L18.5655 34.7317ZM18.3151 36.8663L19.309 36.9767L19.3095 36.972L18.3151 36.8663ZM18.3151 36.8663L17.3212 36.7559L17.3207 36.7605L18.3151 36.8663ZM18.2322 37.6138L19.2245 37.7377V37.7376L18.2322 37.6138ZM13.9917 47.6457L14.7719 48.2712H14.7719L13.9917 47.6457ZM13.5225 48.2149L12.7537 47.5754L12.7537 47.5754L13.5225 48.2149ZM12.3304 49.6767L11.5349 49.0707L11.5349 49.0707L12.3304 49.6767ZM12.3304 73.915L11.5349 74.521L11.5349 74.521L12.3304 73.915ZM13.5225 75.3767L14.2912 74.7372H14.2912L13.5225 75.3767ZM13.9917 75.9459L14.7719 75.3205L13.9917 75.9459ZM18.2322 85.9779L17.2399 86.1017L18.2322 85.9779ZM18.315 86.7253L19.3101 86.6257L19.3094 86.6195L18.315 86.7253ZM18.3151 86.7254L17.32 86.8249L17.3213 86.8372L17.3228 86.8494L18.3151 86.7254ZM18.3151 86.7255L19.3095 86.6197L19.3085 86.6106L19.3074 86.6014L18.3151 86.7255ZM18.5655 88.86L17.5774 89.0135L17.5774 89.0135L18.5655 88.86ZM35.356 105.567L35.2074 106.556L35.2074 106.556L35.356 105.567ZM37.453 105.803L37.5539 104.808H37.5538L37.453 105.803ZM38.0337 105.861L37.9328 106.856L37.9415 106.857L38.0337 105.861ZM38.0344 105.862L38.1352 104.867L38.1266 104.866L38.0344 105.862ZM39.2564 105.995L39.1255 106.986H39.1255L39.2564 105.995ZM48.5772 109.777L47.9803 110.58L48.5772 109.777ZM49.5586 110.543L50.1796 109.759L50.1796 109.759L49.5586 110.543ZM52.2869 112.628L51.7286 113.458H51.7286L52.2869 112.628ZM74.618 112.628L75.1763 113.458L74.618 112.628ZM77.3463 110.543L77.9674 111.327L77.9771 111.319L77.9865 111.311L77.3463 110.543ZM77.3466 110.543L76.7256 109.759L76.7159 109.767L76.7064 109.775L77.3466 110.543ZM78.3277 109.777L77.7307 108.975L78.3277 109.777ZM87.6485 105.995L87.7794 106.986H87.7795L87.6485 105.995ZM88.8705 105.862L88.78 104.866L88.7697 104.867L88.8705 105.862ZM88.8713 105.861L88.9618 106.857L88.9721 106.856L88.8713 105.861ZM89.4519 105.803L89.3511 104.808H89.3511L89.4519 105.803ZM91.5489 105.567L91.6975 106.556L91.6975 106.556L91.5489 105.567ZM108.339 88.86L109.328 89.0135V89.0135L108.339 88.86ZM108.59 86.7254L109.584 86.8312L109.59 86.7785V86.7254H108.59ZM108.59 86.7254L107.595 86.6196L107.59 86.6723V86.7254H108.59ZM108.673 85.9779L107.68 85.854V85.854L108.673 85.9779ZM112.913 75.9459L113.694 76.5714H113.694L112.913 75.9459ZM113.382 75.3767L114.151 76.0163L114.151 76.0163L113.382 75.3767ZM114.575 73.915L115.37 74.521V74.521L114.575 73.915ZM114.575 49.6767L115.37 49.0707V49.0707L114.575 49.6767ZM113.382 48.2149L112.614 48.8544V48.8544L113.382 48.2149ZM112.913 47.6457L113.694 47.0203L113.694 47.0203L112.913 47.6457ZM108.673 37.6138L107.68 37.7376V37.7377L108.673 37.6138ZM108.59 36.8663L107.595 36.9721V36.9721L108.59 36.8663ZM108.339 34.7317L109.328 34.5781V34.5781L108.339 34.7317ZM91.5489 18.0249L91.4003 19.0138V19.0138L91.5489 18.0249ZM89.4519 17.789L89.3511 18.7839L89.4519 17.789ZM88.8713 17.7302L88.9721 16.7353L88.8713 17.7302ZM87.6485 17.597L87.5176 18.5884L87.6485 17.597ZM78.3277 13.8143L77.7307 14.6165V14.6165L78.3277 13.8143ZM77.3471 13.049L77.9681 12.2652L77.9665 12.264L77.3471 13.049ZM77.3463 13.0484L77.9658 12.2634L77.9601 12.2589L77.9543 12.2544L77.3463 13.0484ZM77.3462 13.0483L76.7251 13.8321L76.7316 13.8372L76.7383 13.8423L77.3462 13.0483ZM74.618 10.9637L75.1763 10.1341V10.1341L74.618 10.9637ZM50.1796 13.8322C51.5822 12.7208 52.24 12.2006 52.8452 11.7934L51.7286 10.1341C51.0429 10.5955 50.3121 11.1755 48.9376 12.2646L50.1796 13.8322ZM50.1695 13.8401L50.1697 13.84L48.9475 12.2569L48.9473 12.257L50.1695 13.8401ZM49.1742 14.6165C49.4325 14.4243 49.6923 14.2184 50.1794 13.8324L48.9374 12.2648C48.4408 12.6583 48.2086 12.8421 47.9803 13.012L49.1742 14.6165ZM39.3874 18.5884C42.9348 18.1199 46.3036 16.7527 49.1742 14.6165L47.9803 13.012C45.383 14.9447 42.335 16.1817 39.1255 16.6056L39.3874 18.5884ZM38.1345 18.7251C38.7434 18.6634 39.0682 18.6306 39.3874 18.5884L39.1255 16.6056C38.8433 16.6429 38.5534 16.6724 37.9328 16.7353L38.1345 18.7251ZM37.5538 18.7839L38.1345 18.7251L37.9328 16.7353L37.3522 16.7941L37.5538 18.7839ZM37.5463 18.7847L37.5464 18.7847L37.3597 16.7934L37.3596 16.7934L37.5463 18.7847ZM35.5046 19.0138C35.9514 18.9466 36.4626 18.8945 37.5538 18.7839L37.3521 16.7941C36.2827 16.9025 35.7135 16.9599 35.2074 17.036L35.5046 19.0138ZM19.5536 34.8852C20.8292 26.6766 27.2897 20.2483 35.5046 19.0138L35.2074 17.036C26.1277 18.4005 18.9872 25.5054 17.5774 34.5781L19.5536 34.8852ZM19.3095 36.972C19.4283 35.8552 19.4843 35.3316 19.5536 34.8853L17.5774 34.5781C17.4987 35.084 17.4371 35.666 17.3207 36.7605L19.3095 36.972ZM19.3089 36.9767L19.3089 36.9767L17.3212 36.7558L17.3212 36.7559L19.3089 36.9767ZM19.2245 37.7376C19.2484 37.5462 19.2696 37.3466 19.3094 36.9721L17.3207 36.7605C17.2801 37.1423 17.261 37.3208 17.2399 37.49L19.2245 37.7376ZM14.7719 48.2712C17.202 45.2395 18.7433 41.5931 19.2245 37.7377L17.2399 37.49C16.8046 40.9782 15.41 44.2774 13.2114 47.0203L14.7719 48.2712ZM14.2912 48.8544C14.526 48.5722 14.6513 48.4217 14.7719 48.2712L13.2114 47.0203C13.1047 47.1533 12.9929 47.2878 12.7537 47.5754L14.2912 48.8544ZM13.1259 50.2826C13.3697 49.9626 13.6636 49.6089 14.2912 48.8544L12.7537 47.5754C12.1386 48.3149 11.8111 48.7082 11.5349 49.0707L13.1259 50.2826ZM13.1259 73.309C7.94517 66.5078 7.94517 57.0839 13.1259 50.2826L11.5349 49.0707C5.80883 56.5879 5.80883 67.0038 11.5349 74.521L13.1259 73.309ZM14.2912 74.7372C13.6636 73.9827 13.3697 73.629 13.1259 73.309L11.5349 74.521C11.8111 74.8835 12.1385 75.2768 12.7537 76.0163L14.2912 74.7372ZM14.7719 75.3205C14.6513 75.17 14.526 75.0195 14.2912 74.7372L12.7537 76.0163C12.9929 76.3039 13.1047 76.4383 13.2114 76.5714L14.7719 75.3205ZM19.2245 85.854C18.7433 81.9986 17.202 78.3522 14.7719 75.3205L13.2114 76.5714C15.41 79.3143 16.8046 82.6134 17.2399 86.1017L19.2245 85.854ZM19.3094 86.6195C19.2696 86.2451 19.2484 86.0454 19.2245 85.854L17.2399 86.1017C17.261 86.2709 17.2801 86.4493 17.3207 86.831L19.3094 86.6195ZM19.3101 86.6259L19.3101 86.6257L17.32 86.8248L17.32 86.8249L19.3101 86.6259ZM19.3074 86.6014L19.3073 86.6013L17.3228 86.8494L17.3228 86.8495L19.3074 86.6014ZM19.5536 88.7064C19.4843 88.26 19.4283 87.7365 19.3095 86.6197L17.3207 86.8313C17.4371 87.9256 17.4987 88.5077 17.5774 89.0135L19.5536 88.7064ZM35.5046 104.578C27.2897 103.343 20.8292 96.9151 19.5536 88.7064L17.5774 89.0135C18.9872 98.0863 26.1277 105.191 35.2074 106.556L35.5046 104.578ZM37.5538 104.808C36.4626 104.697 35.9514 104.645 35.5046 104.578L35.2074 106.556C35.7135 106.632 36.2827 106.689 37.3522 106.798L37.5538 104.808ZM38.1345 104.867L37.5539 104.808L37.3522 106.798L37.9328 106.856L38.1345 104.867ZM38.1266 104.866L38.1258 104.866L37.9415 106.857L37.9422 106.857L38.1266 104.866ZM39.3874 105.003C39.0683 104.961 38.7436 104.928 38.1352 104.867L37.9336 106.856C38.5536 106.919 38.8434 106.949 39.1255 106.986L39.3874 105.003ZM49.1742 108.975C46.3036 106.839 42.9348 105.472 39.3874 105.003L39.1255 106.986C42.335 107.41 45.383 108.647 47.9803 110.58L49.1742 108.975ZM50.1796 109.759C49.6923 109.373 49.4325 109.167 49.1742 108.975L47.9803 110.58C48.2086 110.75 48.4408 110.933 48.9376 111.327L50.1796 109.759ZM52.8452 111.798C52.24 111.391 51.5822 110.871 50.1796 109.759L48.9376 111.327C50.3121 112.416 51.0429 112.996 51.7286 113.458L52.8452 111.798ZM74.0598 111.798C67.6466 116.114 59.2583 116.114 52.8452 111.798L51.7286 113.458C58.8168 118.227 68.0881 118.227 75.1763 113.458L74.0598 111.798ZM76.7253 109.759C75.3227 110.871 74.665 111.391 74.0598 111.798L75.1763 113.458C75.862 112.996 76.5928 112.416 77.9674 111.327L76.7253 109.759ZM76.7064 109.775L76.7062 109.775L77.9865 111.311L77.9868 111.311L76.7064 109.775ZM77.7307 108.975C77.4724 109.167 77.2127 109.373 76.7256 109.759L77.9676 111.327C78.4642 110.933 78.6964 110.75 78.9247 110.58L77.7307 108.975ZM87.5176 105.003C83.9702 105.472 80.6013 106.839 77.7307 108.975L78.9247 110.58C81.5219 108.647 84.5699 107.41 87.7794 106.986L87.5176 105.003ZM88.7697 104.867C88.1613 104.928 87.8366 104.961 87.5176 105.003L87.7795 106.986C88.0615 106.949 88.3513 106.919 88.9714 106.856L88.7697 104.867ZM88.7807 104.866L88.78 104.866L88.9611 106.857L88.9618 106.857L88.7807 104.866ZM89.3511 104.808L88.7704 104.867L88.9721 106.856L89.5527 106.798L89.3511 104.808ZM91.4003 104.578C90.9535 104.645 90.4423 104.697 89.3511 104.808L89.5527 106.798C90.6222 106.689 91.1914 106.632 91.6975 106.556L91.4003 104.578ZM107.351 88.7064C106.076 96.9151 99.6152 103.343 91.4003 104.578L91.6975 106.556C100.777 105.191 107.918 98.0863 109.328 89.0135L107.351 88.7064ZM107.595 86.6196C107.477 87.7365 107.421 88.26 107.351 88.7064L109.328 89.0135C109.406 88.5077 109.468 87.9256 109.584 86.8312L107.595 86.6196ZM107.59 86.7254V86.7254H109.59V86.7254H107.59ZM107.68 85.854C107.657 86.0454 107.635 86.2451 107.595 86.6196L109.584 86.8312C109.625 86.4494 109.644 86.2709 109.665 86.1017L107.68 85.854ZM112.133 75.3205C109.703 78.3522 108.162 81.9986 107.68 85.854L109.665 86.1017C110.1 82.6134 111.495 79.3143 113.694 76.5714L112.133 75.3205ZM112.614 74.7372C112.379 75.0195 112.254 75.17 112.133 75.3205L113.694 76.5714C113.8 76.4383 113.912 76.3039 114.151 76.0163L112.614 74.7372ZM113.779 73.309C113.535 73.629 113.241 73.9827 112.614 74.7372L114.151 76.0163C114.766 75.2768 115.094 74.8835 115.37 74.521L113.779 73.309ZM113.779 50.2826C118.96 57.0839 118.96 66.5078 113.779 73.309L115.37 74.521C121.096 67.0038 121.096 56.5879 115.37 49.0707L113.779 50.2826ZM112.614 48.8544C113.241 49.6089 113.535 49.9626 113.779 50.2826L115.37 49.0707C115.094 48.7082 114.766 48.3149 114.151 47.5754L112.614 48.8544ZM112.133 48.2711C112.254 48.4217 112.379 48.5722 112.614 48.8544L114.151 47.5754C113.912 47.2878 113.8 47.1534 113.694 47.0203L112.133 48.2711ZM107.68 37.7377C108.162 41.5931 109.703 45.2395 112.133 48.2712L113.694 47.0203C111.495 44.2774 110.1 40.9782 109.665 37.49L107.68 37.7377ZM107.595 36.9721C107.635 37.3466 107.657 37.5462 107.68 37.7376L109.665 37.49C109.644 37.3208 109.625 37.1423 109.584 36.7605L107.595 36.9721ZM107.351 34.8852C107.421 35.3316 107.477 35.8552 107.595 36.9721L109.584 36.7605C109.468 35.6661 109.406 35.084 109.328 34.5781L107.351 34.8852ZM91.4003 19.0138C99.6152 20.2483 106.076 26.6766 107.351 34.8853L109.328 34.5781C107.918 25.5054 100.777 18.4005 91.6975 17.036L91.4003 19.0138ZM89.3511 18.7839C90.4423 18.8945 90.9535 18.9466 91.4003 19.0138L91.6975 17.036C91.1914 16.9599 90.6222 16.9025 89.5527 16.7941L89.3511 18.7839ZM88.7705 18.7251L89.3511 18.7839L89.5527 16.7941L88.9721 16.7353L88.7705 18.7251ZM87.5176 18.5884C87.8367 18.6306 88.1616 18.6634 88.7705 18.7251L88.9721 16.7353C88.3516 16.6724 88.0617 16.6429 87.7794 16.6056L87.5176 18.5884ZM77.7307 14.6165C80.6013 16.7527 83.9702 18.1199 87.5176 18.5884L87.7794 16.6056C84.5699 16.1817 81.5219 14.9447 78.9247 13.012L77.7307 14.6165ZM76.726 13.8328C77.2129 14.2185 77.4725 14.4244 77.7307 14.6165L78.9247 13.012C78.6965 12.8422 78.4644 12.6584 77.9681 12.2652L76.726 13.8328ZM76.7269 13.8335L76.7276 13.834L77.9665 12.264L77.9658 12.2634L76.7269 13.8335ZM76.7383 13.8423L76.7384 13.8424L77.9543 12.2544L77.9541 12.2543L76.7383 13.8423ZM74.0598 11.7934C74.6649 12.2006 75.3226 12.7208 76.7251 13.8321L77.9672 12.2645C76.5928 11.1755 75.862 10.5955 75.1763 10.1341L74.0598 11.7934ZM52.8452 11.7934C59.2583 7.47793 67.6466 7.47793 74.0598 11.7934L75.1763 10.1341C68.0881 5.36437 58.8168 5.36437 51.7286 10.1341L52.8452 11.7934ZM61 64C61 62.3431 62.3431 61 64 61V59C61.2386 59 59 61.2386 59 64H61ZM64 67C62.3431 67 61 65.6569 61 64H59C59 66.7614 61.2386 69 64 69V67ZM67 64C67 65.6569 65.6569 67 64 67V69C66.7614 69 69 66.7614 69 64H67ZM64 61C65.6569 61 67 62.3431 67 64H69C69 61.2386 66.7614 59 64 59V61Z" fill="url(#paint1_linear_1_76)" fill-opacity="0.5" mask="url(#path-1-outside-1_1_76)"/>
<mask id="path-3-outside-2_1_76" maskUnits="userSpaceOnUse" x="18.0456" y="17.9831" width="92" height="91" fill="black">
<rect fill="white" x="18.0456" y="17.9831" width="92" height="91"/>
<path fill-rule="evenodd" clip-rule="evenodd" d="M75.3964 22.9465C68.7405 17.662 59.2727 17.662 52.6168 22.9465C49.9003 25.1033 46.6135 26.4429 43.1626 26.7933L42.7255 26.8377C34.4438 27.6786 27.8814 34.2372 27.0025 42.515C26.6391 45.9379 25.271 49.1879 23.0723 51.8363C17.7034 58.3034 17.7034 67.6778 23.0723 74.1449C25.271 76.7933 26.6391 80.0433 27.0025 83.4663C27.8814 91.744 34.4438 98.3026 42.7255 99.1436L43.1626 99.188C46.6135 99.5384 49.9003 100.878 52.6168 103.035C59.2727 108.319 68.7405 108.319 75.3964 103.035C78.113 100.878 81.3997 99.5384 84.8506 99.188L85.2877 99.1436C93.5694 98.3026 100.132 91.744 101.011 83.4663C101.374 80.0433 102.742 76.7933 104.941 74.1449C110.31 67.6778 110.31 58.3034 104.941 51.8363C102.742 49.1879 101.374 45.9379 101.011 42.515C100.132 34.2372 93.5694 27.6786 85.2877 26.8377L84.8506 26.7933C81.3997 26.4429 78.113 25.1033 75.3964 22.9465ZM64 60C61.7909 60 60 61.7909 60 64C60 66.2091 61.7909 68 64 68C66.2091 68 68 66.2091 68 64C68 61.7909 66.2091 60 64 60Z"/>
</mask>
<path fill-rule="evenodd" clip-rule="evenodd" d="M75.3964 22.9465C68.7405 17.662 59.2727 17.662 52.6168 22.9465C49.9003 25.1033 46.6135 26.4429 43.1626 26.7933L42.7255 26.8377C34.4438 27.6786 27.8814 34.2372 27.0025 42.515C26.6391 45.9379 25.271 49.1879 23.0723 51.8363C17.7034 58.3034 17.7034 67.6778 23.0723 74.1449C25.271 76.7933 26.6391 80.0433 27.0025 83.4663C27.8814 91.744 34.4438 98.3026 42.7255 99.1436L43.1626 99.188C46.6135 99.5384 49.9003 100.878 52.6168 103.035C59.2727 108.319 68.7405 108.319 75.3964 103.035C78.113 100.878 81.3997 99.5384 84.8506 99.188L85.2877 99.1436C93.5694 98.3026 100.132 91.744 101.011 83.4663C101.374 80.0433 102.742 76.7933 104.941 74.1449C110.31 67.6778 110.31 58.3034 104.941 51.8363C102.742 49.1879 101.374 45.9379 101.011 42.515C100.132 34.2372 93.5694 27.6786 85.2877 26.8377L84.8506 26.7933C81.3997 26.4429 78.113 25.1033 75.3964 22.9465ZM64 60C61.7909 60 60 61.7909 60 64C60 66.2091 61.7909 68 64 68C66.2091 68 68 66.2091 68 64C68 61.7909 66.2091 60 64 60Z" fill="url(#paint2_linear_1_76)" fill-opacity="0.2"/>
<path d="M52.6168 22.9465L53.2386 23.7297L52.6168 22.9465ZM75.3964 22.9465L76.0182 22.1633L75.3964 22.9465ZM43.1626 26.7933L43.0616 25.7984H43.0616L43.1626 26.7933ZM42.7255 26.8377L42.8266 27.8325L42.7255 26.8377ZM27.0025 42.515L26.0081 42.4094L27.0025 42.515ZM23.0723 51.8363L22.3029 51.1976L23.0723 51.8363ZM23.0723 74.1449L22.3029 74.7836L23.0723 74.1449ZM27.0025 83.4663L26.0081 83.5718L27.0025 83.4663ZM42.7255 99.1436L42.6245 100.138H42.6245L42.7255 99.1436ZM43.1626 99.188L43.2636 98.1931L43.2636 98.1931L43.1626 99.188ZM52.6168 103.035L53.2386 102.252H53.2386L52.6168 103.035ZM75.3964 103.035L74.7746 102.252L75.3964 103.035ZM84.8506 99.188L84.7496 98.1931L84.7496 98.1931L84.8506 99.188ZM85.2877 99.1436L85.3887 100.138L85.3887 100.138L85.2877 99.1436ZM101.011 83.4663L100.016 83.3607L101.011 83.4663ZM104.941 74.1449L105.71 74.7836L104.941 74.1449ZM104.941 51.8363L105.71 51.1976L104.941 51.8363ZM101.011 42.515L100.016 42.6205V42.6206L101.011 42.515ZM85.2877 26.8377L85.3887 25.8428V25.8428L85.2877 26.8377ZM84.8506 26.7933L84.7496 27.7882V27.7882L84.8506 26.7933ZM53.2386 23.7297C59.5304 18.7342 68.4828 18.7342 74.7746 23.7297L76.0182 22.1633C68.9982 16.5897 59.0151 16.5897 51.995 22.1633L53.2386 23.7297ZM43.2636 27.7882C46.9054 27.4184 50.3728 26.005 53.2386 23.7297L51.995 22.1633C49.4277 24.2016 46.3216 25.4674 43.0616 25.7984L43.2636 27.7882ZM42.8266 27.8325L43.2636 27.7882L43.0616 25.7984L42.6245 25.8428L42.8266 27.8325ZM27.9969 42.6206C28.8261 34.8112 35.0175 28.6255 42.8266 27.8325L42.6245 25.8428C33.8701 26.7317 26.9367 33.6632 26.0081 42.4094L27.9969 42.6206ZM23.8417 52.4751C26.1667 49.6745 27.6127 46.2389 27.9969 42.6206L26.0081 42.4094C25.6654 45.6369 24.3752 48.7013 22.3029 51.1976L23.8417 52.4751ZM23.8417 73.5061C18.7803 67.4094 18.7803 58.5719 23.8417 52.4751L22.3029 51.1976C16.6265 58.035 16.6265 67.9462 22.3029 74.7836L23.8417 73.5061ZM27.9969 83.3607C27.6127 79.7424 26.1667 76.3067 23.8417 73.5061L22.3029 74.7836C24.3752 77.2799 25.6654 80.3443 26.0081 83.5718L27.9969 83.3607ZM42.8266 98.1487C35.0175 97.3557 28.8261 91.17 27.9969 83.3607L26.0081 83.5718C26.9367 92.318 33.8701 99.2495 42.6245 100.138L42.8266 98.1487ZM43.2636 98.1931L42.8265 98.1487L42.6245 100.138L43.0616 100.183L43.2636 98.1931ZM53.2386 102.252C50.3728 99.9762 46.9054 98.5629 43.2636 98.1931L43.0616 100.183C46.3216 100.514 49.4277 101.78 51.995 103.818L53.2386 102.252ZM74.7746 102.252C68.4828 107.247 59.5304 107.247 53.2386 102.252L51.995 103.818C59.0151 109.392 68.9982 109.392 76.0182 103.818L74.7746 102.252ZM84.7496 98.1931C81.1078 98.5629 77.6404 99.9762 74.7746 102.252L76.0182 103.818C78.5855 101.78 81.6916 100.514 84.9516 100.183L84.7496 98.1931ZM85.1867 98.1487L84.7496 98.1931L84.9516 100.183L85.3887 100.138L85.1867 98.1487ZM100.016 83.3607C99.1872 91.17 92.9957 97.3557 85.1867 98.1487L85.3887 100.138C94.1431 99.2495 101.077 92.318 102.005 83.5718L100.016 83.3607ZM104.172 73.5061C101.847 76.3068 100.401 79.7424 100.016 83.3607L102.005 83.5718C102.348 80.3443 103.638 77.2799 105.71 74.7836L104.172 73.5061ZM104.172 52.4751C109.233 58.5719 109.233 67.4094 104.172 73.5061L105.71 74.7836C111.387 67.9462 111.387 58.035 105.71 51.1976L104.172 52.4751ZM100.016 42.6206C100.401 46.2388 101.847 49.6745 104.172 52.4751L105.71 51.1976C103.638 48.7013 102.348 45.6369 102.005 42.4094L100.016 42.6206ZM85.1867 27.8325C92.9957 28.6255 99.1872 34.8112 100.016 42.6205L102.005 42.4094C101.077 33.6632 94.1431 26.7317 85.3887 25.8428L85.1867 27.8325ZM84.7496 27.7882L85.1867 27.8325L85.3887 25.8428L84.9516 25.7984L84.7496 27.7882ZM74.7746 23.7297C77.6404 26.005 81.1078 27.4184 84.7496 27.7882L84.9516 25.7984C81.6916 25.4674 78.5855 24.2016 76.0182 22.1633L74.7746 23.7297ZM61 64C61 62.3431 62.3431 61 64 61V59C61.2386 59 59 61.2386 59 64H61ZM64 67C62.3431 67 61 65.6569 61 64H59C59 66.7614 61.2386 69 64 69V67ZM67 64C67 65.6569 65.6569 67 64 67V69C66.7614 69 69 66.7614 69 64H67ZM64 61C65.6569 61 67 62.3431 67 64H69C69 61.2386 66.7614 59 64 59V61Z" fill="url(#paint3_linear_1_76)" fill-opacity="0.75" mask="url(#path-3-outside-2_1_76)"/>
<g filter="url(#filter0_f_1_76)">
<mask id="path-5-outside-3_1_76" maskUnits="userSpaceOnUse" x="26.0505" y="25.9915" width="76" height="74" fill="black">
<rect fill="white" x="26.0505" y="25.9915" width="76" height="74"/>
<path d="M54.644 30.2358C60.1199 25.91 67.8978 25.91 73.3737 30.2358V30.2358C75.6057 31.999 78.3039 33.0947 81.1339 33.3806L81.5734 33.425C88.3421 34.1088 93.7087 39.4715 94.4305 46.2363V46.2363C94.7295 49.0383 95.8539 51.6995 97.6592 53.8632V53.8632C102.07 59.1493 102.07 66.8329 97.6592 72.119V72.119C95.8539 74.2827 94.7295 76.9439 94.4305 79.7459V79.7459C93.7087 86.5107 88.3421 91.8734 81.5734 92.5572L81.1339 92.6016C78.3039 92.8875 75.6057 93.9832 73.3737 95.7464V95.7464C67.8978 100.072 60.1199 100.072 54.644 95.7464V95.7464C52.412 93.9832 49.7137 92.8875 46.8837 92.6016L46.4443 92.5572C39.6755 91.8734 34.309 86.5107 33.5871 79.746V79.746C33.2881 76.9439 32.1638 74.2827 30.3584 72.119V72.119C25.9479 66.8329 25.9479 59.1493 30.3584 53.8632V53.8632C32.1638 51.6995 33.2881 49.0383 33.5871 46.2363V46.2363C34.309 39.4715 39.6756 34.1088 46.4443 33.425L46.8837 33.3806C49.7138 33.0947 52.4119 31.999 54.644 30.2358V30.2358Z"/>
</mask>
<path d="M54.644 30.2358C60.1199 25.91 67.8978 25.91 73.3737 30.2358V30.2358C75.6057 31.999 78.3039 33.0947 81.1339 33.3806L81.5734 33.425C88.3421 34.1088 93.7087 39.4715 94.4305 46.2363V46.2363C94.7295 49.0383 95.8539 51.6995 97.6592 53.8632V53.8632C102.07 59.1493 102.07 66.8329 97.6592 72.119V72.119C95.8539 74.2827 94.7295 76.9439 94.4305 79.7459V79.7459C93.7087 86.5107 88.3421 91.8734 81.5734 92.5572L81.1339 92.6016C78.3039 92.8875 75.6057 93.9832 73.3737 95.7464V95.7464C67.8978 100.072 60.1199 100.072 54.644 95.7464V95.7464C52.412 93.9832 49.7137 92.8875 46.8837 92.6016L46.4443 92.5572C39.6755 91.8734 34.309 86.5107 33.5871 79.746V79.746C33.2881 76.9439 32.1638 74.2827 30.3584 72.119V72.119C25.9479 66.8329 25.9479 59.1493 30.3584 53.8632V53.8632C32.1638 51.6995 33.2881 49.0383 33.5871 46.2363V46.2363C34.309 39.4715 39.6756 34.1088 46.4443 33.425L46.8837 33.3806C49.7138 33.0947 52.4119 31.999 54.644 30.2358V30.2358Z" fill="url(#paint4_radial_1_76)" fill-opacity="0.5"/>
<path d="M46.4443 92.5572L46.5448 91.5623L46.4443 92.5572ZM46.8837 92.6016L46.7832 93.5966L46.8837 92.6016ZM81.1339 92.6016L81.2344 93.5966L81.1339 92.6016ZM81.5734 92.5572L81.4729 91.5623L81.5734 92.5572ZM81.0334 34.3755L81.4729 34.4199L81.6739 32.43L81.2344 32.3856L81.0334 34.3755ZM81.4729 91.5623L81.0334 91.6067L81.2344 93.5966L81.6739 93.5522L81.4729 91.5623ZM46.9842 91.6067L46.5448 91.5623L46.3437 93.5522L46.7832 93.5966L46.9842 91.6067ZM46.5448 34.4199L46.9843 34.3755L46.7832 32.3856L46.3437 32.43L46.5448 34.4199ZM46.9843 34.3755C50.0047 34.0704 52.8829 32.9014 55.2638 31.0205L54.0241 29.4511C51.941 31.0967 49.4228 32.119 46.7832 32.3856L46.9843 34.3755ZM34.5815 46.3424C35.2534 40.0455 40.2492 35.056 46.5448 34.4199L46.3437 32.43C39.1019 33.1617 33.3646 38.8975 32.5928 46.1301L34.5815 46.3424ZM31.1263 54.5038C33.0588 52.1877 34.2616 49.3402 34.5815 46.3424L32.5928 46.1301C32.3146 48.7363 31.2687 51.2113 29.5906 53.2225L31.1263 54.5038ZM31.1263 71.4784C27.0253 66.5633 27.0253 59.4189 31.1263 54.5038L29.5906 53.2225C24.8705 58.8796 24.8705 67.1026 29.5906 72.7597L31.1263 71.4784ZM34.5815 79.6398C34.2616 76.642 33.0588 73.7945 31.1263 71.4784L29.5906 72.7597C31.2687 74.7709 32.3146 77.2459 32.5928 79.8521L34.5815 79.6398ZM46.5448 91.5623C40.2492 90.9262 35.2534 85.9367 34.5815 79.6398L32.5928 79.8521C33.3646 87.0847 39.1019 92.8205 46.3437 93.5522L46.5448 91.5623ZM55.2638 94.9617C52.8829 93.0808 50.0047 91.9118 46.9842 91.6067L46.7832 93.5966C49.4228 93.8632 51.941 94.8855 54.0241 96.5311L55.2638 94.9617ZM72.7538 94.9617C67.6413 99.0004 60.3764 99.0004 55.2638 94.9617L54.0241 96.5311C59.8634 101.144 68.1542 101.144 73.9936 96.5311L72.7538 94.9617ZM81.0334 91.6067C78.013 91.9118 75.1348 93.0808 72.7538 94.9617L73.9936 96.5311C76.0766 94.8855 78.5948 93.8632 81.2344 93.5966L81.0334 91.6067ZM93.4362 79.6398C92.7642 85.9367 87.7684 90.9262 81.4729 91.5623L81.6739 93.5522C88.9157 92.8205 94.6531 87.0847 95.4249 79.8521L93.4362 79.6398ZM96.8914 71.4784C94.9588 73.7945 93.7561 76.642 93.4362 79.6398L95.4249 79.8521C95.703 77.2459 96.7489 74.7709 98.427 72.7597L96.8914 71.4784ZM96.8914 54.5038C100.992 59.4189 100.992 66.5633 96.8914 71.4784L98.427 72.7597C103.147 67.1026 103.147 58.8796 98.427 53.2225L96.8914 54.5038ZM93.4362 46.3424C93.7561 49.3402 94.9588 52.1877 96.8914 54.5038L98.427 53.2225C96.7489 51.2113 95.703 48.7363 95.4249 46.1301L93.4362 46.3424ZM81.4729 34.4199C87.7684 35.056 92.7642 40.0455 93.4362 46.3424L95.4249 46.1301C94.6531 38.8975 88.9158 33.1617 81.6739 32.43L81.4729 34.4199ZM72.7538 31.0205C75.1348 32.9014 78.013 34.0704 81.0334 34.3755L81.2344 32.3856C78.5948 32.119 76.0766 31.0967 73.9936 29.4511L72.7538 31.0205ZM73.9936 29.4511C68.1542 24.8382 59.8634 24.8382 54.0241 29.4511L55.2638 31.0205C60.3764 26.9818 67.6413 26.9818 72.7538 31.0205L73.9936 29.4511Z" fill="url(#paint5_linear_1_76)" fill-opacity="0.75" mask="url(#path-5-outside-3_1_76)"/>
</g>
<mask id="path-7-outside-4_1_76" maskUnits="userSpaceOnUse" x="26.0157" y="25.9984" width="76" height="75" fill="black">
<rect fill="white" x="26.0157" y="25.9984" width="76" height="75"/>
<path d="M54.6317 30.2433C60.113 25.9167 67.8966 25.9167 73.3778 30.2433V30.2433C75.6115 32.0065 78.3114 33.1023 81.1428 33.3881L81.5948 33.4337C88.3632 34.117 93.73 39.4798 94.4524 46.2442V46.2442C94.7517 49.0468 95.877 51.7087 97.6835 53.8721V53.8721C102.097 59.1581 102.097 66.8448 97.6835 72.1307V72.1307C95.877 74.2942 94.7517 76.9561 94.4524 79.7586V79.7586C93.73 86.523 88.3632 91.8858 81.5948 92.5691L81.1428 92.6148C78.3114 92.9006 75.6115 93.9963 73.3778 95.7595V95.7595C67.8966 100.086 60.113 100.086 54.6317 95.7595V95.7595C52.398 93.9963 49.6981 92.9006 46.8668 92.6148L46.4148 92.5691C39.6463 91.8858 34.2795 86.523 33.5571 79.7586V79.7586C33.2578 76.9561 32.1326 74.2942 30.3261 72.1307V72.1307C25.9122 66.8448 25.9122 59.1581 30.3261 53.8721V53.8721C32.1326 51.7087 33.2578 49.0468 33.5571 46.2442V46.2442C34.2795 39.4798 39.6463 34.117 46.4148 33.4337L46.8668 33.3881C49.6981 33.1023 52.398 32.0065 54.6317 30.2433V30.2433Z"/>
</mask>
<path d="M54.6317 30.2433C60.113 25.9167 67.8966 25.9167 73.3778 30.2433V30.2433C75.6115 32.0065 78.3114 33.1023 81.1428 33.3881L81.5948 33.4337C88.3632 34.117 93.73 39.4798 94.4524 46.2442V46.2442C94.7517 49.0468 95.877 51.7087 97.6835 53.8721V53.8721C102.097 59.1581 102.097 66.8448 97.6835 72.1307V72.1307C95.877 74.2942 94.7517 76.9561 94.4524 79.7586V79.7586C93.73 86.523 88.3632 91.8858 81.5948 92.5691L81.1428 92.6148C78.3114 92.9006 75.6115 93.9963 73.3778 95.7595V95.7595C67.8966 100.086 60.113 100.086 54.6317 95.7595V95.7595C52.398 93.9963 49.6981 92.9006 46.8668 92.6148L46.4148 92.5691C39.6463 91.8858 34.2795 86.523 33.5571 79.7586V79.7586C33.2578 76.9561 32.1326 74.2942 30.3261 72.1307V72.1307C25.9122 66.8448 25.9122 59.1581 30.3261 53.8721V53.8721C32.1326 51.7087 33.2578 49.0468 33.5571 46.2442V46.2442C34.2795 39.4798 39.6463 34.117 46.4148 33.4337L46.8668 33.3881C49.6981 33.1023 52.398 32.0065 54.6317 30.2433V30.2433Z" fill="url(#paint6_linear_1_76)" fill-opacity="0.2"/>
<path d="M46.8668 33.3881L46.9672 34.383L46.8668 33.3881ZM81.1428 92.6148L81.0423 91.6198L81.1428 92.6148ZM81.5948 92.5691L81.6952 93.5641L81.5948 92.5691ZM81.5948 33.4337L81.6952 32.4388L81.5948 33.4337ZM81.1428 33.3881L81.0423 34.383L81.1428 33.3881ZM81.0423 34.383L81.4943 34.4287L81.6952 32.4388L81.2432 32.3932L81.0423 34.383ZM81.4943 91.5742L81.0423 91.6198L81.2432 93.6097L81.6952 93.5641L81.4943 91.5742ZM46.9672 91.6198L46.5152 91.5742L46.3143 93.5641L46.7663 93.6097L46.9672 91.6198ZM46.5152 34.4287L46.9672 34.383L46.7663 32.3932L46.3143 32.4388L46.5152 34.4287ZM46.9672 34.383C49.9889 34.078 52.8687 32.909 55.2513 31.0283L54.0122 29.4584C51.9273 31.1041 49.4074 32.1265 46.7663 32.3932L46.9672 34.383ZM34.5515 46.3504C35.2239 40.0539 40.22 35.0642 46.5152 34.4287L46.3143 32.4388C39.0727 33.1699 33.3351 38.9058 32.5628 46.138L34.5515 46.3504ZM31.0937 54.5131C33.0275 52.1971 34.2312 49.3489 34.5515 46.3504L32.5628 46.138C32.2844 48.7446 31.2376 51.2203 29.5585 53.2312L31.0937 54.5131ZM31.0937 71.4898C26.9897 66.575 26.9897 59.4279 31.0937 54.5131L29.5585 53.2312C24.8348 58.8882 24.8348 67.1146 29.5585 72.7717L31.0937 71.4898ZM34.5515 79.6525C34.2312 76.6539 33.0275 73.8057 31.0937 71.4898L29.5585 72.7717C31.2376 74.7826 32.2844 77.2582 32.5628 79.8648L34.5515 79.6525ZM46.5152 91.5742C40.22 90.9387 35.2239 85.949 34.5515 79.6525L32.5628 79.8648C33.3351 87.0971 39.0727 92.833 46.3143 93.5641L46.5152 91.5742ZM55.2513 94.9746C52.8687 93.0939 49.9889 91.9249 46.9672 91.6198L46.7663 93.6097C49.4074 93.8763 51.9273 94.8988 54.0122 96.5444L55.2513 94.9746ZM72.7582 94.9746C67.6403 99.0145 60.3693 99.0145 55.2513 94.9746L54.0122 96.5444C59.8567 101.158 68.1529 101.158 73.9974 96.5444L72.7582 94.9746ZM81.0423 91.6198C78.0207 91.9249 75.1408 93.0939 72.7582 94.9746L73.9974 96.5444C76.0822 94.8988 78.6022 93.8763 81.2432 93.6097L81.0423 91.6198ZM93.4581 79.6525C92.7856 85.949 87.7896 90.9387 81.4943 91.5742L81.6952 93.5641C88.9369 92.833 94.6744 87.0971 95.4468 79.8648L93.4581 79.6525ZM96.9159 71.4898C94.982 73.8057 93.7783 76.6539 93.4581 79.6525L95.4468 79.8648C95.7251 77.2582 96.7719 74.7826 98.4511 72.7717L96.9159 71.4898ZM96.9159 54.5131C101.02 59.4279 101.02 66.575 96.9159 71.4898L98.4511 72.7717C103.175 67.1146 103.175 58.8882 98.4511 53.2312L96.9159 54.5131ZM93.4581 46.3504C93.7783 49.3489 94.982 52.1971 96.9159 54.5131L98.4511 53.2312C96.7719 51.2203 95.7251 48.7446 95.4468 46.138L93.4581 46.3504ZM81.4943 34.4287C87.7896 35.0642 92.7856 40.0539 93.4581 46.3504L95.4468 46.138C94.6744 38.9058 88.9369 33.1699 81.6952 32.4388L81.4943 34.4287ZM72.7582 31.0283C75.1408 32.909 78.0207 34.078 81.0423 34.383L81.2432 32.3932C78.6022 32.1265 76.0822 31.1041 73.9974 29.4584L72.7582 31.0283ZM73.9974 29.4584C68.1529 24.845 59.8566 24.845 54.0122 29.4584L55.2513 31.0283C60.3693 26.9884 67.6403 26.9884 72.7582 31.0283L73.9974 29.4584Z" fill="url(#paint7_linear_1_76)" fill-opacity="0.75" mask="url(#path-7-outside-4_1_76)"/>
<mask id="path-9-outside-5_1_76" maskUnits="userSpaceOnUse" x="36.0464" y="35.9919" width="57" height="56" fill="black">
<rect fill="white" x="36.0464" y="35.9919" width="57" height="56"/>
<path fill-rule="evenodd" clip-rule="evenodd" d="M71.4699 39.3831C67.3944 36.1948 61.6215 36.1948 57.546 39.3831C55.889 40.6794 53.8892 41.4857 51.796 41.6951L51.3552 41.7392C46.3811 42.2369 42.4331 46.181 41.8976 51.1511C41.675 53.2165 40.8399 55.1793 39.5014 56.7679C36.2281 60.6531 36.2281 66.3309 39.5014 70.216C40.8399 71.8047 41.675 73.7675 41.8976 75.8329C42.4331 80.803 46.3811 84.747 51.3552 85.2447L51.796 85.2888C53.8893 85.4983 55.889 86.3046 57.546 87.6008C61.6215 90.7892 67.3943 90.7892 71.4699 87.6008C73.1268 86.3046 75.1266 85.4983 77.2199 85.2888L77.6607 85.2447C82.6347 84.747 86.5827 80.803 87.1183 75.8329C87.3408 73.7675 88.1759 71.8047 89.5144 70.216C92.7878 66.3309 92.7878 60.6531 89.5144 56.7679C88.1759 55.1793 87.3408 53.2165 87.1183 51.1511C86.5827 46.181 82.6347 42.2369 77.6607 41.7392L77.2199 41.6951C75.1266 41.4857 73.1268 40.6794 71.4699 39.3831ZM64 60C61.7909 60 60 61.7909 60 64C60 66.2091 61.7909 68 64 68C66.2091 68 68 66.2091 68 64C68 61.7909 66.2091 60 64 60Z"/>
</mask>
<path fill-rule="evenodd" clip-rule="evenodd" d="M71.4699 39.3831C67.3944 36.1948 61.6215 36.1948 57.546 39.3831C55.889 40.6794 53.8892 41.4857 51.796 41.6951L51.3552 41.7392C46.3811 42.2369 42.4331 46.181 41.8976 51.1511C41.675 53.2165 40.8399 55.1793 39.5014 56.7679C36.2281 60.6531 36.2281 66.3309 39.5014 70.216C40.8399 71.8047 41.675 73.7675 41.8976 75.8329C42.4331 80.803 46.3811 84.747 51.3552 85.2447L51.796 85.2888C53.8893 85.4983 55.889 86.3046 57.546 87.6008C61.6215 90.7892 67.3943 90.7892 71.4699 87.6008C73.1268 86.3046 75.1266 85.4983 77.2199 85.2888L77.6607 85.2447C82.6347 84.747 86.5827 80.803 87.1183 75.8329C87.3408 73.7675 88.1759 71.8047 89.5144 70.216C92.7878 66.3309 92.7878 60.6531 89.5144 56.7679C88.1759 55.1793 87.3408 53.2165 87.1183 51.1511C86.5827 46.181 82.6347 42.2369 77.6607 41.7392L77.2199 41.6951C75.1266 41.4857 73.1268 40.6794 71.4699 39.3831ZM64 60C61.7909 60 60 61.7909 60 64C60 66.2091 61.7909 68 64 68C66.2091 68 68 66.2091 68 64C68 61.7909 66.2091 60 64 60Z" fill="url(#paint8_diamond_1_76)"/>
<path fill-rule="evenodd" clip-rule="evenodd" d="M71.4699 39.3831C67.3944 36.1948 61.6215 36.1948 57.546 39.3831C55.889 40.6794 53.8892 41.4857 51.796 41.6951L51.3552 41.7392C46.3811 42.2369 42.4331 46.181 41.8976 51.1511C41.675 53.2165 40.8399 55.1793 39.5014 56.7679C36.2281 60.6531 36.2281 66.3309 39.5014 70.216C40.8399 71.8047 41.675 73.7675 41.8976 75.8329C42.4331 80.803 46.3811 84.747 51.3552 85.2447L51.796 85.2888C53.8893 85.4983 55.889 86.3046 57.546 87.6008C61.6215 90.7892 67.3943 90.7892 71.4699 87.6008C73.1268 86.3046 75.1266 85.4983 77.2199 85.2888L77.6607 85.2447C82.6347 84.747 86.5827 80.803 87.1183 75.8329C87.3408 73.7675 88.1759 71.8047 89.5144 70.216C92.7878 66.3309 92.7878 60.6531 89.5144 56.7679C88.1759 55.1793 87.3408 53.2165 87.1183 51.1511C86.5827 46.181 82.6347 42.2369 77.6607 41.7392L77.2199 41.6951C75.1266 41.4857 73.1268 40.6794 71.4699 39.3831ZM64 60C61.7909 60 60 61.7909 60 64C60 66.2091 61.7909 68 64 68C66.2091 68 68 66.2091 68 64C68 61.7909 66.2091 60 64 60Z" fill="url(#paint9_diamond_1_76)" fill-opacity="0.7"/>
<path d="M57.546 39.3831L56.9298 38.5955V38.5955L57.546 39.3831ZM71.4699 39.3831L70.8537 40.1708V40.1708L71.4699 39.3831ZM51.796 41.6951L51.6964 40.7001L51.796 41.6951ZM51.3552 41.7392L51.4547 42.7343L51.3552 41.7392ZM41.8976 51.1511L40.9033 51.0439L41.8976 51.1511ZM39.5014 56.7679L38.7367 56.1236H38.7367L39.5014 56.7679ZM39.5014 70.216L38.7367 70.8604H38.7367L39.5014 70.216ZM41.8976 75.8329L42.8918 75.7257H42.8918L41.8976 75.8329ZM51.3552 85.2447L51.4547 84.2497H51.4547L51.3552 85.2447ZM51.796 85.2888L51.6964 86.2838H51.6964L51.796 85.2888ZM57.546 87.6008L58.1621 86.8132L57.546 87.6008ZM71.4699 87.6008L70.8537 86.8132L71.4699 87.6008ZM77.2199 85.2888L77.3195 86.2838H77.3195L77.2199 85.2888ZM77.6607 85.2447L77.5611 84.2497H77.5611L77.6607 85.2447ZM87.1183 75.8329L88.1125 75.94L87.1183 75.8329ZM89.5144 70.216L90.2792 70.8604L89.5144 70.216ZM89.5144 56.7679L90.2792 56.1236L89.5144 56.7679ZM87.1183 51.1511L88.1125 51.0439V51.0439L87.1183 51.1511ZM77.6607 41.7392L77.5611 42.7343L77.6607 41.7392ZM77.2199 41.6951L77.3195 40.7001L77.2199 41.6951ZM58.1621 40.1708C61.8757 37.2656 67.1402 37.2656 70.8537 40.1708L72.086 38.5955C67.6485 35.124 61.3673 35.124 56.9298 38.5955L58.1621 40.1708ZM51.8955 42.6902C54.1782 42.4618 56.3569 41.583 58.1621 40.1708L56.9298 38.5955C55.4211 39.7758 53.6003 40.5096 51.6964 40.7001L51.8955 42.6902ZM51.4547 42.7343L51.8955 42.6902L51.6964 40.7001L51.2556 40.7442L51.4547 42.7343ZM42.8918 51.2582C43.3771 46.7551 46.9547 43.1845 51.4547 42.7343L51.2556 40.7442C45.8076 41.2893 41.4892 45.6068 40.9033 51.0439L42.8918 51.2582ZM40.2662 57.4123C41.7336 55.6705 42.648 53.5205 42.8918 51.2582L40.9033 51.0439C40.702 52.9125 39.9462 54.688 38.7367 56.1236L40.2662 57.4123ZM40.2662 69.5717C37.3065 66.0589 37.3065 60.9251 40.2662 57.4123L38.7367 56.1236C35.1497 60.381 35.1497 66.6029 38.7367 70.8604L40.2662 69.5717ZM42.8918 75.7257C42.648 73.4635 41.7336 71.3134 40.2662 69.5717L38.7367 70.8604C39.9462 72.296 40.702 74.0715 40.9033 75.94L42.8918 75.7257ZM51.4547 84.2497C46.9547 83.7994 43.3771 80.2289 42.8918 75.7257L40.9033 75.94C41.4892 81.3771 45.8076 85.6946 51.2556 86.2397L51.4547 84.2497ZM51.8955 84.2938L51.4547 84.2497L51.2556 86.2397L51.6964 86.2838L51.8955 84.2938ZM58.1621 86.8132C56.3569 85.4009 54.1782 84.5222 51.8955 84.2938L51.6964 86.2838C53.6003 86.4743 55.4211 87.2082 56.9298 88.3884L58.1621 86.8132ZM70.8537 86.8132C67.1402 89.7184 61.8757 89.7184 58.1621 86.8132L56.9298 88.3884C61.3673 91.86 67.6485 91.86 72.086 88.3884L70.8537 86.8132ZM77.1203 84.2938C74.8376 84.5222 72.6589 85.4009 70.8537 86.8132L72.086 88.3884C73.5947 87.2082 75.4156 86.4743 77.3195 86.2838L77.1203 84.2938ZM77.5611 84.2497L77.1203 84.2938L77.3195 86.2838L77.7602 86.2397L77.5611 84.2497ZM86.124 75.7257C85.6388 80.2289 82.0611 83.7994 77.5611 84.2497L77.7602 86.2397C83.2083 85.6946 87.5266 81.3771 88.1125 75.94L86.124 75.7257ZM88.7497 69.5717C87.2822 71.3134 86.3678 73.4635 86.124 75.7257L88.1125 75.94C88.3139 74.0715 89.0696 72.296 90.2792 70.8604L88.7497 69.5717ZM88.7497 57.4123C91.7094 60.9251 91.7094 66.0589 88.7497 69.5717L90.2792 70.8604C93.8662 66.6029 93.8662 60.381 90.2792 56.1236L88.7497 57.4123ZM86.124 51.2582C86.3678 53.5205 87.2822 55.6705 88.7497 57.4123L90.2792 56.1236C89.0696 54.688 88.3139 52.9125 88.1125 51.0439L86.124 51.2582ZM77.5611 42.7343C82.0611 43.1845 85.6388 46.7551 86.124 51.2582L88.1125 51.0439C87.5266 45.6068 83.2083 41.2893 77.7602 40.7442L77.5611 42.7343ZM77.1203 42.6902L77.5611 42.7343L77.7602 40.7442L77.3195 40.7001L77.1203 42.6902ZM70.8537 40.1708C72.6589 41.583 74.8376 42.4618 77.1203 42.6902L77.3195 40.7001C75.4156 40.5096 73.5947 39.7758 72.086 38.5955L70.8537 40.1708ZM61 64C61 62.3431 62.3431 61 64 61V59C61.2386 59 59 61.2386 59 64H61ZM64 67C62.3431 67 61 65.6569 61 64H59C59 66.7614 61.2386 69 64 69V67ZM67 64C67 65.6569 65.6569 67 64 67V69C66.7614 69 69 66.7614 69 64H67ZM64 61C65.6569 61 67 62.3431 67 64H69C69 61.2386 66.7614 59 64 59V61Z" fill="url(#paint10_linear_1_76)" mask="url(#path-9-outside-5_1_76)"/>
<rect x="60.5" y="60.5" width="7" height="7" rx="3.5" stroke="#2F72D2"/>
<defs>
<filter id="filter0_f_1_76" x="22.0505" y="21.9915" width="83.9166" height="81.9993" filterUnits="userSpaceOnUse" color-interpolation-filters="sRGB">
<feFlood flood-opacity="0" result="BackgroundImageFix"/>
<feBlend mode="normal" in="SourceGraphic" in2="BackgroundImageFix" result="shape"/>
<feGaussianBlur stdDeviation="2" result="effect1_foregroundBlur_1_76"/>
</filter>
<linearGradient id="paint0_linear_1_76" x1="8.24036" y1="7.55679" x2="116.776" y2="118.039" gradientUnits="userSpaceOnUse">
<stop stop-color="#C2E0FF"/>
<stop offset="0.215" stop-color="#F4F5F7"/>
<stop offset="0.75" stop-color="#7DAAD9"/>
<stop offset="1" stop-color="#758699"/>
</linearGradient>
<linearGradient id="paint1_linear_1_76" x1="102.493" y1="23.4431" x2="25.7999" y2="101.512" gradientUnits="userSpaceOnUse">
<stop stop-color="#C8CDD3"/>
<stop offset="0.52" stop-color="#7D8790"/>
<stop offset="1" stop-color="#C8CDD3"/>
</linearGradient>
<linearGradient id="paint2_linear_1_76" x1="19.0456" y1="18.9831" x2="107.101" y2="108.946" gradientUnits="userSpaceOnUse">
<stop stop-color="#C2E0FF"/>
<stop offset="0.215" stop-color="#F4F5F7"/>
<stop offset="0.75" stop-color="#7DAAD9"/>
<stop offset="1" stop-color="#758699"/>
</linearGradient>
<linearGradient id="paint3_linear_1_76" x1="95.7988" y1="31.8726" x2="33.5771" y2="95.4424" gradientUnits="userSpaceOnUse">
<stop stop-color="#C8CDD3"/>
<stop offset="0.52" stop-color="#435364"/>
<stop offset="1" stop-color="#C8CDD3"/>
</linearGradient>
<radialGradient id="paint4_radial_1_76" cx="0" cy="0" r="1" gradientUnits="userSpaceOnUse" gradientTransform="translate(64.0088 62.9911) rotate(90) scale(35.9996 36.9583)">
<stop offset="0.75" stop-color="#86B0DC"/>
<stop offset="1" stop-color="#485E76"/>
</radialGradient>
<linearGradient id="paint5_linear_1_76" x1="90.1423" y1="37.5355" x2="39.2487" y2="89.7844" gradientUnits="userSpaceOnUse">
<stop stop-color="white"/>
<stop offset="0.52" stop-color="#426890"/>
<stop offset="1" stop-color="white"/>
</linearGradient>
<linearGradient id="paint6_linear_1_76" x1="27.0157" y1="26.9984" x2="99.0449" y2="101" gradientUnits="userSpaceOnUse">
<stop stop-color="#C2E0FF"/>
<stop offset="0.215" stop-color="#F4F5F7"/>
<stop offset="0.75" stop-color="#7DAAD9"/>
<stop offset="1" stop-color="#758699"/>
</linearGradient>
<linearGradient id="paint7_linear_1_76" x1="90.16" y1="37.5434" x2="39.2625" y2="89.8348" gradientUnits="userSpaceOnUse">
<stop stop-color="#C8CDD3"/>
<stop offset="0.52" stop-color="#435364"/>
<stop offset="1" stop-color="#C8CDD3"/>
</linearGradient>
<radialGradient id="paint8_diamond_1_76" cx="0" cy="0" r="1" gradientUnits="userSpaceOnUse" gradientTransform="translate(64.5079 63.6475) rotate(90) scale(32.5242 33.607)">
<stop stop-color="#3276DF"/>
<stop offset="1" stop-color="#A5CEFF"/>
</radialGradient>
<radialGradient id="paint9_diamond_1_76" cx="0" cy="0" r="1" gradientUnits="userSpaceOnUse" gradientTransform="translate(64.5079 63.6475) rotate(134.134) scale(39.5038 40.819)">
<stop stop-color="#3276DF"/>
<stop offset="1" stop-color="white" stop-opacity="0"/>
</radialGradient>
<linearGradient id="paint10_linear_1_76" x1="64.5079" y1="36.9919" x2="64.5079" y2="89.9921" gradientUnits="userSpaceOnUse">
<stop stop-color="#ACE1F7"/>
<stop offset="1" stop-color="#4984E9"/>
</linearGradient>
</defs>
</svg>
