<svg width="128" height="128" viewBox="0 0 128 128" fill="none" xmlns="http://www.w3.org/2000/svg">
<g clip-path="url(#clip0_1_107)">
<mask id="path-1-outside-1_1_107" maskUnits="userSpaceOnUse" x="-14.4847" y="-16.2704" width="154.861" height="155.227" fill="black">
<rect fill="white" x="-14.4847" y="-16.2704" width="154.861" height="155.227"/>
<path fill-rule="evenodd" clip-rule="evenodd" d="M33.0987 14.5347C32.096 16.0703 32.4668 19.0304 33.2084 24.9507L34.1016 32.0808C34.4457 34.8276 34.6177 36.2009 34.2176 37.322C33.8657 38.3082 33.2129 39.1591 32.3515 39.7545C31.3723 40.4313 30.0013 40.6208 27.2592 40.9999L20.2179 41.9732L20.2178 41.9733C14.3826 42.7799 11.465 43.1833 10.2432 44.5388C9.18263 45.7155 8.74243 47.3252 9.05662 48.8779C9.41854 50.6665 11.7249 52.4984 16.3376 56.1622L16.3377 56.1623L22.3183 60.9126C24.445 62.6018 25.5084 63.4464 26.0066 64.509C26.4451 65.4441 26.5832 66.4921 26.402 67.5089C26.1961 68.6643 25.3879 69.7556 23.7715 71.9382L19.2729 78.0125C15.812 82.6857 14.0816 85.0223 14.189 86.8347C14.2822 88.4085 15.1122 89.8461 16.4285 90.7137C17.9444 91.7129 20.8332 91.3826 26.6107 90.7219L26.6107 90.7219L34.1206 89.8632C36.8189 89.5547 38.1681 89.4004 39.2717 89.7998C40.2428 90.1513 41.0813 90.7949 41.6719 91.6422C42.3431 92.6049 42.5428 93.9481 42.9424 96.6345L44.066 104.189C44.9326 110.016 45.3659 112.929 46.7339 114.137C47.9214 115.185 49.5356 115.609 51.085 115.279C52.8698 114.898 54.6779 112.573 58.2941 107.923L62.6577 102.312L62.6578 102.312C64.3571 100.127 65.2068 99.0342 66.2824 98.5246C67.2288 98.0763 68.292 97.9364 69.3221 98.1247C70.493 98.3388 71.5964 99.1744 73.8031 100.846L79.5314 105.184C84.2877 108.787 86.6658 110.588 88.497 110.487C90.0862 110.4 91.539 109.561 92.4092 108.229C93.4119 106.693 93.0411 103.733 92.2995 97.8129L92.2995 97.8127L91.4063 90.6825C91.0622 87.9358 90.8902 86.5625 91.2902 85.4414C91.6422 84.4552 92.295 83.6043 93.1564 83.0089C94.1356 82.3321 95.5066 82.1426 98.2486 81.7635L98.2487 81.7635L105.29 80.7901C111.125 79.9835 114.043 79.5801 115.265 78.2246C116.325 77.0479 116.765 75.4382 116.451 73.8855C116.089 72.0969 113.783 70.265 109.17 66.6011L103.19 61.8508C101.063 60.1616 99.9995 59.317 99.5013 58.2544C99.0628 57.3192 98.9247 56.2713 99.1059 55.2545C99.3118 54.0991 100.12 53.0078 101.736 50.8252L106.235 44.7509C109.696 40.0777 111.426 37.7411 111.319 35.9287C111.226 34.3549 110.396 32.9173 109.079 32.0497C107.563 31.0505 104.675 31.3808 98.8972 32.0415L91.3873 32.9002C88.689 33.2087 87.3398 33.363 86.2362 32.9636C85.2651 32.6121 84.4266 31.9685 83.836 31.1212C83.1648 30.1584 82.9651 28.8153 82.5655 26.1289L81.4419 18.5743L81.4419 18.5742C80.5753 12.7476 80.142 9.83428 78.774 8.62656C77.5865 7.57811 75.9723 7.15447 74.4229 7.48461C72.6381 7.8649 70.83 10.19 67.2138 14.8401L62.8502 20.4514C61.1508 22.6366 60.3012 23.7292 59.2255 24.2388C58.2791 24.6871 57.2159 24.827 56.1858 24.6387C55.0149 24.4246 53.9115 23.589 51.7048 21.9176L45.9765 17.579C41.2202 13.9766 38.8421 12.1754 37.0109 12.276C35.4217 12.3633 33.9689 13.202 33.0987 14.5347ZM64 60C61.7909 60 60 61.7909 60 64C60 66.2091 61.7909 68 64 68C66.2091 68 68 66.2091 68 64C68 61.7909 66.2091 60 64 60Z"/>
</mask>
<path fill-rule="evenodd" clip-rule="evenodd" d="M33.0987 14.5347C32.096 16.0703 32.4668 19.0304 33.2084 24.9507L34.1016 32.0808C34.4457 34.8276 34.6177 36.2009 34.2176 37.322C33.8657 38.3082 33.2129 39.1591 32.3515 39.7545C31.3723 40.4313 30.0013 40.6208 27.2592 40.9999L20.2179 41.9732L20.2178 41.9733C14.3826 42.7799 11.465 43.1833 10.2432 44.5388C9.18263 45.7155 8.74243 47.3252 9.05662 48.8779C9.41854 50.6665 11.7249 52.4984 16.3376 56.1622L16.3377 56.1623L22.3183 60.9126C24.445 62.6018 25.5084 63.4464 26.0066 64.509C26.4451 65.4441 26.5832 66.4921 26.402 67.5089C26.1961 68.6643 25.3879 69.7556 23.7715 71.9382L19.2729 78.0125C15.812 82.6857 14.0816 85.0223 14.189 86.8347C14.2822 88.4085 15.1122 89.8461 16.4285 90.7137C17.9444 91.7129 20.8332 91.3826 26.6107 90.7219L26.6107 90.7219L34.1206 89.8632C36.8189 89.5547 38.1681 89.4004 39.2717 89.7998C40.2428 90.1513 41.0813 90.7949 41.6719 91.6422C42.3431 92.6049 42.5428 93.9481 42.9424 96.6345L44.066 104.189C44.9326 110.016 45.3659 112.929 46.7339 114.137C47.9214 115.185 49.5356 115.609 51.085 115.279C52.8698 114.898 54.6779 112.573 58.2941 107.923L62.6577 102.312L62.6578 102.312C64.3571 100.127 65.2068 99.0342 66.2824 98.5246C67.2288 98.0763 68.292 97.9364 69.3221 98.1247C70.493 98.3388 71.5964 99.1744 73.8031 100.846L79.5314 105.184C84.2877 108.787 86.6658 110.588 88.497 110.487C90.0862 110.4 91.539 109.561 92.4092 108.229C93.4119 106.693 93.0411 103.733 92.2995 97.8129L92.2995 97.8127L91.4063 90.6825C91.0622 87.9358 90.8902 86.5625 91.2902 85.4414C91.6422 84.4552 92.295 83.6043 93.1564 83.0089C94.1356 82.3321 95.5066 82.1426 98.2486 81.7635L98.2487 81.7635L105.29 80.7901C111.125 79.9835 114.043 79.5801 115.265 78.2246C116.325 77.0479 116.765 75.4382 116.451 73.8855C116.089 72.0969 113.783 70.265 109.17 66.6011L103.19 61.8508C101.063 60.1616 99.9995 59.317 99.5013 58.2544C99.0628 57.3192 98.9247 56.2713 99.1059 55.2545C99.3118 54.0991 100.12 53.0078 101.736 50.8252L106.235 44.7509C109.696 40.0777 111.426 37.7411 111.319 35.9287C111.226 34.3549 110.396 32.9173 109.079 32.0497C107.563 31.0505 104.675 31.3808 98.8972 32.0415L91.3873 32.9002C88.689 33.2087 87.3398 33.363 86.2362 32.9636C85.2651 32.6121 84.4266 31.9685 83.836 31.1212C83.1648 30.1584 82.9651 28.8153 82.5655 26.1289L81.4419 18.5743L81.4419 18.5742C80.5753 12.7476 80.142 9.83428 78.774 8.62656C77.5865 7.57811 75.9723 7.15447 74.4229 7.48461C72.6381 7.8649 70.83 10.19 67.2138 14.8401L62.8502 20.4514C61.1508 22.6366 60.3012 23.7292 59.2255 24.2388C58.2791 24.6871 57.2159 24.827 56.1858 24.6387C55.0149 24.4246 53.9115 23.589 51.7048 21.9176L45.9765 17.579C41.2202 13.9766 38.8421 12.1754 37.0109 12.276C35.4217 12.3633 33.9689 13.202 33.0987 14.5347ZM64 60C61.7909 60 60 61.7909 60 64C60 66.2091 61.7909 68 64 68C66.2091 68 68 66.2091 68 64C68 61.7909 66.2091 60 64 60Z" fill="url(#paint0_linear_1_107)" fill-opacity="0.2"/>
<path d="M33.2084 24.9507L32.2162 25.075L32.2162 25.075L33.2084 24.9507ZM33.0987 14.5347L32.2614 13.988L32.2614 13.988L33.0987 14.5347ZM34.1016 32.0808L33.1094 32.2051L33.1094 32.2051L34.1016 32.0808ZM34.2176 37.322L33.2758 36.9858L33.2758 36.9858L34.2176 37.322ZM32.3515 39.7545L32.9201 40.5771L32.9201 40.5771L32.3515 39.7545ZM27.2592 40.9999L27.3961 41.9904L27.3961 41.9904L27.2592 40.9999ZM20.2179 41.9732L20.0809 40.9827L20.049 40.9871L20.0174 40.9936L20.2179 41.9732ZM20.2178 41.9733L20.3548 42.9638L20.3867 42.9594L20.4183 42.953L20.2178 41.9733ZM10.2432 44.5388L10.986 45.2083L10.986 45.2083L10.2432 44.5388ZM9.05662 48.8779L10.0368 48.6796L10.0368 48.6796L9.05662 48.8779ZM16.3376 56.1622L17.0011 55.414L16.9808 55.3961L16.9596 55.3792L16.3376 56.1622ZM16.3377 56.1623L15.6742 56.9105L15.6945 56.9284L15.7157 56.9453L16.3377 56.1623ZM22.3183 60.9126L22.9403 60.1296L22.9403 60.1296L22.3183 60.9126ZM26.0066 64.509L25.1012 64.9336L25.1012 64.9336L26.0066 64.509ZM26.402 67.5089L27.3865 67.6843L27.3865 67.6843L26.402 67.5089ZM23.7715 71.9382L24.5752 72.5333L24.5752 72.5333L23.7715 71.9382ZM19.2729 78.0125L20.0766 78.6077L20.0766 78.6077L19.2729 78.0125ZM14.189 86.8347L15.1872 86.7756L15.1872 86.7756L14.189 86.8347ZM16.4285 90.7137L16.9788 89.8788L16.9788 89.8788L16.4285 90.7137ZM26.6107 90.7219L26.5508 89.7237L26.5238 89.7253L26.4971 89.7284L26.6107 90.7219ZM26.6107 90.7219L26.6706 91.7201L26.6975 91.7185L26.7243 91.7155L26.6107 90.7219ZM34.1206 89.8632L34.007 88.8697L34.007 88.8697L34.1206 89.8632ZM39.2717 89.7998L39.612 88.8595L39.612 88.8595L39.2717 89.7998ZM41.6719 91.6422L40.8516 92.214L40.8516 92.214L41.6719 91.6422ZM42.9424 96.6345L43.9315 96.4874L43.9315 96.4874L42.9424 96.6345ZM44.066 104.189L43.0768 104.336L43.0768 104.336L44.066 104.189ZM46.7339 114.137L47.3957 113.387L47.3957 113.387L46.7339 114.137ZM51.085 115.279L50.8766 114.301L50.8766 114.301L51.085 115.279ZM58.2941 107.923L57.5047 107.309L57.5047 107.309L58.2941 107.923ZM62.6577 102.312L61.8718 101.694L61.8683 101.698L62.6577 102.312ZM62.6578 102.312L63.4437 102.93L63.4472 102.926L62.6578 102.312ZM66.2824 98.5246L65.8543 97.6209L65.8543 97.6209L66.2824 98.5246ZM69.3221 98.1247L69.502 97.141L69.502 97.141L69.3221 98.1247ZM73.8031 100.846L74.4068 100.049L74.4068 100.049L73.8031 100.846ZM79.5314 105.184L78.9276 105.982L78.9276 105.982L79.5314 105.184ZM88.497 110.487L88.4421 109.489L88.4421 109.489L88.497 110.487ZM92.4092 108.229L91.5719 107.682L91.5719 107.682L92.4092 108.229ZM92.2995 97.8129L93.2918 97.6886L93.2912 97.6844L92.2995 97.8129ZM92.2995 97.8127L91.3072 97.937L91.3078 97.9412L92.2995 97.8127ZM91.4063 90.6825L90.414 90.8068L90.414 90.8068L91.4063 90.6825ZM91.2902 85.4414L90.3484 85.1053L90.3484 85.1053L91.2902 85.4414ZM93.1564 83.0089L92.5878 82.1863L92.5878 82.1863L93.1564 83.0089ZM98.2486 81.7635L98.1887 80.7653L98.1501 80.7677L98.1117 80.773L98.2486 81.7635ZM98.2487 81.7635L98.3087 82.7617L98.3473 82.7594L98.3857 82.7541L98.2487 81.7635ZM105.29 80.7901L105.153 79.7996L105.153 79.7996L105.29 80.7901ZM115.265 78.2246L114.522 77.5551L114.522 77.5551L115.265 78.2246ZM116.451 73.8855L115.471 74.0838L115.471 74.0838L116.451 73.8855ZM109.17 66.6011L108.548 67.3842L108.548 67.3842L109.17 66.6011ZM103.19 61.8508L102.568 62.6338L102.568 62.6338L103.19 61.8508ZM99.5013 58.2544L98.5959 58.6789L98.5959 58.6789L99.5013 58.2544ZM99.1059 55.2545L98.1214 55.0791L98.1214 55.0791L99.1059 55.2545ZM101.736 50.8252L100.933 50.2301L100.933 50.2301L101.736 50.8252ZM106.235 44.7509L107.039 45.346L107.039 45.346L106.235 44.7509ZM111.319 35.9287L110.321 35.9878L110.321 35.9878L111.319 35.9287ZM109.079 32.0497L109.63 31.2148L109.63 31.2148L109.079 32.0497ZM98.8972 32.0415L99.0108 33.035L99.0108 33.035L98.8972 32.0415ZM91.3873 32.9002L91.2737 31.9067L91.2737 31.9067L91.3873 32.9002ZM86.2362 32.9636L85.8959 33.9039L85.8959 33.9039L86.2362 32.9636ZM83.836 31.1212L83.0156 31.6931L83.0156 31.6931L83.836 31.1212ZM82.5655 26.1289L81.5764 26.276L81.5764 26.276L82.5655 26.1289ZM81.4419 18.5743L80.4521 18.7169L80.4528 18.7214L81.4419 18.5743ZM81.4419 18.5742L82.4317 18.4316L82.431 18.4271L81.4419 18.5742ZM78.774 8.62656L79.4359 7.8769L79.4359 7.8769L78.774 8.62656ZM74.4229 7.48461L74.6313 8.46265L74.6313 8.46265L74.4229 7.48461ZM67.2138 14.8401L68.0032 15.454L68.0032 15.454L67.2138 14.8401ZM62.8502 20.4514L63.6396 21.0653L63.6396 21.0653L62.8502 20.4514ZM59.2255 24.2388L59.6536 25.1425L59.6536 25.1425L59.2255 24.2388ZM56.1858 24.6387L56.3656 23.655L56.3656 23.655L56.1858 24.6387ZM51.7048 21.9176L51.1011 22.7148L51.1011 22.7148L51.7048 21.9176ZM45.9765 17.579L45.3727 18.3762L45.3727 18.3762L45.9765 17.579ZM37.0109 12.276L37.0658 13.2745L37.0658 13.2745L37.0109 12.276ZM60 64L59 64L59 64L60 64ZM64 60L64 61L64 61L64 60ZM64 68L64 69L64 69L64 68ZM68 64L67 64L67 64L68 64ZM34.2007 24.8264C33.8274 21.8466 33.5569 19.6793 33.4988 18.0625C33.4396 16.4146 33.6174 15.5693 33.936 15.0815L32.2614 13.988C31.5772 15.0357 31.4391 16.4382 31.5001 18.1343C31.5621 19.8615 31.8478 22.1345 32.2162 25.075L34.2007 24.8264ZM35.0939 31.9565L34.2007 24.8264L32.2162 25.075L33.1094 32.2051L35.0939 31.9565ZM35.1595 37.6581C35.4209 36.9255 35.4764 36.1562 35.4377 35.2675C35.3996 34.3907 35.2639 33.3136 35.0939 31.9565L33.1094 32.2051C33.2834 33.5948 33.4058 34.5778 33.4396 35.3545C33.473 36.1195 33.4145 36.5974 33.2758 36.9858L35.1595 37.6581ZM32.9201 40.5771C33.9538 39.8626 34.7371 38.8416 35.1595 37.6581L33.2758 36.9858C32.9942 37.7748 32.472 38.4555 31.7829 38.9319L32.9201 40.5771ZM27.3961 41.9904C28.7509 41.8032 29.8264 41.6553 30.6831 41.465C31.5515 41.2723 32.2802 41.0194 32.9201 40.5771L31.7829 38.9319C31.4436 39.1664 30.9972 39.3466 30.2497 39.5126C29.4906 39.6811 28.5095 39.8175 27.1222 40.0093L27.3961 41.9904ZM20.3548 42.9638L27.3961 41.9904L27.1222 40.0093L20.0809 40.9827L20.3548 42.9638ZM20.4183 42.953L20.4183 42.9529L20.0174 40.9936L20.0174 40.9936L20.4183 42.953ZM10.986 45.2083C11.375 44.7768 12.1385 44.39 13.7249 44.0247C15.2824 43.666 17.4175 43.3699 20.3548 42.9638L20.0809 40.9827C17.1829 41.3833 14.9415 41.6922 13.2761 42.0757C11.6394 42.4526 10.3332 42.9453 9.50041 43.8693L10.986 45.2083ZM10.0368 48.6796C9.7854 47.4374 10.1376 46.1497 10.986 45.2083L9.50041 43.8693C8.2277 45.2814 7.69945 47.213 8.07648 49.0763L10.0368 48.6796ZM16.9596 55.3792C14.6377 53.5349 12.9505 52.1936 11.7922 51.0922C10.6124 49.9704 10.152 49.249 10.0368 48.6796L8.07648 49.0763C8.3232 50.2955 9.19688 51.3842 10.414 52.5416C11.6525 53.7192 13.4248 55.1257 15.7157 56.9453L16.9596 55.3792ZM17.0011 55.4141L17.0011 55.414L15.6742 56.9104L15.6742 56.9105L17.0011 55.4141ZM22.9403 60.1296L16.9596 55.3792L15.7157 56.9453L21.6964 61.6957L22.9403 60.1296ZM26.912 64.0845C26.5866 63.3905 26.0949 62.8124 25.456 62.2152C24.8258 61.6262 23.9909 60.9641 22.9403 60.1296L21.6964 61.6957C22.7724 62.5503 23.5326 63.1551 24.0903 63.6764C24.6393 64.1894 24.9284 64.5649 25.1012 64.9336L26.912 64.0845ZM27.3865 67.6843C27.6039 66.4642 27.4382 65.2066 26.912 64.0845L25.1012 64.9336C25.452 65.6817 25.5625 66.52 25.4175 67.3335L27.3865 67.6843ZM24.5752 72.5333C25.3737 71.4551 26.0085 70.5992 26.4645 69.8671C26.9269 69.1247 27.252 68.4389 27.3865 67.6843L25.4175 67.3335C25.3461 67.7343 25.1642 68.1719 24.7669 68.8096C24.3633 69.4576 23.7858 70.2387 22.9679 71.343L24.5752 72.5333ZM20.0766 78.6077L24.5752 72.5333L22.9679 71.343L18.4693 77.4174L20.0766 78.6077ZM15.1872 86.7756C15.153 86.1975 15.4088 85.389 16.2463 84.0176C17.0692 82.6701 18.3343 80.9602 20.0766 78.6077L18.4693 77.4174C16.7507 79.738 15.4201 81.533 14.5394 82.9752C13.6733 84.3935 13.1176 85.6596 13.1907 86.8939L15.1872 86.7756ZM16.9788 89.8788C15.9258 89.1847 15.2618 88.0346 15.1872 86.7756L13.1907 86.8939C13.3026 88.7824 14.2986 90.5075 15.8781 91.5486L16.9788 89.8788ZM26.4971 89.7284C23.5886 90.061 21.4752 90.3017 19.8968 90.3406C18.2905 90.3801 17.4624 90.1975 16.9788 89.8788L15.8781 91.5486C16.9105 92.2291 18.2848 92.3809 19.9461 92.34C21.6355 92.2983 23.8553 92.0435 26.7243 91.7155L26.4971 89.7284ZM26.5508 89.7237L26.5508 89.7237L26.6706 91.7201L26.6706 91.7201L26.5508 89.7237ZM34.007 88.8697L26.4971 89.7284L26.7243 91.7155L34.2342 90.8567L34.007 88.8697ZM39.612 88.8595C38.8913 88.5986 38.1348 88.5373 37.2607 88.5666C36.3986 88.5955 35.34 88.7173 34.007 88.8697L34.2342 90.8567C35.5995 90.7006 36.5647 90.591 37.3276 90.5655C38.0786 90.5403 38.5485 90.6015 38.9314 90.7401L39.612 88.8595ZM42.4923 91.0703C41.7836 90.0536 40.7774 89.2813 39.612 88.8595L38.9314 90.7401C39.7083 91.0213 40.3791 91.5362 40.8516 92.214L42.4923 91.0703ZM43.9315 96.4874C43.7341 95.1603 43.5781 94.1062 43.3831 93.2659C43.1854 92.414 42.9306 91.6991 42.4923 91.0703L40.8516 92.214C41.0844 92.548 41.265 92.9861 41.4349 93.718C41.6074 94.4617 41.7511 95.4224 41.9533 96.7816L43.9315 96.4874ZM45.0551 104.042L43.9315 96.4874L41.9533 96.7816L43.0768 104.336L45.0551 104.042ZM47.3957 113.387C46.9602 113.003 46.5656 112.243 46.184 110.661C45.8094 109.107 45.4913 106.975 45.0551 104.042L43.0768 104.336C43.5072 107.23 43.8391 109.468 44.2398 111.129C44.6335 112.762 45.1395 114.063 46.072 114.886L47.3957 113.387ZM50.8766 114.301C49.6371 114.565 48.3458 114.226 47.3957 113.387L46.072 114.886C47.4971 116.145 49.4341 116.653 51.2934 116.257L50.8766 114.301ZM57.5047 107.309C55.6844 109.65 54.3604 111.351 53.271 112.521C52.1615 113.712 51.4447 114.18 50.8766 114.301L51.2934 116.257C52.51 115.998 53.5897 115.113 54.7345 113.884C55.8994 112.633 57.2876 110.847 59.0835 108.537L57.5047 107.309ZM61.8683 101.698L57.5047 107.309L59.0835 108.537L63.4471 102.926L61.8683 101.698ZM61.8719 101.694L61.8719 101.694L63.4436 102.93L63.4437 102.93L61.8719 101.694ZM65.8543 97.6209C65.1513 97.9539 64.568 98.4585 63.9669 99.1141C63.3738 99.761 62.708 100.618 61.8684 101.698L63.4472 102.926C64.3069 101.82 64.9156 101.039 65.4411 100.466C65.9585 99.9014 66.3378 99.6049 66.7105 99.4283L65.8543 97.6209ZM69.502 97.141C68.2658 96.9151 66.9899 97.0829 65.8543 97.6209L66.7105 99.4283C67.4676 99.0697 68.3182 98.9578 69.1423 99.1084L69.502 97.141ZM74.4068 100.049C73.3165 99.2228 72.4516 98.5668 71.7114 98.0953C70.9611 97.6175 70.2671 97.2809 69.502 97.141L69.1423 99.1084C69.548 99.1826 69.9911 99.3709 70.637 99.7822C71.2928 100.2 72.0829 100.797 73.1993 101.643L74.4068 100.049ZM80.1351 104.387L74.4068 100.049L73.1993 101.643L78.9276 105.982L80.1351 104.387ZM88.4421 109.489C87.8604 109.521 87.0394 109.252 85.6419 108.377C84.2707 107.518 82.5291 106.2 80.1351 104.387L78.9276 105.982C81.29 107.771 83.1156 109.155 84.5803 110.072C86.0187 110.973 87.3024 111.555 88.5518 111.486L88.4421 109.489ZM91.5719 107.682C90.8758 108.748 89.7135 109.419 88.4421 109.489L88.5518 111.486C90.4589 111.381 92.2023 110.375 93.2465 108.775L91.5719 107.682ZM91.3073 97.9372C91.6805 100.917 91.951 103.084 92.0091 104.701C92.0683 106.349 91.8905 107.194 91.5719 107.682L93.2465 108.775C93.9307 107.728 94.0688 106.325 94.0078 104.629C93.9458 102.902 93.6601 100.629 93.2918 97.6886L91.3073 97.9372ZM91.3078 97.9412L91.3078 97.9413L93.2912 97.6844L93.2912 97.6843L91.3078 97.9412ZM90.414 90.8068L91.3072 97.937L93.2917 97.6884L92.3985 90.5582L90.414 90.8068ZM90.3484 85.1053C90.087 85.8379 90.0314 86.6072 90.0702 87.4959C90.1083 88.3727 90.244 89.4497 90.414 90.8068L92.3985 90.5582C92.2244 89.1686 92.1021 88.1856 92.0683 87.4088C92.0349 86.6439 92.0934 86.166 92.2321 85.7775L90.3484 85.1053ZM92.5878 82.1863C91.5541 82.9008 90.7708 83.9218 90.3484 85.1053L92.2321 85.7775C92.5136 84.9886 93.0359 84.3079 93.725 83.8315L92.5878 82.1863ZM98.1117 80.773C96.7569 80.9602 95.6815 81.1081 94.8247 81.2984C93.9564 81.4911 93.2277 81.744 92.5878 82.1863L93.725 83.8315C94.0643 83.597 94.5107 83.4168 95.2582 83.2508C96.0172 83.0823 96.9983 82.9459 98.3856 82.7541L98.1117 80.773ZM98.1888 80.7653L98.1887 80.7653L98.3086 82.7617L98.3087 82.7617L98.1888 80.7653ZM105.153 79.7996L98.1118 80.773L98.3857 82.7541L105.427 81.7807L105.153 79.7996ZM114.522 77.5551C114.133 77.9866 113.369 78.3734 111.783 78.7387C110.225 79.0974 108.09 79.3935 105.153 79.7996L105.427 81.7807C108.325 81.3801 110.566 81.0712 112.232 80.6877C113.869 80.3108 115.175 79.8181 116.007 78.8941L114.522 77.5551ZM115.471 74.0838C115.722 75.3259 115.37 76.6137 114.522 77.5551L116.007 78.8941C117.28 77.482 117.808 75.5504 117.431 73.6871L115.471 74.0838ZM108.548 67.3842C110.87 69.2284 112.557 70.5698 113.716 71.6712C114.895 72.793 115.356 73.5144 115.471 74.0838L117.431 73.6871C117.185 72.4679 116.311 71.3791 115.094 70.2218C113.855 69.0441 112.083 67.6377 109.792 65.8181L108.548 67.3842ZM102.568 62.6338L108.548 67.3842L109.792 65.8181L103.812 61.0677L102.568 62.6338ZM98.5959 58.6789C98.9213 59.3729 99.413 59.951 100.052 60.5482C100.682 61.1372 101.517 61.7993 102.568 62.6338L103.812 61.0677C102.735 60.2131 101.975 59.6083 101.418 59.087C100.869 58.5739 100.58 58.1985 100.407 57.8298L98.5959 58.6789ZM98.1214 55.0791C97.904 56.2992 98.0697 57.5568 98.5959 58.6789L100.407 57.8298C100.056 57.0817 99.9454 56.2434 100.09 55.4299L98.1214 55.0791ZM100.933 50.2301C100.134 51.3083 99.4994 52.1642 99.0434 52.8963C98.581 53.6387 98.2559 54.3245 98.1214 55.0791L100.09 55.4299C100.162 55.0291 100.344 54.5915 100.741 53.9537C101.145 53.3058 101.722 52.5247 102.54 51.4204L100.933 50.2301ZM105.431 44.1557L100.933 50.2301L102.54 51.4204L107.039 45.346L105.431 44.1557ZM110.321 35.9878C110.355 36.5659 110.099 37.3744 109.262 38.7458C108.439 40.0933 107.174 41.8031 105.431 44.1557L107.039 45.346C108.757 43.0254 110.088 41.2304 110.969 39.7882C111.835 38.3698 112.39 37.1038 112.317 35.8695L110.321 35.9878ZM108.529 32.8846C109.582 33.5787 110.246 34.7288 110.321 35.9878L112.317 35.8695C112.205 33.981 111.209 32.2559 109.63 31.2148L108.529 32.8846ZM99.0108 33.035C101.919 32.7024 104.033 32.4617 105.611 32.4228C107.217 32.3832 108.046 32.5659 108.529 32.8846L109.63 31.2148C108.597 30.5343 107.223 30.3825 105.562 30.4234C103.872 30.4651 101.653 30.7199 98.7836 31.0479L99.0108 33.035ZM91.5009 33.8937L99.0108 33.035L98.7836 31.0479L91.2737 31.9067L91.5009 33.8937ZM85.8959 33.9039C86.6166 34.1648 87.3731 34.2261 88.2472 34.1968C89.1093 34.1679 90.1679 34.0461 91.5009 33.8937L91.2737 31.9067C89.9084 32.0628 88.9432 32.1724 88.1803 32.1979C87.4293 32.2231 86.9594 32.1618 86.5765 32.0233L85.8959 33.9039ZM83.0156 31.6931C83.7243 32.7098 84.7305 33.4821 85.8959 33.9039L86.5765 32.0233C85.7996 31.7421 85.1288 31.2272 84.6563 30.5494L83.0156 31.6931ZM81.5764 26.276C81.7738 27.6031 81.9298 28.6572 82.1248 29.4975C82.3225 30.3494 82.5773 31.0643 83.0156 31.6931L84.6563 30.5494C84.4235 30.2154 84.2429 29.7773 84.073 29.0454C83.9005 28.3017 83.7568 27.341 83.5546 25.9818L81.5764 26.276ZM80.4528 18.7214L81.5764 26.276L83.5546 25.9818L82.4311 18.4272L80.4528 18.7214ZM80.4521 18.7168L80.4522 18.7169L82.4317 18.4317L82.4317 18.4316L80.4521 18.7168ZM78.1122 9.37621C78.5477 9.76067 78.9423 10.5202 79.3239 12.1027C79.6985 13.6565 80.0166 15.7884 80.4528 18.7213L82.431 18.4271C82.0007 15.5334 81.6688 13.2953 81.2681 11.6339C80.8744 10.0012 80.3684 8.70017 79.4359 7.8769L78.1122 9.37621ZM74.6313 8.46265C75.8708 8.19855 77.1621 8.53746 78.1122 9.37621L79.4359 7.8769C78.0108 6.61877 76.0738 6.1104 74.2145 6.50656L74.6313 8.46265ZM68.0032 15.454C69.8235 13.1133 71.1475 11.4123 72.2369 10.2428C73.3464 9.05157 74.0632 8.58371 74.6313 8.46265L74.2145 6.50656C72.9979 6.7658 71.9181 7.65062 70.7734 8.87958C69.6085 10.1302 68.2203 11.9168 66.4244 14.2263L68.0032 15.454ZM63.6396 21.0653L68.0032 15.454L66.4244 14.2263L62.0608 19.8375L63.6396 21.0653ZM59.6536 25.1425C60.3566 24.8095 60.9399 24.3049 61.541 23.6492C62.1342 23.0023 62.8 22.1449 63.6396 21.0653L62.0608 19.8375C61.201 20.943 60.5923 21.7245 60.0669 22.2976C59.5494 22.862 59.1701 23.1585 58.7973 23.3351L59.6536 25.1425ZM56.0059 25.6224C57.2421 25.8483 58.518 25.6805 59.6536 25.1425L58.7973 23.3351C58.0403 23.6937 57.1897 23.8056 56.3656 23.655L56.0059 25.6224ZM51.1011 22.7148C52.1913 23.5406 53.0563 24.1966 53.7965 24.6681C54.5467 25.1459 55.2407 25.4825 56.0059 25.6224L56.3656 23.655C55.9599 23.5808 55.5168 23.3925 54.8709 22.9812C54.2151 22.5635 53.425 21.966 52.3086 21.1205L51.1011 22.7148ZM45.3727 18.3762L51.1011 22.7148L52.3086 21.1205L46.5803 16.7818L45.3727 18.3762ZM37.0658 13.2745C37.6475 13.2425 38.4685 13.5111 39.866 14.3864C41.2372 15.2451 42.9788 16.563 45.3727 18.3762L46.5803 16.7818C44.2179 14.9926 42.3923 13.6087 40.9276 12.6913C39.4892 11.7905 38.2055 11.2088 36.9561 11.2775L37.0658 13.2745ZM33.936 15.0815C34.6321 14.0153 35.7944 13.3443 37.0658 13.2745L36.9561 11.2775C35.049 11.3822 33.3056 12.3887 32.2614 13.988L33.936 15.0815ZM61 64C61 62.3431 62.3431 61 64 61L64 59C61.2386 59 59 61.2386 59 64L61 64ZM64 67C62.3431 67 61 65.6569 61 64L59 64C59 66.7614 61.2386 69 64 69L64 67ZM67 64C67 65.6569 65.6569 67 64 67L64 69C66.7614 69 69 66.7614 69 64L67 64ZM64 61C65.6569 61 67 62.3431 67 64L69 64C69 61.2386 66.7614 59 64 59L64 61Z" fill="url(#paint1_linear_1_107)" fill-opacity="0.5" mask="url(#path-1-outside-1_1_107)"/>
<mask id="path-3-outside-2_1_107" maskUnits="userSpaceOnUse" x="-1.51776" y="-2.65555" width="131.015" height="131.015" fill="black">
<rect fill="white" x="-1.51776" y="-2.65555" width="131.015" height="131.015"/>
<path d="M51.4529 28.1808C52.9977 22.524 53.7702 19.6956 55.268 18.6588C56.5683 17.7588 58.2178 17.5269 59.7159 18.0337C61.4414 18.6174 62.9635 21.1234 66.0078 26.1353L66.9879 27.7488C68.4066 30.0845 69.116 31.2524 70.1138 31.8805C70.9918 32.4331 72.02 32.699 73.0559 32.6412C74.2331 32.5755 75.4196 31.8979 77.7927 30.5426L79.4382 29.6029C84.5532 26.6817 87.1108 25.2211 88.9057 25.5496C90.464 25.8347 91.7949 26.8414 92.4935 28.2632C93.2981 29.901 92.5887 32.7596 91.1701 38.4766L90.7532 40.1564C90.0906 42.8265 89.7593 44.1615 90.0204 45.3173C90.25 46.3342 90.7918 47.2539 91.5699 47.9477C92.4543 48.7362 93.7826 49.0936 96.4392 49.8084L98.1171 50.2598C103.831 51.7971 106.688 52.5658 107.73 54.0673C108.635 55.3706 108.868 57.0262 108.357 58.5285C107.769 60.2592 105.235 61.7855 100.166 64.8382L98.6775 65.7346C96.3208 67.154 95.1425 67.8637 94.5097 68.8654C93.953 69.7468 93.6857 70.7802 93.7452 71.821C93.8129 73.004 94.4993 74.196 95.8722 76.58L96.7359 78.0798C99.6755 83.1844 101.145 85.7366 100.823 87.5328C100.544 89.092 99.5418 90.4266 98.1225 91.1302C96.4876 91.9407 93.6265 91.2416 87.9044 89.8435L86.0637 89.3938C83.409 88.7451 82.0816 88.4208 80.9319 88.6821C79.9202 88.9121 79.0051 89.451 78.3135 90.2243C77.5274 91.1031 77.1674 92.4213 76.4475 95.0576L75.9501 96.8787C74.4053 102.536 73.6328 105.364 72.1351 106.401C70.8347 107.301 69.1852 107.533 67.6871 107.026C65.9616 106.442 64.4395 103.936 61.3952 98.9243L60.4152 97.3107C58.9964 94.975 58.2871 93.8072 57.2892 93.1791C56.4112 92.6264 55.383 92.3606 54.3471 92.4184C53.1699 92.484 51.9834 93.1617 49.6103 94.517L47.9648 95.4567C42.8498 98.3778 40.2923 99.8384 38.4973 99.51C36.939 99.2248 35.6081 98.2181 34.9096 96.7963C34.1049 95.1585 34.8143 92.3 36.233 86.583L36.6498 84.9032C37.3124 82.2331 37.6437 80.898 37.3827 79.7423C37.153 78.7254 36.6112 77.8057 35.8331 77.1119C34.9487 76.3233 33.6204 75.9659 30.9638 75.2512L29.2859 74.7997C23.5722 73.2624 20.7154 72.4938 19.6727 70.9923C18.7677 69.689 18.535 68.0334 19.0458 66.531C19.6341 64.8003 22.1684 63.274 27.2371 60.2214L28.7255 59.3249C31.0822 57.9056 32.2606 57.1959 32.8933 56.1941C33.45 55.3127 33.7173 54.2793 33.6578 53.2385C33.5901 52.0556 32.9037 50.8636 31.5308 48.4795L30.6671 46.9797C27.7275 41.8752 26.2578 39.323 26.5798 37.5268C26.8593 35.9675 27.8612 34.633 29.2805 33.9293C30.9154 33.1188 33.7765 33.8179 39.4986 35.216L41.3393 35.6658C43.994 36.3145 45.3214 36.6388 46.4711 36.3774C47.4828 36.1475 48.3979 35.6085 49.0895 34.8352C49.8756 33.9564 50.2356 32.6383 50.9555 30.002L51.4529 28.1808Z"/>
</mask>
<path d="M51.4529 28.1808C52.9977 22.524 53.7702 19.6956 55.268 18.6588C56.5683 17.7588 58.2178 17.5269 59.7159 18.0337C61.4414 18.6174 62.9635 21.1234 66.0078 26.1353L66.9879 27.7488C68.4066 30.0845 69.116 31.2524 70.1138 31.8805C70.9918 32.4331 72.02 32.699 73.0559 32.6412C74.2331 32.5755 75.4196 31.8979 77.7927 30.5426L79.4382 29.6029C84.5532 26.6817 87.1108 25.2211 88.9057 25.5496C90.464 25.8347 91.7949 26.8414 92.4935 28.2632C93.2981 29.901 92.5887 32.7596 91.1701 38.4766L90.7532 40.1564C90.0906 42.8265 89.7593 44.1615 90.0204 45.3173C90.25 46.3342 90.7918 47.2539 91.5699 47.9477C92.4543 48.7362 93.7826 49.0936 96.4392 49.8084L98.1171 50.2598C103.831 51.7971 106.688 52.5658 107.73 54.0673C108.635 55.3706 108.868 57.0262 108.357 58.5285C107.769 60.2592 105.235 61.7855 100.166 64.8382L98.6775 65.7346C96.3208 67.154 95.1425 67.8637 94.5097 68.8654C93.953 69.7468 93.6857 70.7802 93.7452 71.821C93.8129 73.004 94.4993 74.196 95.8722 76.58L96.7359 78.0798C99.6755 83.1844 101.145 85.7366 100.823 87.5328C100.544 89.092 99.5418 90.4266 98.1225 91.1302C96.4876 91.9407 93.6265 91.2416 87.9044 89.8435L86.0637 89.3938C83.409 88.7451 82.0816 88.4208 80.9319 88.6821C79.9202 88.9121 79.0051 89.451 78.3135 90.2243C77.5274 91.1031 77.1674 92.4213 76.4475 95.0576L75.9501 96.8787C74.4053 102.536 73.6328 105.364 72.1351 106.401C70.8347 107.301 69.1852 107.533 67.6871 107.026C65.9616 106.442 64.4395 103.936 61.3952 98.9243L60.4152 97.3107C58.9964 94.975 58.2871 93.8072 57.2892 93.1791C56.4112 92.6264 55.383 92.3606 54.3471 92.4184C53.1699 92.484 51.9834 93.1617 49.6103 94.517L47.9648 95.4567C42.8498 98.3778 40.2923 99.8384 38.4973 99.51C36.939 99.2248 35.6081 98.2181 34.9096 96.7963C34.1049 95.1585 34.8143 92.3 36.233 86.583L36.6498 84.9032C37.3124 82.2331 37.6437 80.898 37.3827 79.7423C37.153 78.7254 36.6112 77.8057 35.8331 77.1119C34.9487 76.3233 33.6204 75.9659 30.9638 75.2512L29.2859 74.7997C23.5722 73.2624 20.7154 72.4938 19.6727 70.9923C18.7677 69.689 18.535 68.0334 19.0458 66.531C19.6341 64.8003 22.1684 63.274 27.2371 60.2214L28.7255 59.3249C31.0822 57.9056 32.2606 57.1959 32.8933 56.1941C33.45 55.3127 33.7173 54.2793 33.6578 53.2385C33.5901 52.0556 32.9037 50.8636 31.5308 48.4795L30.6671 46.9797C27.7275 41.8752 26.2578 39.323 26.5798 37.5268C26.8593 35.9675 27.8612 34.633 29.2805 33.9293C30.9154 33.1188 33.7765 33.8179 39.4986 35.216L41.3393 35.6658C43.994 36.3145 45.3214 36.6388 46.4711 36.3774C47.4828 36.1475 48.3979 35.6085 49.0895 34.8352C49.8756 33.9564 50.2356 32.6383 50.9555 30.002L51.4529 28.1808Z" fill="url(#paint2_linear_1_107)" fill-opacity="0.2"/>
<path d="M51.4529 28.1808L50.4882 27.9174L50.4882 27.9174L51.4529 28.1808ZM55.268 18.6588L55.8371 19.4811L55.8371 19.4811L55.268 18.6588ZM59.7159 18.0337L60.0363 17.0865L60.0363 17.0865L59.7159 18.0337ZM66.0078 26.1353L65.1531 26.6544L65.1531 26.6544L66.0078 26.1353ZM66.9879 27.7488L67.8425 27.2297L67.8425 27.2297L66.9879 27.7488ZM70.1138 31.8805L69.5811 32.7268L69.5811 32.7268L70.1138 31.8805ZM73.0559 32.6412L73.1116 33.6396L73.1116 33.6396L73.0559 32.6412ZM77.7927 30.5426L78.2887 31.411L78.2887 31.411L77.7927 30.5426ZM79.4382 29.6029L78.9423 28.7345L78.9423 28.7345L79.4382 29.6029ZM88.9057 25.5496L88.7257 26.5332L88.7257 26.5332L88.9057 25.5496ZM92.4935 28.2632L93.391 27.8223L93.391 27.8223L92.4935 28.2632ZM91.1701 38.4766L92.1406 38.7174L92.1406 38.7174L91.1701 38.4766ZM90.7532 40.1564L89.7827 39.9155L89.7827 39.9155L90.7532 40.1564ZM90.0204 45.3173L89.0449 45.5376L89.0449 45.5376L90.0204 45.3173ZM91.5699 47.9477L90.9044 48.6941L90.9044 48.6941L91.5699 47.9477ZM96.4392 49.8084L96.699 48.8427L96.699 48.8427L96.4392 49.8084ZM98.1171 50.2598L97.8573 51.2255L97.8573 51.2255L98.1171 50.2598ZM107.73 54.0673L108.552 53.4969L108.552 53.4969L107.73 54.0673ZM108.357 58.5285L109.304 58.8504L109.304 58.8504L108.357 58.5285ZM100.166 64.8382L100.682 65.6948L100.682 65.6948L100.166 64.8382ZM98.6775 65.7346L99.1934 66.5913L99.1934 66.5913L98.6775 65.7346ZM94.5097 68.8654L93.6642 68.3314L93.6642 68.3314L94.5097 68.8654ZM93.7452 71.821L92.7469 71.8781L92.7469 71.8781L93.7452 71.821ZM95.8722 76.58L95.0056 77.0791L95.0057 77.0791L95.8722 76.58ZM96.7359 78.0798L97.6025 77.5808L97.6025 77.5808L96.7359 78.0798ZM100.823 87.5328L101.808 87.7092L101.808 87.7092L100.823 87.5328ZM98.1225 91.1302L98.5667 92.0262L98.5667 92.0262L98.1225 91.1302ZM87.9044 89.8435L88.1418 88.8721L88.1418 88.8721L87.9044 89.8435ZM86.0637 89.3938L85.8264 90.3652L85.8264 90.3652L86.0637 89.3938ZM80.9319 88.6821L80.7103 87.707L80.7102 87.707L80.9319 88.6821ZM78.3135 90.2243L79.0588 90.891L79.0588 90.891L78.3135 90.2243ZM76.4475 95.0576L77.4122 95.321L77.4122 95.321L76.4475 95.0576ZM75.9501 96.8787L74.9855 96.6153L74.9855 96.6153L75.9501 96.8787ZM72.1351 106.401L72.7042 107.223L72.7042 107.223L72.1351 106.401ZM67.6871 107.026L67.3667 107.973L67.3667 107.973L67.6871 107.026ZM61.3952 98.9243L62.2499 98.4052L62.2499 98.4052L61.3952 98.9243ZM60.4152 97.3107L59.5605 97.8299L59.5605 97.8299L60.4152 97.3107ZM57.2892 93.1791L56.7565 94.0254L56.7565 94.0254L57.2892 93.1791ZM54.3471 92.4184L54.2914 91.4199L54.2914 91.4199L54.3471 92.4184ZM49.6103 94.517L49.1144 93.6486L49.1144 93.6486L49.6103 94.517ZM47.9648 95.4567L48.4608 96.325L48.4608 96.325L47.9648 95.4567ZM38.4973 99.51L38.6773 98.5263L38.6773 98.5263L38.4973 99.51ZM34.9096 96.7963L34.012 97.2373L34.012 97.2373L34.9096 96.7963ZM36.233 86.583L35.2624 86.3421L35.2624 86.3421L36.233 86.583ZM36.6498 84.9032L37.6204 85.144L37.6204 85.144L36.6498 84.9032ZM37.3827 79.7423L38.3581 79.522L38.3581 79.522L37.3827 79.7423ZM35.8331 77.1119L36.4986 76.3655L36.4986 76.3655L35.8331 77.1119ZM30.9638 75.2512L31.2236 74.2855L31.2236 74.2855L30.9638 75.2512ZM29.2859 74.7997L29.0261 75.7654L29.0261 75.7654L29.2859 74.7997ZM19.6727 70.9923L18.8514 71.5627L18.8514 71.5627L19.6727 70.9923ZM19.0458 66.531L18.099 66.2092L18.099 66.2092L19.0458 66.531ZM27.2371 60.2214L27.753 61.078L27.753 61.078L27.2371 60.2214ZM28.7255 59.3249L28.2096 58.4683L28.2096 58.4683L28.7255 59.3249ZM32.8933 56.1941L33.7388 56.7282L33.7388 56.7282L32.8933 56.1941ZM33.6578 53.2385L32.6594 53.2956L32.6594 53.2956L33.6578 53.2385ZM31.5308 48.4795L30.6642 48.9786L30.6642 48.9786L31.5308 48.4795ZM30.6671 46.9797L31.5337 46.4807L31.5337 46.4807L30.6671 46.9797ZM26.5798 37.5268L27.5641 37.7032L27.5641 37.7032L26.5798 37.5268ZM29.2805 33.9293L29.7247 34.8253L29.7247 34.8253L29.2805 33.9293ZM39.4986 35.216L39.7359 34.2446L39.7359 34.2446L39.4986 35.216ZM41.3393 35.6658L41.1019 36.6372L41.1019 36.6372L41.3393 35.6658ZM46.4711 36.3774L46.6928 37.3526L46.6928 37.3526L46.4711 36.3774ZM49.0895 34.8352L48.3442 34.1685L48.3442 34.1685L49.0895 34.8352ZM50.9555 30.002L51.9202 30.2654L51.9202 30.2654L50.9555 30.002ZM52.4176 28.4443C53.1952 25.5967 53.7613 23.5273 54.3155 22.0355C54.8797 20.5164 55.36 19.8113 55.8371 19.4811L54.6988 17.8366C53.6782 18.5431 53.0233 19.7705 52.4406 21.3391C51.8479 22.9348 51.2554 25.1081 50.4882 27.9174L52.4176 28.4443ZM55.8371 19.4811C56.8774 18.761 58.197 18.5756 59.3954 18.981L60.0363 17.0865C58.2387 16.4783 56.2592 16.7565 54.6988 17.8366L55.8371 19.4811ZM59.3954 18.981C59.9451 19.1669 60.6011 19.7124 61.5622 21.017C62.5061 22.2984 63.6207 24.1315 65.1531 26.6544L66.8625 25.6161C65.3507 23.1271 64.1821 21.2014 63.1724 19.8308C62.18 18.4836 61.2122 17.4842 60.0363 17.0865L59.3954 18.981ZM65.1531 26.6544L66.1332 28.2679L67.8425 27.2297L66.8625 25.6161L65.1531 26.6544ZM66.1332 28.2679C66.8341 29.4219 67.39 30.3385 67.8985 31.0413C68.4141 31.7537 68.9293 32.3165 69.5811 32.7268L70.6465 31.0342C70.3005 30.8164 69.962 30.4812 69.5188 29.8687C69.0685 29.2466 68.5604 28.4114 67.8425 27.2297L66.1332 28.2679ZM69.5811 32.7268C70.6347 33.39 71.8685 33.709 73.1116 33.6396L73.0002 31.6428C72.1715 31.689 71.3489 31.4763 70.6465 31.0342L69.5811 32.7268ZM73.1116 33.6396C73.8806 33.5967 74.6039 33.3542 75.4002 32.981C76.1857 32.6128 77.1162 32.0805 78.2887 31.411L77.2968 29.6742C76.0961 30.3599 75.2468 30.8441 74.5515 31.17C73.8669 31.4909 73.4084 31.62 73.0002 31.6428L73.1116 33.6396ZM78.2887 31.411L79.9341 30.4713L78.9423 28.7345L77.2968 29.6742L78.2887 31.411ZM79.9341 30.4713C82.5089 29.0008 84.381 27.9328 85.8338 27.2666C87.3135 26.5881 88.1543 26.4287 88.7257 26.5332L89.0857 24.5659C87.8622 24.342 86.5268 24.7486 85.0002 25.4486C83.4467 26.1609 81.4825 27.2838 78.9423 28.7345L79.9341 30.4713ZM88.7257 26.5332C89.9724 26.7613 91.0371 27.5667 91.5959 28.7042L93.391 27.8223C92.5528 26.1161 90.9557 24.9081 89.0857 24.5659L88.7257 26.5332ZM91.5959 28.7042C91.852 29.2255 91.9275 30.0781 91.6774 31.6865C91.4318 33.2658 90.9136 35.358 90.1995 38.2357L92.1406 38.7174C92.8452 35.8782 93.391 33.6826 93.6536 31.9939C93.9117 30.3344 93.9395 28.9387 93.391 27.8223L91.5959 28.7042ZM90.1995 38.2357L89.7827 39.9155L91.7238 40.3972L92.1406 38.7174L90.1995 38.2357ZM89.7827 39.9155C89.4553 41.2347 89.1947 42.2818 89.0536 43.1431C88.9106 44.016 88.8744 44.7825 89.0449 45.5376L90.9958 45.097C90.9053 44.6964 90.9043 44.2174 91.0273 43.4664C91.1522 42.7036 91.3886 41.7481 91.7238 40.3972L89.7827 39.9155ZM89.0449 45.5376C89.3205 46.7579 89.9707 47.8615 90.9044 48.6941L92.2354 47.2013C91.613 46.6462 91.1795 45.9105 90.9958 45.097L89.0449 45.5376ZM90.9044 48.6941C91.4822 49.2093 92.1701 49.5491 93.003 49.8472C93.8247 50.1413 94.8669 50.4209 96.1794 50.7741L96.699 48.8427C95.3549 48.4811 94.4046 48.2246 93.6769 47.9642C92.9604 47.7077 92.542 47.4746 92.2354 47.2013L90.9044 48.6941ZM96.1794 50.7741L97.8573 51.2255L98.3769 49.2942L96.699 48.8427L96.1794 50.7741ZM97.8573 51.2255C100.733 51.9993 102.824 52.5628 104.331 53.1158C105.866 53.6791 106.577 54.16 106.909 54.6376L108.552 53.4969C107.841 52.473 106.602 51.8189 105.02 51.2382C103.409 50.6471 101.215 50.0577 98.3769 49.2942L97.8573 51.2255ZM106.909 54.6376C107.633 55.6803 107.819 57.0048 107.41 58.2066L109.304 58.8504C109.917 57.0476 109.638 55.0609 108.552 53.4969L106.909 54.6376ZM107.41 58.2066C107.223 58.7572 106.672 59.4155 105.352 60.3802C104.056 61.327 102.201 62.445 99.65 63.9816L100.682 65.6948C103.199 64.1787 105.146 63.0072 106.532 61.9951C107.893 61.0007 108.903 60.0305 109.304 58.8504L107.41 58.2066ZM99.65 63.9816L98.1616 64.878L99.1934 66.5913L100.682 65.6948L99.65 63.9816ZM98.1616 64.878C96.9972 65.5792 96.0725 66.1353 95.3637 66.6445C94.6452 67.1606 94.0777 67.6769 93.6642 68.3314L95.3552 69.3994C95.5745 69.0522 95.9125 68.7128 96.5306 68.2688C97.1583 67.8178 98.0011 67.3094 99.1934 66.5913L98.1616 64.878ZM93.6642 68.3314C92.9962 69.3891 92.6754 70.6291 92.7469 71.8781L94.7436 71.7639C94.696 70.9313 94.9098 70.1046 95.3552 69.3994L93.6642 68.3314ZM92.7469 71.8781C92.7911 72.651 93.0371 73.3778 93.4152 74.1775C93.7882 74.9665 94.3273 75.9012 95.0056 77.0791L96.7388 76.081C96.0442 74.8748 95.5537 74.0214 95.2233 73.3227C94.898 72.6347 94.767 72.174 94.7436 71.7639L92.7469 71.8781ZM95.0057 77.0791L95.8693 78.5789L97.6025 77.5808L96.7388 76.081L95.0057 77.0791ZM95.8693 78.5789C97.349 81.1483 98.4238 83.0166 99.0952 84.467C99.779 85.9442 99.9414 86.7845 99.8389 87.3563L101.808 87.7092C102.027 86.4848 101.616 85.1509 100.91 83.6269C100.192 82.076 99.0624 80.1159 97.6025 77.5808L95.8693 78.5789ZM99.8389 87.3563C99.6153 88.6037 98.8138 89.6714 97.6783 90.2343L98.5667 92.0262C100.27 91.1818 101.472 89.5804 101.808 87.7092L99.8389 87.3563ZM97.6783 90.2343C97.1579 90.4923 96.3056 90.5708 94.6963 90.3264C93.1161 90.0865 91.0221 89.5759 88.1418 88.8721L87.6671 90.8149C90.5088 91.5093 92.7064 92.0472 94.3961 92.3038C96.0565 92.5559 97.4522 92.5786 98.5667 92.0262L97.6783 90.2343ZM88.1418 88.8721L86.3011 88.4223L85.8264 90.3652L87.6671 90.8149L88.1418 88.8721ZM86.3011 88.4223C84.9895 88.1019 83.9483 87.8467 83.0918 87.7093C82.2235 87.57 81.4613 87.5363 80.7103 87.707L81.1536 89.6572C81.5523 89.5666 82.0286 89.5643 82.7751 89.6841C83.5333 89.8057 84.4832 90.037 85.8264 90.3652L86.3011 88.4223ZM80.7102 87.707C79.4962 87.9829 78.3981 88.6297 77.5681 89.5576L79.0588 90.891C79.6121 90.2724 80.3442 89.8412 81.1536 89.6572L80.7102 87.707ZM77.5681 89.5576C77.0547 90.1317 76.7146 90.8147 76.4154 91.6416C76.1202 92.4573 75.8385 93.4917 75.4828 94.7941L77.4122 95.321C77.7764 93.9872 78.0347 93.0443 78.296 92.3221C78.5533 91.6112 78.7862 91.1958 79.0588 90.891L77.5681 89.5576ZM75.4828 94.7941L74.9855 96.6153L76.9148 97.1422L77.4122 95.321L75.4828 94.7941ZM74.9855 96.6153C74.2078 99.4629 73.6417 101.532 73.0875 103.024C72.5233 104.543 72.0431 105.248 71.5659 105.578L72.7042 107.223C73.7248 106.516 74.3797 105.289 74.9624 103.72C75.5551 102.125 76.1476 99.9515 76.9148 97.1422L74.9855 96.6153ZM71.5659 105.578C70.5256 106.299 69.206 106.484 68.0076 106.079L67.3667 107.973C69.1644 108.581 71.1438 108.303 72.7042 107.223L71.5659 105.578ZM68.0076 106.079C67.4579 105.893 66.8019 105.347 65.8408 104.043C64.8969 102.761 63.7824 100.928 62.2499 98.4052L60.5405 99.4434C62.0524 101.932 63.221 103.858 64.2306 105.229C65.223 106.576 66.1908 107.575 67.3667 107.973L68.0076 106.079ZM62.2499 98.4052L61.2698 96.7916L59.5605 97.8299L60.5405 99.4434L62.2499 98.4052ZM61.2698 96.7916C60.5689 95.6377 60.013 94.721 59.5045 94.0183C58.9889 93.3059 58.4737 92.7431 57.8219 92.3328L56.7565 94.0254C57.1026 94.2432 57.441 94.5784 57.8842 95.1908C58.3345 95.813 58.8427 96.6481 59.5605 97.8299L61.2698 96.7916ZM57.8219 92.3328C56.7683 91.6696 55.5345 91.3505 54.2914 91.4199L54.4029 93.4168C55.2316 93.3706 56.0541 93.5833 56.7565 94.0254L57.8219 92.3328ZM54.2914 91.4199C53.5225 91.4628 52.7991 91.7054 52.0028 92.0786C51.2173 92.4467 50.2868 92.979 49.1144 93.6486L50.1062 95.3853C51.3069 94.6996 52.1562 94.2155 52.8516 93.8895C53.5361 93.5687 53.9946 93.4396 54.4029 93.4168L54.2914 91.4199ZM49.1144 93.6486L47.4689 94.5883L48.4608 96.325L50.1062 95.3853L49.1144 93.6486ZM47.4689 94.5883C44.8942 96.0587 43.022 97.1268 41.5692 97.7929C40.0896 98.4714 39.2487 98.6309 38.6773 98.5263L38.3173 100.494C39.5409 100.718 40.8762 100.311 42.4028 99.6109C43.9563 98.8986 45.9205 97.7758 48.4608 96.325L47.4689 94.5883ZM38.6773 98.5263C37.4307 98.2982 36.3659 97.4928 35.8071 96.3554L34.012 97.2373C34.8502 98.9435 36.4474 100.151 38.3173 100.494L38.6773 98.5263ZM35.8071 96.3554C35.551 95.834 35.4755 94.9815 35.7256 93.373C35.9712 91.7937 36.4894 89.7016 37.2035 86.8238L35.2624 86.3421C34.5578 89.1814 34.012 91.377 33.7494 93.0657C33.4913 94.7252 33.4635 96.1208 34.012 97.2373L35.8071 96.3554ZM37.2035 86.8238L37.6204 85.144L35.6792 84.6623L35.2624 86.3421L37.2035 86.8238ZM37.6204 85.144C37.9477 83.8248 38.2083 82.7778 38.3494 81.9165C38.4924 81.0435 38.5286 80.2771 38.3581 79.522L36.4072 79.9626C36.4977 80.3632 36.4988 80.8422 36.3757 81.5932C36.2508 82.3559 36.0145 83.3114 35.6792 84.6623L37.6204 85.144ZM38.3581 79.522C38.0825 78.3017 37.4323 77.1981 36.4986 76.3655L35.1676 77.8583C35.7901 78.4133 36.2235 79.1491 36.4072 79.9626L38.3581 79.522ZM36.4986 76.3655C35.9208 75.8503 35.2329 75.5104 34.4 75.2123C33.5783 74.9183 32.5362 74.6386 31.2236 74.2855L30.704 76.2168C32.0481 76.5785 32.9984 76.8349 33.7261 77.0954C34.4426 77.3518 34.861 77.5849 35.1676 77.8583L36.4986 76.3655ZM31.2236 74.2855L29.5457 73.8341L29.0261 75.7654L30.704 76.2168L31.2236 74.2855ZM29.5457 73.8341C26.6697 73.0603 24.579 72.4968 23.0722 71.9438C21.5371 71.3805 20.8258 70.8996 20.4941 70.4219L18.8514 71.5627C19.5623 72.5865 20.8008 73.2407 22.3832 73.8214C23.9939 74.4124 26.1884 75.0019 29.0261 75.7654L29.5457 73.8341ZM20.4941 70.4219C19.7701 69.3792 19.5839 68.0548 19.9925 66.8529L18.099 66.2092C17.4861 68.012 17.7653 69.9987 18.8514 71.5627L20.4941 70.4219ZM19.9925 66.8529C20.1797 66.3024 20.7309 65.644 22.0512 64.6794C23.3473 63.7325 25.2017 62.6146 27.753 61.078L26.7212 59.3647C24.2038 60.8808 22.2568 62.0523 20.8714 63.0645C19.5103 64.0589 18.5002 65.029 18.099 66.2092L19.9925 66.8529ZM27.753 61.078L29.2414 60.1816L28.2096 58.4683L26.7212 59.3647L27.753 61.078ZM29.2414 60.1816C30.4058 59.4803 31.3305 58.9243 32.0393 58.4151C32.7578 57.899 33.3254 57.3827 33.7388 56.7282L32.0478 55.6601C31.8285 56.0074 31.4905 56.3468 30.8725 56.7908C30.2447 57.2417 29.4019 57.7502 28.2096 58.4683L29.2414 60.1816ZM33.7388 56.7282C34.4068 55.6705 34.7276 54.4304 34.6562 53.1814L32.6594 53.2956C32.707 54.1283 32.4932 54.955 32.0478 55.6601L33.7388 56.7282ZM34.6562 53.1814C34.612 52.4085 34.3659 51.6818 33.9878 50.882C33.6148 50.093 33.0757 49.1584 32.3974 47.9805L30.6642 48.9786C31.3588 50.1847 31.8494 51.0381 32.1797 51.7369C32.505 52.4249 32.636 52.8856 32.6594 53.2956L34.6562 53.1814ZM32.3974 47.9805L31.5337 46.4807L29.8005 47.4788L30.6642 48.9786L32.3974 47.9805ZM31.5337 46.4807C30.054 43.9112 28.9792 42.043 28.3078 40.5926C27.624 39.1153 27.4616 38.275 27.5641 37.7032L25.5955 37.3503C25.376 38.5747 25.7874 39.9086 26.4929 41.4327C27.2107 42.9836 28.3406 44.9437 29.8005 47.4788L31.5337 46.4807ZM27.5641 37.7032C27.7877 36.4558 28.5892 35.3882 29.7247 34.8253L28.8364 33.0334C27.1332 33.8777 25.9309 35.4792 25.5955 37.3503L27.5641 37.7032ZM29.7247 34.8253C30.2451 34.5673 31.0974 34.4888 32.7068 34.7331C34.2869 34.973 36.3809 35.4837 39.2612 36.1875L39.7359 34.2446C36.8942 33.5503 34.6966 33.0123 33.007 32.7558C31.3466 32.5037 29.9508 32.4809 28.8364 33.0334L29.7247 34.8253ZM39.2612 36.1875L41.1019 36.6372L41.5767 34.6944L39.7359 34.2446L39.2612 36.1875ZM41.1019 36.6372C42.4135 36.9577 43.4547 37.2129 44.3112 37.3502C45.1795 37.4895 45.9417 37.5233 46.6928 37.3526L46.2495 35.4023C45.8508 35.4929 45.3744 35.4952 44.6279 35.3755C43.8697 35.2539 42.9198 35.0226 41.5767 34.6944L41.1019 36.6372ZM46.6928 37.3526C47.9068 37.0766 49.0049 36.4298 49.8349 35.5019L48.3442 34.1685C47.7909 34.7872 47.0588 35.2183 46.2494 35.4023L46.6928 37.3526ZM49.8349 35.5019C50.3483 34.9279 50.6884 34.2449 50.9876 33.4179C51.2828 32.6022 51.5645 31.5679 51.9202 30.2654L49.9909 29.7386C49.6266 31.0724 49.3683 32.0153 49.107 32.7374C48.8497 33.4483 48.6168 33.8638 48.3442 34.1685L49.8349 35.5019ZM51.9202 30.2654L52.4176 28.4443L50.4882 27.9174L49.9909 29.7386L51.9202 30.2654Z" fill="url(#paint3_linear_1_107)" fill-opacity="0.75" mask="url(#path-3-outside-2_1_107)"/>
<g filter="url(#filter0_f_1_107)">
<mask id="path-5-outside-3_1_107" maskUnits="userSpaceOnUse" x="-9.26642" y="-11.2998" width="146.665" height="147.031" fill="black">
<rect fill="white" x="-9.26642" y="-11.2998" width="146.665" height="147.031"/>
<path d="M47.1275 43.6463C46.9268 42.103 46.8265 41.3314 46.8514 40.8723C47.0467 37.2654 50.8849 35.0494 54.1062 36.6837C54.5163 36.8917 55.1344 37.3644 56.3705 38.3098C56.9428 38.7475 57.229 38.9664 57.4922 39.1209C59.4669 40.2806 61.977 39.9505 63.5847 38.3197C63.799 38.1023 64.0187 37.8171 64.4582 37.2465C65.383 36.0459 65.8454 35.4456 66.1836 35.1412C68.8425 32.7474 73.0818 33.8395 74.2533 37.2199C74.4022 37.6498 74.5171 38.3988 74.7467 39.8968L74.8132 40.3304C74.9439 41.1833 75.0093 41.6097 75.1183 41.9627C75.7447 43.9903 77.5827 45.4016 79.7032 45.4832C80.0724 45.4974 80.5013 45.4505 81.3592 45.3566C83.1873 45.1565 84.1014 45.0564 84.6589 45.1205C87.9927 45.504 90.0099 48.9977 88.675 52.0766C88.4518 52.5915 87.9081 53.3331 86.8208 54.8162C86.3105 55.5122 86.0554 55.8602 85.8831 56.187C84.8935 58.0643 85.1967 60.3617 86.6395 61.9179C86.8906 62.1888 87.2273 62.4587 87.9005 62.9983L88.2428 63.2727C89.4253 64.2206 90.0165 64.6945 90.3143 65.0385C92.6561 67.7432 91.4822 71.9606 88.0797 73.0664C87.647 73.207 86.896 73.3073 85.3938 73.5079C84.6799 73.6033 84.323 73.651 84.0276 73.7278C81.8115 74.3048 80.2705 76.3135 80.2874 78.6035C80.2897 78.9087 80.3361 79.2659 80.429 79.9805C80.6297 81.5237 80.73 82.2953 80.7052 82.7544C80.5098 86.3613 76.6717 88.5773 73.4503 86.943C73.0403 86.735 72.4222 86.2623 71.1861 85.3169C70.6137 84.8792 70.3275 84.6603 70.0644 84.5058C68.0897 83.3461 65.5796 83.6763 63.9718 85.307C63.7576 85.5244 63.5378 85.8097 63.0983 86.3802C62.1735 87.5809 61.7111 88.1812 61.373 88.4856C58.714 90.8793 54.4748 89.7872 53.3033 86.4068C53.1543 85.9769 53.0395 85.2279 52.8099 83.7299L52.7434 83.2963C52.6126 82.4434 52.5473 82.017 52.4382 81.664C51.8119 79.6365 49.9739 78.2252 47.8533 78.1435C47.4842 78.1293 47.0552 78.1763 46.1973 78.2702C44.3692 78.4703 43.4552 78.5703 42.8977 78.5062C39.5638 78.1228 37.5467 74.629 38.8816 71.5501C39.1048 71.0352 39.6484 70.2936 40.7358 68.8105C41.2461 68.1145 41.5012 67.7665 41.6735 67.4397C42.663 65.5624 42.3598 63.265 40.9171 61.7088C40.6659 61.4379 40.3293 61.1681 39.6561 60.6284L39.3138 60.354C38.1313 59.4061 37.54 58.9322 37.2422 58.5882C34.9005 55.8835 36.0743 51.6662 39.4768 50.5603C39.9095 50.4197 40.6606 50.3194 42.1628 50.1188C42.8766 50.0234 43.2336 49.9758 43.5289 49.8989C45.7451 49.3219 47.286 47.3132 47.2691 45.0232C47.2669 44.7181 47.2204 44.3608 47.1275 43.6463Z"/>
</mask>
<path d="M47.1275 43.6463C46.9268 42.103 46.8265 41.3314 46.8514 40.8723C47.0467 37.2654 50.8849 35.0494 54.1062 36.6837C54.5163 36.8917 55.1344 37.3644 56.3705 38.3098C56.9428 38.7475 57.229 38.9664 57.4922 39.1209C59.4669 40.2806 61.977 39.9505 63.5847 38.3197C63.799 38.1023 64.0187 37.8171 64.4582 37.2465C65.383 36.0459 65.8454 35.4456 66.1836 35.1412C68.8425 32.7474 73.0818 33.8395 74.2533 37.2199C74.4022 37.6498 74.5171 38.3988 74.7467 39.8968L74.8132 40.3304C74.9439 41.1833 75.0093 41.6097 75.1183 41.9627C75.7447 43.9903 77.5827 45.4016 79.7032 45.4832C80.0724 45.4974 80.5013 45.4505 81.3592 45.3566C83.1873 45.1565 84.1014 45.0564 84.6589 45.1205C87.9927 45.504 90.0099 48.9977 88.675 52.0766C88.4518 52.5915 87.9081 53.3331 86.8208 54.8162C86.3105 55.5122 86.0554 55.8602 85.8831 56.187C84.8935 58.0643 85.1967 60.3617 86.6395 61.9179C86.8906 62.1888 87.2273 62.4587 87.9005 62.9983L88.2428 63.2727C89.4253 64.2206 90.0165 64.6945 90.3143 65.0385C92.6561 67.7432 91.4822 71.9606 88.0797 73.0664C87.647 73.207 86.896 73.3073 85.3938 73.5079C84.6799 73.6033 84.323 73.651 84.0276 73.7278C81.8115 74.3048 80.2705 76.3135 80.2874 78.6035C80.2897 78.9087 80.3361 79.2659 80.429 79.9805C80.6297 81.5237 80.73 82.2953 80.7052 82.7544C80.5098 86.3613 76.6717 88.5773 73.4503 86.943C73.0403 86.735 72.4222 86.2623 71.1861 85.3169C70.6137 84.8792 70.3275 84.6603 70.0644 84.5058C68.0897 83.3461 65.5796 83.6763 63.9718 85.307C63.7576 85.5244 63.5378 85.8097 63.0983 86.3802C62.1735 87.5809 61.7111 88.1812 61.373 88.4856C58.714 90.8793 54.4748 89.7872 53.3033 86.4068C53.1543 85.9769 53.0395 85.2279 52.8099 83.7299L52.7434 83.2963C52.6126 82.4434 52.5473 82.017 52.4382 81.664C51.8119 79.6365 49.9739 78.2252 47.8533 78.1435C47.4842 78.1293 47.0552 78.1763 46.1973 78.2702C44.3692 78.4703 43.4552 78.5703 42.8977 78.5062C39.5638 78.1228 37.5467 74.629 38.8816 71.5501C39.1048 71.0352 39.6484 70.2936 40.7358 68.8105C41.2461 68.1145 41.5012 67.7665 41.6735 67.4397C42.663 65.5624 42.3598 63.265 40.9171 61.7088C40.6659 61.4379 40.3293 61.1681 39.6561 60.6284L39.3138 60.354C38.1313 59.4061 37.54 58.9322 37.2422 58.5882C34.9005 55.8835 36.0743 51.6662 39.4768 50.5603C39.9095 50.4197 40.6606 50.3194 42.1628 50.1188C42.8766 50.0234 43.2336 49.9758 43.5289 49.8989C45.7451 49.3219 47.286 47.3132 47.2691 45.0232C47.2669 44.7181 47.2204 44.3608 47.1275 43.6463Z" fill="url(#paint4_radial_1_107)" fill-opacity="0.5"/>
<path d="M47.1275 43.6463L46.1359 43.7752L46.1359 43.7752L47.1275 43.6463ZM46.8514 40.8723L45.8528 40.8182L45.8528 40.8182L46.8514 40.8723ZM54.1062 36.6837L54.5587 35.7919L54.5587 35.7919L54.1062 36.6837ZM56.3705 38.3098L55.763 39.1041L55.763 39.1041L56.3705 38.3098ZM57.4922 39.1209L56.9858 39.9832L56.9858 39.9833L57.4922 39.1209ZM63.5847 38.3197L62.8726 37.6176L62.8726 37.6176L63.5847 38.3197ZM64.4582 37.2465L63.666 36.6362L63.666 36.6362L64.4582 37.2465ZM66.1836 35.1412L65.5145 34.398L65.5145 34.398L66.1836 35.1412ZM74.2533 37.2199L73.3084 37.5474L73.3084 37.5474L74.2533 37.2199ZM74.7467 39.8968L75.7352 39.7453L75.7352 39.7453L74.7467 39.8968ZM74.8132 40.3304L73.8247 40.482L73.8247 40.482L74.8132 40.3304ZM75.1183 41.9627L74.1629 42.2579L74.1629 42.2579L75.1183 41.9627ZM79.7032 45.4832L79.6648 46.4825L79.6648 46.4825L79.7032 45.4832ZM81.3592 45.3566L81.4681 46.3506L81.4681 46.3506L81.3592 45.3566ZM84.6589 45.1205L84.5446 46.114L84.5446 46.114L84.6589 45.1205ZM88.675 52.0766L87.7575 51.6789L87.7575 51.6789L88.675 52.0766ZM86.8208 54.8162L86.0143 54.2249L86.0143 54.2249L86.8208 54.8162ZM85.8831 56.187L86.7677 56.6533L86.7677 56.6533L85.8831 56.187ZM86.6395 61.9179L87.3728 61.238L87.3728 61.238L86.6395 61.9179ZM87.9005 62.9983L88.5259 62.2181L88.5259 62.2181L87.9005 62.9983ZM88.2428 63.2727L87.6173 64.053L87.6173 64.053L88.2428 63.2727ZM90.3143 65.0385L89.5583 65.693L89.5583 65.693L90.3143 65.0385ZM88.0797 73.0664L88.3888 74.0174L88.3888 74.0174L88.0797 73.0664ZM85.3938 73.5079L85.2614 72.5167L85.2614 72.5167L85.3938 73.5079ZM84.0276 73.7278L83.7757 72.7601L83.7757 72.7601L84.0276 73.7278ZM80.2874 78.6035L79.2875 78.6109L79.2875 78.6109L80.2874 78.6035ZM80.429 79.9805L79.4374 80.1094L79.4374 80.1094L80.429 79.9805ZM80.7052 82.7544L81.7037 82.8085L81.7037 82.8085L80.7052 82.7544ZM73.4503 86.943L72.9979 87.8348L72.9979 87.8348L73.4503 86.943ZM71.1861 85.3169L70.5786 86.1112L70.5786 86.1112L71.1861 85.3169ZM70.0644 84.5058L70.5708 83.6435L70.5708 83.6435L70.0644 84.5058ZM63.9718 85.307L64.684 86.0091L64.684 86.0091L63.9718 85.307ZM63.0983 86.3802L62.3061 85.77L62.3061 85.77L63.0983 86.3802ZM61.373 88.4856L60.7039 87.7424L60.7039 87.7424L61.373 88.4856ZM53.3033 86.4068L52.3584 86.7342L52.3584 86.7342L53.3033 86.4068ZM52.8099 83.7299L53.7983 83.5784L53.7983 83.5784L52.8099 83.7299ZM52.7434 83.2963L51.7549 83.4478L51.7549 83.4478L52.7434 83.2963ZM52.4382 81.664L51.4828 81.9592L51.4828 81.9592L52.4382 81.664ZM47.8533 78.1435L47.8149 79.1428L47.8149 79.1428L47.8533 78.1435ZM46.1973 78.2702L46.0885 77.2761L46.0885 77.2761L46.1973 78.2702ZM42.8977 78.5062L42.7834 79.4996L42.7834 79.4996L42.8977 78.5062ZM38.8816 71.5501L37.9641 71.1523L37.9641 71.1523L38.8816 71.5501ZM40.7358 68.8105L41.5423 69.4018L41.5423 69.4018L40.7358 68.8105ZM41.6735 67.4397L40.7889 66.9734L40.7889 66.9734L41.6735 67.4397ZM40.9171 61.7088L40.1837 62.3887L40.1837 62.3887L40.9171 61.7088ZM39.6561 60.6284L40.2815 59.8481L40.2815 59.8481L39.6561 60.6284ZM39.3138 60.354L38.6883 61.1343L38.6883 61.1343L39.3138 60.354ZM37.2422 58.5882L37.9983 57.9337L37.9983 57.9337L37.2422 58.5882ZM39.4768 50.5603L39.1677 49.6093L39.1677 49.6093L39.4768 50.5603ZM42.1628 50.1188L42.2951 51.11L42.2951 51.11L42.1628 50.1188ZM43.5289 49.8989L43.7809 50.8666L43.7809 50.8666L43.5289 49.8989ZM47.2691 45.0232L48.2691 45.0158L48.2691 45.0158L47.2691 45.0232ZM48.1192 43.5173C47.9103 41.9108 47.8315 41.2671 47.8499 40.9264L45.8528 40.8182C45.8216 41.3958 45.9434 42.2953 46.1359 43.7752L48.1192 43.5173ZM47.8499 40.9264C48.0062 38.0409 51.0767 36.2681 53.6538 37.5755L54.5587 35.7919C50.6931 33.8308 46.0872 36.4899 45.8528 40.8182L47.8499 40.9264ZM53.6538 37.5755C53.9581 37.7299 54.4761 38.1199 55.763 39.1041L56.978 37.5155C55.7926 36.6089 55.0745 36.0536 54.5587 35.7919L53.6538 37.5755ZM55.763 39.1041C56.3119 39.5239 56.6567 39.79 56.9858 39.9832L57.9985 38.2586C57.8013 38.1428 57.5738 37.9712 56.978 37.5155L55.763 39.1041ZM56.9858 39.9833C59.3554 41.3748 62.3676 40.9787 64.2968 39.0217L62.8726 37.6176C61.5864 38.9222 59.5783 39.1863 57.9985 38.2586L56.9858 39.9833ZM64.2968 39.0217C64.5647 38.75 64.829 38.4039 65.2504 37.8567L63.666 36.6362C63.2085 37.2302 63.0332 37.4547 62.8726 37.6176L64.2968 39.0217ZM65.2504 37.8567C66.2134 36.6066 66.6016 36.1103 66.8526 35.8844L65.5145 34.398C65.0893 34.7808 64.5527 35.4851 63.666 36.6362L65.2504 37.8567ZM66.8526 35.8844C68.9798 33.9694 72.3712 34.843 73.3084 37.5474L75.1981 36.8925C73.7923 32.8359 68.7052 31.5255 65.5145 34.398L66.8526 35.8844ZM73.3084 37.5474C73.419 37.8665 73.5191 38.4886 73.7582 40.0483L75.7352 39.7453C75.515 38.309 75.3855 37.4331 75.1981 36.8925L73.3084 37.5474ZM73.7582 40.0483L73.8247 40.482L75.8016 40.1789L75.7352 39.7453L73.7582 40.0483ZM73.8247 40.482C73.9501 41.2999 74.0266 41.8166 74.1629 42.2579L76.0738 41.6675C75.992 41.4028 75.9377 41.0667 75.8016 40.1789L73.8247 40.482ZM74.1629 42.2579C74.9145 44.6909 77.1201 46.3845 79.6648 46.4825L79.7417 44.4839C78.0453 44.4186 76.5749 43.2896 76.0738 41.6675L74.1629 42.2579ZM79.6648 46.4825C80.1263 46.5002 80.6453 46.4407 81.4681 46.3506L81.2504 44.3625C80.3574 44.4602 80.0185 44.4946 79.7417 44.4839L79.6648 46.4825ZM81.4681 46.3506C82.3884 46.2499 83.0565 46.1768 83.565 46.1363C84.0834 46.0949 84.3689 46.0938 84.5446 46.114L84.7731 44.1271C84.3914 44.0832 83.9411 44.0999 83.406 44.1426C82.8611 44.1861 82.1582 44.2631 81.2504 44.3625L81.4681 46.3506ZM84.5446 46.114C87.2117 46.4207 88.8254 49.2157 87.7575 51.6789L89.5925 52.4744C91.1943 48.7797 88.7738 44.5872 84.7731 44.1271L84.5446 46.114ZM87.7575 51.6789C87.6871 51.8412 87.5434 52.0878 87.2484 52.5161C86.959 52.9362 86.5617 53.4783 86.0143 54.2249L87.6273 55.4075C88.1672 54.671 88.5854 54.1008 88.8955 53.6506C89.2 53.2085 89.4396 52.827 89.5925 52.4744L87.7575 51.6789ZM86.0143 54.2249C85.5249 54.8924 85.2138 55.3122 84.9985 55.7207L86.7677 56.6533C86.8969 56.4083 87.0961 56.132 87.6273 55.4075L86.0143 54.2249ZM84.9985 55.7207C83.811 57.9734 84.1749 60.7303 85.9061 62.5978L87.3728 61.238C86.2186 59.9931 85.976 58.1551 86.7677 56.6533L84.9985 55.7207ZM85.9061 62.5978C86.2201 62.9365 86.6294 63.261 87.275 63.7786L88.5259 62.2181C87.8251 61.6563 87.5612 61.4412 87.3728 61.238L85.9061 62.5978ZM87.275 63.7786L87.6173 64.053L88.8682 62.4924L88.5259 62.2181L87.275 63.7786ZM87.6173 64.053C88.8485 65.0399 89.3372 65.4377 89.5583 65.693L91.0703 64.3839C90.6958 63.9513 90.002 63.4013 88.8682 62.4924L87.6173 64.053ZM89.5583 65.693C91.4317 67.8568 90.4926 71.2307 87.7706 72.1154L88.3888 74.0174C92.4718 72.6904 93.8805 67.6296 91.0703 64.3839L89.5583 65.693ZM87.7706 72.1154C87.4494 72.2198 86.8255 72.3079 85.2614 72.5167L85.5262 74.4991C86.9664 74.3068 87.8447 74.1943 88.3888 74.0174L87.7706 72.1154ZM85.2614 72.5167C84.5768 72.6082 84.145 72.664 83.7757 72.7601L84.2796 74.6956C84.5009 74.6379 84.783 74.5984 85.5262 74.4991L85.2614 72.5167ZM83.7757 72.7601C81.1163 73.4524 79.2672 75.8629 79.2875 78.6109L81.2874 78.5961C81.2739 76.7641 82.5066 75.1571 84.2796 74.6956L83.7757 72.7601ZM79.2875 78.6109C79.2903 78.9925 79.3483 79.4242 79.4374 80.1094L81.4207 79.8515C81.324 79.1077 81.2891 78.8249 81.2874 78.5961L79.2875 78.6109ZM79.4374 80.1094C79.6463 81.716 79.7251 82.3596 79.7066 82.7004L81.7037 82.8085C81.735 82.231 81.6131 81.3314 81.4207 79.8515L79.4374 80.1094ZM79.7066 82.7003C79.5504 85.5859 76.4798 87.3586 73.9028 86.0512L72.9979 87.8348C76.8635 89.7959 81.4693 87.1368 81.7037 82.8085L79.7066 82.7003ZM73.9028 86.0512C73.5984 85.8968 73.0804 85.5068 71.7936 84.5226L70.5786 86.1112C71.764 87.0178 72.4821 87.5731 72.9979 87.8348L73.9028 86.0512ZM71.7936 84.5226C71.2447 84.1028 70.8998 83.8367 70.5708 83.6435L69.558 85.3681C69.7553 85.4839 69.9827 85.6555 70.5786 86.1112L71.7936 84.5226ZM70.5708 83.6435C68.2011 82.2519 65.189 82.648 63.2597 84.605L64.684 86.0091C65.9701 84.7045 67.9782 84.4404 69.558 85.3681L70.5708 83.6435ZM63.2597 84.605C62.9918 84.8767 62.7276 85.2228 62.3061 85.77L63.8905 86.9905C64.3481 86.3965 64.5234 86.172 64.684 86.0091L63.2597 84.605ZM62.3061 85.77C61.3432 87.0201 60.9549 87.5164 60.7039 87.7424L62.042 89.2288C62.4673 88.8459 63.0038 88.1416 63.8905 86.9905L62.3061 85.77ZM60.7039 87.7424C58.5768 89.6573 55.1854 88.7837 54.2482 86.0793L52.3584 86.7342C53.7642 90.7908 58.8513 92.1012 62.0421 89.2288L60.7039 87.7424ZM54.2482 86.0793C54.1376 85.7602 54.0374 85.1381 53.7983 83.5784L51.8214 83.8814C52.0416 85.3177 52.1711 86.1936 52.3584 86.7342L54.2482 86.0793ZM53.7983 83.5784L53.7318 83.1447L51.7549 83.4478L51.8214 83.8814L53.7983 83.5784ZM53.7318 83.1447C53.6064 82.3268 53.53 81.8101 53.3937 81.3689L51.4828 81.9592C51.5645 82.2239 51.6188 82.56 51.7549 83.4478L53.7318 83.1447ZM53.3937 81.3689C52.642 78.9358 50.4364 77.2422 47.8918 77.1443L47.8149 79.1428C49.5113 79.2081 50.9817 80.3371 51.4828 81.9592L53.3937 81.3689ZM47.8918 77.1443C47.4303 77.1265 46.9113 77.186 46.0885 77.2761L46.3061 79.2642C47.1992 79.1665 47.538 79.1321 47.8149 79.1428L47.8918 77.1443ZM46.0885 77.2761C45.1682 77.3768 44.5 77.4499 43.9915 77.4904C43.4732 77.5318 43.1877 77.533 43.0119 77.5127L42.7834 79.4996C43.1652 79.5436 43.6154 79.5268 44.1505 79.4841C44.6954 79.4406 45.3984 79.3636 46.3061 79.2642L46.0885 77.2761ZM43.0119 77.5127C40.3449 77.206 38.7312 74.411 39.799 71.9478L37.9641 71.1523C36.3622 74.847 38.7828 79.0395 42.7834 79.4996L43.0119 77.5127ZM39.799 71.9478C39.8694 71.7855 40.0132 71.5389 40.3082 71.1107C40.5975 70.6906 40.9949 70.1484 41.5423 69.4018L39.9293 68.2193C39.3894 68.9557 38.9712 69.5259 38.6611 69.9761C38.3566 70.4182 38.1169 70.7997 37.9641 71.1523L39.799 71.9478ZM41.5423 69.4018C42.0316 68.7343 42.3427 68.3146 42.5581 67.906L40.7889 66.9734C40.6597 67.2184 40.4605 67.4947 39.9293 68.2193L41.5423 69.4018ZM42.5581 67.906C43.7456 65.6533 43.3817 62.8964 41.6504 61.0289L40.1837 62.3887C41.3379 63.6336 41.5805 65.4716 40.7889 66.9734L42.5581 67.906ZM41.6504 61.0289C41.3364 60.6903 40.9272 60.3657 40.2815 59.8481L39.0306 61.4087C39.7314 61.9704 39.9954 62.1855 40.1837 62.3887L41.6504 61.0289ZM40.2815 59.8481L39.9392 59.5738L38.6883 61.1343L39.0306 61.4087L40.2815 59.8481ZM39.9392 59.5738C38.708 58.5868 38.2193 58.189 37.9983 57.9337L36.4862 59.2428C36.8608 59.6754 37.5546 60.2254 38.6883 61.1343L39.9392 59.5738ZM37.9983 57.9337C36.1248 55.7699 37.0639 52.396 39.7859 51.5113L39.1677 49.6093C35.0848 50.9363 33.6761 55.9971 36.4862 59.2428L37.9983 57.9337ZM39.7859 51.5113C40.1071 51.4069 40.7311 51.3188 42.2951 51.11L42.0304 49.1276C40.5901 49.3199 39.7119 49.4324 39.1677 49.6093L39.7859 51.5113ZM42.2951 51.11C42.9797 51.0185 43.4116 50.9628 43.7809 50.8666L43.277 48.9311C43.0556 48.9888 42.7736 49.0283 42.0304 49.1276L42.2951 51.11ZM43.7809 50.8666C46.4403 50.1743 48.2894 47.7638 48.2691 45.0158L46.2692 45.0306C46.2827 46.8626 45.0499 48.4696 43.277 48.9311L43.7809 50.8666ZM48.2691 45.0158C48.2663 44.6342 48.2083 44.2025 48.1192 43.5173L46.1359 43.7752C46.2326 44.5191 46.2675 44.8019 46.2692 45.0306L48.2691 45.0158Z" fill="url(#paint5_linear_1_107)" fill-opacity="0.75" mask="url(#path-5-outside-3_1_107)"/>
</g>
<mask id="path-7-outside-4_1_107" maskUnits="userSpaceOnUse" x="23.3386" y="21.1721" width="81.0955" height="81.4615" fill="black">
<rect fill="white" x="23.3386" y="21.1721" width="81.0955" height="81.4615"/>
<path d="M47.1275 43.6463C46.9269 42.103 46.8265 41.3314 46.8514 40.8723C47.0467 37.2654 50.8849 35.0494 54.1063 36.6837C54.5163 36.8917 55.1344 37.3644 56.3705 38.3098V38.3098C56.9429 38.7475 57.229 38.9664 57.4922 39.1209C59.4669 40.2806 61.977 39.9505 63.5847 38.3197C63.799 38.1023 64.0187 37.817 64.4583 37.2465V37.2465C65.3831 36.0459 65.8455 35.4456 66.1836 35.1412C68.8425 32.7474 73.0818 33.8395 74.2533 37.2199C74.4023 37.6498 74.5171 38.3988 74.7467 39.8968L74.8132 40.3304C74.9439 41.1833 75.0093 41.6097 75.1184 41.9627C75.7447 43.9902 77.5827 45.4016 79.7032 45.4832C80.0724 45.4974 80.5014 45.4505 81.3593 45.3566V45.3566C83.1874 45.1564 84.1014 45.0564 84.6589 45.1205C87.9928 45.504 90.0099 48.9977 88.675 52.0766C88.4518 52.5915 87.9081 53.3331 86.8208 54.8162V54.8162C86.3105 55.5122 86.0554 55.8602 85.8831 56.187C84.8935 58.0643 85.1968 60.3617 86.6395 61.9179C86.8907 62.1888 87.2273 62.4587 87.9005 62.9983L88.2428 63.2727C89.4253 64.2206 90.0165 64.6945 90.3143 65.0385C92.6561 67.7432 91.4822 71.9606 88.0797 73.0664C87.6471 73.207 86.896 73.3073 85.3938 73.5079V73.5079C84.6799 73.6033 84.323 73.6509 84.0277 73.7278C81.8115 74.3048 80.2705 76.3135 80.2875 78.6035C80.2897 78.9087 80.3362 79.2659 80.4291 79.9805V79.9805C80.6297 81.5237 80.7301 82.2953 80.7052 82.7544C80.5099 86.3613 76.6717 88.5773 73.4503 86.943C73.0403 86.735 72.4222 86.2623 71.1861 85.3169V85.3169C70.6137 84.8792 70.3276 84.6603 70.0644 84.5058C68.0897 83.3461 65.5796 83.6763 63.9719 85.307C63.7576 85.5244 63.5379 85.8097 63.0984 86.3802V86.3802C62.1735 87.5809 61.7111 88.1812 61.373 88.4856C58.7141 90.8793 54.4748 89.7872 53.3033 86.4068C53.1543 85.9769 53.0395 85.2279 52.8099 83.7299L52.7434 83.2963C52.6127 82.4434 52.5473 82.017 52.4382 81.664C51.8119 79.6365 49.9739 78.2251 47.8534 78.1435C47.4842 78.1293 47.0552 78.1763 46.1973 78.2702V78.2702C44.3692 78.4703 43.4552 78.5703 42.8977 78.5062C39.5638 78.1228 37.5467 74.629 38.8816 71.5501C39.1048 71.0352 39.6485 70.2936 40.7358 68.8105V68.8105C41.2461 68.1145 41.5012 67.7665 41.6735 67.4397C42.6631 65.5624 42.3598 63.265 40.9171 61.7088C40.6659 61.4379 40.3293 61.1681 39.6561 60.6284L39.3138 60.354C38.1313 59.4061 37.5401 58.9322 37.2423 58.5882C34.9005 55.8835 36.0744 51.6661 39.4769 50.5603C39.9095 50.4197 40.6606 50.3194 42.1628 50.1188V50.1188C42.8767 50.0234 43.2336 49.9758 43.5289 49.8989C45.7451 49.3219 47.2861 47.3132 47.2692 45.0232C47.2669 44.718 47.2204 44.3608 47.1275 43.6463V43.6463Z"/>
</mask>
<path d="M47.1275 43.6463C46.9269 42.103 46.8265 41.3314 46.8514 40.8723C47.0467 37.2654 50.8849 35.0494 54.1063 36.6837C54.5163 36.8917 55.1344 37.3644 56.3705 38.3098V38.3098C56.9429 38.7475 57.229 38.9664 57.4922 39.1209C59.4669 40.2806 61.977 39.9505 63.5847 38.3197C63.799 38.1023 64.0187 37.817 64.4583 37.2465V37.2465C65.3831 36.0459 65.8455 35.4456 66.1836 35.1412C68.8425 32.7474 73.0818 33.8395 74.2533 37.2199C74.4023 37.6498 74.5171 38.3988 74.7467 39.8968L74.8132 40.3304C74.9439 41.1833 75.0093 41.6097 75.1184 41.9627C75.7447 43.9902 77.5827 45.4016 79.7032 45.4832C80.0724 45.4974 80.5014 45.4505 81.3593 45.3566V45.3566C83.1874 45.1564 84.1014 45.0564 84.6589 45.1205C87.9928 45.504 90.0099 48.9977 88.675 52.0766C88.4518 52.5915 87.9081 53.3331 86.8208 54.8162V54.8162C86.3105 55.5122 86.0554 55.8602 85.8831 56.187C84.8935 58.0643 85.1968 60.3617 86.6395 61.9179C86.8907 62.1888 87.2273 62.4587 87.9005 62.9983L88.2428 63.2727C89.4253 64.2206 90.0165 64.6945 90.3143 65.0385C92.6561 67.7432 91.4822 71.9606 88.0797 73.0664C87.6471 73.207 86.896 73.3073 85.3938 73.5079V73.5079C84.6799 73.6033 84.323 73.6509 84.0277 73.7278C81.8115 74.3048 80.2705 76.3135 80.2875 78.6035C80.2897 78.9087 80.3362 79.2659 80.4291 79.9805V79.9805C80.6297 81.5237 80.7301 82.2953 80.7052 82.7544C80.5099 86.3613 76.6717 88.5773 73.4503 86.943C73.0403 86.735 72.4222 86.2623 71.1861 85.3169V85.3169C70.6137 84.8792 70.3276 84.6603 70.0644 84.5058C68.0897 83.3461 65.5796 83.6763 63.9719 85.307C63.7576 85.5244 63.5379 85.8097 63.0984 86.3802V86.3802C62.1735 87.5809 61.7111 88.1812 61.373 88.4856C58.7141 90.8793 54.4748 89.7872 53.3033 86.4068C53.1543 85.9769 53.0395 85.2279 52.8099 83.7299L52.7434 83.2963C52.6127 82.4434 52.5473 82.017 52.4382 81.664C51.8119 79.6365 49.9739 78.2251 47.8534 78.1435C47.4842 78.1293 47.0552 78.1763 46.1973 78.2702V78.2702C44.3692 78.4703 43.4552 78.5703 42.8977 78.5062C39.5638 78.1228 37.5467 74.629 38.8816 71.5501C39.1048 71.0352 39.6485 70.2936 40.7358 68.8105V68.8105C41.2461 68.1145 41.5012 67.7665 41.6735 67.4397C42.6631 65.5624 42.3598 63.265 40.9171 61.7088C40.6659 61.4379 40.3293 61.1681 39.6561 60.6284L39.3138 60.354C38.1313 59.4061 37.5401 58.9322 37.2423 58.5882C34.9005 55.8835 36.0744 51.6661 39.4769 50.5603C39.9095 50.4197 40.6606 50.3194 42.1628 50.1188V50.1188C42.8767 50.0234 43.2336 49.9758 43.5289 49.8989C45.7451 49.3219 47.2861 47.3132 47.2692 45.0232C47.2669 44.718 47.2204 44.3608 47.1275 43.6463V43.6463Z" fill="url(#paint6_linear_1_107)" fill-opacity="0.2"/>
<path d="M43.5289 49.8989L43.277 48.9311L43.5289 49.8989ZM47.2692 45.0232L48.2691 45.0158L47.2692 45.0232ZM39.3138 60.354L39.9393 59.5738L39.3138 60.354ZM37.2423 58.5882L37.9983 57.9337L37.2423 58.5882ZM39.4769 50.5603L39.1678 49.6093L39.4769 50.5603ZM41.6735 67.4397L42.5581 67.906L41.6735 67.4397ZM39.6561 60.6284L39.0306 61.4087L39.6561 60.6284ZM40.9171 61.7088L41.6504 61.0289L40.9171 61.7088ZM42.8977 78.5062L42.7834 79.4996L42.8977 78.5062ZM38.8816 71.5501L39.7991 71.9478L38.8816 71.5501ZM52.7434 83.2963L51.7549 83.4478L52.7434 83.2963ZM52.4382 81.664L53.3937 81.3689L52.4382 81.664ZM47.8534 78.1435L47.8918 77.1443L47.8534 78.1435ZM61.373 88.4856L60.7039 87.7424L61.373 88.4856ZM53.3033 86.4068L54.2482 86.0793L53.3033 86.4068ZM70.0644 84.5058L69.558 85.3681L70.0644 84.5058ZM63.9719 85.307L63.2597 84.605L63.9719 85.307ZM80.7052 82.7544L79.7067 82.7003L80.7052 82.7544ZM73.4503 86.943L72.9979 87.8348L73.4503 86.943ZM84.0277 73.7278L83.7757 72.7601L84.0277 73.7278ZM80.2875 78.6035L79.2875 78.6109L80.2875 78.6035ZM88.2428 63.2727L87.6174 64.053L88.2428 63.2727ZM90.3143 65.0385L89.5583 65.693L90.3143 65.0385ZM88.0797 73.0664L88.3888 74.0174L88.0797 73.0664ZM85.8831 56.187L86.7677 56.6533L85.8831 56.187ZM87.9005 62.9983L88.526 62.218L87.9005 62.9983ZM86.6395 61.9179L85.9062 62.5978L86.6395 61.9179ZM84.6589 45.1205L84.5446 46.114L84.6589 45.1205ZM88.675 52.0766L87.7575 51.6789L88.675 52.0766ZM74.8132 40.3304L75.8017 40.1789L74.8132 40.3304ZM75.1184 41.9627L76.0738 41.6675L75.1184 41.9627ZM79.7032 45.4832L79.6648 46.4825L79.7032 45.4832ZM66.1836 35.1412L66.8527 35.8844L66.1836 35.1412ZM74.7467 39.8968L73.7583 40.0483L74.7467 39.8968ZM74.2533 37.2199L73.3084 37.5474L74.2533 37.2199ZM57.4922 39.1209L56.9858 39.9832L57.4922 39.1209ZM63.5847 38.3197L62.8726 37.6176L63.5847 38.3197ZM54.1063 36.6837L53.6538 37.5755L54.1063 36.6837ZM46.8514 40.8723L47.8499 40.9264L46.8514 40.8723ZM73.7583 40.0483L73.8247 40.482L75.8017 40.1789L75.7352 39.7453L73.7583 40.0483ZM87.2751 63.7786L87.6174 64.053L88.8683 62.4924L88.526 62.218L87.2751 63.7786ZM53.7983 83.5784L53.7319 83.1447L51.7549 83.4478L51.8214 83.8814L53.7983 83.5784ZM40.2816 59.8481L39.9393 59.5738L38.6883 61.1343L39.0306 61.4087L40.2816 59.8481ZM42.2951 51.11C42.9797 51.0185 43.4116 50.9628 43.7809 50.8666L43.277 48.9311C43.0556 48.9888 42.7736 49.0283 42.0304 49.1276L42.2951 51.11ZM46.1359 43.7752C46.2326 44.5191 46.2675 44.8019 46.2692 45.0306L48.2691 45.0158C48.2663 44.6342 48.2083 44.2025 48.1192 43.5173L46.1359 43.7752ZM43.7809 50.8666C46.4403 50.1743 48.2894 47.7638 48.2691 45.0158L46.2692 45.0306C46.2827 46.8626 45.05 48.4696 43.277 48.9311L43.7809 50.8666ZM39.9393 59.5738C38.7081 58.5868 38.2194 58.189 37.9983 57.9337L36.4863 59.2428C36.8608 59.6754 37.5546 60.2254 38.6883 61.1343L39.9393 59.5738ZM42.0304 49.1276C40.5901 49.3199 39.7119 49.4324 39.1678 49.6093L39.7859 51.5113C40.1072 51.4069 40.7311 51.3188 42.2951 51.11L42.0304 49.1276ZM37.9983 57.9337C36.1248 55.7699 37.064 52.396 39.7859 51.5113L39.1678 49.6093C35.0848 50.9363 33.6761 55.9971 36.4863 59.2428L37.9983 57.9337ZM41.5423 69.4018C42.0317 68.7343 42.3428 68.3145 42.5581 67.906L40.7889 66.9734C40.6597 67.2184 40.4605 67.4947 39.9293 68.2193L41.5423 69.4018ZM39.0306 61.4087C39.7314 61.9704 39.9954 62.1855 40.1838 62.3887L41.6504 61.0289C41.3364 60.6903 40.9272 60.3657 40.2816 59.8481L39.0306 61.4087ZM42.5581 67.906C43.7456 65.6533 43.3817 62.8964 41.6504 61.0289L40.1838 62.3887C41.3379 63.6336 41.5805 65.4716 40.7889 66.9734L42.5581 67.906ZM46.0885 77.2761C45.1682 77.3768 44.5001 77.4499 43.9915 77.4904C43.4732 77.5318 43.1877 77.533 43.012 77.5127L42.7834 79.4996C43.1652 79.5435 43.6155 79.5268 44.1506 79.4841C44.6955 79.4406 45.3984 79.3636 46.3061 79.2642L46.0885 77.2761ZM39.9293 68.2193C39.3894 68.9557 38.9712 69.5259 38.6611 69.9761C38.3566 70.4182 38.117 70.7997 37.9641 71.1523L39.7991 71.9478C39.8694 71.7855 40.0132 71.5389 40.3082 71.1107C40.5976 70.6906 40.9949 70.1484 41.5423 69.4018L39.9293 68.2193ZM43.012 77.5127C40.3449 77.206 38.7312 74.411 39.7991 71.9478L37.9641 71.1523C36.3623 74.847 38.7828 79.0395 42.7834 79.4996L43.012 77.5127ZM53.7319 83.1447C53.6065 82.3268 53.53 81.8101 53.3937 81.3689L51.4828 81.9592C51.5646 82.2239 51.6188 82.56 51.7549 83.4478L53.7319 83.1447ZM46.3061 79.2642C47.1992 79.1665 47.5381 79.1321 47.8149 79.1428L47.8918 77.1443C47.4303 77.1265 46.9113 77.186 46.0885 77.2761L46.3061 79.2642ZM53.3937 81.3689C52.6421 78.9358 50.4365 77.2422 47.8918 77.1443L47.8149 79.1428C49.5113 79.2081 50.9817 80.3371 51.4828 81.9592L53.3937 81.3689ZM62.3061 85.77C61.3432 87.0201 60.955 87.5164 60.7039 87.7424L62.0421 89.2288C62.4673 88.8459 63.0039 88.1416 63.8906 86.9905L62.3061 85.77ZM51.8214 83.8814C52.0416 85.3177 52.1711 86.1936 52.3585 86.7342L54.2482 86.0793C54.1376 85.7602 54.0374 85.1381 53.7983 83.5784L51.8214 83.8814ZM60.7039 87.7424C58.5768 89.6573 55.1854 88.7837 54.2482 86.0793L52.3585 86.7342C53.7643 90.7908 58.8514 92.1012 62.0421 89.2288L60.7039 87.7424ZM71.7936 84.5226C71.2447 84.1028 70.8998 83.8367 70.5708 83.6435L69.558 85.3681C69.7553 85.4839 69.9828 85.6555 70.5786 86.1112L71.7936 84.5226ZM63.8906 86.9905C64.3481 86.3965 64.5234 86.172 64.684 86.0091L63.2597 84.605C62.9918 84.8767 62.7276 85.2228 62.3061 85.77L63.8906 86.9905ZM70.5708 83.6435C68.2011 82.2519 65.189 82.648 63.2597 84.605L64.684 86.0091C65.9702 84.7045 67.9783 84.4404 69.558 85.3681L70.5708 83.6435ZM79.4374 80.1094C79.6463 81.716 79.7251 82.3596 79.7067 82.7003L81.7037 82.8085C81.735 82.231 81.6132 81.3314 81.4207 79.8515L79.4374 80.1094ZM70.5786 86.1112C71.764 87.0178 72.4821 87.5731 72.9979 87.8348L73.9028 86.0512C73.5985 85.8968 73.0805 85.5068 71.7936 84.5226L70.5786 86.1112ZM79.7067 82.7003C79.5504 85.5859 76.4798 87.3586 73.9028 86.0512L72.9979 87.8348C76.8635 89.7959 81.4693 87.1368 81.7037 82.8085L79.7067 82.7003ZM85.2615 72.5167C84.5769 72.6082 84.145 72.664 83.7757 72.7601L84.2796 74.6956C84.501 74.6379 84.783 74.5984 85.5262 74.4991L85.2615 72.5167ZM81.4207 79.8515C81.324 79.1077 81.2891 78.8249 81.2874 78.5961L79.2875 78.6109C79.2903 78.9925 79.3483 79.4242 79.4374 80.1094L81.4207 79.8515ZM83.7757 72.7601C81.1163 73.4524 79.2672 75.8629 79.2875 78.6109L81.2874 78.5961C81.2739 76.7641 82.5067 75.1571 84.2796 74.6956L83.7757 72.7601ZM87.6174 64.053C88.8486 65.0399 89.3372 65.4377 89.5583 65.693L91.0703 64.3839C90.6958 63.9513 90.002 63.4013 88.8683 62.4924L87.6174 64.053ZM85.5262 74.4991C86.9665 74.3068 87.8447 74.1943 88.3888 74.0174L87.7707 72.1154C87.4494 72.2198 86.8255 72.3079 85.2615 72.5167L85.5262 74.4991ZM89.5583 65.693C91.4318 67.8568 90.4926 71.2307 87.7707 72.1154L88.3888 74.0174C92.4718 72.6904 93.8805 67.6296 91.0703 64.3839L89.5583 65.693ZM86.0143 54.2249C85.5249 54.8924 85.2138 55.3122 84.9985 55.7207L86.7677 56.6533C86.8969 56.4083 87.0961 56.132 87.6273 55.4075L86.0143 54.2249ZM88.526 62.218C87.8252 61.6563 87.5612 61.4412 87.3728 61.238L85.9062 62.5978C86.2202 62.9365 86.6294 63.261 87.2751 63.7786L88.526 62.218ZM84.9985 55.7207C83.811 57.9734 84.1749 60.7303 85.9062 62.5978L87.3728 61.238C86.2187 59.9931 85.9761 58.1551 86.7677 56.6533L84.9985 55.7207ZM81.4681 46.3506C82.3884 46.2499 83.0566 46.1768 83.5651 46.1363C84.0834 46.0949 84.3689 46.0938 84.5446 46.114L84.7732 44.1271C84.3914 44.0832 83.9411 44.0999 83.4061 44.1426C82.8611 44.1861 82.1582 44.2631 81.2505 44.3625L81.4681 46.3506ZM87.6273 55.4075C88.1672 54.671 88.5854 54.1008 88.8955 53.6506C89.2 53.2085 89.4397 52.827 89.5925 52.4744L87.7575 51.6789C87.6872 51.8412 87.5434 52.0878 87.2484 52.516C86.959 52.9362 86.5617 53.4783 86.0143 54.2249L87.6273 55.4075ZM84.5446 46.114C87.2117 46.4207 88.8254 49.2157 87.7575 51.6789L89.5925 52.4744C91.1943 48.7797 88.7738 44.5872 84.7732 44.1271L84.5446 46.114ZM73.8247 40.482C73.9501 41.2999 74.0266 41.8166 74.1629 42.2579L76.0738 41.6675C75.992 41.4028 75.9378 41.0667 75.8017 40.1789L73.8247 40.482ZM81.2505 44.3625C80.3574 44.4602 80.0185 44.4946 79.7417 44.4839L79.6648 46.4825C80.1263 46.5002 80.6453 46.4407 81.4681 46.3506L81.2505 44.3625ZM74.1629 42.2579C74.9145 44.6909 77.1201 46.3845 79.6648 46.4825L79.7417 44.4839C78.0453 44.4186 76.5749 43.2896 76.0738 41.6675L74.1629 42.2579ZM65.2505 37.8567C66.2134 36.6066 66.6016 36.1103 66.8527 35.8844L65.5145 34.398C65.0893 34.7808 64.5527 35.4851 63.666 36.6362L65.2505 37.8567ZM75.7352 39.7453C75.515 38.309 75.3855 37.4331 75.1982 36.8925L73.3084 37.5474C73.419 37.8665 73.5192 38.4886 73.7583 40.0483L75.7352 39.7453ZM66.8527 35.8844C68.9798 33.9694 72.3712 34.843 73.3084 37.5474L75.1982 36.8925C73.7924 32.8359 68.7052 31.5255 65.5145 34.398L66.8527 35.8844ZM55.763 39.1041C56.3119 39.5239 56.6568 39.79 56.9858 39.9832L57.9986 38.2586C57.8013 38.1428 57.5738 37.9712 56.978 37.5155L55.763 39.1041ZM63.666 36.6362C63.2085 37.2302 63.0332 37.4547 62.8726 37.6176L64.2969 39.0217C64.5648 38.75 64.829 38.4039 65.2505 37.8567L63.666 36.6362ZM56.9858 39.9832C59.3555 41.3748 62.3676 40.9787 64.2969 39.0217L62.8726 37.6176C61.5864 38.9222 59.5783 39.1863 57.9986 38.2586L56.9858 39.9832ZM56.978 37.5155C55.7926 36.6089 55.0745 36.0536 54.5587 35.7919L53.6538 37.5755C53.9581 37.7299 54.4762 38.1199 55.763 39.1041L56.978 37.5155ZM48.1192 43.5173C47.9103 41.9107 47.8315 41.2671 47.8499 40.9264L45.8529 40.8182C45.8216 41.3957 45.9434 42.2953 46.1359 43.7752L48.1192 43.5173ZM54.5587 35.7919C50.6931 33.8308 46.0873 36.4899 45.8529 40.8182L47.8499 40.9264C48.0062 38.0409 51.0768 36.2681 53.6538 37.5755L54.5587 35.7919Z" fill="url(#paint7_linear_1_107)" fill-opacity="0.75" mask="url(#path-7-outside-4_1_107)"/>
<g opacity="0.75">
<mask id="path-9-outside-5_1_107" maskUnits="userSpaceOnUse" x="35.9389" y="34.9705" width="57" height="56" fill="black">
<rect fill="white" x="35.9389" y="34.9705" width="57" height="56"/>
<path fill-rule="evenodd" clip-rule="evenodd" d="M60.0635 38.2201C59.834 38.5686 59.5578 39.194 59.0054 40.4446C58.7462 41.0316 58.6166 41.3251 58.4788 41.5626C57.3463 43.5148 55.0465 44.4663 52.8659 43.885C52.6005 43.8143 52.3015 43.6982 51.7036 43.4661L51.262 43.2947C50.3233 42.9303 49.8539 42.7481 49.5613 42.6736C45.837 41.724 42.4785 45.1566 43.5092 48.8594C43.5901 49.1502 43.7825 49.6155 44.1673 50.5461C44.3506 50.9894 44.4423 51.211 44.5044 51.4043C45.2534 53.7347 44.205 56.2647 42.0272 57.3824C41.8466 57.4751 41.6249 57.567 41.1814 57.7509L41.1813 57.751C40.2214 58.1489 39.7414 58.3479 39.4751 58.4987C36.0935 60.4136 36.0935 65.2855 39.4751 67.2004C39.7414 67.3512 40.2214 67.5502 41.1814 67.9482C41.6249 68.132 41.8466 68.224 42.0272 68.3167C44.205 69.4344 45.2534 71.9644 44.5044 74.2948C44.4423 74.4881 44.3507 74.7097 44.1674 75.1529L44.1673 75.153C43.7825 76.0836 43.5901 76.5489 43.5092 76.8397C42.4785 80.5425 45.837 83.9751 49.5613 83.0255C49.8539 82.9509 50.3233 82.7687 51.262 82.4043L51.7036 82.233C52.3015 82.0009 52.6005 81.8848 52.8659 81.8141C55.0465 81.2327 57.3463 82.1843 58.4788 84.1365C58.6166 84.374 58.7462 84.6675 59.0054 85.2545L59.0055 85.2546C59.5578 86.5051 59.834 87.1304 60.0635 87.4789C62.0392 90.4785 66.439 90.4785 68.4148 87.4789C68.6443 87.1305 68.9205 86.5052 69.4728 85.2546L69.4728 85.2545L69.4729 85.2543C69.7321 84.6675 69.8617 84.374 69.9995 84.1365C71.1319 82.1843 73.4317 81.2327 75.6124 81.8141C75.8778 81.8848 76.1768 82.0009 76.7747 82.233L77.2163 82.4043C78.155 82.7687 78.6244 82.9509 78.9169 83.0255C82.6413 83.9751 85.9998 80.5425 84.9691 76.8397C84.8881 76.5489 84.6957 76.0836 84.3109 75.153C84.1276 74.7097 84.036 74.4881 83.9739 74.2948C83.2249 71.9644 84.2733 69.4344 86.451 68.3167C86.6317 68.224 86.8534 68.132 87.2968 67.9482C88.2569 67.5502 88.7369 67.3512 89.0031 67.2004C92.3848 65.2855 92.3848 60.4136 89.0031 58.4987C88.7369 58.3479 88.2569 58.1489 87.297 57.751L87.2968 57.7509C86.8534 57.567 86.6317 57.4751 86.451 57.3824C84.2733 56.2647 83.2249 53.7347 83.9739 51.4043C84.036 51.211 84.1276 50.9894 84.3109 50.5461L84.3109 50.5461C84.6957 49.6155 84.8881 49.1502 84.9691 48.8594C85.9998 45.1566 82.6413 41.724 78.9169 42.6736C78.6244 42.7481 78.155 42.9303 77.2163 43.2947L76.7747 43.4661C76.1768 43.6982 75.8778 43.8143 75.6124 43.885C73.4317 44.4663 71.1319 43.5148 69.9995 41.5626C69.8617 41.3251 69.7321 41.0316 69.4729 40.4448L69.4728 40.4446L69.4728 40.4445C68.9205 39.1939 68.6443 38.5686 68.4148 38.2201C66.439 35.2206 62.0392 35.2206 60.0635 38.2201ZM64 60C61.7909 60 60 61.7909 60 64C60 66.2091 61.7909 68 64 68C66.2091 68 68 66.2091 68 64C68 61.7909 66.2091 60 64 60Z"/>
</mask>
<path fill-rule="evenodd" clip-rule="evenodd" d="M60.0635 38.2201C59.834 38.5686 59.5578 39.194 59.0054 40.4446C58.7462 41.0316 58.6166 41.3251 58.4788 41.5626C57.3463 43.5148 55.0465 44.4663 52.8659 43.885C52.6005 43.8143 52.3015 43.6982 51.7036 43.4661L51.262 43.2947C50.3233 42.9303 49.8539 42.7481 49.5613 42.6736C45.837 41.724 42.4785 45.1566 43.5092 48.8594C43.5901 49.1502 43.7825 49.6155 44.1673 50.5461C44.3506 50.9894 44.4423 51.211 44.5044 51.4043C45.2534 53.7347 44.205 56.2647 42.0272 57.3824C41.8466 57.4751 41.6249 57.567 41.1814 57.7509L41.1813 57.751C40.2214 58.1489 39.7414 58.3479 39.4751 58.4987C36.0935 60.4136 36.0935 65.2855 39.4751 67.2004C39.7414 67.3512 40.2214 67.5502 41.1814 67.9482C41.6249 68.132 41.8466 68.224 42.0272 68.3167C44.205 69.4344 45.2534 71.9644 44.5044 74.2948C44.4423 74.4881 44.3507 74.7097 44.1674 75.1529L44.1673 75.153C43.7825 76.0836 43.5901 76.5489 43.5092 76.8397C42.4785 80.5425 45.837 83.9751 49.5613 83.0255C49.8539 82.9509 50.3233 82.7687 51.262 82.4043L51.7036 82.233C52.3015 82.0009 52.6005 81.8848 52.8659 81.8141C55.0465 81.2327 57.3463 82.1843 58.4788 84.1365C58.6166 84.374 58.7462 84.6675 59.0054 85.2545L59.0055 85.2546C59.5578 86.5051 59.834 87.1304 60.0635 87.4789C62.0392 90.4785 66.439 90.4785 68.4148 87.4789C68.6443 87.1305 68.9205 86.5052 69.4728 85.2546L69.4728 85.2545L69.4729 85.2543C69.7321 84.6675 69.8617 84.374 69.9995 84.1365C71.1319 82.1843 73.4317 81.2327 75.6124 81.8141C75.8778 81.8848 76.1768 82.0009 76.7747 82.233L77.2163 82.4043C78.155 82.7687 78.6244 82.9509 78.9169 83.0255C82.6413 83.9751 85.9998 80.5425 84.9691 76.8397C84.8881 76.5489 84.6957 76.0836 84.3109 75.153C84.1276 74.7097 84.036 74.4881 83.9739 74.2948C83.2249 71.9644 84.2733 69.4344 86.451 68.3167C86.6317 68.224 86.8534 68.132 87.2968 67.9482C88.2569 67.5502 88.7369 67.3512 89.0031 67.2004C92.3848 65.2855 92.3848 60.4136 89.0031 58.4987C88.7369 58.3479 88.2569 58.1489 87.297 57.751L87.2968 57.7509C86.8534 57.567 86.6317 57.4751 86.451 57.3824C84.2733 56.2647 83.2249 53.7347 83.9739 51.4043C84.036 51.211 84.1276 50.9894 84.3109 50.5461L84.3109 50.5461C84.6957 49.6155 84.8881 49.1502 84.9691 48.8594C85.9998 45.1566 82.6413 41.724 78.9169 42.6736C78.6244 42.7481 78.155 42.9303 77.2163 43.2947L76.7747 43.4661C76.1768 43.6982 75.8778 43.8143 75.6124 43.885C73.4317 44.4663 71.1319 43.5148 69.9995 41.5626C69.8617 41.3251 69.7321 41.0316 69.4729 40.4448L69.4728 40.4446L69.4728 40.4445C68.9205 39.1939 68.6443 38.5686 68.4148 38.2201C66.439 35.2206 62.0392 35.2206 60.0635 38.2201ZM64 60C61.7909 60 60 61.7909 60 64C60 66.2091 61.7909 68 64 68C66.2091 68 68 66.2091 68 64C68 61.7909 66.2091 60 64 60Z" fill="url(#paint8_diamond_1_107)"/>
<path fill-rule="evenodd" clip-rule="evenodd" d="M60.0635 38.2201C59.834 38.5686 59.5578 39.194 59.0054 40.4446C58.7462 41.0316 58.6166 41.3251 58.4788 41.5626C57.3463 43.5148 55.0465 44.4663 52.8659 43.885C52.6005 43.8143 52.3015 43.6982 51.7036 43.4661L51.262 43.2947C50.3233 42.9303 49.8539 42.7481 49.5613 42.6736C45.837 41.724 42.4785 45.1566 43.5092 48.8594C43.5901 49.1502 43.7825 49.6155 44.1673 50.5461C44.3506 50.9894 44.4423 51.211 44.5044 51.4043C45.2534 53.7347 44.205 56.2647 42.0272 57.3824C41.8466 57.4751 41.6249 57.567 41.1814 57.7509L41.1813 57.751C40.2214 58.1489 39.7414 58.3479 39.4751 58.4987C36.0935 60.4136 36.0935 65.2855 39.4751 67.2004C39.7414 67.3512 40.2214 67.5502 41.1814 67.9482C41.6249 68.132 41.8466 68.224 42.0272 68.3167C44.205 69.4344 45.2534 71.9644 44.5044 74.2948C44.4423 74.4881 44.3507 74.7097 44.1674 75.1529L44.1673 75.153C43.7825 76.0836 43.5901 76.5489 43.5092 76.8397C42.4785 80.5425 45.837 83.9751 49.5613 83.0255C49.8539 82.9509 50.3233 82.7687 51.262 82.4043L51.7036 82.233C52.3015 82.0009 52.6005 81.8848 52.8659 81.8141C55.0465 81.2327 57.3463 82.1843 58.4788 84.1365C58.6166 84.374 58.7462 84.6675 59.0054 85.2545L59.0055 85.2546C59.5578 86.5051 59.834 87.1304 60.0635 87.4789C62.0392 90.4785 66.439 90.4785 68.4148 87.4789C68.6443 87.1305 68.9205 86.5052 69.4728 85.2546L69.4728 85.2545L69.4729 85.2543C69.7321 84.6675 69.8617 84.374 69.9995 84.1365C71.1319 82.1843 73.4317 81.2327 75.6124 81.8141C75.8778 81.8848 76.1768 82.0009 76.7747 82.233L77.2163 82.4043C78.155 82.7687 78.6244 82.9509 78.9169 83.0255C82.6413 83.9751 85.9998 80.5425 84.9691 76.8397C84.8881 76.5489 84.6957 76.0836 84.3109 75.153C84.1276 74.7097 84.036 74.4881 83.9739 74.2948C83.2249 71.9644 84.2733 69.4344 86.451 68.3167C86.6317 68.224 86.8534 68.132 87.2968 67.9482C88.2569 67.5502 88.7369 67.3512 89.0031 67.2004C92.3848 65.2855 92.3848 60.4136 89.0031 58.4987C88.7369 58.3479 88.2569 58.1489 87.297 57.751L87.2968 57.7509C86.8534 57.567 86.6317 57.4751 86.451 57.3824C84.2733 56.2647 83.2249 53.7347 83.9739 51.4043C84.036 51.211 84.1276 50.9894 84.3109 50.5461L84.3109 50.5461C84.6957 49.6155 84.8881 49.1502 84.9691 48.8594C85.9998 45.1566 82.6413 41.724 78.9169 42.6736C78.6244 42.7481 78.155 42.9303 77.2163 43.2947L76.7747 43.4661C76.1768 43.6982 75.8778 43.8143 75.6124 43.885C73.4317 44.4663 71.1319 43.5148 69.9995 41.5626C69.8617 41.3251 69.7321 41.0316 69.4729 40.4448L69.4728 40.4446L69.4728 40.4445C68.9205 39.1939 68.6443 38.5686 68.4148 38.2201C66.439 35.2206 62.0392 35.2206 60.0635 38.2201ZM64 60C61.7909 60 60 61.7909 60 64C60 66.2091 61.7909 68 64 68C66.2091 68 68 66.2091 68 64C68 61.7909 66.2091 60 64 60Z" fill="url(#paint9_diamond_1_107)" fill-opacity="0.7"/>
<path d="M59.0054 40.4446L59.9202 40.8486L59.9202 40.8486L59.0054 40.4446ZM60.0635 38.2201L60.8986 38.7702L60.8986 38.7702L60.0635 38.2201ZM58.4788 41.5626L59.3438 42.0644L59.3438 42.0644L58.4788 41.5626ZM52.8659 43.885L53.1234 42.9188L53.1234 42.9188L52.8659 43.885ZM51.7036 43.4661L52.0654 42.5339L52.0654 42.5339L51.7036 43.4661ZM51.262 43.2947L51.6239 42.3625L51.6239 42.3625L51.262 43.2947ZM49.5613 42.6736L49.8084 41.7046L49.8084 41.7046L49.5613 42.6736ZM43.5092 48.8594L44.4725 48.5912L44.4725 48.5912L43.5092 48.8594ZM44.1673 50.5461L45.0915 50.1639L45.0914 50.1639L44.1673 50.5461ZM44.5044 51.4043L45.4565 51.0983L45.4565 51.0983L44.5044 51.4043ZM42.0272 57.3824L41.5706 56.4928L41.5706 56.4928L42.0272 57.3824ZM41.1814 57.7509L40.7984 56.8271L40.7914 56.8301L41.1814 57.7509ZM41.1813 57.751L41.5643 58.6747L41.5713 58.6718L41.1813 57.751ZM39.4751 58.4987L39.9679 59.3689L39.9679 59.3689L39.4751 58.4987ZM39.4751 67.2004L39.9679 66.3302L39.9679 66.3302L39.4751 67.2004ZM41.1814 67.9482L40.7985 68.8719L40.7985 68.8719L41.1814 67.9482ZM42.0272 68.3167L41.5706 69.2063L41.5706 69.2063L42.0272 68.3167ZM44.5044 74.2948L43.5524 73.9888L43.5524 73.9888L44.5044 74.2948ZM44.1674 75.1529L45.0888 75.5416L45.0915 75.535L44.1674 75.1529ZM44.1673 75.153L43.246 74.7643L43.2432 74.7709L44.1673 75.153ZM43.5092 76.8397L42.5458 76.5715L42.5458 76.5715L43.5092 76.8397ZM49.5613 83.0255L49.8084 83.9945L49.8084 83.9945L49.5613 83.0255ZM51.262 82.4043L50.9002 81.4721L50.9002 81.4721L51.262 82.4043ZM51.7036 82.233L52.0654 83.1652L52.0654 83.1652L51.7036 82.233ZM52.8659 81.8141L52.6083 80.8478L52.6083 80.8478L52.8659 81.8141ZM58.4788 84.1365L59.3438 83.6347L59.3438 83.6347L58.4788 84.1365ZM59.0054 85.2545L59.9418 84.9034L59.9317 84.8766L59.9202 84.8505L59.0054 85.2545ZM59.0055 85.2546L58.0691 85.6057L58.0792 85.6324L58.0907 85.6586L59.0055 85.2546ZM60.0635 87.4789L60.8986 86.9289L60.8986 86.9289L60.0635 87.4789ZM68.4148 87.4789L69.2499 88.029L69.2499 88.029L68.4148 87.4789ZM69.4728 85.2546L68.5624 84.8408L68.558 84.8506L69.4728 85.2546ZM69.4728 85.2545L70.3832 85.6683L70.3866 85.6606L69.4728 85.2545ZM69.4729 85.2543L70.3867 85.6604L70.3877 85.6583L69.4729 85.2543ZM69.9995 84.1365L69.1345 83.6347L69.1345 83.6347L69.9995 84.1365ZM75.6124 81.8141L75.87 80.8478L75.87 80.8478L75.6124 81.8141ZM76.7747 82.233L76.4129 83.1652L76.4129 83.1652L76.7747 82.233ZM77.2163 82.4043L77.5781 81.4721L77.5781 81.4721L77.2163 82.4043ZM78.9169 83.0255L78.6699 83.9945L78.6699 83.9945L78.9169 83.0255ZM84.9691 76.8397L84.0057 77.1079L84.0057 77.1079L84.9691 76.8397ZM84.3109 75.153L83.3868 75.5351L83.3868 75.5351L84.3109 75.153ZM83.9739 74.2948L84.9259 73.9889L84.9259 73.9888L83.9739 74.2948ZM86.451 68.3167L85.9944 67.427L85.9944 67.427L86.451 68.3167ZM87.2968 67.9482L87.6798 68.8719L87.6798 68.8719L87.2968 67.9482ZM89.0031 67.2004L89.4959 68.0706L89.4959 68.0706L89.0031 67.2004ZM89.0031 58.4987L89.4959 57.6285L89.4959 57.6285L89.0031 58.4987ZM87.297 57.751L86.9124 58.674L86.914 58.6747L87.297 57.751ZM87.2968 57.7509L87.6815 56.8278L87.6798 56.8271L87.2968 57.7509ZM86.451 57.3824L85.9944 58.2721L85.9944 58.2721L86.451 57.3824ZM83.9739 51.4043L84.9259 51.7102L84.9259 51.7102L83.9739 51.4043ZM84.3109 50.5461L85.2351 50.9282L85.2394 50.9175L84.3109 50.5461ZM84.3109 50.5461L83.3868 50.1639L83.3825 50.1747L84.3109 50.5461ZM84.9691 48.8594L85.9325 49.1275L85.9325 49.1275L84.9691 48.8594ZM78.9169 42.6736L79.164 43.6426L79.164 43.6426L78.9169 42.6736ZM77.2163 43.2947L77.5781 44.227L77.5781 44.227L77.2163 43.2947ZM76.7747 43.4661L76.4129 42.5339L76.4129 42.5339L76.7747 43.4661ZM75.6124 43.885L75.3548 42.9188L75.3548 42.9188L75.6124 43.885ZM69.9995 41.5626L69.1345 42.0644L69.1345 42.0644L69.9995 41.5626ZM69.4729 40.4448L70.3877 40.0408L70.3857 40.0363L69.4729 40.4448ZM69.4728 40.4446L70.3856 40.0361L70.3793 40.0221L70.3726 40.0083L69.4728 40.4446ZM69.4728 40.4445L68.5581 40.8485L68.5652 40.8648L68.573 40.8808L69.4728 40.4445ZM68.4148 38.2201L69.2499 37.6701L69.2499 37.6701L68.4148 38.2201ZM59.9202 40.8486C60.4954 39.5463 60.7282 39.029 60.8986 38.7702L59.2284 37.6701C58.9398 38.1083 58.6202 38.8416 58.0907 40.0406L59.9202 40.8486ZM59.3438 42.0644C59.516 41.7674 59.6715 41.4116 59.9202 40.8486L58.0907 40.0406C57.8208 40.6515 57.7171 40.8827 57.6138 41.0609L59.3438 42.0644ZM52.6083 44.8513C55.2251 45.5489 57.9848 44.407 59.3438 42.0644L57.6138 41.0608C56.7078 42.6226 54.868 43.3838 53.1234 42.9188L52.6083 44.8513ZM51.3417 44.3984C51.9152 44.621 52.2765 44.7628 52.6083 44.8513L53.1234 42.9188C52.9244 42.8657 52.6878 42.7755 52.0654 42.5339L51.3417 44.3984ZM50.9002 44.227L51.3417 44.3984L52.0654 42.5339L51.6239 42.3625L50.9002 44.227ZM49.3143 43.6426C49.5315 43.6979 49.9229 43.8476 50.9002 44.227L51.6239 42.3625C50.7237 42.0131 50.1763 41.7984 49.8084 41.7046L49.3143 43.6426ZM44.4725 48.5912C43.648 45.629 46.3348 42.8829 49.3143 43.6426L49.8084 41.7046C45.3391 40.565 41.309 44.6842 42.5458 49.1275L44.4725 48.5912ZM45.0914 50.1639C44.6908 49.1952 44.5326 48.8071 44.4725 48.5912L42.5458 49.1275C42.6476 49.4933 42.8742 50.0359 43.2432 50.9282L45.0914 50.1639ZM45.4565 51.0983C45.3788 50.8566 45.2672 50.5891 45.0915 50.1639L43.2432 50.9282C43.4341 51.3897 43.5058 51.5654 43.5524 51.7102L45.4565 51.0983ZM42.4838 58.2721C45.0971 56.9309 46.3552 53.8948 45.4565 51.0983L43.5524 51.7102C44.1515 53.5746 43.3128 55.5986 41.5706 56.4928L42.4838 58.2721ZM41.5644 58.6747C41.9897 58.4983 42.258 58.388 42.4838 58.2721L41.5706 56.4928C41.4352 56.5622 41.2601 56.6358 40.7985 56.8271L41.5644 58.6747ZM41.5713 58.6718L41.5714 58.6717L40.7914 56.8301L40.7913 56.8301L41.5713 58.6718ZM39.9679 59.3689C40.1655 59.257 40.5651 59.089 41.5643 58.6747L40.7983 56.8272C39.8776 57.2089 39.3173 57.4389 38.9824 57.6285L39.9679 59.3689ZM39.9679 66.3302C37.2626 64.7983 37.2626 60.9008 39.9679 59.3689L38.9824 57.6285C34.9244 59.9264 34.9244 65.7726 38.9824 68.0706L39.9679 66.3302ZM41.5644 67.0244C40.5651 66.6101 40.1655 66.4421 39.9679 66.3302L38.9824 68.0706C39.3173 68.2602 39.8777 68.4902 40.7985 68.8719L41.5644 67.0244ZM42.4838 67.427C42.258 67.3111 41.9897 67.2007 41.5644 67.0244L40.7985 68.8719C41.2601 69.0633 41.4353 69.1368 41.5706 69.2063L42.4838 67.427ZM45.4565 74.6008C46.3552 71.8042 45.0971 68.7682 42.4838 67.427L41.5706 69.2063C43.3128 70.1005 44.1515 72.1245 43.5524 73.9888L45.4565 74.6008ZM45.0915 75.535C45.2673 75.11 45.3788 74.8424 45.4565 74.6008L43.5524 73.9888C43.5058 74.1337 43.4341 74.3094 43.2433 74.7708L45.0915 75.535ZM45.0887 75.5417L45.0887 75.5416L43.246 74.7642L43.246 74.7643L45.0887 75.5417ZM44.4725 77.1079C44.5326 76.8919 44.6908 76.5039 45.0914 75.5351L43.2432 74.7709C42.8742 75.6632 42.6476 76.2058 42.5458 76.5715L44.4725 77.1079ZM49.3143 82.0565C46.3348 82.8162 43.648 80.0701 44.4725 77.1079L42.5458 76.5715C41.309 81.0148 45.3391 85.134 49.8084 83.9945L49.3143 82.0565ZM50.9002 81.4721C49.9229 81.8515 49.5315 82.0012 49.3143 82.0565L49.8084 83.9945C50.1763 83.9007 50.7237 83.686 51.6239 83.3366L50.9002 81.4721ZM51.3417 81.3007L50.9002 81.4721L51.6239 83.3366L52.0654 83.1652L51.3417 81.3007ZM52.6083 80.8478C52.2765 80.9362 51.9152 81.0781 51.3417 81.3007L52.0654 83.1652C52.6878 82.9236 52.9244 82.8334 53.1234 82.7803L52.6083 80.8478ZM59.3438 83.6347C57.9848 81.2921 55.2251 80.1502 52.6083 80.8478L53.1234 82.7803C54.868 82.3153 56.7078 83.0765 57.6138 84.6382L59.3438 83.6347ZM59.9202 84.8505C59.6715 84.2875 59.516 83.9317 59.3438 83.6347L57.6138 84.6382C57.7171 84.8164 57.8208 85.0476 58.0907 85.6585L59.9202 84.8505ZM59.9418 84.9034L59.9418 84.9034L58.0691 85.6056L58.0691 85.6057L59.9418 84.9034ZM60.8986 86.9289C60.7282 86.6701 60.4954 86.1528 59.9202 84.8505L58.0907 85.6586C58.6202 86.8575 58.9398 87.5908 59.2284 88.029L60.8986 86.9289ZM67.5796 86.9289C65.9991 89.3285 62.4792 89.3285 60.8986 86.9289L59.2284 88.029C61.5992 91.6285 66.879 91.6285 69.2499 88.029L67.5796 86.9289ZM68.558 84.8506C67.9829 86.1528 67.7501 86.6701 67.5796 86.9289L69.2499 88.029C69.5385 87.5908 69.858 86.8575 70.3875 85.6586L68.558 84.8506ZM68.5625 84.8407L68.5624 84.8408L70.3831 85.6684L70.3832 85.6683L68.5625 84.8407ZM68.5591 84.8482L68.559 84.8484L70.3866 85.6606L70.3867 85.6604L68.5591 84.8482ZM69.1345 83.6347C68.9623 83.9317 68.8068 84.2874 68.5582 84.8503L70.3877 85.6583C70.6575 85.0475 70.7612 84.8164 70.8645 84.6382L69.1345 83.6347ZM75.87 80.8478C73.2532 80.1502 70.4934 81.2921 69.1345 83.6347L70.8645 84.6382C71.7705 83.0765 73.6103 82.3153 75.3548 82.7803L75.87 80.8478ZM77.1366 81.3007C76.5631 81.0781 76.2018 80.9362 75.87 80.8478L75.3548 82.7803C75.5538 82.8334 75.7905 82.9236 76.4129 83.1652L77.1366 81.3007ZM77.5781 81.4721L77.1366 81.3007L76.4129 83.1652L76.8544 83.3366L77.5781 81.4721ZM79.164 82.0565C78.9468 82.0012 78.5554 81.8515 77.5781 81.4721L76.8544 83.3366C77.7546 83.686 78.302 83.9007 78.6699 83.9945L79.164 82.0565ZM84.0057 77.1079C84.8303 80.0701 82.1435 82.8162 79.164 82.0565L78.6699 83.9945C83.1391 85.134 87.1693 81.0148 85.9325 76.5715L84.0057 77.1079ZM83.3868 75.5351C83.7874 76.5039 83.9456 76.892 84.0057 77.1079L85.9325 76.5716C85.8307 76.2058 85.604 75.6632 85.235 74.7709L83.3868 75.5351ZM83.0218 74.6008C83.0995 74.8424 83.211 75.11 83.3868 75.5351L85.235 74.7709C85.0442 74.3094 84.9725 74.1337 84.9259 73.9889L83.0218 74.6008ZM85.9944 67.427C83.3811 68.7682 82.1231 71.8043 83.0218 74.6008L84.9259 73.9888C84.3268 72.1245 85.1654 70.1005 86.9076 69.2063L85.9944 67.427ZM86.9139 67.0244C86.4886 67.2008 86.2203 67.3111 85.9944 67.427L86.9076 69.2063C87.043 69.1368 87.2182 69.0633 87.6798 68.8719L86.9139 67.0244ZM88.5104 66.3302C88.3128 66.4421 87.9131 66.6101 86.9139 67.0244L87.6798 68.8719C88.6006 68.4902 89.161 68.2602 89.4959 68.0706L88.5104 66.3302ZM88.5104 59.3689C91.2157 60.9008 91.2157 64.7983 88.5104 66.3302L89.4959 68.0706C93.5539 65.7726 93.5539 59.9264 89.4959 57.6285L88.5104 59.3689ZM86.914 58.6747C87.9132 59.089 88.3128 59.257 88.5104 59.3689L89.4959 57.6285C89.161 57.4389 88.6006 57.2089 87.68 56.8272L86.914 58.6747ZM86.9122 58.674L86.9124 58.674L87.6816 56.8279L87.6815 56.8278L86.9122 58.674ZM85.9944 58.2721C86.2203 58.388 86.4886 58.4983 86.9139 58.6747L87.6798 56.8271C87.2182 56.6358 87.043 56.5622 86.9076 56.4928L85.9944 58.2721ZM83.0218 51.0983C82.1231 53.8948 83.3811 56.9309 85.9944 58.2721L86.9076 56.4928C85.1654 55.5986 84.3268 53.5746 84.9259 51.7102L83.0218 51.0983ZM83.3868 50.1639C83.211 50.5891 83.0995 50.8566 83.0218 51.0983L84.9259 51.7102C84.9725 51.5654 85.0442 51.3897 85.235 50.9282L83.3868 50.1639ZM83.3825 50.1747L83.3825 50.1747L85.2394 50.9175L85.2394 50.9174L83.3825 50.1747ZM84.0057 48.5912C83.9456 48.8071 83.7874 49.1952 83.3868 50.1639L85.235 50.9282C85.6041 50.0359 85.8307 49.4933 85.9325 49.1275L84.0057 48.5912ZM79.164 43.6426C82.1435 42.8829 84.8303 45.629 84.0057 48.5912L85.9325 49.1275C87.1693 44.6842 83.1391 40.565 78.6699 41.7046L79.164 43.6426ZM77.5781 44.227C78.5554 43.8476 78.9468 43.6979 79.164 43.6426L78.6699 41.7046C78.302 41.7984 77.7546 42.0131 76.8544 42.3625L77.5781 44.227ZM77.1366 44.3984L77.5781 44.227L76.8544 42.3625L76.4129 42.5339L77.1366 44.3984ZM75.87 44.8513C76.2018 44.7628 76.5631 44.621 77.1366 44.3984L76.4129 42.5339C75.7905 42.7755 75.5538 42.8657 75.3548 42.9188L75.87 44.8513ZM69.1345 42.0644C70.4934 44.407 73.2532 45.5489 75.87 44.8513L75.3548 42.9188C73.6103 43.3838 71.7705 42.6226 70.8645 41.0608L69.1345 42.0644ZM68.5582 40.8488C68.8068 41.4117 68.9623 41.7674 69.1345 42.0644L70.8645 41.0608C70.7612 40.8827 70.6575 40.6516 70.3877 40.0408L68.5582 40.8488ZM68.5601 40.8531L68.5602 40.8533L70.3857 40.0363L70.3856 40.0361L68.5601 40.8531ZM68.573 40.8808L68.573 40.8809L70.3726 40.0083L70.3726 40.0083L68.573 40.8808ZM67.5796 38.7702C67.7501 39.029 67.9829 39.5463 68.5581 40.8485L70.3876 40.0405C69.858 38.8416 69.5385 38.1083 69.2499 37.6701L67.5796 38.7702ZM60.8986 38.7702C62.4792 36.3705 65.9991 36.3705 67.5796 38.7702L69.2499 37.6701C66.879 34.0706 61.5992 34.0706 59.2284 37.6701L60.8986 38.7702ZM61 64C61 62.3431 62.3431 61 64 61V59C61.2386 59 59 61.2386 59 64H61ZM64 67C62.3431 67 61 65.6569 61 64H59C59 66.7614 61.2386 69 64 69V67ZM67 64C67 65.6569 65.6569 67 64 67V69C66.7614 69 69 66.7614 69 64H67ZM64 61C65.6569 61 67 62.3431 67 64H69C69 61.2386 66.7614 59 64 59V61Z" fill="url(#paint10_linear_1_107)" mask="url(#path-9-outside-5_1_107)"/>
</g>
<rect x="60.5" y="60.5" width="7" height="7" rx="3.5" stroke="#815AAC"/>
</g>
<defs>
<filter id="filter0_f_1_107" x="31.0193" y="28.8545" width="65.5179" height="65.9177" filterUnits="userSpaceOnUse" color-interpolation-filters="sRGB">
<feFlood flood-opacity="0" result="BackgroundImageFix"/>
<feBlend mode="normal" in="SourceGraphic" in2="BackgroundImageFix" result="shape"/>
<feGaussianBlur stdDeviation="2" result="effect1_foregroundBlur_1_107"/>
</filter>
<linearGradient id="paint0_linear_1_107" x1="-13.1187" y1="40.5956" x2="139.177" y2="80.4906" gradientUnits="userSpaceOnUse">
<stop stop-color="#EBC2FF"/>
<stop offset="0.215" stop-color="#F6F4F7"/>
<stop offset="0.75" stop-color="#BA7DD9"/>
<stop offset="1" stop-color="#8D7599"/>
</linearGradient>
<linearGradient id="paint1_linear_1_107" x1="76.8502" y1="7.57039" x2="47.4561" y2="114.864" gradientUnits="userSpaceOnUse">
<stop stop-color="#CFC8D3"/>
<stop offset="0.52" stop-color="#8A7D90"/>
<stop offset="1" stop-color="#CFC8D3"/>
</linearGradient>
<linearGradient id="paint2_linear_1_107" x1="-1.51776" y1="13.4885" x2="128.808" y2="111.906" gradientUnits="userSpaceOnUse">
<stop stop-color="#EBC2FF"/>
<stop offset="0.215" stop-color="#F6F4F7"/>
<stop offset="0.75" stop-color="#BA7DD9"/>
<stop offset="1" stop-color="#8D7599"/>
</linearGradient>
<linearGradient id="paint3_linear_1_107" x1="98.4736" y1="16.4842" x2="29.1189" y2="108.718" gradientUnits="userSpaceOnUse">
<stop stop-color="#CFC8D3"/>
<stop offset="0.52" stop-color="#594364"/>
<stop offset="1" stop-color="#CFC8D3"/>
</linearGradient>
<radialGradient id="paint4_radial_1_107" cx="0" cy="0" r="1" gradientUnits="userSpaceOnUse" gradientTransform="translate(63.7783 61.8134) rotate(60) scale(53.5079 53.452)">
<stop offset="0.75" stop-color="#9786DC"/>
<stop offset="1" stop-color="#674876"/>
</radialGradient>
<linearGradient id="paint5_linear_1_107" x1="-9.79617" y1="42.506" x2="135.604" y2="83.3141" gradientUnits="userSpaceOnUse">
<stop stop-color="white"/>
<stop offset="0.52" stop-color="#735085"/>
<stop offset="1" stop-color="white"/>
</linearGradient>
<linearGradient id="paint6_linear_1_107" x1="24.7047" y1="51.0381" x2="103.203" y2="71.4604" gradientUnits="userSpaceOnUse">
<stop stop-color="#EBC2FF"/>
<stop offset="0.215" stop-color="#F6F4F7"/>
<stop offset="0.75" stop-color="#BA7DD9"/>
<stop offset="1" stop-color="#8D7599"/>
</linearGradient>
<linearGradient id="paint7_linear_1_107" x1="70.9945" y1="34.0761" x2="55.7576" y2="89.3288" gradientUnits="userSpaceOnUse">
<stop stop-color="#CFC8D3"/>
<stop offset="0.52" stop-color="#594364"/>
<stop offset="1" stop-color="#CFC8D3"/>
</linearGradient>
<radialGradient id="paint8_diamond_1_107" cx="0" cy="0" r="1" gradientUnits="userSpaceOnUse" gradientTransform="translate(64.2391 63.0073) rotate(90) scale(32.9893 33.4096)">
<stop stop-color="#7E32DF"/>
<stop offset="1" stop-color="#CCA5FF"/>
</radialGradient>
<radialGradient id="paint9_diamond_1_107" cx="0" cy="0" r="1" gradientUnits="userSpaceOnUse" gradientTransform="translate(64.2391 63.0073) rotate(133.559) scale(39.6843 40.9724)">
<stop stop-color="#735085"/>
<stop offset="1" stop-color="white" stop-opacity="0"/>
</radialGradient>
<linearGradient id="paint10_linear_1_107" x1="64.2391" y1="35.9705" x2="64.2391" y2="89.7286" gradientUnits="userSpaceOnUse">
<stop stop-color="#DEACF7"/>
<stop offset="1" stop-color="#B449E9"/>
</linearGradient>
<clipPath id="clip0_1_107">
<rect width="128" height="128" fill="white"/>
</clipPath>
</defs>
</svg>
