<svg width="128" height="128" viewBox="0 0 128 128" fill="none" xmlns="http://www.w3.org/2000/svg">
<mask id="path-1-outside-1_6_19" maskUnits="userSpaceOnUse" x="7" y="8" width="113" height="110" fill="black">
<rect fill="white" x="7" y="8" width="113" height="110"/>
<path fill-rule="evenodd" clip-rule="evenodd" d="M20.6752 71.6435C21.0471 71.7644 21.4187 71.8803 21.79 71.9912C25.1051 72.9812 28.2318 82.1372 26.1994 84.937C18.8987 94.9938 21.6973 104.081 30.9212 110.788C39.7748 117.226 49.6454 117.351 56.946 107.294C59.0335 104.419 68.8878 104.5 70.9375 107.403C71.0529 107.566 71.1697 107.729 71.2878 107.892C78.5885 117.949 88.0887 118.093 97.3126 111.386C106.166 104.948 109.335 95.5913 102.034 85.5344C101.984 85.4646 101.933 85.3949 101.882 85.3254C99.8204 82.5171 102.952 72.7935 106.265 71.7161C118.077 67.8748 121.15 58.8766 117.627 48.0241C114.245 37.6074 106.333 31.6996 94.5205 35.541C94.4007 35.5799 94.2813 35.6193 94.1622 35.659C91.3924 36.5836 82.3127 30.0565 82.3127 27.1365C82.3127 14.7055 74.7116 9 63.3103 9C52.3667 9 44.3077 14.7055 44.3077 27.1365C44.3077 30.5492 35.8892 36.6162 32.6494 35.5438C32.5728 35.5184 32.4962 35.4933 32.4194 35.4683C20.6067 31.6269 12.8361 37.0989 9.31292 47.9514C5.93118 58.368 8.86255 67.8021 20.6752 71.6435ZM62.3318 59.0198C60.0297 59.0198 58.1635 60.886 58.1635 63.1881C58.1635 65.4902 60.0297 67.3564 62.3318 67.3564H62.5336C64.8357 67.3564 66.7019 65.4902 66.7019 63.1881C66.7019 60.886 64.8357 59.0198 62.5336 59.0198H62.3318Z"/>
</mask>
<path fill-rule="evenodd" clip-rule="evenodd" d="M20.6752 71.6435C21.0471 71.7644 21.4187 71.8803 21.79 71.9912C25.1051 72.9812 28.2318 82.1372 26.1994 84.937C18.8987 94.9938 21.6973 104.081 30.9212 110.788C39.7748 117.226 49.6454 117.351 56.946 107.294C59.0335 104.419 68.8878 104.5 70.9375 107.403C71.0529 107.566 71.1697 107.729 71.2878 107.892C78.5885 117.949 88.0887 118.093 97.3126 111.386C106.166 104.948 109.335 95.5913 102.034 85.5344C101.984 85.4646 101.933 85.3949 101.882 85.3254C99.8204 82.5171 102.952 72.7935 106.265 71.7161C118.077 67.8748 121.15 58.8766 117.627 48.0241C114.245 37.6074 106.333 31.6996 94.5205 35.541C94.4007 35.5799 94.2813 35.6193 94.1622 35.659C91.3924 36.5836 82.3127 30.0565 82.3127 27.1365C82.3127 14.7055 74.7116 9 63.3103 9C52.3667 9 44.3077 14.7055 44.3077 27.1365C44.3077 30.5492 35.8892 36.6162 32.6494 35.5438C32.5728 35.5184 32.4962 35.4933 32.4194 35.4683C20.6067 31.6269 12.8361 37.0989 9.31292 47.9514C5.93118 58.368 8.86255 67.8021 20.6752 71.6435ZM62.3318 59.0198C60.0297 59.0198 58.1635 60.886 58.1635 63.1881C58.1635 65.4902 60.0297 67.3564 62.3318 67.3564H62.5336C64.8357 67.3564 66.7019 65.4902 66.7019 63.1881C66.7019 60.886 64.8357 59.0198 62.5336 59.0198H62.3318Z" fill="url(#paint0_linear_6_19)" fill-opacity="0.2"/>
<path d="M20.6752 71.6435L20.366 72.5945L20.6752 71.6435ZM30.9212 110.788L31.5093 109.98L30.9212 110.788ZM71.2878 107.892L70.4786 108.479L71.2878 107.892ZM97.3126 111.386L97.9007 112.195H97.9007L97.3126 111.386ZM102.034 85.5344L102.844 84.947L102.034 85.5344ZM117.627 48.0241L118.578 47.7153L117.627 48.0241ZM94.5205 35.541L94.2112 34.59L94.5205 35.541ZM32.4194 35.4683L32.1101 36.4193L32.4194 35.4683ZM9.31292 47.9514L8.36179 47.6426H8.36179L9.31292 47.9514ZM94.1622 35.659L93.8455 34.7105L94.1622 35.659ZM70.9375 107.403L71.7544 106.826L70.9375 107.403ZM21.79 71.9912L21.5039 72.9494L21.79 71.9912ZM22.0762 71.033C21.7127 70.9245 21.3487 70.8109 20.9845 70.6925L20.366 72.5945C20.7455 72.7179 21.1248 72.8362 21.5039 72.9494L22.0762 71.033ZM31.5093 109.98C27.0214 106.716 24.2128 102.958 23.3412 98.9084C22.4749 94.8835 23.482 90.3825 27.0086 85.5244L25.3901 84.3495C21.6161 89.5483 20.3722 94.6194 21.386 99.3293C22.3945 104.015 25.5971 108.153 30.3331 111.597L31.5093 109.98ZM56.1368 106.707C52.6205 111.551 48.5692 113.842 44.4225 114.231C40.2485 114.623 35.8053 113.103 31.5093 109.98L30.3331 111.597C34.8907 114.911 39.8095 116.673 44.6094 116.223C49.4366 115.77 53.9709 113.095 57.7553 107.882L56.1368 106.707ZM72.0971 107.304C71.9815 107.145 71.8673 106.986 71.7544 106.826L70.1206 107.979C70.2386 108.146 70.3579 108.313 70.4786 108.479L72.0971 107.304ZM96.7245 110.577C92.2364 113.841 87.7974 115.352 83.6809 114.931C79.5893 114.512 75.6238 112.163 72.0971 107.304L70.4786 108.479C74.2525 113.678 78.6874 116.43 83.4771 116.92C88.2418 117.408 93.1648 115.638 97.9007 112.195L96.7245 110.577ZM101.225 86.1219C104.741 90.9656 105.667 95.5305 104.756 99.5986C103.838 103.693 101.02 107.453 96.7245 110.577L97.9007 112.195C102.458 108.881 105.652 104.743 106.707 100.036C107.768 95.3021 106.628 90.1601 102.844 84.947L101.225 86.1219ZM101.076 85.9172C101.126 85.9852 101.176 86.0534 101.225 86.1219L102.844 84.947C102.792 84.8757 102.74 84.8045 102.688 84.7336L101.076 85.9172ZM116.676 48.3329C118.39 53.6135 118.455 58.3066 116.782 62.0953C115.119 65.861 111.661 68.9097 105.955 70.7652L106.574 72.6671C112.681 70.6812 116.666 67.3101 118.612 62.9032C120.547 58.5194 120.387 53.2872 118.578 47.7153L116.676 48.3329ZM94.8297 36.492C100.519 34.6419 105.142 35.1713 108.725 37.2959C112.332 39.4346 115.035 43.2782 116.676 48.3329L118.578 47.7153C116.837 42.3534 113.893 38.0347 109.745 35.5756C105.574 33.1025 100.335 32.5986 94.2112 34.59L94.8297 36.492ZM94.4788 36.6076C94.5954 36.5686 94.7124 36.5301 94.8297 36.492L94.2112 34.59C94.089 34.6297 93.9671 34.6699 93.8455 34.7105L94.4788 36.6076ZM63.3103 10C68.8575 10 73.3366 11.3884 76.4196 14.1513C79.4839 16.8976 81.3127 21.1313 81.3127 27.1365H83.3127C83.3127 20.7107 81.3409 15.8762 77.7544 12.6619C74.1865 9.46436 69.1644 8 63.3103 8V10ZM45.3077 27.1365C45.3077 21.1491 47.2397 16.9115 50.3662 14.157C53.5132 11.3844 58.0004 10 63.3103 10V8C57.6766 8 52.6625 9.46839 49.0441 12.6563C45.4052 15.8623 43.3077 20.693 43.3077 27.1365H45.3077ZM32.1101 36.4193C32.1853 36.4437 32.2603 36.4683 32.3351 36.4931L32.9636 34.5944C32.8854 34.5686 32.8071 34.5429 32.7286 34.5173L32.1101 36.4193ZM10.2641 48.2602C11.9784 42.9795 14.6821 39.1448 18.2603 37.0641C21.8166 34.9961 26.4042 34.5638 32.1101 36.4193L32.7286 34.5173C26.6219 32.5315 21.4179 32.9144 17.2549 35.3352C13.1139 37.7432 10.1707 42.0708 8.36179 47.6426L10.2641 48.2602ZM20.9845 70.6925C15.2955 68.8425 11.8658 65.6944 10.2143 61.867C8.55194 58.0143 8.62307 53.3148 10.2641 48.2602L8.36179 47.6426C6.62103 53.0046 6.46697 58.2305 8.37799 62.6593C10.2999 67.1135 14.2423 70.6031 20.366 72.5945L20.9845 70.6925ZM59.1635 63.1881C59.1635 61.4383 60.582 60.0198 62.3318 60.0198V58.0198C59.4774 58.0198 57.1635 60.3337 57.1635 63.1881H59.1635ZM62.3318 66.3564C60.582 66.3564 59.1635 64.9379 59.1635 63.1881H57.1635C57.1635 66.0425 59.4774 68.3564 62.3318 68.3564V66.3564ZM62.5336 66.3564H62.3318V68.3564H62.5336V66.3564ZM65.7019 63.1881C65.7019 64.9379 64.2834 66.3564 62.5336 66.3564V68.3564C65.388 68.3564 67.7019 66.0425 67.7019 63.1881H65.7019ZM62.5336 60.0198C64.2834 60.0198 65.7019 61.4383 65.7019 63.1881H67.7019C67.7019 60.3337 65.388 58.0198 62.5336 58.0198V60.0198ZM62.3318 60.0198H62.5336V58.0198H62.3318V60.0198ZM43.3077 27.1365C43.3077 27.6306 42.9715 28.4198 42.1661 29.4094C41.3939 30.3583 40.3099 31.3449 39.1087 32.2109C37.9075 33.0769 36.6285 33.7938 35.4837 34.2273C34.2898 34.6793 33.4335 34.75 32.9636 34.5944L32.3351 36.4931C33.4852 36.8738 34.8961 36.5883 36.1919 36.0977C37.5367 35.5885 38.9699 34.7765 40.2783 33.8332C41.5867 32.89 42.8098 31.787 43.7173 30.6719C44.5916 29.5977 45.3077 28.3488 45.3077 27.1365H43.3077ZM93.8455 34.7105C93.7281 34.7497 93.4757 34.776 93.041 34.695C92.6216 34.6168 92.1119 34.4537 91.5335 34.2078C90.3777 33.7164 89.0477 32.9373 87.7826 32.0276C86.5174 31.1178 85.3558 30.1053 84.5227 29.1663C84.1057 28.6964 83.7893 28.2654 83.5822 27.8929C83.3675 27.5069 83.3127 27.2598 83.3127 27.1365H81.3127C81.3127 27.7432 81.5416 28.3388 81.8343 28.865C82.1345 29.4048 82.5492 29.9556 83.0267 30.4937C83.9825 31.571 85.264 32.6799 86.6149 33.6514C87.966 34.6228 89.4253 35.4847 90.7509 36.0483C91.4131 36.3299 92.0673 36.5479 92.6745 36.6611C93.2665 36.7715 93.9038 36.7995 94.4788 36.6076L93.8455 34.7105ZM102.688 84.7336C102.38 84.3139 102.177 83.4688 102.23 82.2075C102.281 80.9935 102.561 79.5714 103.01 78.1782C103.458 76.785 104.061 75.4668 104.728 74.4512C105.421 73.3962 106.079 72.8281 106.574 72.6671L105.955 70.7652C104.794 71.1428 103.818 72.1942 103.056 73.3531C102.269 74.5515 101.597 76.0417 101.106 77.5651C100.615 79.0885 100.292 80.6912 100.232 82.1238C100.174 83.5093 100.353 84.9327 101.076 85.9172L102.688 84.7336ZM57.7553 107.882C58.0775 107.438 58.8172 106.984 59.9954 106.653C61.1353 106.332 62.53 106.17 63.948 106.182C65.3659 106.193 66.7586 106.377 67.8946 106.715C69.0687 107.065 69.8036 107.53 70.1206 107.979L71.7544 106.826C71.0466 105.823 69.781 105.19 68.4657 104.798C67.1123 104.395 65.5267 104.194 63.9639 104.182C62.4011 104.169 60.8128 104.345 59.4538 104.727C58.1332 105.099 56.8583 105.713 56.1368 106.707L57.7553 107.882ZM21.5039 72.9494C22.005 73.099 22.6575 73.6287 23.3436 74.6106C24.0062 75.559 24.6058 76.7951 25.0535 78.1081C25.5012 79.4212 25.7813 80.7651 25.8351 81.9188C25.8908 83.1136 25.6962 83.9279 25.3901 84.3495L27.0086 85.5244C27.7188 84.5462 27.8955 83.1661 27.8329 81.8257C27.7685 80.4443 27.4408 78.9123 26.9465 77.4627C26.4522 76.013 25.7756 74.5995 24.9831 73.4652C24.214 72.3644 23.2326 71.3784 22.0762 71.033L21.5039 72.9494Z" fill="url(#paint1_linear_6_19)" fill-opacity="0.5" mask="url(#path-1-outside-1_6_19)"/>
<mask id="path-3-outside-2_6_19" maskUnits="userSpaceOnUse" x="17" y="17" width="94" height="92" fill="black">
<rect fill="white" x="17" y="17" width="94" height="92"/>
<path fill-rule="evenodd" clip-rule="evenodd" d="M79.5925 33.0734C79.5925 35.4978 87.1409 40.9155 89.4405 40.1476C89.5303 40.1176 89.6204 40.0879 89.7107 40.0584C99.5013 36.8658 106.059 41.7759 108.862 50.4333C111.782 59.4528 109.235 66.9313 99.4446 70.1239C98.8132 70.3298 98.1823 70.5172 97.5533 70.6865C95.8184 71.1535 92.6505 79.9469 93.704 81.4022C99.755 89.7605 97.1284 97.537 89.7903 102.888C82.1453 108.462 74.2712 108.342 68.2203 99.9836C66.3913 97.4573 58.5944 97.4977 56.7895 100.041C56.7156 100.145 56.6411 100.249 56.566 100.353C50.515 108.712 42.334 108.608 34.9959 103.257C27.3508 97.6826 25.0313 90.1301 31.0823 81.7717C31.3167 81.448 31.5547 81.1298 31.7963 80.8171C33.5565 78.5393 31.2424 70.9559 28.5056 70.0635C18.7149 66.8709 16.2853 59.0302 19.0882 50.3728C22.0083 41.3532 28.4488 36.8054 38.2395 39.998C38.2943 40.0159 38.3491 40.0339 38.4038 40.052C41.094 40.9428 48.0929 35.9072 48.0929 33.0734C48.0929 22.7419 54.7724 18 63.8428 18C73.2926 18 79.5925 22.7419 79.5925 33.0734ZM62.5109 59.8193C60.1421 59.8193 58.2218 61.7396 58.2218 64.1084C58.2218 66.4773 60.1421 68.3976 62.5109 68.3976H62.8708C65.2396 68.3976 67.1599 66.4773 67.1599 64.1084C67.1599 61.7396 65.2396 59.8193 62.8708 59.8193H62.5109Z"/>
</mask>
<path fill-rule="evenodd" clip-rule="evenodd" d="M79.5925 33.0734C79.5925 35.4978 87.1409 40.9155 89.4405 40.1476C89.5303 40.1176 89.6204 40.0879 89.7107 40.0584C99.5013 36.8658 106.059 41.7759 108.862 50.4333C111.782 59.4528 109.235 66.9313 99.4446 70.1239C98.8132 70.3298 98.1823 70.5172 97.5533 70.6865C95.8184 71.1535 92.6505 79.9469 93.704 81.4022C99.755 89.7605 97.1284 97.537 89.7903 102.888C82.1453 108.462 74.2712 108.342 68.2203 99.9836C66.3913 97.4573 58.5944 97.4977 56.7895 100.041C56.7156 100.145 56.6411 100.249 56.566 100.353C50.515 108.712 42.334 108.608 34.9959 103.257C27.3508 97.6826 25.0313 90.1301 31.0823 81.7717C31.3167 81.448 31.5547 81.1298 31.7963 80.8171C33.5565 78.5393 31.2424 70.9559 28.5056 70.0635C18.7149 66.8709 16.2853 59.0302 19.0882 50.3728C22.0083 41.3532 28.4488 36.8054 38.2395 39.998C38.2943 40.0159 38.3491 40.0339 38.4038 40.052C41.094 40.9428 48.0929 35.9072 48.0929 33.0734C48.0929 22.7419 54.7724 18 63.8428 18C73.2926 18 79.5925 22.7419 79.5925 33.0734ZM62.5109 59.8193C60.1421 59.8193 58.2218 61.7396 58.2218 64.1084C58.2218 66.4773 60.1421 68.3976 62.5109 68.3976H62.8708C65.2396 68.3976 67.1599 66.4773 67.1599 64.1084C67.1599 61.7396 65.2396 59.8193 62.8708 59.8193H62.5109Z" fill="url(#paint2_linear_6_19)" fill-opacity="0.2"/>
<path d="M89.7107 40.0584L90.0207 41.0092L89.7107 40.0584ZM108.862 50.4333L109.813 50.1252L108.862 50.4333ZM99.4446 70.1239L99.1346 69.1732L99.4446 70.1239ZM89.7903 102.888L89.2011 102.08L89.7903 102.888ZM56.566 100.353L55.756 99.7668L56.566 100.353ZM34.9959 103.257L34.4067 104.065H34.4067L34.9959 103.257ZM31.0823 81.7717L30.2723 81.1853L31.0823 81.7717ZM19.0882 50.3728L18.1368 50.0648H18.1368L19.0882 50.3728ZM38.2395 39.998L38.5495 39.0473L38.2395 39.998ZM89.4405 40.1476L89.1237 39.1991L89.4405 40.1476ZM89.4007 39.1077C89.3081 39.1379 89.2158 39.1683 89.1237 39.1991L89.7572 41.0961C89.8448 41.0669 89.9326 41.0379 90.0207 41.0092L89.4007 39.1077ZM109.813 50.1252C108.362 45.6435 105.902 42.0138 102.418 39.9425C98.9098 37.8569 94.5139 37.4403 89.4007 39.1077L90.0207 41.0092C94.6981 39.4839 98.4764 39.926 101.396 41.6617C104.339 43.4116 106.559 46.5657 107.911 50.7413L109.813 50.1252ZM99.7546 71.0746C104.851 69.4127 108.198 66.5831 109.835 62.8667C111.461 59.1737 111.32 54.7803 109.813 50.1252L107.911 50.7413C109.324 55.1058 109.369 58.9614 108.005 62.0607C106.65 65.1365 103.829 67.6425 99.1346 69.1732L99.7546 71.0746ZM97.8131 71.6522C98.4591 71.4783 99.1066 71.2859 99.7546 71.0746L99.1346 69.1732C98.5197 69.3736 97.9056 69.5561 97.2934 69.7209L97.8131 71.6522ZM90.3795 103.696C94.1795 100.925 96.8581 97.4542 97.744 93.4909C98.6357 89.5013 97.6732 85.1797 94.514 80.8158L92.894 81.9886C95.7857 85.983 96.5355 89.7288 95.7921 93.0547C95.0429 96.4068 92.7392 99.4998 89.2011 102.08L90.3795 103.696ZM67.4103 100.57C70.5589 104.919 74.2748 107.241 78.3054 107.655C82.3109 108.067 86.4331 106.573 90.3795 103.696L89.2011 102.08C85.5025 104.776 81.8651 106.01 78.5097 105.666C75.1792 105.324 71.9326 103.406 69.0303 99.3972L67.4103 100.57ZM57.376 100.94C57.453 100.833 57.5293 100.727 57.605 100.62L55.9739 99.4627C55.9019 99.5642 55.8293 99.6656 55.756 99.7668L57.376 100.94ZM34.4067 104.065C38.2065 106.836 42.3246 108.321 46.3573 107.942C50.4174 107.559 54.2169 105.303 57.376 100.94L55.756 99.7668C52.8641 103.761 49.5476 105.632 46.1699 105.95C42.7649 106.271 39.1234 105.029 35.5851 102.449L34.4067 104.065ZM30.2723 81.1853C27.1234 85.5349 26.0729 89.797 26.9254 93.7682C27.7726 97.7153 30.46 101.187 34.4067 104.065L35.5851 102.449C31.8867 99.7524 29.5918 96.6609 28.8808 93.3485C28.175 90.0602 28.9902 86.3669 31.8923 82.3581L30.2723 81.1853ZM31.005 80.2057C30.7571 80.5266 30.5127 80.8531 30.2723 81.1853L31.8923 82.3581C32.1206 82.0428 32.3524 81.733 32.5876 81.4286L31.005 80.2057ZM18.1368 50.0648C16.6857 54.5468 16.5511 58.9338 18.1557 62.6627C19.7713 66.4171 23.0822 69.3468 28.1956 71.0142L28.8156 69.1128C24.1383 67.5876 21.339 65.0006 19.9929 61.8722C18.6357 58.7182 18.6878 54.8562 20.0396 50.6808L18.1368 50.0648ZM38.5495 39.0473C33.4532 37.3855 29.0864 37.6995 25.5837 39.742C22.1033 41.7714 19.6438 45.41 18.1368 50.0648L20.0396 50.6808C21.4527 46.316 23.6736 43.1709 26.5911 41.4697C29.4863 39.7815 33.2351 39.418 37.9295 40.9488L38.5495 39.0473ZM38.7181 39.1027C38.662 39.0841 38.6058 39.0657 38.5495 39.0473L37.9295 40.9488C37.9829 40.9662 38.0362 40.9837 38.0894 41.0013L38.7181 39.1027ZM63.8428 17C59.145 17 54.9437 18.2278 51.9044 20.913C48.8449 23.6158 47.0929 27.6805 47.0929 33.0734H49.0929C49.0929 28.1348 50.6807 24.6628 53.2285 22.4118C55.7965 20.1431 59.4701 19 63.8428 19V17ZM80.5925 33.0734C80.5925 27.6982 78.9466 23.6297 75.9297 20.9186C72.931 18.2238 68.7217 17 63.8428 17V19C68.4136 19 72.0792 20.1472 74.5929 22.4062C77.0885 24.6489 78.5925 28.1171 78.5925 33.0734H80.5925ZM59.2218 64.1084C59.2218 62.2919 60.6944 60.8193 62.5109 60.8193V58.8193C59.5898 58.8193 57.2218 61.1873 57.2218 64.1084H59.2218ZM62.5109 67.3976C60.6944 67.3976 59.2218 65.925 59.2218 64.1084H57.2218C57.2218 67.0296 59.5898 69.3976 62.5109 69.3976V67.3976ZM62.8708 67.3976H62.5109V69.3976H62.8708V67.3976ZM66.1599 64.1084C66.1599 65.925 64.6873 67.3976 62.8708 67.3976V69.3976C65.7919 69.3976 68.1599 67.0296 68.1599 64.1084H66.1599ZM62.8708 60.8193C64.6873 60.8193 66.1599 62.2919 66.1599 64.1084H68.1599C68.1599 61.1873 65.7919 58.8193 62.8708 58.8193V60.8193ZM62.5109 60.8193H62.8708V58.8193H62.5109V60.8193ZM38.0894 41.0013C39.102 41.3366 40.321 41.0816 41.4063 40.6713C42.5407 40.2424 43.7448 39.5605 44.8414 38.771C45.938 37.9815 46.9666 37.0561 47.7325 36.1164C48.4651 35.2175 49.0929 34.1414 49.0929 33.0734H47.0929C47.0929 33.4223 46.8459 34.0384 46.1821 34.8528C45.5517 35.6264 44.6623 36.4355 43.6729 37.1479C42.6835 37.8602 41.6335 38.4472 40.699 38.8005C39.7153 39.1724 39.0507 39.2128 38.7181 39.1027L38.0894 41.0013ZM32.5876 81.4286C33.2351 80.5906 33.4226 79.4107 33.4095 78.2898C33.396 77.1299 33.1654 75.8447 32.7937 74.6285C32.4219 73.4123 31.8947 72.2182 31.257 71.2499C30.6408 70.3142 29.8243 69.4417 28.8156 69.1128L28.1956 71.0142C28.5553 71.1315 29.0543 71.5416 29.5867 72.3499C30.0977 73.1257 30.5521 74.1372 30.881 75.2131C31.2098 76.289 31.3988 77.3826 31.4096 78.3131C31.4209 79.2825 31.2376 79.9047 31.005 80.2057L32.5876 81.4286ZM69.0303 99.3972C68.388 98.51 67.3149 97.9521 66.2097 97.6131C65.0783 97.2661 63.7723 97.1047 62.4908 97.1113C61.2092 97.1178 59.9049 97.2925 58.7769 97.6509C57.6751 98.0011 56.6076 98.5696 55.9739 99.4627L57.605 100.62C57.8738 100.241 58.4578 99.8509 59.3826 99.557C60.2814 99.2714 61.3791 99.117 62.501 99.1112C63.6229 99.1055 64.7219 99.2487 65.6232 99.5252C66.5507 99.8097 67.1381 100.194 67.4103 100.57L69.0303 99.3972ZM97.2934 69.7209C96.7778 69.8597 96.3741 70.2409 96.0922 70.5649C95.7832 70.92 95.4846 71.368 95.2047 71.855C94.6428 72.833 94.094 74.0786 93.642 75.3353C93.19 76.5919 92.8198 77.9012 92.6311 79.0122C92.5372 79.5654 92.4828 80.1009 92.4962 80.5715C92.5083 81.0007 92.579 81.5534 92.894 81.9886L94.514 80.8158C94.5656 80.8871 94.5048 80.8467 94.4953 80.5147C94.4871 80.224 94.5209 79.8301 94.6029 79.347C94.7662 78.3853 95.0988 77.1942 95.524 76.0122C95.9491 74.8303 96.4518 73.699 96.9388 72.8514C97.1835 72.4256 97.4087 72.0986 97.6009 71.8778C97.8202 71.6258 97.895 71.6301 97.8131 71.6522L97.2934 69.7209ZM78.5925 33.0734C78.5925 33.6185 78.7977 34.1427 79.0477 34.5915C79.3052 35.0539 79.6583 35.5213 80.0603 35.9737C80.8653 36.8797 81.9407 37.8083 83.0709 38.6199C84.2011 39.4314 85.4249 40.1538 86.5407 40.6276C87.0981 40.8643 87.6538 41.0498 88.1741 41.1467C88.6791 41.2407 89.241 41.2685 89.7572 41.0961L89.1237 39.1991C89.0651 39.2187 88.8881 39.2452 88.5401 39.1804C88.2074 39.1185 87.7961 38.9878 87.3224 38.7867C86.3763 38.3849 85.2818 37.7453 84.2374 36.9953C83.193 36.2454 82.2376 35.413 81.5554 34.6453C81.2139 34.2609 80.9593 33.9133 80.795 33.6184C80.6232 33.3098 80.5925 33.1344 80.5925 33.0734H78.5925Z" fill="url(#paint3_linear_6_19)" fill-opacity="0.75" mask="url(#path-3-outside-2_6_19)"/>
<g filter="url(#filter0_f_6_19)">
<mask id="path-5-outside-3_6_19" maskUnits="userSpaceOnUse" x="30" y="27" width="71" height="74" fill="black">
<rect fill="white" x="30" y="27" width="71" height="74"/>
<path fill-rule="evenodd" clip-rule="evenodd" d="M84.3453 45.5972C82.6158 46.202 76.7979 42.1942 76.8167 40.3621C76.8179 40.2499 76.8184 40.1375 76.8184 40.0248C76.8184 31.7829 72.1319 28 65.1022 28C58.3548 28 53.386 31.7829 53.386 40.0248C53.386 40.1623 53.3868 40.2995 53.3884 40.4363C53.4138 42.568 48.0685 46.2527 46.0561 45.549C38.7728 43.0021 33.9818 46.6301 31.8095 53.8255C29.7244 60.7319 31.5318 66.9869 38.8151 69.5338C40.937 70.2758 42.7776 76.0529 41.4448 77.863C41.2025 78.1921 40.9647 78.5292 40.7319 78.8741C36.2306 85.542 37.9561 91.5671 43.6432 96.0141C49.1019 100.282 55.1878 100.365 59.6891 93.6975C59.746 93.6132 59.8024 93.5287 59.8584 93.4441C61.1402 91.5061 67.0586 91.4768 68.3587 93.4027C72.86 100.071 78.7174 100.166 84.4045 95.7193C89.8633 91.4509 91.8172 85.2472 87.3159 78.5793C86.5066 77.3804 89.139 70.349 90.5231 69.9291C90.877 69.8217 91.2315 69.706 91.5863 69.582C98.8695 67.0351 100.764 61.0691 98.5919 53.8737C96.5068 46.9673 91.6285 43.0503 84.3453 45.5972Z"/>
</mask>
<path fill-rule="evenodd" clip-rule="evenodd" d="M84.3453 45.5972C82.6158 46.202 76.7979 42.1942 76.8167 40.3621C76.8179 40.2499 76.8184 40.1375 76.8184 40.0248C76.8184 31.7829 72.1319 28 65.1022 28C58.3548 28 53.386 31.7829 53.386 40.0248C53.386 40.1623 53.3868 40.2995 53.3884 40.4363C53.4138 42.568 48.0685 46.2527 46.0561 45.549C38.7728 43.0021 33.9818 46.6301 31.8095 53.8255C29.7244 60.7319 31.5318 66.9869 38.8151 69.5338C40.937 70.2758 42.7776 76.0529 41.4448 77.863C41.2025 78.1921 40.9647 78.5292 40.7319 78.8741C36.2306 85.542 37.9561 91.5671 43.6432 96.0141C49.1019 100.282 55.1878 100.365 59.6891 93.6975C59.746 93.6132 59.8024 93.5287 59.8584 93.4441C61.1402 91.5061 67.0586 91.4768 68.3587 93.4027C72.86 100.071 78.7174 100.166 84.4045 95.7193C89.8633 91.4509 91.8172 85.2472 87.3159 78.5793C86.5066 77.3804 89.139 70.349 90.5231 69.9291C90.877 69.8217 91.2315 69.706 91.5863 69.582C98.8695 67.0351 100.764 61.0691 98.5919 53.8737C96.5068 46.9673 91.6285 43.0503 84.3453 45.5972Z" fill="url(#paint4_radial_6_19)" fill-opacity="0.5"/>
<path d="M31.8095 53.8255L30.8522 53.5365H30.8522L31.8095 53.8255ZM40.7319 78.8741L39.903 78.3145L40.7319 78.8741ZM43.6432 96.0141L43.0272 96.8018L43.6432 96.0141ZM59.6891 93.6975L58.8603 93.138L59.6891 93.6975ZM84.4045 95.7193L83.7885 94.9315L84.4045 95.7193ZM91.5863 69.582L91.9164 70.5259L91.5863 69.582ZM98.5919 53.8737L99.5492 53.5847L98.5919 53.8737ZM90.5231 69.9291L90.2328 68.9722L90.5231 69.9291ZM53.3884 40.4363L52.3885 40.4481L53.3884 40.4363ZM76.8167 40.3621L77.8166 40.3724L76.8167 40.3621ZM77.8166 40.3724C77.8178 40.2567 77.8184 40.1409 77.8184 40.0248H75.8184C75.8184 40.1341 75.8179 40.2431 75.8168 40.3518L77.8166 40.3724ZM77.8184 40.0248C77.8184 35.7152 76.5889 32.4168 74.2904 30.2016C71.9989 27.9932 68.7882 27 65.1022 27V29C68.446 29 71.0934 29.8982 72.9025 31.6417C74.7047 33.3785 75.8184 36.0925 75.8184 40.0248H77.8184ZM65.1022 27C61.5488 27 58.3462 27.9976 56.0261 30.1957C53.6959 32.4034 52.386 35.6985 52.386 40.0248H54.386C54.386 36.1092 55.5605 33.3919 57.4016 31.6476C59.2528 29.8938 61.9083 29 65.1022 29V27ZM52.386 40.0248C52.386 40.1663 52.3868 40.3074 52.3885 40.4481L54.3884 40.4244C54.3868 40.2916 54.386 40.1584 54.386 40.0248H52.386ZM46.3862 44.605C42.5294 43.2564 39.1809 43.5008 36.486 45.186C33.8264 46.8491 31.9778 49.8079 30.8522 53.5365L32.7668 54.1145C33.8134 50.6477 35.4466 48.1948 37.5464 46.8818C39.6108 45.5908 42.2995 45.2947 45.726 46.4929L46.3862 44.605ZM30.8522 53.5365C29.7661 57.134 29.6603 60.6693 30.8711 63.6869C32.0942 66.735 34.6085 69.1222 38.485 70.4777L39.1452 68.5899C35.7384 67.3985 33.7074 65.3847 32.7272 62.9421C31.7348 60.4688 31.7679 57.4234 32.7668 54.1145L30.8522 53.5365ZM40.6395 77.2701C40.3891 77.6102 40.1435 77.9584 39.903 78.3145L41.5607 79.4336C41.7859 79.0999 42.0158 78.774 42.25 78.456L40.6395 77.2701ZM39.903 78.3145C37.5372 81.8192 36.7433 85.2609 37.3863 88.4732C38.026 91.6689 40.0559 94.4784 43.0272 96.8018L44.2592 95.2263C41.5434 93.1027 39.8669 90.6762 39.3474 88.0806C38.8312 85.5016 39.4253 82.5968 41.5607 79.4336L39.903 78.3145ZM43.0272 96.8018C45.8842 99.0358 49.0208 100.265 52.1256 99.9518C55.2586 99.6356 58.1458 97.771 60.5179 94.257L58.8603 93.138C56.7311 96.2919 54.3248 97.7197 51.9248 97.9619C49.4966 98.207 46.8609 97.2607 44.2592 95.2263L43.0272 96.8018ZM60.5179 94.257C60.5766 94.1701 60.6348 94.083 60.6924 93.9958L59.0243 92.8925C58.9701 92.9744 58.9154 93.0563 58.8603 93.138L60.5179 94.257ZM67.5298 93.9622C69.8917 97.4608 72.7147 99.3803 75.8274 99.7231C78.9156 100.063 82.0566 98.8246 85.0205 96.5071L83.7885 94.9315C81.0653 97.061 78.4341 97.9981 76.0464 97.7351C73.6832 97.4748 71.327 96.0125 69.1875 92.8432L67.5298 93.9622ZM85.0205 96.5071C87.8839 94.2681 89.9058 91.4599 90.5742 88.2531C91.2465 85.0275 90.5198 81.538 88.1447 78.0198L86.4871 79.1388C88.6133 82.2884 89.1603 85.2347 88.6163 87.8451C88.0683 90.4742 86.3839 92.9021 83.7885 94.9315L85.0205 96.5071ZM91.2562 68.638C90.9146 68.7575 90.5733 68.8688 90.2328 68.9722L90.8135 70.886C91.1807 70.7746 91.5485 70.6546 91.9164 70.5259L91.2562 68.638ZM97.6346 54.1627C98.6794 57.6237 98.7069 60.6631 97.7099 63.0912C96.7252 65.4892 94.6798 67.4408 91.2562 68.638L91.9164 70.5259C95.7761 69.1762 98.3196 66.8714 99.56 63.8509C100.788 60.8605 100.677 57.3192 99.5492 53.5847L97.6346 54.1627ZM84.6754 46.5411C88.0836 45.3493 90.7944 45.7037 92.8803 47.0336C95.0022 48.3865 96.6341 50.8488 97.6346 54.1627L99.5492 53.5847C98.4646 49.9923 96.6148 47.0428 93.9555 45.3472C91.2602 43.6288 87.8902 43.2982 84.0152 44.6532L84.6754 46.5411ZM88.1447 78.0198C88.2146 78.1232 88.1669 78.1324 88.1645 77.8716C88.1625 77.6517 88.1933 77.346 88.2642 76.9632C88.4053 76.2018 88.6826 75.255 89.0341 74.3111C89.3855 73.3675 89.7962 72.4666 90.1886 71.7921C90.3859 71.4531 90.5639 71.1967 90.7114 71.026C90.8853 70.8246 90.9226 70.8529 90.8135 70.886L90.2328 68.9722C89.7776 69.1103 89.4299 69.4501 89.198 69.7184C88.9398 70.0172 88.6914 70.3884 88.4599 70.7864C87.9947 71.5859 87.5384 72.5965 87.1598 73.6131C86.7814 74.6294 86.4658 75.6914 86.2977 76.5988C86.214 77.0502 86.161 77.4939 86.1646 77.8896C86.1678 78.2445 86.2149 78.7356 86.4871 79.1388L88.1447 78.0198ZM60.6924 93.9958C60.8307 93.7868 61.1872 93.5166 61.8532 93.3004C62.4913 93.0933 63.2862 92.9785 64.1066 92.9744C64.927 92.9704 65.7229 93.0774 66.3628 93.2783C67.0308 93.4879 67.3897 93.7547 67.5298 93.9622L69.1875 92.8432C68.6775 92.0878 67.8091 91.636 66.9617 91.37C66.0862 91.0953 65.0787 90.9697 64.0968 90.9745C63.1148 90.9793 62.1086 91.1148 61.2358 91.3981C60.391 91.6723 59.527 92.1324 59.0243 92.8925L60.6924 93.9958ZM38.485 70.4777C38.7089 70.5561 39.0694 70.8386 39.4769 71.449C39.8645 72.0295 40.215 72.7883 40.4722 73.6C40.7295 74.4118 40.8791 75.2315 40.8948 75.9249C40.9113 76.6545 40.7766 77.0839 40.6395 77.2701L42.25 78.456C42.7793 77.7371 42.9144 76.7656 42.8943 75.8797C42.8735 74.9576 42.6803 73.9472 42.3788 72.9958C42.0772 72.0441 41.653 71.1064 41.1403 70.3385C40.6475 69.6004 39.9822 68.8826 39.1452 68.5899L38.485 70.4777ZM52.3885 40.4481C52.3904 40.6089 52.2613 41.002 51.7685 41.5929C51.3102 42.1423 50.654 42.7225 49.9163 43.2344C49.179 43.746 48.4012 44.1611 47.7181 44.405C46.9855 44.6665 46.5523 44.6631 46.3862 44.605L45.726 46.4929C46.5661 46.7867 47.5556 46.5866 48.3905 46.2886C49.2749 45.9729 50.2091 45.4655 51.0565 44.8775C51.9035 44.2897 52.7046 43.5929 53.3044 42.874C53.8695 42.1964 54.3991 41.3295 54.3884 40.4244L52.3885 40.4481ZM75.8168 40.3518C75.8118 40.8309 75.9919 41.2742 76.1937 41.6306C76.4031 42.0005 76.6872 42.3661 77.0035 42.7124C77.637 43.4061 78.4785 44.1078 79.356 44.7156C80.234 45.3236 81.1879 45.8651 82.0613 46.2188C82.4973 46.3955 82.9385 46.5356 83.3565 46.6068C83.7588 46.6753 84.2315 46.6963 84.6754 46.5411L84.0152 44.6532C84.0267 44.6492 83.9392 44.6773 83.6924 44.6352C83.4613 44.5959 83.1644 44.5078 82.8121 44.3651C82.1087 44.0802 81.2851 43.6187 80.4947 43.0714C79.704 42.5238 78.9864 41.9178 78.4803 41.3637C78.2268 41.0861 78.0459 40.8427 77.934 40.6451C77.8145 40.4341 77.8169 40.3513 77.8166 40.3724L75.8168 40.3518Z" fill="url(#paint5_linear_6_19)" fill-opacity="0.75" mask="url(#path-5-outside-3_6_19)"/>
</g>
<mask id="path-7-outside-4_6_19" maskUnits="userSpaceOnUse" x="26" y="27" width="76" height="74" fill="black">
<rect fill="white" x="26" y="27" width="76" height="74"/>
<path fill-rule="evenodd" clip-rule="evenodd" d="M84.3986 45.6897C82.5584 46.3035 76.5418 41.9647 76.5418 40.0248C76.5418 31.7829 71.4745 28 63.8735 28C56.5778 28 51.2052 31.7829 51.2052 40.0248C51.2052 42.2914 45.627 46.3248 43.4751 45.613C43.4101 45.5914 43.3449 45.5701 43.2796 45.549C35.4045 43.0021 30.2241 46.6301 27.8753 53.8255C25.6208 60.7319 27.575 66.9869 35.4501 69.5338C37.6405 70.2422 39.4868 76.3242 38.0742 78.1418C37.8877 78.3818 37.7038 78.6259 37.5227 78.8741C32.6556 85.542 34.5213 91.5671 40.6706 96.0141C46.573 100.282 53.1534 100.365 58.0205 93.6975C58.0808 93.6149 58.1406 93.5322 58.1998 93.4493C59.6594 91.4093 65.9157 91.3767 67.3946 93.4027C72.2616 100.071 78.5951 100.166 84.7444 95.7193C90.6467 91.4509 92.7594 85.2472 87.8923 78.5793C87.0482 77.4229 89.563 70.4092 90.9468 70.0419C91.4666 69.904 91.9879 69.7507 92.5098 69.582C100.385 67.0351 102.433 61.0691 100.085 53.8737C97.8301 46.9673 92.5554 43.0503 84.6803 45.5972C84.5861 45.6277 84.4922 45.6585 84.3986 45.6897Z"/>
</mask>
<path fill-rule="evenodd" clip-rule="evenodd" d="M84.3986 45.6897C82.5584 46.3035 76.5418 41.9647 76.5418 40.0248C76.5418 31.7829 71.4745 28 63.8735 28C56.5778 28 51.2052 31.7829 51.2052 40.0248C51.2052 42.2914 45.627 46.3248 43.4751 45.613C43.4101 45.5914 43.3449 45.5701 43.2796 45.549C35.4045 43.0021 30.2241 46.6301 27.8753 53.8255C25.6208 60.7319 27.575 66.9869 35.4501 69.5338C37.6405 70.2422 39.4868 76.3242 38.0742 78.1418C37.8877 78.3818 37.7038 78.6259 37.5227 78.8741C32.6556 85.542 34.5213 91.5671 40.6706 96.0141C46.573 100.282 53.1534 100.365 58.0205 93.6975C58.0808 93.6149 58.1406 93.5322 58.1998 93.4493C59.6594 91.4093 65.9157 91.3767 67.3946 93.4027C72.2616 100.071 78.5951 100.166 84.7444 95.7193C90.6467 91.4509 92.7594 85.2472 87.8923 78.5793C87.0482 77.4229 89.563 70.4092 90.9468 70.0419C91.4666 69.904 91.9879 69.7507 92.5098 69.582C100.385 67.0351 102.433 61.0691 100.085 53.8737C97.8301 46.9673 92.5554 43.0503 84.6803 45.5972C84.5861 45.6277 84.4922 45.6585 84.3986 45.6897Z" fill="url(#paint6_linear_6_19)" fill-opacity="0.2"/>
<path d="M43.2796 45.549L42.9719 46.5005L43.2796 45.549ZM27.8753 53.8255L26.9247 53.5152H26.9247L27.8753 53.8255ZM37.5227 78.8741L36.715 78.2845L37.5227 78.8741ZM40.6706 96.0141L40.0846 96.8244L40.6706 96.0141ZM58.0205 93.6975L58.8282 94.2871L58.0205 93.6975ZM84.7444 95.7193L85.3304 96.5296L84.7444 95.7193ZM92.5098 69.582L92.202 68.6305L92.5098 69.582ZM100.085 53.8737L101.035 53.5634L100.085 53.8737ZM84.6803 45.5972L84.988 46.5487L84.6803 45.5972ZM90.9468 70.0419L91.2033 71.0085L90.9468 70.0419ZM38.0742 78.1418L37.2846 77.5282L38.0742 78.1418ZM84.3986 45.6897L84.715 46.6383L84.3986 45.6897ZM77.5418 40.0248C77.5418 35.6918 76.2023 32.3846 73.7234 30.1752C71.2639 27.9831 67.8262 27 63.8735 27V29C67.5218 29 70.4182 29.9084 72.3926 31.6682C74.3476 33.4107 75.5418 36.1159 75.5418 40.0248H77.5418ZM63.8735 27C60.065 27 56.6353 27.9871 54.1444 30.1696C51.6323 32.3707 50.2052 35.674 50.2052 40.0248H52.2052C52.2052 36.1337 53.4643 33.4246 55.4625 31.6738C57.4819 29.9044 60.3863 29 63.8735 29V27ZM43.7892 44.6636C43.7221 44.6413 43.6548 44.6193 43.5873 44.5975L42.9719 46.5005C43.0351 46.5209 43.0982 46.5415 43.1611 46.5624L43.7892 44.6636ZM43.5873 44.5975C39.4504 43.2596 35.8799 43.5053 33.0044 45.1682C30.1499 46.8191 28.1469 49.7708 26.9247 53.5152L28.8259 54.1358C29.9524 50.6848 31.7141 48.2248 34.0057 46.8995C36.2764 45.5864 39.2337 45.2915 42.9719 46.5005L43.5873 44.5975ZM26.9247 53.5152C25.747 57.1228 25.6301 60.6778 26.9467 63.7125C28.2741 66.772 30.9889 69.142 35.1424 70.4853L35.7579 68.5823C32.0363 67.3787 29.8364 65.3478 28.7815 62.9165C27.7159 60.4604 27.7491 57.4346 28.8259 54.1358L26.9247 53.5152ZM37.2846 77.5282C37.092 77.7761 36.902 78.0282 36.715 78.2845L38.3304 79.4636C38.5056 79.2236 38.6835 78.9875 38.8638 78.7555L37.2846 77.5282ZM36.715 78.2845C34.1572 81.7887 33.2869 85.2483 33.9882 88.4884C34.684 91.7034 36.8863 94.5115 40.0846 96.8244L41.2566 95.2037C38.3056 93.0697 36.5005 90.6417 35.9429 88.0654C35.3908 85.5142 36.0212 82.6273 38.3304 79.4636L36.715 78.2845ZM40.0846 96.8244C43.1668 99.0533 46.5243 100.261 49.8267 99.9526C53.1563 99.6418 56.2597 97.8059 58.8282 94.2871L57.2128 93.1079C54.9142 96.2569 52.2938 97.7136 49.6408 97.9612C46.9606 98.2114 44.0768 97.2432 41.2566 95.2037L40.0846 96.8244ZM58.8282 94.2871C58.8903 94.2019 58.952 94.1166 59.0131 94.0312L57.3866 92.8674C57.3291 92.9477 57.2712 93.0279 57.2128 93.1079L58.8282 94.2871ZM66.5868 93.9923C69.1449 97.4968 72.1797 99.387 75.4873 99.7239C78.7699 100.058 82.1316 98.8429 85.3304 96.5296L84.1584 94.909C81.2079 97.0427 78.3282 98.0029 75.69 97.7342C73.0768 97.4681 70.5113 95.9765 68.2023 92.8131L66.5868 93.9923ZM85.3304 96.5296C88.4121 94.301 90.6055 91.4944 91.3324 88.2689C92.0655 85.0161 91.2684 81.5083 88.7 77.9897L87.0846 79.1688C89.3833 82.3181 89.9635 85.2462 89.3814 87.8292C88.7931 90.4397 86.979 92.8692 84.1584 94.909L85.3304 96.5296ZM92.202 68.6305C91.6971 68.7938 91.1929 68.942 90.6903 69.0754L91.2033 71.0085C91.7403 70.8659 92.2787 70.7077 92.8175 70.5335L92.202 68.6305ZM99.134 54.184C100.261 57.6354 100.287 60.6547 99.2172 63.0652C98.1569 65.4533 95.9405 67.4215 92.202 68.6305L92.8175 70.5335C96.9541 69.1956 99.6996 66.9073 101.045 63.8768C102.381 60.8688 102.257 57.3074 101.035 53.5634L99.134 54.184ZM84.988 46.5487C88.7094 45.3451 91.6905 45.7005 93.9823 47.0518C96.297 48.4167 98.0573 50.8855 99.134 54.184L101.035 53.5634C99.8575 49.9555 97.8532 47.0126 94.9981 45.329C92.1202 43.632 88.5263 43.3023 84.3726 44.6457L84.988 46.5487ZM84.715 46.6383C84.8057 46.6081 84.8967 46.5782 84.988 46.5487L84.3726 44.6457C84.2755 44.6771 84.1787 44.7089 84.0822 44.7411L84.715 46.6383ZM88.7 77.9897C88.7793 78.0983 88.7318 78.1192 88.724 77.8648C88.7175 77.6518 88.7416 77.3525 88.8051 76.9747C88.9312 76.2237 89.1909 75.2864 89.5256 74.3518C89.8602 73.4174 90.2549 72.5275 90.6345 71.8658C90.8254 71.5329 90.997 71.2851 91.1378 71.1234C91.3058 70.9305 91.3309 70.9746 91.2033 71.0085L90.6903 69.0754C90.2167 69.2011 89.8606 69.5447 89.6294 69.8101C89.3711 70.1068 89.1258 70.4763 88.8996 70.8706C88.4449 71.6634 88.0042 72.6681 87.6427 73.6775C87.2812 74.6869 86.984 75.7427 86.8327 76.6435C86.7575 77.0916 86.7129 77.5328 86.7249 77.9262C86.7358 78.2781 86.7943 78.7711 87.0846 79.1688L88.7 77.9897ZM59.0131 94.0312C59.1956 93.7761 59.6199 93.48 60.3464 93.2497C61.047 93.0277 61.9091 92.9058 62.7951 92.9012C63.681 92.8967 64.5442 93.0098 65.2468 93.2246C65.9753 93.4475 66.4021 93.7392 66.5868 93.9923L68.2023 92.8131C67.6475 92.0532 66.7377 91.5892 65.8317 91.3121C64.8997 91.027 63.8302 90.8959 62.7848 90.9012C61.7394 90.9066 60.6713 91.0487 59.7422 91.3432C58.8389 91.6295 57.9339 92.1025 57.3866 92.8674L59.0131 94.0312ZM35.1424 70.4853C35.3635 70.5568 35.73 70.8368 36.1473 71.4714C36.5428 72.0731 36.8985 72.865 37.1566 73.713C37.4146 74.5609 37.5607 75.4179 37.5682 76.14C37.5761 76.9014 37.4289 77.3426 37.2846 77.5282L38.8638 78.7555C39.4259 78.0323 39.5776 77.0316 39.5681 76.1193C39.5583 75.1677 39.3707 74.1191 39.07 73.1307C38.7692 72.1424 38.3409 71.1674 37.8184 70.3727C37.3176 69.6109 36.632 68.865 35.7579 68.5823L35.1424 70.4853ZM50.2052 40.0248C50.2052 40.2332 50.0456 40.6809 49.5235 41.3241C49.0344 41.9267 48.3394 42.5628 47.5612 43.1254C46.783 43.688 45.9612 44.1486 45.2358 44.424C44.4615 44.718 43.9868 44.7289 43.7892 44.6636L43.1611 46.5624C44.0394 46.8529 45.069 46.6266 45.9457 46.2937C46.8715 45.9423 47.8476 45.3863 48.733 44.7462C49.6184 44.1061 50.4523 43.3534 51.0764 42.5845C51.6675 41.8562 52.2052 40.9497 52.2052 40.0248H50.2052ZM75.5418 40.0248C75.5418 40.5084 75.7224 40.9622 75.9294 41.3354C76.1439 41.7221 76.4351 42.1082 76.7617 42.4773C77.4158 43.2165 78.2852 43.9698 79.1952 44.626C80.1053 45.2822 81.0946 45.8692 82.0025 46.2562C82.4559 46.4495 82.9142 46.6038 83.3489 46.685C83.7684 46.7635 84.2561 46.7914 84.715 46.6383L84.0822 44.7411C84.0879 44.7392 84.064 44.7479 83.997 44.7486C83.9309 44.7493 83.8382 44.7419 83.7164 44.7191C83.4699 44.673 83.1562 44.5739 82.7868 44.4164C82.049 44.1019 81.1891 43.598 80.365 43.0038C79.5408 42.4095 78.7911 41.7528 78.2596 41.152C77.9934 40.8512 77.8002 40.5848 77.6784 40.3653C77.6183 40.2569 77.582 40.1713 77.5617 40.1083C77.5411 40.0444 77.5418 40.0189 77.5418 40.0248H75.5418Z" fill="url(#paint7_linear_6_19)" fill-opacity="0.75" mask="url(#path-7-outside-4_6_19)"/>
<g filter="url(#filter1_f_6_19)">
<mask id="path-9-outside-5_6_19" maskUnits="userSpaceOnUse" x="26" y="25" width="76" height="76" fill="black">
<rect fill="white" x="26" y="25" width="76" height="76"/>
<path fill-rule="evenodd" clip-rule="evenodd" d="M35.4501 68.8446C37.7178 69.6011 39.8881 76.1841 38.4991 78.1296C38.4731 78.166 38.4472 78.2024 38.4214 78.2389C33.5543 85.1172 35.42 91.3325 41.5693 95.9198C47.4716 100.323 54.0521 100.408 58.9192 93.5301C58.9805 93.4434 59.0413 93.3566 59.1017 93.2696C60.5998 91.1088 66.5294 91.0797 68.0481 93.2261C72.9152 100.104 79.2487 100.203 85.398 95.6158C91.3003 91.2127 93.413 84.8132 88.5459 77.9349C87.1985 76.0307 89.3886 69.8441 91.6232 69.1749C91.9184 69.0864 92.214 68.9929 92.5098 68.8942C100.385 66.267 102.433 60.1127 100.085 52.6902C97.8301 45.5658 92.5554 41.5252 84.6803 44.1525C82.8035 44.7786 76.5418 40.3828 76.5418 38.4043C76.5418 29.9023 71.4745 26 63.8735 26C56.5778 26 51.2052 29.9023 51.2052 38.4043C51.2052 40.7102 45.4669 44.8326 43.2796 44.1028C35.4045 41.4755 30.2241 45.2181 27.8753 52.6405C25.6208 59.7649 27.575 66.2173 35.4501 68.8446ZM62.351 59.9296C60.2567 59.9296 58.5588 61.6274 58.5588 63.7218C58.5588 65.8162 60.2567 67.514 62.351 67.514H62.4908C64.5851 67.514 66.283 65.8162 66.283 63.7218C66.283 61.6274 64.5851 59.9296 62.4908 59.9296H62.351Z"/>
</mask>
<path fill-rule="evenodd" clip-rule="evenodd" d="M35.4501 68.8446C37.7178 69.6011 39.8881 76.1841 38.4991 78.1296C38.4731 78.166 38.4472 78.2024 38.4214 78.2389C33.5543 85.1172 35.42 91.3325 41.5693 95.9198C47.4716 100.323 54.0521 100.408 58.9192 93.5301C58.9805 93.4434 59.0413 93.3566 59.1017 93.2696C60.5998 91.1088 66.5294 91.0797 68.0481 93.2261C72.9152 100.104 79.2487 100.203 85.398 95.6158C91.3003 91.2127 93.413 84.8132 88.5459 77.9349C87.1985 76.0307 89.3886 69.8441 91.6232 69.1749C91.9184 69.0864 92.214 68.9929 92.5098 68.8942C100.385 66.267 102.433 60.1127 100.085 52.6902C97.8301 45.5658 92.5554 41.5252 84.6803 44.1525C82.8035 44.7786 76.5418 40.3828 76.5418 38.4043C76.5418 29.9023 71.4745 26 63.8735 26C56.5778 26 51.2052 29.9023 51.2052 38.4043C51.2052 40.7102 45.4669 44.8326 43.2796 44.1028C35.4045 41.4755 30.2241 45.2181 27.8753 52.6405C25.6208 59.7649 27.575 66.2173 35.4501 68.8446ZM62.351 59.9296C60.2567 59.9296 58.5588 61.6274 58.5588 63.7218C58.5588 65.8162 60.2567 67.514 62.351 67.514H62.4908C64.5851 67.514 66.283 65.8162 66.283 63.7218C66.283 61.6274 64.5851 59.9296 62.4908 59.9296H62.351Z" fill="url(#paint8_radial_6_19)" fill-opacity="0.5"/>
<path d="M38.4214 78.2389L37.6051 77.6613L38.4214 78.2389ZM41.5693 95.9198L40.9713 96.7214H40.9713L41.5693 95.9198ZM58.9192 93.5301L59.7355 94.1077L58.9192 93.5301ZM85.398 95.6158L84.8 94.8143H84.8L85.398 95.6158ZM92.5098 68.8942L92.8262 69.8428L92.5098 68.8942ZM100.085 52.6902L101.038 52.3885L100.085 52.6902ZM27.8753 52.6405L28.8287 52.9422L27.8753 52.6405ZM91.6232 69.1749L91.91 70.1328L91.6232 69.1749ZM59.1017 93.2696L58.2799 92.6998L59.1017 93.2696ZM38.4991 78.1296L37.6852 77.5485L38.4991 78.1296ZM39.2377 78.8165C39.2627 78.7812 39.2878 78.7459 39.3129 78.7107L37.6852 77.5485C37.6584 77.586 37.6317 77.6236 37.6051 77.6613L39.2377 78.8165ZM42.1672 95.1183C39.2182 92.9183 37.4042 90.4084 36.8429 87.7331C36.2861 85.0792 36.9249 82.085 39.2377 78.8165L37.6051 77.6613C35.0508 81.2711 34.1889 84.8237 34.8855 88.1438C35.5776 91.4426 37.7711 94.334 40.9713 96.7214L42.1672 95.1183ZM58.1029 92.9525C55.7991 96.2083 53.1785 97.7058 50.5366 97.9601C47.867 98.2172 44.9886 97.223 42.1672 95.1183L40.9713 96.7214C44.0524 99.0198 47.4154 100.27 50.7283 99.9509C54.069 99.6293 57.1722 97.7303 59.7355 94.1077L58.1029 92.9525ZM58.2799 92.6998C58.2214 92.7842 58.1624 92.8684 58.1029 92.9525L59.7355 94.1077C59.7987 94.0184 59.8613 93.929 59.9235 93.8394L58.2799 92.6998ZM84.8 94.8143C81.8482 97.0163 78.9741 98.0021 76.3467 97.7261C73.7444 97.4526 71.1786 95.919 68.8644 92.6485L67.2318 93.8037C69.7847 97.4116 72.8193 99.3664 76.1377 99.7151C79.4312 100.061 82.7984 98.8027 85.9959 96.4174L84.8 94.8143ZM87.7296 78.5125C90.0324 81.7669 90.6204 84.8038 90.0335 87.4901C89.4415 90.2001 87.619 92.7113 84.8 94.8143L85.9959 96.4174C89.0793 94.1172 91.2643 91.2271 91.9874 87.917C92.7157 84.5832 91.9265 80.9812 89.3622 77.3572L87.7296 78.5125ZM92.1933 67.9456C91.9073 68.041 91.6216 68.1314 91.3363 68.2169L91.91 70.1328C92.2152 70.0414 92.5207 69.9448 92.8262 69.8428L92.1933 67.9456ZM99.1312 52.9919C100.261 56.5607 100.29 59.692 99.2126 62.1951C98.1464 64.6723 95.924 66.701 92.1933 67.9456L92.8262 69.8428C96.9706 68.4602 99.7101 66.0982 101.05 62.9858C102.378 59.8993 102.258 56.2422 101.038 52.3885L99.1312 52.9919ZM84.9968 45.1011C88.7115 43.8618 91.6834 44.2277 93.9705 45.6188C96.2855 47.0269 98.051 49.5783 99.1312 52.9919L101.038 52.3885C99.8638 48.6778 97.8647 45.6466 95.0099 43.9101C92.1272 42.1567 88.5243 41.8159 84.3638 43.2039L84.9968 45.1011ZM63.8735 27C67.5146 27 70.4065 27.9344 72.3812 29.75C74.3414 31.5523 75.5418 34.3557 75.5418 38.4043H77.5418C77.5418 33.9509 76.2086 30.5521 73.7349 28.2777C71.2757 26.0167 67.8334 25 63.8735 25V27ZM52.2052 38.4043C52.2052 34.3731 53.4712 31.566 55.474 29.7558C57.4937 27.9303 60.3937 27 63.8735 27V25C60.0577 25 56.6235 26.0208 54.1329 28.272C51.6255 30.5384 50.2052 33.9335 50.2052 38.4043H52.2052ZM28.8287 52.9422C29.9587 49.3714 31.7255 46.8291 34.0174 45.4618C36.2829 44.1103 39.2311 43.8063 42.9631 45.0514L43.5961 43.1542C39.453 41.772 35.8734 42.0257 32.9928 43.7442C30.1385 45.447 28.1407 48.4872 26.9219 52.3388L28.8287 52.9422ZM35.7666 67.896C32.0527 66.657 29.8467 64.5634 28.7859 62.0413C27.7135 59.4917 27.749 56.3541 28.8287 52.9422L26.9219 52.3388C25.7471 56.0514 25.6324 59.7022 26.9423 62.8167C28.2638 65.9586 30.9725 68.4049 35.1337 69.7932L35.7666 67.896ZM59.5588 63.7218C59.5588 62.1797 60.809 60.9296 62.351 60.9296V58.9296C59.7044 58.9296 57.5588 61.0751 57.5588 63.7218H59.5588ZM62.351 66.514C60.809 66.514 59.5588 65.2639 59.5588 63.7218H57.5588C57.5588 66.3685 59.7044 68.514 62.351 68.514V66.514ZM62.4908 66.514H62.351V68.514H62.4908V66.514ZM65.283 63.7218C65.283 65.2639 64.0329 66.514 62.4908 66.514V68.514C65.1374 68.514 67.283 66.3685 67.283 63.7218H65.283ZM62.4908 60.9296C64.0329 60.9296 65.283 62.1797 65.283 63.7218H67.283C67.283 61.0751 65.1374 58.9296 62.4908 58.9296V60.9296ZM62.351 60.9296H62.4908V58.9296H62.351V60.9296ZM50.2052 38.4043C50.2052 38.6194 50.039 39.0786 49.5004 39.7369C48.9959 40.3536 48.2797 41.0044 47.479 41.5799C46.6783 42.1554 45.8328 42.6271 45.0869 42.9093C44.2908 43.2104 43.8011 43.2226 43.5961 43.1542L42.9631 45.0514C43.8518 45.3479 44.8996 45.1185 45.7946 44.7799C46.7398 44.4223 47.739 43.8561 48.6463 43.204C49.5536 42.5518 50.4086 41.7854 51.0484 41.0033C51.6541 40.263 52.2052 39.3422 52.2052 38.4043H50.2052ZM84.3638 43.2039C84.3673 43.2027 84.3399 43.2121 84.2681 43.2129C84.1973 43.2137 84.0993 43.2061 83.9716 43.1827C83.7133 43.1355 83.3861 43.034 83.0019 42.8738C82.2348 42.5538 81.3403 42.0414 80.4832 41.4376C79.6258 40.8337 78.8449 40.1658 78.2907 39.5539C78.0132 39.2474 77.8115 38.9758 77.6844 38.7517C77.6216 38.641 77.5837 38.5535 77.5625 38.4892C77.5411 38.4241 77.5418 38.3981 77.5418 38.4043H75.5418C75.5418 38.8979 75.73 39.3598 75.9447 39.7384C76.1674 40.1309 76.4696 40.5224 76.8083 40.8965C77.4869 41.6457 78.3887 42.4086 79.3314 43.0727C80.2743 43.7369 81.2971 44.3297 82.2319 44.7196C82.6987 44.9143 83.1685 45.069 83.6119 45.1501C84.0394 45.2283 84.5341 45.2554 84.9968 45.1011L84.3638 43.2039ZM89.3622 77.3572C89.2246 77.1628 89.0958 76.7029 89.1423 75.916C89.1864 75.1708 89.3789 74.2911 89.6845 73.4241C89.9899 72.5573 90.3923 71.7489 90.8262 71.1361C91.2841 70.4896 91.6762 70.2029 91.91 70.1328L91.3363 68.2169C90.4528 68.4815 89.7332 69.2191 89.1941 69.9802C88.6311 70.7752 88.1511 71.7579 87.7982 72.7594C87.4453 73.7607 87.2033 74.8266 87.1458 75.7979C87.0908 76.7274 87.1935 77.7548 87.7296 78.5125L89.3622 77.3572ZM59.9235 93.8394C60.1298 93.5418 60.5592 93.2313 61.2446 92.9945C61.9135 92.7634 62.7311 92.6367 63.5721 92.6326C64.413 92.6285 65.2318 92.7473 65.9028 92.9718C66.5904 93.2019 67.0227 93.5082 67.2318 93.8037L68.8644 92.6485C68.3142 91.8708 67.4358 91.3758 66.5376 91.0752C65.6229 90.7691 64.5809 90.6277 63.5623 90.6327C62.5437 90.6376 61.5032 90.7892 60.5915 91.1042C59.6962 91.4135 58.8226 91.917 58.2799 92.6998L59.9235 93.8394ZM35.1337 69.7932C35.3758 69.874 35.7798 70.1928 36.2455 70.8941C36.6861 71.5577 37.0911 72.427 37.3959 73.3537C37.7008 74.2805 37.8904 75.2193 37.9287 76.0127C37.9692 76.8516 37.8318 77.3433 37.6852 77.5485L39.3129 78.7107C39.8609 77.9432 39.973 76.8824 39.9264 75.9163C39.8776 74.9046 39.6434 73.7855 39.2958 72.7288C38.9482 71.672 38.4723 70.6321 37.9116 69.7878C37.376 68.9812 36.6583 68.1935 35.7666 67.896L35.1337 69.7932Z" fill="url(#paint9_linear_6_19)" fill-opacity="0.75" mask="url(#path-9-outside-5_6_19)"/>
</g>
<mask id="path-11-outside-6_6_19" maskUnits="userSpaceOnUse" x="36" y="36" width="57" height="57" fill="black">
<rect fill="white" x="36" y="36" width="57" height="57"/>
<path fill-rule="evenodd" clip-rule="evenodd" d="M43.2805 68.8771C45.1759 69.5101 46.6423 73.9216 45.4889 75.5534C41.8714 80.671 43.2581 85.2952 47.8285 88.7083C52.2154 91.9843 57.1063 92.0479 60.7237 86.9303C60.77 86.8649 60.8158 86.7993 60.8613 86.7336C62.0159 85.0662 66.0193 85.0479 67.19 86.7041C70.8074 91.8217 75.5147 91.8951 80.0851 88.4821C84.472 85.2061 86.0422 80.4447 82.4248 75.3271C81.3727 73.8387 82.881 69.7279 84.6364 69.2371C84.9868 69.1391 85.3381 69.0315 85.6897 68.9141C91.5428 66.9593 93.0654 62.3805 91.3197 56.858C89.644 51.5573 85.7236 48.551 79.8705 50.5058C78.475 50.9719 73.8216 47.7003 73.8216 46.229C73.8216 39.9033 70.0553 37 64.406 37C58.9835 37 54.9903 39.9033 54.9903 46.229C54.9903 47.9429 50.7253 51.0117 49.0997 50.4688C43.2466 48.5141 39.3963 51.2986 37.6505 56.821C35.9749 62.1217 37.4274 66.9224 43.2805 68.8771ZM63.8298 59.9787C61.2916 59.9787 59.234 62.0363 59.234 64.5745C59.234 67.1126 61.2916 69.1702 63.8298 69.1702H64C66.5382 69.1702 68.5957 67.1126 68.5957 64.5745C68.5957 62.0363 66.5382 59.9787 64 59.9787H63.8298Z"/>
</mask>
<path fill-rule="evenodd" clip-rule="evenodd" d="M43.2805 68.8771C45.1759 69.5101 46.6423 73.9216 45.4889 75.5534C41.8714 80.671 43.2581 85.2952 47.8285 88.7083C52.2154 91.9843 57.1063 92.0479 60.7237 86.9303C60.77 86.8649 60.8158 86.7993 60.8613 86.7336C62.0159 85.0662 66.0193 85.0479 67.19 86.7041C70.8074 91.8217 75.5147 91.8951 80.0851 88.4821C84.472 85.2061 86.0422 80.4447 82.4248 75.3271C81.3727 73.8387 82.881 69.7279 84.6364 69.2371C84.9868 69.1391 85.3381 69.0315 85.6897 68.9141C91.5428 66.9593 93.0654 62.3805 91.3197 56.858C89.644 51.5573 85.7236 48.551 79.8705 50.5058C78.475 50.9719 73.8216 47.7003 73.8216 46.229C73.8216 39.9033 70.0553 37 64.406 37C58.9835 37 54.9903 39.9033 54.9903 46.229C54.9903 47.9429 50.7253 51.0117 49.0997 50.4688C43.2466 48.5141 39.3963 51.2986 37.6505 56.821C35.9749 62.1217 37.4274 66.9224 43.2805 68.8771ZM63.8298 59.9787C61.2916 59.9787 59.234 62.0363 59.234 64.5745C59.234 67.1126 61.2916 69.1702 63.8298 69.1702H64C66.5382 69.1702 68.5957 67.1126 68.5957 64.5745C68.5957 62.0363 66.5382 59.9787 64 59.9787H63.8298Z" fill="url(#paint10_radial_6_19)" fill-opacity="0.75"/>
<path d="M47.8285 88.7083L48.4269 87.907L47.8285 88.7083ZM60.7237 86.9303L59.9071 86.3531L60.7237 86.9303ZM80.0851 88.4821L80.6834 89.2833L80.0851 88.4821ZM85.6897 68.9141L85.3729 67.9656L85.6897 68.9141ZM91.3197 56.858L92.2732 56.5566L91.3197 56.858ZM37.6505 56.821L38.604 57.1224L37.6505 56.821ZM84.6364 69.2371L84.3671 68.274L84.6364 69.2371ZM60.8613 86.7336L60.0392 86.1644L60.8613 86.7336ZM48.4269 87.907C46.2673 86.2944 44.9675 84.4758 44.567 82.5649C44.1709 80.6752 44.6174 78.5187 46.3055 76.1306L44.6723 74.9761C42.7429 77.7056 42.074 80.42 42.6095 82.9752C43.1406 85.509 44.8193 87.7092 47.2302 89.5095L48.4269 87.907ZM59.9071 86.3531C58.228 88.7286 56.3422 89.7909 54.4687 89.9715C52.5675 90.1548 50.4905 89.4481 48.4269 87.907L47.2302 89.5095C49.5534 91.2445 52.1153 92.2076 54.6606 91.9623C57.2336 91.7143 59.602 90.2497 61.5403 87.5075L59.9071 86.3531ZM60.0392 86.1644C59.9955 86.2274 59.9515 86.2903 59.9071 86.3531L61.5403 87.5075C61.5884 87.4394 61.6361 87.3712 61.6835 87.3029L60.0392 86.1644ZM79.4868 87.6808C77.3244 89.2956 75.2516 89.9939 73.3848 89.7976C71.5429 89.6038 69.6961 88.517 68.0066 86.1269L66.3734 87.2813C68.3013 90.0087 70.6168 91.5174 73.1756 91.7866C75.7093 92.0531 78.2754 91.0815 80.6834 89.2833L79.4868 87.6808ZM81.6082 75.9043C83.2863 78.2784 83.6977 80.4658 83.2796 82.382C82.8563 84.3216 81.5479 86.1416 79.4868 87.6808L80.6834 89.2833C83.0091 87.5465 84.6794 85.3478 85.2336 82.8084C85.7929 80.2455 85.1807 77.4935 83.2414 74.7499L81.6082 75.9043ZM85.3729 67.9656C85.037 68.0778 84.7016 68.1805 84.3671 68.274L84.9056 70.2002C85.272 70.0977 85.6392 69.9853 86.0065 69.8626L85.3729 67.9656ZM90.3662 57.1595C91.194 59.7783 91.2043 62.0411 90.4356 63.8289C89.678 65.5908 88.0924 67.0574 85.3729 67.9656L86.0065 69.8626C89.1401 68.8161 91.2423 67.0158 92.2729 64.619C93.2923 62.2481 93.191 59.4602 92.2732 56.5566L90.3662 57.1595ZM80.1873 51.4543C82.8907 50.5514 85.0183 50.8269 86.6416 51.8152C88.2928 52.8207 89.5752 54.6575 90.3662 57.1595L92.2732 56.5566C91.3884 53.7579 89.8728 51.4412 87.6817 50.107C85.4626 48.7558 82.7034 48.5054 79.5537 49.5573L80.1873 51.4543ZM64.406 38C67.071 38 69.1496 38.6846 70.5551 39.9782C71.9463 41.2586 72.8216 43.2683 72.8216 46.229H74.8216C74.8216 42.8641 73.8138 40.2593 71.9095 38.5066C70.0195 36.7671 67.3903 36 64.406 36V38ZM55.9903 46.229C55.9903 43.2857 56.9117 41.2723 58.3356 39.9839C59.7763 38.6804 61.8629 38 64.406 38V36C61.5265 36 58.9053 36.7713 56.9938 38.5009C55.0655 40.2456 53.9903 42.8467 53.9903 46.229H55.9903ZM38.604 57.1224C39.4326 54.5014 40.7163 52.6737 42.3476 51.6995C43.9522 50.7412 46.0621 50.5086 48.7829 51.4173L49.4165 49.5203C46.2842 48.4742 43.5423 48.6565 41.3221 49.9824C39.1285 51.2924 37.6142 53.6182 36.6971 56.5196L38.604 57.1224ZM43.5973 67.9286C40.8946 67.026 39.3193 65.5138 38.5642 63.7164C37.7974 61.8915 37.8137 59.6226 38.604 57.1224L36.6971 56.5196C35.8118 59.3201 35.7164 62.1019 36.7203 64.4911C37.7358 66.908 39.8133 68.7735 42.9637 69.8256L43.5973 67.9286ZM60.234 64.5745C60.234 62.5886 61.8439 60.9787 63.8298 60.9787V58.9787C60.7393 58.9787 58.234 61.484 58.234 64.5745H60.234ZM63.8298 68.1702C61.8439 68.1702 60.234 66.5603 60.234 64.5745H58.234C58.234 67.6649 60.7393 70.1702 63.8298 70.1702V68.1702ZM64 68.1702H63.8298V70.1702H64V68.1702ZM67.5957 64.5745C67.5957 66.5603 65.9859 68.1702 64 68.1702V70.1702C67.0904 70.1702 69.5957 67.6649 69.5957 64.5745H67.5957ZM64 60.9787C65.9859 60.9787 67.5957 62.5886 67.5957 64.5745H69.5957C69.5957 61.484 67.0904 58.9787 64 58.9787V60.9787ZM63.8298 60.9787H64V58.9787H63.8298V60.9787ZM53.9903 46.229C53.9903 46.2962 53.916 46.5787 53.5243 47.058C53.1666 47.4956 52.652 47.9651 52.0705 48.3835C51.489 48.802 50.8803 49.1409 50.3516 49.3413C49.7725 49.5607 49.4806 49.5417 49.4165 49.5203L48.7829 51.4173C49.5316 51.6673 50.3824 51.4684 51.0602 51.2115C51.7884 50.9356 52.5507 50.502 53.2387 50.0069C53.9267 49.5118 54.5799 48.9266 55.0727 48.3238C55.5315 47.7626 55.9903 47.0188 55.9903 46.229H53.9903ZM79.5537 49.5573C79.6075 49.5393 79.574 49.5662 79.3899 49.5325C79.2218 49.5018 78.9969 49.4331 78.722 49.3183C78.1734 49.0892 77.5251 48.7182 76.8991 48.2767C76.2729 47.8351 75.708 47.3503 75.312 46.9127C75.1136 46.6933 74.9766 46.5066 74.8943 46.3613C74.8041 46.2023 74.8216 46.1669 74.8216 46.229H72.8216C72.8216 46.659 72.9844 47.0477 73.1542 47.3474C73.3319 47.6609 73.5693 47.9674 73.8289 48.2544C74.3491 48.8294 75.0348 49.4092 75.7464 49.9111C76.4581 50.4131 77.2348 50.8646 77.9512 51.1638C78.3088 51.3132 78.6764 51.4352 79.0299 51.4999C79.3674 51.5616 79.7846 51.5888 80.1873 51.4543L79.5537 49.5573ZM83.2414 74.7499C83.1584 74.6326 83.0617 74.3519 83.079 73.8513C83.0956 73.3739 83.2133 72.8098 83.4173 72.2506C83.6211 71.6916 83.8951 71.1814 84.1914 70.8007C84.5021 70.4015 84.7611 70.2406 84.9056 70.2002L84.3671 68.274C83.6339 68.479 83.0462 69.016 82.6132 69.5722C82.1659 70.1468 81.7994 70.8493 81.5383 71.5654C81.2772 72.2813 81.1055 73.0547 81.0802 73.782C81.0558 74.4861 81.1651 75.2775 81.6082 75.9043L83.2414 74.7499ZM61.6835 87.3029C61.8209 87.1044 62.0913 86.8926 62.5264 86.728C62.9544 86.5661 63.4789 86.475 64.0242 86.4725C64.5695 86.47 65.0949 86.5562 65.5245 86.7141C65.9614 86.8747 66.2339 87.084 66.3734 87.2813L68.0066 86.1269C67.5607 85.4961 66.8938 85.0866 66.2146 84.8369C65.5283 84.5846 64.7611 84.469 64.015 84.4725C63.2688 84.476 62.5028 84.5986 61.8188 84.8573C61.142 85.1134 60.479 85.5292 60.0392 86.1644L61.6835 87.3029ZM42.9637 69.8256C43.16 69.8912 43.454 70.1019 43.78 70.548C44.094 70.9775 44.3755 71.5421 44.5788 72.1553C44.782 72.7686 44.893 73.3884 44.897 73.9183C44.9011 74.4686 44.7902 74.8094 44.6723 74.9761L46.3055 76.1306C46.7643 75.4815 46.9026 74.6589 46.8969 73.9033C46.8911 73.1274 46.7333 72.2988 46.4772 71.5261C46.2211 70.7533 45.8527 69.9944 45.3947 69.3678C44.9487 68.7576 44.3488 68.1796 43.5973 67.9286L42.9637 69.8256Z" fill="url(#paint11_linear_6_19)" mask="url(#path-11-outside-6_6_19)"/>
<g filter="url(#filter2_i_6_19)">
<rect x="59" y="61" width="8" height="8" rx="4" fill="url(#paint12_linear_6_19)"/>
</g>
<rect x="58.5" y="60.5" width="9" height="9" rx="4.5" stroke="#CC6403"/>
<rect x="58.5" y="60.5" width="9" height="9" rx="4.5" stroke="#CC6403"/>
<defs>
<filter id="filter0_f_6_19" x="26" y="23" width="78.4385" height="81.0002" filterUnits="userSpaceOnUse" color-interpolation-filters="sRGB">
<feFlood flood-opacity="0" result="BackgroundImageFix"/>
<feBlend mode="normal" in="SourceGraphic" in2="BackgroundImageFix" result="shape"/>
<feGaussianBlur stdDeviation="2" result="effect1_foregroundBlur_6_19"/>
</filter>
<filter id="filter1_f_6_19" x="22" y="21" width="84" height="83.0001" filterUnits="userSpaceOnUse" color-interpolation-filters="sRGB">
<feFlood flood-opacity="0" result="BackgroundImageFix"/>
<feBlend mode="normal" in="SourceGraphic" in2="BackgroundImageFix" result="shape"/>
<feGaussianBlur stdDeviation="2" result="effect1_foregroundBlur_6_19"/>
</filter>
<filter id="filter2_i_6_19" x="58" y="60" width="10" height="12" filterUnits="userSpaceOnUse" color-interpolation-filters="sRGB">
<feFlood flood-opacity="0" result="BackgroundImageFix"/>
<feBlend mode="normal" in="SourceGraphic" in2="BackgroundImageFix" result="shape"/>
<feColorMatrix in="SourceAlpha" type="matrix" values="0 0 0 0 0 0 0 0 0 0 0 0 0 0 0 0 0 0 127 0" result="hardAlpha"/>
<feOffset dy="2"/>
<feGaussianBlur stdDeviation="2"/>
<feComposite in2="hardAlpha" operator="arithmetic" k2="-1" k3="1"/>
<feColorMatrix type="matrix" values="0 0 0 0 0 0 0 0 0 0 0 0 0 0 0 0 0 0 0.38 0"/>
<feBlend mode="normal" in2="shape" result="effect1_innerShadow_6_19"/>
</filter>
<linearGradient id="paint0_linear_6_19" x1="8" y1="9" x2="115.001" y2="120.001" gradientUnits="userSpaceOnUse">
<stop stop-color="#FFE0C2"/>
<stop offset="0.215" stop-color="#F7F5F4"/>
<stop offset="0.75" stop-color="#D9AA7D"/>
<stop offset="1" stop-color="#998675"/>
</linearGradient>
<linearGradient id="paint1_linear_6_19" x1="102.744" y1="24.6698" x2="27.1349" y2="103.106" gradientUnits="userSpaceOnUse">
<stop stop-color="#E5D7B3"/>
<stop offset="0.52" stop-color="#716355"/>
<stop offset="1" stop-color="#E5D7B3"/>
</linearGradient>
<linearGradient id="paint2_linear_6_19" x1="18" y1="18" x2="107.012" y2="110.012" gradientUnits="userSpaceOnUse">
<stop stop-color="#FFE0C2"/>
<stop offset="0.215" stop-color="#F7F5F4"/>
<stop offset="0.75" stop-color="#D9AA7D"/>
<stop offset="1" stop-color="#998675"/>
</linearGradient>
<linearGradient id="paint3_linear_6_19" x1="118.055" y1="11.2374" x2="14.3186" y2="121.46" gradientUnits="userSpaceOnUse">
<stop stop-color="#E5D7B3"/>
<stop offset="0.5" stop-color="#915C2B"/>
<stop offset="1" stop-color="#E5D7B3"/>
</linearGradient>
<radialGradient id="paint4_radial_6_19" cx="0" cy="0" r="1" gradientUnits="userSpaceOnUse" gradientTransform="translate(65.2867 63.2799) rotate(-90) scale(37.2937 38.4739)">
<stop offset="0.745" stop-color="#BC814A"/>
<stop offset="1" stop-color="#A46D3A"/>
</radialGradient>
<linearGradient id="paint5_linear_6_19" x1="99.2806" y1="28.0002" x2="29.4376" y2="97.0941" gradientUnits="userSpaceOnUse">
<stop stop-color="white"/>
<stop offset="0.5" stop-color="#7C4D21"/>
<stop offset="1" stop-color="white"/>
</linearGradient>
<linearGradient id="paint6_linear_6_19" x1="27" y1="28" x2="97.9878" y2="101.987" gradientUnits="userSpaceOnUse">
<stop stop-color="#DBC7B4"/>
<stop offset="0.215" stop-color="#DDB590"/>
<stop offset="0.75" stop-color="#C89E76"/>
<stop offset="1" stop-color="#A98666"/>
</linearGradient>
<linearGradient id="paint7_linear_6_19" x1="90.1629" y1="38.3977" x2="40.0013" y2="90.6788" gradientUnits="userSpaceOnUse">
<stop stop-color="#E2D4C7"/>
<stop offset="0.52" stop-color="#9A7D62"/>
<stop offset="1" stop-color="#E2D4C7"/>
</linearGradient>
<radialGradient id="paint8_radial_6_19" cx="0" cy="0" r="1" gradientUnits="userSpaceOnUse" gradientTransform="translate(58.2954 56.6206) rotate(-90) scale(32.3685 35.1172)">
<stop offset="0.745" stop-color="#CEB49C"/>
<stop offset="1" stop-color="#B08964"/>
</radialGradient>
<linearGradient id="paint9_linear_6_19" x1="80.3193" y1="35.0245" x2="36.7491" y2="79.1916" gradientUnits="userSpaceOnUse">
<stop stop-color="#E5D7B3"/>
<stop offset="0.52" stop-color="#9A7D62"/>
<stop offset="1" stop-color="#E5D7B3"/>
</linearGradient>
<radialGradient id="paint10_radial_6_19" cx="0" cy="0" r="1" gradientUnits="userSpaceOnUse" gradientTransform="translate(64.5 64) rotate(44.4744) scale(26.318 26.3135)">
<stop stop-color="#FB7F0B"/>
<stop offset="0.43" stop-color="#E67912"/>
<stop offset="0.605" stop-color="#D68A43"/>
<stop offset="1" stop-color="#E7B484"/>
</radialGradient>
<linearGradient id="paint11_linear_6_19" x1="64.5" y1="37" x2="64.5" y2="91" gradientUnits="userSpaceOnUse">
<stop stop-color="#F3D5B8"/>
<stop offset="0.6" stop-color="#CA9768"/>
</linearGradient>
<linearGradient id="paint12_linear_6_19" x1="63" y1="61" x2="63" y2="69" gradientUnits="userSpaceOnUse">
<stop stop-color="white" stop-opacity="0.31"/>
<stop offset="1" stop-color="white" stop-opacity="0"/>
</linearGradient>
</defs>
</svg>
